<svg xmlns="http://www.w3.org/2000/svg" xmlns:xlink="http://www.w3.org/1999/xlink" viewBox="0 0 211.33 211.79"><defs><style>.cls-1{fill:#e9deba;}.cls-2{fill:url(#linear-gradient);}.cls-3{fill:#ffce4e;}.cls-4{fill:#d16919;}.cls-5{fill:#ffe57b;}.cls-6{fill:#af3a00;}.cls-7{fill:#d2ad9d;}.cls-8{fill:#ddbfab;}.cls-9{fill:#e7d9cf;}.cls-10{fill:#f7ebb9;}.cls-11{fill:#fff9ce;}.cls-12{fill:#d4c8c4;}.cls-13{fill:#c5b2b0;}.cls-14{fill:#af7255;}.cls-15{fill:#a3654d;}.cls-16{fill:#d4dad9;}.cls-17{fill:#fff;}.cls-18{fill:#cccece;}.cls-19{fill:url(#linear-gradient-2);}.cls-20{fill:url(#linear-gradient-3);}.cls-21{fill:#e8e7e6;}.cls-22{fill:#694731;}.cls-23{fill:#47221a;}.cls-24{fill:#632f24;}.cls-25{fill:#55281f;}.cls-26{fill:#7a3f31;}.cls-27{fill:#b38a81;}.cls-28{fill:#eeb458;}.cls-29{fill:url(#linear-gradient-4);}.cls-30{fill:#be9963;}.cls-31{fill:#708f39;}.cls-32{fill:#80a23e;}.cls-33{fill:#f2dfbf;}.cls-34{fill:#f2d6ab;}.cls-35{fill:#fae6c5;}.cls-36{fill:#743d2c;}.cls-37{fill:#c6c6c3;}.cls-38{fill:#c1c0be;}.cls-39{fill:#d1d1cf;}.cls-40{fill:url(#linear-gradient-5);}.cls-41{fill:#d7d6d7;}.cls-42{fill:#f7f3e8;}.cls-43{fill:#e9e6db;}.cls-44{fill:#77b33e;}.cls-45{fill:#629738;}.cls-46{fill:url(#linear-gradient-6);}.cls-47{fill:url(#linear-gradient-7);}.cls-48{fill:url(#linear-gradient-8);}.cls-49,.cls-73,.cls-76{opacity:0.5;}.cls-49{fill:url(#linear-gradient-9);}.cls-50{fill:#fba46b;}.cls-51{fill:#eb561e;}.cls-52{fill:url(#linear-gradient-10);}.cls-53{fill:#ea652a;}.cls-54{fill:url(#linear-gradient-11);}.cls-55{fill:url(#linear-gradient-12);}.cls-56{fill:#ebab68;}.cls-57{fill:url(#linear-gradient-13);}.cls-58{fill:#bc5727;}.cls-59{fill:url(#linear-gradient-15);}.cls-60{fill:url(#linear-gradient-16);}.cls-61{fill:url(#linear-gradient-17);}.cls-62{fill:#eba967;}.cls-63{fill:url(#linear-gradient-18);}.cls-64{fill:#feaa00;opacity:0.7;}.cls-65{fill:#d8730a;}.cls-66{fill:url(#radial-gradient);}.cls-67{fill:#594d69;}.cls-68{fill:#937ead;}.cls-69{fill:#78678d;}.cls-70{fill:#554964;}.cls-71{fill:#665d7f;}.cls-72{fill:#8ec726;}.cls-74{fill:#fa4247;}.cls-75{fill:#fc5960;}.cls-76{fill:#d60904;}.cls-77{fill:#fe95a1;}.cls-78{fill:#ffbccc;}.cls-79{fill:#ac1816;}.cls-80{fill:#383244;}.cls-81{fill:#473d53;}.cls-82{fill:#51455f;}.cls-83{fill:#3c3347;}.cls-84{fill:#fcce87;}.cls-85{fill:#d62b27;}.cls-86{fill:url(#linear-gradient-19);}.cls-87{fill:#fa585d;}.cls-88{fill:#a35e4b;}.cls-89{fill:#944e3e;}.cls-90{fill:#803d2c;}.cls-91{fill:#6d2f22;}.cls-92{fill:#c2806f;}.cls-93{fill:#e68402;}</style><linearGradient id="linear-gradient" x1="70.94" y1="113.59" x2="70.94" y2="29.93" gradientTransform="translate(-23.84)" gradientUnits="userSpaceOnUse"><stop offset="0" stop-color="#ffea8a"/><stop offset="0.29" stop-color="#f5af00"/><stop offset="0.42" stop-color="#ef9b00"/><stop offset="0.65" stop-color="#e77d00"/><stop offset="1" stop-color="#c94e00"/></linearGradient><linearGradient id="linear-gradient-2" x1="58" y1="55.36" x2="131.45" y2="55.36" gradientUnits="userSpaceOnUse"><stop offset="0" stop-color="#fcfcfb"/><stop offset="0.64" stop-color="#f3f2f3"/><stop offset="1" stop-color="#eceaed"/></linearGradient><linearGradient id="linear-gradient-3" x1="63.13" y1="44.93" x2="125.69" y2="44.93" xlink:href="#linear-gradient-2"/><linearGradient id="linear-gradient-4" x1="138.93" y1="51.43" x2="169.43" y2="126.22" gradientUnits="userSpaceOnUse"><stop offset="0" stop-color="#ac6a46"/><stop offset="1" stop-color="#632f24"/></linearGradient><linearGradient id="linear-gradient-5" x1="87.77" y1="-330.48" x2="130.61" y2="-371.54" gradientTransform="translate(-73.56 453.23) rotate(0.49)" xlink:href="#linear-gradient-2"/><linearGradient id="linear-gradient-6" x1="1046.29" y1="181.4" x2="1060.76" y2="213.31" gradientTransform="translate(-716.56 -412.05) rotate(21.57)" gradientUnits="userSpaceOnUse"><stop offset="0" stop-color="#e1171b"/><stop offset="1" stop-color="#b82423"/></linearGradient><linearGradient id="linear-gradient-7" x1="207.96" y1="138.54" x2="216.23" y2="173.85" gradientTransform="translate(-23.84)" gradientUnits="userSpaceOnUse"><stop offset="0" stop-color="#c60f11"/><stop offset="1" stop-color="#a21716"/></linearGradient><linearGradient id="linear-gradient-8" x1="207.22" y1="143.55" x2="219.73" y2="173.54" gradientTransform="translate(-23.84)" gradientUnits="userSpaceOnUse"><stop offset="0" stop-color="#f02329"/><stop offset="1" stop-color="#dc3635"/></linearGradient><linearGradient id="linear-gradient-9" x1="220.48" y1="171.54" x2="208.53" y2="143.76" gradientTransform="translate(-23.84)" gradientUnits="userSpaceOnUse"><stop offset="0" stop-color="#fc3f42"/><stop offset="1" stop-color="#f86155"/></linearGradient><linearGradient id="linear-gradient-10" x1="205.53" y1="152.12" x2="207.72" y2="152.12" gradientTransform="translate(-23.84)" gradientUnits="userSpaceOnUse"><stop offset="0" stop-color="#fea056"/><stop offset="1" stop-color="#fdaa5b"/></linearGradient><linearGradient id="linear-gradient-11" x1="213.54" y1="152.2" x2="215.53" y2="152.2" xlink:href="#linear-gradient-10"/><linearGradient id="linear-gradient-12" x1="78.89" y1="178.03" x2="183.47" y2="178.03" gradientTransform="translate(-23.84)" gradientUnits="userSpaceOnUse"><stop offset="0.15" stop-color="#ffd891"/><stop offset="1" stop-color="#f7c179"/></linearGradient><linearGradient id="linear-gradient-13" x1="188.02" y1="155.13" x2="63.66" y2="186.1" gradientTransform="translate(-23.84)" gradientUnits="userSpaceOnUse"><stop offset="0.08" stop-color="#bc5727"/><stop offset="0.98" stop-color="#f9a73f"/></linearGradient><linearGradient id="linear-gradient-15" x1="83.13" y1="161.53" x2="187.7" y2="161.53" xlink:href="#linear-gradient-12"/><linearGradient id="linear-gradient-16" x1="188.49" y1="141.38" x2="67.5" y2="168" xlink:href="#linear-gradient-13"/><linearGradient id="linear-gradient-17" x1="79.46" y1="147.63" x2="184.03" y2="147.63" xlink:href="#linear-gradient-12"/><linearGradient id="linear-gradient-18" x1="151.12" y1="121.73" x2="41.64" y2="167.51" gradientTransform="matrix(1, 0, 0, 1, 0, 0)" xlink:href="#linear-gradient-13"/><radialGradient id="radial-gradient" cx="-788.64" cy="-303.63" r="19.85" gradientTransform="matrix(0.91, 0.46, -0.47, 0.94, 675.03, 751.19)" gradientUnits="userSpaceOnUse"><stop offset="0" stop-color="#473d53"/><stop offset="1" stop-color="#383244"/></radialGradient><linearGradient id="linear-gradient-19" x1="146.23" y1="195.09" x2="151.03" y2="210.64" gradientTransform="translate(210.23 -40.98) rotate(50.36)" gradientUnits="userSpaceOnUse"><stop offset="0" stop-color="#fa585d"/><stop offset="1" stop-color="#d62b27"/></linearGradient></defs><title>composition_5</title><g id="Layer_2" data-name="Layer 2"><g id="Layer_3" data-name="Layer 3"><g id="_Group_" data-name="&lt;Group&gt;"><g id="_Group_2" data-name="&lt;Group&gt;"><path id="_Path_" data-name="&lt;Path&gt;" class="cls-1" d="M24.1,22S0,37.65,0,62.75s22.39,41.52,27.14,42.62c7.62,1.77,30.62,2.11,38.37.36,4.69-1.06,28.7-16.93,28.7-42.34,0-27.87-28.41-41.28-28.41-41.28Z"/><path id="_Path_2" data-name="&lt;Path&gt;" class="cls-2" d="M25.71,24.92S3.29,39.34,3.29,62.4s20.83,38.15,25.25,39.16c7.08,1.62,28.47,1.93,35.68.33,4.36-1,26.7-15.55,26.7-38.9,0-25.61-26.43-37.93-26.43-37.93Z"/><g id="_Group_3" data-name="&lt;Group&gt;"><path id="_Path_3" data-name="&lt;Path&gt;" class="cls-3" d="M46.66,43.3c-13.92-.15-26,11.16-26.14,25.23-.11,14.53,12.64,26,26.7,25.6,13.22-.42,24.81-11.32,25-25C72.43,55,60.57,43.46,46.66,43.3Z"/><polygon id="_Path_4" data-name="&lt;Path&gt;" class="cls-4" points="39.25 55.29 42.35 50.26 51.56 50.38 54.44 55.46 60.31 55.46 64.77 63.38 61.83 68.92 64.82 74.12 60.36 81.41 54.27 81.47 51.27 86.61 42.41 86.55 39.31 81.41 33.43 81.24 28.97 73.83 31.91 68.41 28.52 62.76 32.98 55.46 39.25 55.29"/><path id="_Compound_Path_" data-name="&lt;Compound Path&gt;" class="cls-5" d="M66.17,62.37l-4.4-7.63h-7l-3.5-6.05h-8.8L39,54.74h-7l-4.4,7.63L31,68.44,27.54,74.5l4.4,7.63h7l3.5,6.08h8.8l3.51-6.08h7l4.4-7.63-3.5-6.06Zm-2.71,0-3,5.26H54.31l-3-5.25,3.06-5.29h6.07ZM52.94,68.43l-3,5.28H43.8l-3-5.27,3-5.25h6.13ZM43.81,51H49.9l3,5.27-3,5.27H43.8l-3-5.26ZM33.29,57.09h6.08l3.05,5.29-3,5.24H33.27l-3-5.25ZM30.24,74.5l3-5.25h6.12l3,5.26-3,5.27H33.29ZM49.9,85.86H43.81l-3-5.28,3-5.26h6.12l3,5.26Zm10.51-6.08H54.32l-3-5.27,3-5.26h6.11l3,5.25Z"/></g><path id="_Path_5" data-name="&lt;Path&gt;" class="cls-6" d="M18.63,26.45S27,37.66,45.79,37.66c21,0,27.94-11.88,27.94-11.88Z"/><path id="_Path_6" data-name="&lt;Path&gt;" class="cls-7" d="M16.74,9.38V26.1s25.48,14.07,58.58.29V10Z"/><path id="_Path_7" data-name="&lt;Path&gt;" class="cls-8" d="M20.05,9.64s.16,11.52.32,18.1a69.83,69.83,0,0,0,28,4.66c.21-8.52.08-16.08.08-16.08Z"/><path id="_Path_8" data-name="&lt;Path&gt;" class="cls-9" d="M16.74,9.38A53.07,53.07,0,0,1,46.33,0a48.28,48.28,0,0,1,29,10S66.53,22.29,44.57,22.29A37.08,37.08,0,0,1,16.74,9.38Z"/><path id="_Path_9" data-name="&lt;Path&gt;" class="cls-10" d="M23,15.16a36.49,36.49,0,0,0,21.58,7.13c11.21,0,19-3.21,23.91-6.35l.08-.11C44.55,26.67,26.36,17.15,23,15.16Z"/><path id="_Path_10" data-name="&lt;Path&gt;" class="cls-11" d="M19.3,36.43c-4.22-1-11.6,13.13-8.79,14.26C13.15,51.74,22.22,37.16,19.3,36.43Z"/><path id="_Path_11" data-name="&lt;Path&gt;" class="cls-11" d="M9.11,54.21c-2.64-.21-3.87,8.62-.88,9S11.39,54.38,9.11,54.21Z"/></g><g id="_Group_4" data-name="&lt;Group&gt;"><g id="_Group_5" data-name="&lt;Group&gt;"><g id="_Group_6" data-name="&lt;Group&gt;"><path id="_Path_12" data-name="&lt;Path&gt;" class="cls-12" d="M63,64.84s10.37,54.7,11.5,56.4,41.58,1.83,42.86-.22c.94-1.51,9.11-58.69,9.11-58.69Z"/><path id="_Path_13" data-name="&lt;Path&gt;" class="cls-13" d="M64,70.08c3.85,3.13,19.13,9.46,44.61,6.45l-1.68,45.8c5.73-.23,10-.66,10.43-1.31.94-1.51,9.11-58.69,9.11-58.69L63,64.84Z"/><path id="_Path_14" data-name="&lt;Path&gt;" class="cls-14" d="M71.56,108.69c10.18,2.72,36.78,3.31,47.92.36,1.53-9.64,3.54-23.17,5-33.19-17.22,9.86-44.61,6.82-59.09,1.68C67.19,86.84,69.64,99.41,71.56,108.69Z"/><path id="_Path_15" data-name="&lt;Path&gt;" class="cls-15" d="M119.48,109.05c1.53-9.64,3.54-23.17,5-33.19a49,49,0,0,1-16.09,5.44l-1.07,29.42A67.66,67.66,0,0,0,119.48,109.05Z"/><path id="_Path_16" data-name="&lt;Path&gt;" class="cls-16" d="M57.65,62.89S66.2,74,95,74c27,0,37.13-10.88,37.13-10.88s-.57-5.65-.76-7.31c-6-3.29-22.17-4.39-37.68-4.26C79.94,51.67,64,52.27,58,55.48,57.74,58.31,57.65,62.89,57.65,62.89Z"/><path id="_Path_17" data-name="&lt;Path&gt;" class="cls-17" d="M59.2,57.18S67.47,71.07,94.52,69.1C94.52,69.1,71.61,64.5,59.2,57.18Z"/><path id="_Path_18" data-name="&lt;Path&gt;" class="cls-18" d="M132.15,63.12s-.57-5.65-.76-7.31a25.86,25.86,0,0,0-6.91-2.21l-14.84,7.76.92,11.27C126,69.71,132.15,63.12,132.15,63.12Z"/><path id="_Path_19" data-name="&lt;Path&gt;" class="cls-19" d="M58,55.5s8.2,13.58,37,13.58c27,0,36.43-13.29,36.43-13.29s-10.8-14.43-37.74-14.15C70.52,41.88,58,55.5,58,55.5Z"/><path id="_Path_20" data-name="&lt;Path&gt;" class="cls-16" d="M62.18,55.1s7.44,8.75,32.52,8.75c23.54,0,32.8-8.55,32.8-8.55s-.86-5.68-1.86-10c-5.55-2.45-20.75-.11-32.08,0-9.81.09-25.1-2.61-30.41-.23C62.7,48.15,62.18,55.1,62.18,55.1Z"/><path id="_Path_21" data-name="&lt;Path&gt;" class="cls-17" d="M63.13,45s7.18,13.93,30.09,12C93.22,57,72.82,53.05,63.13,45Z"/><path id="_Path_22" data-name="&lt;Path&gt;" class="cls-18" d="M125.64,45.25c-1.76-.78-4.51-1.07-7.79-1.11L105.35,51,106,63.12c15.25-2.06,21.5-7.82,21.5-7.82S126.64,49.62,125.64,45.25Z"/><path id="_Path_23" data-name="&lt;Path&gt;" class="cls-20" d="M63.13,45s7.65,12,31.58,12c22.45,0,31-11.55,31-11.55S116,32.66,93.62,32.92A45.13,45.13,0,0,0,63.13,45Z"/><path id="_Path_24" data-name="&lt;Path&gt;" class="cls-21" d="M66.76,45.2A43.32,43.32,0,0,1,94.3,35.15,43.85,43.85,0,0,1,122,45s-10,9-27.57,9S66.76,45.2,66.76,45.2Z"/><path id="_Path_25" data-name="&lt;Path&gt;" class="cls-16" d="M122,45A43.85,43.85,0,0,0,94.3,35.15,43.32,43.32,0,0,0,66.76,45.2a26.38,26.38,0,0,0,3.41,2.37c3-2.38,12-8.59,24-8.59,11.71,0,21.24,5.85,24.72,8.3A25.43,25.43,0,0,0,122,45Z"/><path id="_Path_26" data-name="&lt;Path&gt;" class="cls-22" d="M82.78,52.65l-3.65-7.4A33.79,33.79,0,0,0,72.76,49,45.9,45.9,0,0,0,82.78,52.65Z"/></g></g><path id="_Path_27" data-name="&lt;Path&gt;" class="cls-18" d="M89,35.5a43.33,43.33,0,0,0-22.19,9.7,26.38,26.38,0,0,0,3.41,2.37A41.3,41.3,0,0,1,89.1,39.36Z"/></g><g id="_Group_7" data-name="&lt;Group&gt;"><g id="_Group_8" data-name="&lt;Group&gt;"><g id="_Group_9" data-name="&lt;Group&gt;"><path id="_Path_28" data-name="&lt;Path&gt;" class="cls-23" d="M141.48,150.88l.87,4.8s27.34.84,41.53-.42l.76-4.8Z"/><path id="_Path_29" data-name="&lt;Path&gt;" class="cls-24" d="M147.53,53.3s0,7.31-.83,8.15-31.52,14-31.52,43.25,26.3,46.18,26.3,46.18,23.76,2.5,43.16-.42c0,0,26.24-23.91,23.41-49.1-3-26.33-31.72-39.49-31.93-40.75s-.8-7.94-.8-7.94Z"/><path id="_Path_30" data-name="&lt;Path&gt;" class="cls-25" d="M176,59.27c-.25-2.36-.63-6.6-.63-6.6l-27.79.63s0,3.47-.27,5.91C154.15,57.89,165.62,56.91,176,59.27Z"/><polygon id="_Path_31" data-name="&lt;Path&gt;" class="cls-23" points="151.74 33.24 152.79 42.44 169.69 42.65 170.32 32.82 151.74 33.24"/><polygon id="_Path_32" data-name="&lt;Path&gt;" class="cls-24" points="148.4 49.12 148.61 39.3 174.07 39.3 174.28 49.54 148.4 49.12"/><polygon id="_Path_33" data-name="&lt;Path&gt;" class="cls-26" points="144.44 48.08 145.27 55.18 177.62 55.6 178.46 47.03 144.44 48.08"/><path id="_Path_34" data-name="&lt;Path&gt;" class="cls-26" d="M147.6,33.86s6.53-10,8.61-11.92,8-1.44,9.72-.61S175.08,34,175.08,34,161.17,37.62,147.6,33.86Z"/><path id="_Path_35" data-name="&lt;Path&gt;" class="cls-27" d="M161.28,25.71c3-.1,4.93-2.93,5.29-3.84a3.18,3.18,0,0,0-.64-.54c-1.67-.83-7.63-1.27-9.72.61-.08.07-.18.18-.27.27A5.66,5.66,0,0,0,161.28,25.71Z"/><path id="_Path_36" data-name="&lt;Path&gt;" class="cls-28" d="M162.85,70c-21-.43-37.08,17.26-37.92,35.74-.87,19.22,14.79,38.45,36.16,38.92s38.08-18.25,38-37.55C199,88.69,183.8,70.42,162.85,70Z"/><path id="_Path_37" data-name="&lt;Path&gt;" class="cls-29" d="M162.31,72.81c-19.14-.4-33.81,15.75-34.58,32.62-.79,17.53,13.48,35.08,33,35.5s34.73-16.65,34.66-34.26C195.3,89.87,181.41,73.2,162.31,72.81Z"/><path id="_Path_38" data-name="&lt;Path&gt;" class="cls-30" d="M173.47,116.49c-7.37-2.61-14.86-5.15-22.71-5.69A51.4,51.4,0,0,0,128.53,114c3.26,14.26,15.89,26.57,32.17,26.92,13,.29,24.08-7.17,30-17.38C186,119.75,178.92,118.43,173.47,116.49Z"/><path id="_Path_39" data-name="&lt;Path&gt;" class="cls-23" d="M157.58,21.94s3.29,5.33,7.52-.05A10.66,10.66,0,0,0,157.58,21.94Z"/></g><path id="_Path_40" data-name="&lt;Path&gt;" class="cls-31" d="M157.64,105.93s-4.1-10.78,10.75-17.23l1,4.24s3.2-4.53,15.26-4.67A85.68,85.68,0,0,1,179,99.08l4.2,1S175.79,115.27,157.64,105.93Z"/><path id="_Path_41" data-name="&lt;Path&gt;" class="cls-32" d="M159.14,101.33c3.28-.2,6.34-6.82,3.88-12.57l-2.58,1.77s-2.85-6.39-7.95-9.12l.81,10.06-4.13-.81S149.09,101.94,159.14,101.33Z"/><path id="_Path_42" data-name="&lt;Path&gt;" class="cls-33" d="M144.27,93.45a21.88,21.88,0,0,0-15.92,7.09,32.05,32.05,0,0,0-.62,4.89c-.58,12.92,7,25.84,18.86,31.91a22,22,0,0,0-2.32-43.89Z"/><path id="_Path_43" data-name="&lt;Path&gt;" class="cls-34" d="M158.33,132.51a17.38,17.38,0,0,1-3.09-3.73c-9.82,4.46-20.22-.77-23.21-5.66l.15.26c.12.22.24.44.37.65l.21.34c.19.32.4.64.6,1l.4.6.25.35c.14.21.29.41.44.62l.23.31.49.65.21.26.57.7.16.18c.23.27.46.54.7.8l.06.07a34.38,34.38,0,0,0,9.72,7.47A21.81,21.81,0,0,0,158.33,132.51Z"/><path id="_Path_44" data-name="&lt;Path&gt;" class="cls-35" d="M195,111.56a22,22,0,1,0-32.21,29.35C179.56,140.21,192.67,126.69,195,111.56Z"/><path id="_Path_45" data-name="&lt;Path&gt;" class="cls-24" d="M173.5,101.51c-10.18.79-17.69,8.94-19.72,16-1.69,5.85.47,8.62,1.18,6.79,0,0,3.66-10.51,9.15-8.83,7.67,2.35,3.75,19.59,7.35,19.75,4.54.19.47-20.53,8.77-24.92,5.81-3.08,11.71,2.85,13.85,5.36a32.16,32.16,0,0,0,1.08-5.39C193,107.22,186.79,100.49,173.5,101.51Z"/><path id="_Path_46" data-name="&lt;Path&gt;" class="cls-24" d="M149.44,98c-.1-1.16,3.14-2.42,7.94-.54.31-2.61-6.79-6.16-16.07-5.12A20.46,20.46,0,0,0,129,97.91a32.07,32.07,0,0,0-1.27,7.52,31.65,31.65,0,0,0,.21,5.24,12,12,0,0,1,3.24-3.41c2.71-1.9,5,1,5.33,4.23s0,11.81,2,11.9,1.66-3.32,1.67-4.48c.1-10,1.35-15.1,5.78-16.15,2.85-.68,5.86.78,7.83,2.95s3.09,5,4.18,7.67a6.12,6.12,0,0,1,4.19-1.46C157,101.57,149.6,100,149.44,98Z"/><path id="_Path_47" data-name="&lt;Path&gt;" class="cls-36" d="M129.53,103.25s1.3-6.61,9.22-8.79a22,22,0,0,1,11.86.26s-7.63.84-2.15,5.7c0,0-9.37-2.47-10.4,6.41C138.06,106.83,136,98.71,129.53,103.25Z"/><path id="_Path_48" data-name="&lt;Path&gt;" class="cls-36" d="M157.38,115s2.29-7.45,12.83-11.28c9.4-3.42,19.41,3,19.41,3s-15.34-5-18,9.24C171.62,115.93,166.92,106.53,157.38,115Z"/></g><path id="_Path_49" data-name="&lt;Path&gt;" class="cls-11" d="M136.12,72.9c-2-1.69-12,9.84-9.91,11.29C128.51,85.8,137.94,74.45,136.12,72.9Z"/><path id="_Path_50" data-name="&lt;Path&gt;" class="cls-11" d="M123.24,87.89c-2.27-.39-4.9,6.75-3,7.52S125.7,88.3,123.24,87.89Z"/><path id="_Path_51" data-name="&lt;Path&gt;" class="cls-27" d="M175.38,47.13,146.94,48C151,49.06,166.28,50.26,175.38,47.13Z"/></g><path id="_Path_52" data-name="&lt;Path&gt;" class="cls-34" d="M155.59,129.33a22,22,0,0,0,7.19,11.58c1,0,2.07-.14,3.08-.28h0c.48-.06,1-.14,1.43-.23h.09c.94-.18,1.87-.4,2.78-.66l.36-.11c.32-.09.63-.18.93-.29a4,4,0,0,0,.45-.15l.91-.32.81-.32.64-.27.7-.31.43-.21.76-.37.21-.11c.6-.31,1.2-.64,1.78-1h0C164.26,140.68,157.17,131.69,155.59,129.33Z"/><g id="_Group_10" data-name="&lt;Group&gt;"><g id="_Group_11" data-name="&lt;Group&gt;"><g id="_Group_12" data-name="&lt;Group&gt;"><polygon id="_Path_53" data-name="&lt;Path&gt;" class="cls-37" points="0.43 105.65 8.99 144.21 57.29 144.63 67.46 109.9 0.43 105.65"/><polygon id="_Path_54" data-name="&lt;Path&gt;" class="cls-38" points="50.82 144.57 57.29 144.63 67.46 109.9 57.9 109.59 50.82 144.57"/><path id="_Path_55" data-name="&lt;Path&gt;" class="cls-39" d="M3.93,109.13s5.13,22.21,8.14,35.11l30.33.26c1.47-9.75,2.54-20.61,2.54-20.61S24.5,134.56,3.93,109.13Z"/><path id="_Path_56" data-name="&lt;Path&gt;" class="cls-40" d="M.09,105.49s24.45,46.21,67.41,4.44C67.5,109.93,42.56,74.46.09,105.49Z"/><path id="_Path_57" data-name="&lt;Path&gt;" class="cls-41" d="M3.41,105.56s21.67,38.3,60.64,4.56C64.05,110.12,43.13,79.12,3.41,105.56Z"/><path id="_Path_58" data-name="&lt;Path&gt;" class="cls-42" d="M60.5,113c1.07-2.25-.43-7.37-5.14-8,4.24-10.72-8-12.73-8-12.9C46.52,79.88,32,75.56,31.28,77.48c-1,2.64,1.45,5.87-.65,9.81-2.7,5-8.53,5-13.82,6.87C13.6,95.27,7.15,99,14.08,104.89c-4.52-.6-8,.85-8,3.41a9.35,9.35,0,0,0,.18,1.38C13.11,118.22,31.8,135.3,60.5,113Z"/></g></g><path id="_Path_59" data-name="&lt;Path&gt;" class="cls-43" d="M60.5,113c1.07-2.25-.43-7.37-5.14-8,4.24-10.72-8-12.73-8-12.9-.54-8-6.89-12.6-11.45-14.32,10.16,5.89,4,15.66,4,15.66s8.63,1.75,10.76,5.38-7,6.43-7,6.43c15.83,2.29,6.82,15.92-10.93,15.77-11.4-.1-21.9-7.76-22.36-12.23-.35-3.43,3.71-4,3.71-4-4.52-.6-8,.85-8,3.41a9.35,9.35,0,0,0,.18,1.38C13.11,118.22,31.8,135.3,60.5,113Z"/><path id="_Path_60" data-name="&lt;Path&gt;" class="cls-17" d="M24.08,112c-2.61,2.92-9.51,1.34-10.14-3.36C13.75,107.2,24.94,111.07,24.08,112Z"/><path id="_Path_61" data-name="&lt;Path&gt;" class="cls-17" d="M33,79c-.49.4,1,3.7.51,6.9-.4,2.46-3.5,5.06-3.3,5.36.69,1.06,7.26-1,7.57-5C38.12,82,33.7,78.47,33,79Z"/><path id="_Path_62" data-name="&lt;Path&gt;" class="cls-17" d="M25.84,95c-.29-1.5-11,.86-11.77,4s11.68,7.19,12.47,5-7.89-5.43-7.89-5.43S26,95.83,25.84,95Z"/></g><g id="_Group_13" data-name="&lt;Group&gt;"><g id="_Group_14" data-name="&lt;Group&gt;"><path id="_Path_63" data-name="&lt;Path&gt;" class="cls-44" d="M198.25,147.58s-6.51-5.11-.7-13.15a21.32,21.32,0,0,1,1.89,8.92s1.37-4.38,8.42-4c0,0,1.11,6.33-3.39,8.28a8.47,8.47,0,0,1,6.86,2.11S204.08,152.89,198.25,147.58Z"/><path id="_Path_64" data-name="&lt;Path&gt;" class="cls-45" d="M195.32,139.2a8.82,8.82,0,0,0,2.93,8.38c5.83,5.31,13.08,2.16,13.08,2.16-5.42,1.11-6.86-2.11-6.86-2.11a5.48,5.48,0,0,0,3.07-3.55,4.66,4.66,0,0,1-5.34,1.69,7.3,7.3,0,0,1,3.28-6.36c-5,.58-6,3.94-6,3.94a21.32,21.32,0,0,0-1.89-8.92,22.55,22.55,0,0,1,.61,8.1A3.3,3.3,0,0,1,195.32,139.2Z"/><path id="_Path_65" data-name="&lt;Path&gt;" class="cls-46" d="M201.28,146.23c-6-5.31-13.61-7.58-19.65-2.28s-11.07,21.53-5.56,27.49c4.76,5.15,21.25,3.85,28.37-4.49C211,159.34,207.2,151.44,201.28,146.23Z"/><path id="_Path_66" data-name="&lt;Path&gt;" class="cls-47" d="M174.11,167.47a8.59,8.59,0,0,0,2,4c4.76,5.15,21.25,3.85,28.37-4.49a15.42,15.42,0,0,0,2.3-3.51C201.45,169.3,182.35,176,174.11,167.47Z"/><path id="_Path_67" data-name="&lt;Path&gt;" class="cls-48" d="M178.29,164.27c-3.65-2.82,1.06-18.5,8.19-20.33s15.32,4.33,14.31,10C199.36,162,183.81,168.54,178.29,164.27Z"/><path id="_Path_68" data-name="&lt;Path&gt;" class="cls-49" d="M186.17,145.16c-4.17,1.5-6.5,7.28-4.24,10.57,1.65,2.41,5.39,3,8.09,1.88,4.44-1.78,6.29-6.46,4.35-9.88C192.83,145,189,144.15,186.17,145.16Z"/><path id="_Path_69" data-name="&lt;Path&gt;" class="cls-50" d="M182.09,147.08c-1.14-1.76,4.29-5.64,5.75-4C189.44,145,183.28,148.91,182.09,147.08Z"/></g><path id="_Path_70" data-name="&lt;Path&gt;" class="cls-51" d="M189,167.66c-.34-.4-2.91.51-1.94,1.66S189.25,168,189,167.66Z"/><path id="_Path_71" data-name="&lt;Path&gt;" class="cls-52" d="M183.83,151.19c-.34-.4-2.9.49-1.92,1.65S184.13,151.54,183.83,151.19Z"/><path id="_Path_72" data-name="&lt;Path&gt;" class="cls-53" d="M195.85,157.54c-.41-.33-2.75,1.07-1.57,2S196.21,157.82,195.85,157.54Z"/><path id="_Path_73" data-name="&lt;Path&gt;" class="cls-51" d="M203.34,157.43c-.42-.33-2.76,1.07-1.58,2S203.69,157.71,203.34,157.43Z"/><path id="_Path_74" data-name="&lt;Path&gt;" class="cls-51" d="M180.25,166.9c-.41-.33-2.75,1.07-1.57,2S180.6,167.18,180.25,166.9Z"/><path id="_Path_75" data-name="&lt;Path&gt;" class="cls-54" d="M191.61,151.13c-.42-.33-2.76,1.07-1.57,2S192,151.41,191.61,151.13Z"/><path id="_Path_76" data-name="&lt;Path&gt;" class="cls-53" d="M188,159.57c-.41-.32-2.75,1.07-1.57,2S188.39,159.85,188,159.57Z"/><path id="_Path_77" data-name="&lt;Path&gt;" class="cls-53" d="M181.56,158.64c-.39-.3-2.57,1-1.46,1.87S181.89,158.91,181.56,158.64Z"/><path id="_Path_78" data-name="&lt;Path&gt;" class="cls-51" d="M196.69,165.6c-.41-.33-2.75,1.07-1.57,2S197,165.88,196.69,165.6Z"/></g><g id="_Group_15" data-name="&lt;Group&gt;"><g id="_Group_16" data-name="&lt;Group&gt;"><path id="_Path_79" data-name="&lt;Path&gt;" class="cls-55" d="M55.06,176.21c.72-18,29.6-32.41,53.61-31.93,22.37.44,50.3,14,51,32.2s-21.24,34.4-49.88,35.27C78.41,212.7,54.33,194.75,55.06,176.21Z"/><path id="_Path_80" data-name="&lt;Path&gt;" class="cls-56" d="M159.62,176.48c-.39-10.72-10.24-19.83-22.85-25.6l-11.64,19.86s3.08,2.78.49,8.44l9,3.82s5.23,4.22,0,8.54l7.25,2.66s4.17,4,.63,8.52h0C153.37,196.14,160,186.64,159.62,176.48Z"/><path id="_Path_81" data-name="&lt;Path&gt;" class="cls-57" d="M55.06,167.27c.72-18,29.6-32.4,53.61-31.93,22.37.45,50.3,14,51,32.2S138.38,202,109.74,202.81C78.41,203.76,54.33,185.82,55.06,167.27Z"/><path id="_Path_82" data-name="&lt;Path&gt;" class="cls-57" d="M55.06,167.27c.72-18,29.6-32.4,53.61-31.93,22.37.45,50.3,14,51,32.2S138.38,202,109.74,202.81C78.41,203.76,54.33,185.82,55.06,167.27Z"/><path id="_Path_83" data-name="&lt;Path&gt;" class="cls-58" d="M159.62,167.54c-.34-9.54-8.19-17.8-18.8-23.57l-15.69,26.77s3.08,2.78.49,8.44l9,3.82s5.23,4.22,0,8.54l7.21,2.64C153.09,187.59,160,177.92,159.62,167.54Z"/><path id="_Path_84" data-name="&lt;Path&gt;" class="cls-59" d="M59.3,161.06c.2-18,28.66-33.15,52.68-33.3,22.37-.13,50.67,12.71,51.84,30.87S143.56,193.57,115,195.18C83.66,196.94,59.08,179.62,59.3,161.06Z"/><path id="_Path_85" data-name="&lt;Path&gt;" class="cls-56" d="M134.82,191.36c18-6.23,29.88-19,29-32.73-.59-9.21-8.16-17-18.4-22.52l-20.29,34.63s3.08,2.78.49,8.44l9,3.82S139.7,187.1,134.82,191.36Z"/><path id="_Path_86" data-name="&lt;Path&gt;" class="cls-60" d="M59.3,152.45c.2-18,28.66-33.16,52.68-33.31,22.37-.13,50.67,12.71,51.84,30.87S143.56,185,115,186.56C83.66,188.32,59.08,171,59.3,152.45Z"/><path id="_Path_87" data-name="&lt;Path&gt;" class="cls-58" d="M163.82,150c-.52-8-6.35-15-14.64-20.33l-24.05,41.06s3.08,2.78.49,8.44l8.74,3.71C152.66,176.72,164.7,163.82,163.82,150Z"/><path id="_Path_88" data-name="&lt;Path&gt;" class="cls-61" d="M55.63,147.17c.2-18,28.66-33.16,52.68-33.31,22.37-.13,50.67,12.71,51.84,30.87s-20.25,34.94-48.86,36.55C80,183,55.41,165.72,55.63,147.17Z"/><path id="_Path_89" data-name="&lt;Path&gt;" class="cls-62" d="M160.15,144.73c-.41-6.38-4.17-12.09-9.83-16.83l-.07,0-25.12,42.88s3,2.76.53,8.35C146.74,173.73,161.11,159.77,160.15,144.73Z"/><path id="_Path_90" data-name="&lt;Path&gt;" class="cls-63" d="M55.63,139c.2-18,28.66-33.16,52.68-33.3,22.37-.13,50.67,12.71,51.84,30.87s-20.25,34.94-48.86,36.55C80,174.92,55.41,157.6,55.63,139Z"/></g><path id="_Path_91" data-name="&lt;Path&gt;" class="cls-64" d="M110.57,102.48c-8.35-.43-46.77,3.12-47.11,25.26-.36,23.33,26.06,23,30.7,31.25s.31,23.37,7.12,24,3.62-9.63,7.64-13.78,32.63-3.11,41.23-18.18c7.93-13.9-9.56-22.77-9.56-22.77S157,104.84,110.57,102.48Z"/><path id="_Path_92" data-name="&lt;Path&gt;" class="cls-65" d="M107.91,123.32c-6.28-1.53-13.45,2.19-14.81,7.69-1.67,6.76,5.78,14.78,13.41,14.41,4.77-.23,10.16-3.76,11-9.24C118.52,130.1,113.42,124.66,107.91,123.32Z"/><path id="_Path_93" data-name="&lt;Path&gt;" class="cls-65" d="M110.14,99.82c-6.28-1.53-13.44,2.2-14.8,7.69-1.68,6.76,5.78,14.78,13.41,14.41,4.76-.23,11.84-4.87,12.14-9.78C121.26,106,115.66,101.16,110.14,99.82Z"/><g id="_Group_17" data-name="&lt;Group&gt;"><g id="_Group_18" data-name="&lt;Group&gt;"><path id="_Compound_Path_2" data-name="&lt;Compound Path&gt;" class="cls-66" d="M103.72,120.13a3.6,3.6,0,0,1-2.12-1.67,2.72,2.72,0,0,1-2.9.29,2.93,2.93,0,0,1-1.51-2.09.17.17,0,0,1,0-.07l-.08,0a2.61,2.61,0,0,1-2.3.17,2.93,2.93,0,0,1-1.26-3.28,3.21,3.21,0,0,1-4.11-3.78c-2.9-.81-3.36-4.91-1.74-6.59a4,4,0,0,1-.52-3.11A3.25,3.25,0,0,1,91,97.43s-.7-3,1.28-4.76A6.53,6.53,0,0,1,98,91.21c1.09-3.25,5.19-2.51,5.87-.51a3.63,3.63,0,0,1,3.93-2.29A4.39,4.39,0,0,1,111,91.22a4,4,0,0,1,3.72.34,3.8,3.8,0,0,1,1.36,4.51,3.3,3.3,0,0,1,3,2.63,4.07,4.07,0,0,1-1.46,4.24c.48.06,2.21,1.66,1.72,4.42a3.71,3.71,0,0,1-2.73,3.15,3.13,3.13,0,0,1,0,3.93,3.8,3.8,0,0,1-3.92,1.18c-.17,1.82-.5,2.94-2.35,3.35a5.23,5.23,0,0,1-2.87-.21A3.31,3.31,0,0,1,103.72,120.13Z"/><path id="_Path_94" data-name="&lt;Path&gt;" class="cls-67" d="M102.28,104.62c.17.22,2.15-2.29,2.27-2.56.51-1.12.64-3-.23-4a2.72,2.72,0,0,0-1.12-.83c-.12,0-1.21-.32-1.25-.19.33-1,.93-2.7.29-3.73-.52-.82-1.86-.74-2.66-.44-.21.08-2.15,1.11-2,1.35a2.79,2.79,0,0,0-5.13,1.46c0,.17,0,2.79.25,2.74-.42.09-2.85-.13-3.85,1.77s.78,4,.78,4a2.7,2.7,0,0,0-.79,3.49c.83,1.56,3.51.5,3.51.5s.17,2.65,2.61,2.7,2.82-3,2.82-3a3,3,0,0,0,4.09.89A2.91,2.91,0,0,0,102.28,104.62Z"/><path id="_Path_95" data-name="&lt;Path&gt;" class="cls-68" d="M90.9,102.84a1.12,1.12,0,0,1-.59-.54c-.62-1.13.51-3.29,2.2-2.3C94,100.84,92.55,103.4,90.9,102.84Z"/><path id="_Path_96" data-name="&lt;Path&gt;" class="cls-69" d="M94.93,98.28a1.12,1.12,0,0,1-.59-.54,1.56,1.56,0,0,1,2.28-2C98.07,96.6,96.58,98.84,94.93,98.28Z"/><path id="_Path_97" data-name="&lt;Path&gt;" class="cls-69" d="M95,104.13a1.12,1.12,0,0,1-.59-.54c-.62-1.13.3-3.31,2-2.32C97.85,102.1,96.64,104.69,95,104.13Z"/><path id="_Path_98" data-name="&lt;Path&gt;" class="cls-70" d="M100.11,113.5a1.09,1.09,0,0,1-.73.33,1.6,1.6,0,0,1-1-2.93C99.76,109.91,101.32,112.22,100.11,113.5Z"/><path id="_Path_99" data-name="&lt;Path&gt;" class="cls-71" d="M95.82,109a1.11,1.11,0,0,1-.74.33c-1.28.12-2.4-2-1-3S97,107.71,95.82,109Z"/><path id="_Path_100" data-name="&lt;Path&gt;" class="cls-71" d="M100.77,107.47a1.1,1.1,0,0,1-.74.34,1.62,1.62,0,0,1-1-3C100.42,103.85,102,106.18,100.77,107.47Z"/><path id="_Path_101" data-name="&lt;Path&gt;" class="cls-70" d="M105.49,91.78a1.07,1.07,0,0,1-.14-.74c.15-1.19,2.57-2.39,3.28-.71C109.24,91.76,106.39,93.11,105.49,91.78Z"/><path id="_Path_102" data-name="&lt;Path&gt;" class="cls-71" d="M89.81,106.94a.88.88,0,0,1-.19-.63c0-1,1.66-2,2.41-.64C92.68,106.85,90.7,108,89.81,106.94Z"/><path id="_Path_103" data-name="&lt;Path&gt;" class="cls-70" d="M107,107.67a1.79,1.79,0,0,0,1.73-1.81,1.71,1.71,0,0,0-1.62-1.84,1.79,1.79,0,0,0-1.73,1.81A1.71,1.71,0,0,0,107,107.67Z"/></g><path id="_Path_104" data-name="&lt;Path&gt;" class="cls-72" d="M119.17,102.26s1.92-2.47-.84-10.1c0,0-3.79,3.44-2.49,8.25,0,0-1.69-4.27-7.33-3.11,0,0-.1,5,6.6,6.68,0,0-6.12,2-4.35,7.65,0,0,4.63-1,6.18-4.18,0,0,0,5.94,7.45,5.6a14.61,14.61,0,0,0-5.25-8.82s5.86,1.11,9.92-6.23l-2.49-2.53S124.5,103,119.17,102.26Z"/><g id="_Group_19" data-name="&lt;Group&gt;" class="cls-73"><path id="_Path_105" data-name="&lt;Path&gt;" class="cls-45" d="M115.11,104l-.1,0Z"/><path id="_Path_106" data-name="&lt;Path&gt;" class="cls-45" d="M119.14,104.23s5.86,1.11,9.92-6.23l-1.12-1.13c-1.29,2.88-4.14,7-9.68,6.55-8.38-.74-9.75-6.12-9.75-6.12s-.1,5,6.6,6.68c0,0,.83,4.06-4.35,7.65,0,0,4.63-1,6.18-4.18,0,0,0,5.94,7.45,5.6A14.61,14.61,0,0,0,119.14,104.23Z"/></g></g><g id="_Group_20" data-name="&lt;Group&gt;"><path id="_Compound_Path_3" data-name="&lt;Compound Path&gt;" class="cls-74" d="M97.86,147.33a3.87,3.87,0,0,1-2.15-1.88,2.86,2.86,0,0,1-3,.15,3.22,3.22,0,0,1-1.51-2.29v-.08l-.08,0a2.7,2.7,0,0,1-2.41.06,3.18,3.18,0,0,1-1.2-3.53,3.43,3.43,0,0,1-4.15-4.21,4.14,4.14,0,0,1-1.63-6.63c-1-1.65-1.09-2.73-.74-3.78.83-2.54,2.86-2.7,4.38-2.4,0,0-.62-3.2,1.5-5,1.31-1.09,4.09-1.09,5.13.09A4.74,4.74,0,0,1,95,115a3.52,3.52,0,0,1,4,1.32,3.72,3.72,0,0,1,4.18-2.2,4.7,4.7,0,0,1,3.25,3.14,4.16,4.16,0,0,1,3.87.57,4.08,4.08,0,0,1,1.27,4.82,3.55,3.55,0,0,1,3,2.94,4.24,4.24,0,0,1-1.67,4.39c.5.09,2.25,1.87,1.64,4.76a3.79,3.79,0,0,1-3,3.17,3.32,3.32,0,0,1-.1,4.14,3.87,3.87,0,0,1-4.12,1c-.25,1.9-.63,3.07-2.57,3.41a5.56,5.56,0,0,1-3-.39A3.37,3.37,0,0,1,97.86,147.33Z"/><path id="_Path_107" data-name="&lt;Path&gt;" class="cls-75" d="M96.15,126.5a6.23,6.23,0,0,0,1.89-.75,4,4,0,0,1,3.49-4.73,3.6,3.6,0,0,0-2.92-2.47,2.74,2.74,0,0,0-3.77-2.71c-2.13.68-2.24,3.81-2.24,3.81s-3.55-2.53-5.35-.8-.54,4.85-.54,4.85c-.45.06-3.38-.66-4.49,1.28-.64,1.11,0,2.83,1.1,4.49-.54.76-1.54,2.42-.74,3.32.63.71,2.21.7,3.46-.27.51,2.73,3.66,2.72,4.84.62-.13.1,2.63,3.51,5.27,2.33,1.9-.85-.16-4.75-.16-4.75C100.87,128.4,96.15,126.5,96.15,126.5Z"/><path id="_Path_108" data-name="&lt;Path&gt;" class="cls-76" d="M88.06,136.57c.46,4.31,4.15,4.46,6,1.8,1.32,3.8,5.7,2.84,6,1.09.42-2.25-2-3.44-1.87-6.43.09-2.33,2.48-3.5,2.48-3.5s-2.45-3-.82-5.6a4.31,4.31,0,0,1,4.29-2,4.79,4.79,0,0,1,2.27-4.73,4.16,4.16,0,0,1,3.87.57,4.08,4.08,0,0,1,1.27,4.82,3.55,3.55,0,0,1,3,2.94,4.24,4.24,0,0,1-1.67,4.39c.5.09,2.25,1.87,1.64,4.76a3.79,3.79,0,0,1-3,3.17,3.32,3.32,0,0,1-.1,4.14,3.87,3.87,0,0,1-4.12,1c-.25,1.9-.63,3.07-2.57,3.41a5.56,5.56,0,0,1-3-.39,3.37,3.37,0,0,1-4,1.25,3.87,3.87,0,0,1-2.15-1.88,2.86,2.86,0,0,1-3,.15,3.22,3.22,0,0,1-1.51-2.29v-.08l-.08,0a2.7,2.7,0,0,1-2.41.06,3.18,3.18,0,0,1-1.2-3.53,3.43,3.43,0,0,1-4.15-4.21C85.08,138.39,88.06,136.57,88.06,136.57Z"/><path id="_Path_109" data-name="&lt;Path&gt;" class="cls-77" d="M85.57,127.94c-.54.44-1.35.47-2.06-.48a1.49,1.49,0,0,1,2.18-2A1.72,1.72,0,0,1,85.57,127.94Z"/><path id="_Path_110" data-name="&lt;Path&gt;" class="cls-78" d="M87.94,122.6a1.32,1.32,0,0,1-.67-.67c-.74-1.51,1.23-3.62,2.65-2.6C91.72,120.61,89.67,123.29,87.94,122.6Z"/><path id="_Path_111" data-name="&lt;Path&gt;" class="cls-77" d="M89.89,128.49a1.24,1.24,0,0,1-1-.2c-.92-.6-1.38-2.33-.44-3.14,1.14-1,2.51-.11,2.74,1.26A1.88,1.88,0,0,1,89.89,128.49Z"/><path id="_Path_112" data-name="&lt;Path&gt;" class="cls-78" d="M95.23,125.25c-1.44,1.22-3.41-1.23-2.09-2.52s3.36.64,2.4,2.15A1.64,1.64,0,0,1,95.23,125.25Z"/><path id="_Path_113" data-name="&lt;Path&gt;" class="cls-78" d="M94.54,120.2a1.29,1.29,0,0,1-.58-.78,1.8,1.8,0,0,1,2.61-2.26C98.46,118.38,95.9,121,94.54,120.2Z"/><path id="_Path_114" data-name="&lt;Path&gt;" class="cls-79" d="M107.6,125s-1,3.61,1.75,5a5,5,0,0,0-1.11,6.42,4.59,4.59,0,0,0-2.55,3.57,5.2,5.2,0,0,0-3.37-3.59s4.14-3.14.37-6.56a3.81,3.81,0,0,0,1.64-4A2.25,2.25,0,0,0,107.6,125Z"/></g><g id="_Group_21" data-name="&lt;Group&gt;"><g id="_Group_22" data-name="&lt;Group&gt;"><path id="_Path_115" data-name="&lt;Path&gt;" class="cls-80" d="M134.89,123s-3.11-5.06-4.44-4.64.13,3.89.13,3.89-3.64-1-4.54.34,2.3,3.16,2.3,3.16-2.92.75-2.45,2,6.28,1.89,6.28,1.89Z"/><path id="_Path_116" data-name="&lt;Path&gt;" class="cls-81" d="M145.37,119.54a11.4,11.4,0,1,0,6.08,14.8A11.56,11.56,0,0,0,145.37,119.54Z"/><path id="_Path_117" data-name="&lt;Path&gt;" class="cls-82" d="M136,120.84c-3.6,1.25-6.05,5.78-4.79,7.87,1.16,1.91,5.44,1.84,8.2.11,2.1-1.3,4.41-4.24,3.42-6.38S138.35,120,136,120.84Z"/><path id="_Path_118" data-name="&lt;Path&gt;" class="cls-83" d="M151.57,126.16a27.69,27.69,0,0,1-15.67,9.43,26.29,26.29,0,0,1-4.66.46,11.38,11.38,0,0,0,5.11,4.42,11.52,11.52,0,0,0,15.1-6.13A11.28,11.28,0,0,0,151.57,126.16Z"/></g><path id="_Path_119" data-name="&lt;Path&gt;" class="cls-69" d="M136.08,123.19a1.72,1.72,0,0,0-2.27.27,1.74,1.74,0,0,0-.08,2.4,1.72,1.72,0,0,0,2.27-.27A1.75,1.75,0,0,0,136.08,123.19Z"/></g><path id="_Path_120" data-name="&lt;Path&gt;" class="cls-64" d="M69.23,180.79c-1.58,2.52,2,8.64,6.78,10.8,6.2,2.82,12.35,2.6,11.74-1.08C87,185.85,71.27,177.56,69.23,180.79Z"/><path id="_Path_121" data-name="&lt;Path&gt;" class="cls-64" d="M94.91,193.83c.79-3.8,19.1-4.15,20,1.35S93.71,199.54,94.91,193.83Z"/><path id="_Path_122" data-name="&lt;Path&gt;" class="cls-84" d="M82.78,111.68C81.51,109.25,69.51,115,67,121c-2.72,6.59.5,16.28,5.26,16.81,3.08.35-5.08-10.39-1.41-16.67C73.8,116.15,83.68,113.4,82.78,111.68Z"/><path id="_Path_123" data-name="&lt;Path&gt;" class="cls-84" d="M75.89,141.65c1.3-2.17,7.7,2.79,6.71,4.68C81.51,148.41,74.44,144.08,75.89,141.65Z"/><path id="_Path_124" data-name="&lt;Path&gt;" class="cls-84" d="M71.54,182.89c-1.43,1.24,2.9,6.76,4.89,5.2S73.35,181.33,71.54,182.89Z"/></g><g id="_Group_23" data-name="&lt;Group&gt;"><g id="_Group_24" data-name="&lt;Group&gt;"><path id="_Path_125" data-name="&lt;Path&gt;" class="cls-85" d="M149.67,197.85s.21-5.28,1.62-5.18.82,2.91.82,2.91,2.15-2.5,3-1.4-3.57,4.95-3.57,4.95Z"/><ellipse id="_Path_126" data-name="&lt;Path&gt;" class="cls-86" cx="148.71" cy="203.11" rx="7.75" ry="7.79" transform="translate(-102.57 188.03) rotate(-50.36)"/></g><path id="_Path_127" data-name="&lt;Path&gt;" class="cls-87" d="M153.43,200.77c0,2.08-2,3.77-4.55,3.77s-4.56-1.69-4.56-3.77,2-3.77,4.56-3.77S153.43,198.69,153.43,200.77Z"/></g><g id="_Group_25" data-name="&lt;Group&gt;"><polygon id="_Path_128" data-name="&lt;Path&gt;" class="cls-26" points="7.24 152.67 5.63 165.61 23.53 175.7 48.91 162.43 46.29 152.49 7.24 152.67"/><polygon id="_Path_129" data-name="&lt;Path&gt;" class="cls-24" points="46.29 152.49 37.99 152.53 23.74 167.13 23.53 175.7 48.91 162.43 46.29 152.49"/><polygon id="_Path_130" data-name="&lt;Path&gt;" class="cls-88" points="23.74 167.13 7.24 152.67 29.43 138.67 46.29 152.49 23.74 167.13"/><path id="_Path_131" data-name="&lt;Path&gt;" class="cls-89" d="M29.43,138.67a21.82,21.82,0,0,1,3.43,12.18c-.29,9.87-8.14,15.59-9.12,16.28l22.55-14.64Z"/><path id="_Path_132" data-name="&lt;Path&gt;" class="cls-90" d="M16.66,157.54c-.84.15-1.54-6.21,0-6.52S17.5,157.38,16.66,157.54Z"/><path id="_Path_133" data-name="&lt;Path&gt;" class="cls-90" d="M20.57,148.85c-1.51.45-.84,12.41.28,12.72S22.11,148.38,20.57,148.85Z"/><path id="_Path_134" data-name="&lt;Path&gt;" class="cls-90" d="M24.91,145.59c-1.56.17-.84,16.29,0,16.29S26.31,145.43,24.91,145.59Z"/><path id="_Path_135" data-name="&lt;Path&gt;" class="cls-90" d="M29.64,142.86c-2,.39-1.28,13.35,0,13.36C31.33,156.22,31.18,142.55,29.64,142.86Z"/><path id="_Path_136" data-name="&lt;Path&gt;" class="cls-91" d="M35.87,147.14c-1.42.16-.71,9.09.28,9.09C37.57,156.23,37.27,147,35.87,147.14Z"/><path id="_Path_137" data-name="&lt;Path&gt;" class="cls-92" d="M7.24,152.67s4.4,13.5,16.5,14.46Z"/></g><path id="_Path_138" data-name="&lt;Path&gt;" class="cls-93" d="M73.06,125.12c.81,2.14,4.28.93,3.47-1.2S72.25,123,73.06,125.12Z"/><path id="_Path_139" data-name="&lt;Path&gt;" class="cls-93" d="M122.25,132c-2-1.09-3.82,1.92-1.81,3S124.26,133.06,122.25,132Z"/><path id="_Path_140" data-name="&lt;Path&gt;" class="cls-93" d="M73.11,131.49a1.33,1.33,0,0,0,2.51-.87C75,129,72.5,129.88,73.11,131.49Z"/><path id="_Path_141" data-name="&lt;Path&gt;" class="cls-93" d="M119.46,153.49c.81,2.13,4.28.93,3.47-1.21S118.65,151.35,119.46,153.49Z"/><path id="_Path_142" data-name="&lt;Path&gt;" class="cls-93" d="M118.12,158.75c.61,1.62,3.13.75,2.51-.87S117.51,157.14,118.12,158.75Z"/><path id="_Path_143" data-name="&lt;Path&gt;" class="cls-93" d="M120.71,127.43a1.06,1.06,0,1,0-.75,2A1.06,1.06,0,1,0,120.71,127.43Z"/><path id="_Path_144" data-name="&lt;Path&gt;" class="cls-93" d="M128.83,155a1.06,1.06,0,1,0-.75,2A1.06,1.06,0,1,0,128.83,155Z"/><path id="_Path_145" data-name="&lt;Path&gt;" class="cls-93" d="M77.4,129.15a1.19,1.19,0,0,0,2.24-.78A1.19,1.19,0,0,0,77.4,129.15Z"/></g></g></g></svg>