<svg xmlns="http://www.w3.org/2000/svg" xmlns:xlink="http://www.w3.org/1999/xlink" viewBox="0 0 224.5 227.03"><defs><style>.cls-1{fill:#d7643f;}.cls-2{fill:url(#linear-gradient);}.cls-3{fill:#f99761;}.cls-4{fill:url(#linear-gradient-2);}.cls-5{fill:#a53426;}.cls-6{fill:#ddc3b7;}.cls-7{fill:url(#linear-gradient-3);}.cls-8{fill:#b12025;}.cls-9{fill:#c96367;}.cls-10{fill:#c14d51;}.cls-11{fill:#b9373b;}.cls-12{fill:#589036;}.cls-13{fill:url(#linear-gradient-4);}.cls-14{fill:url(#linear-gradient-5);}.cls-15{fill:url(#linear-gradient-6);}.cls-16{fill:url(#linear-gradient-7);}.cls-17{fill:#f69677;}.cls-18{fill:url(#linear-gradient-8);}.cls-19{fill:#da5c3b;}.cls-19,.cls-30,.cls-31{opacity:0.2;}.cls-20{fill:#e97d5f;}.cls-21{fill:#ffedc7;}.cls-22{fill:#edb68a;}.cls-23{fill:#ffdfd0;}.cls-24{fill:#ff9851;}.cls-25{fill:url(#linear-gradient-9);}.cls-26,.cls-28,.cls-29,.cls-37{opacity:0.3;}.cls-27,.cls-28,.cls-31{fill:#fdf1d8;}.cls-29{fill:#c22d00;}.cls-30{fill:#f26300;}.cls-32{fill:#fedcb8;}.cls-33{fill:#dfc899;}.cls-34{fill:url(#linear-gradient-10);}.cls-35,.cls-49{opacity:0.5;}.cls-36{fill:#802818;}.cls-37,.cls-38{fill:#f19355;}.cls-39{fill:#91351c;}.cls-40{fill:#efe1b4;}.cls-41{fill:#ff6727;}.cls-42{fill:url(#linear-gradient-11);}.cls-43{fill:#3b2731;}.cls-44{fill:#c5f0ff;}.cls-45{fill:url(#linear-gradient-12);}.cls-46{fill:url(#linear-gradient-13);}.cls-47{fill:#ff5526;opacity:0.8;}.cls-48{fill:url(#linear-gradient-14);}.cls-49{fill:#ffdebe;}</style><linearGradient id="linear-gradient" x1="302.67" y1="62.48" x2="171.97" y2="191.73" gradientTransform="matrix(1, -0.03, 0.03, 1, -102.11, -1.36)" gradientUnits="userSpaceOnUse"><stop offset="0" stop-color="#bb2c00"/><stop offset="1" stop-color="#ee6400"/></linearGradient><linearGradient id="linear-gradient-2" x1="166.58" y1="182.14" x2="272.96" y2="50.27" xlink:href="#linear-gradient"/><linearGradient id="linear-gradient-3" x1="2731.57" y1="13.6" x2="2731.57" y2="112.85" gradientTransform="matrix(1, -0.03, 0.03, 1, -2596.84, 97.51)" gradientUnits="userSpaceOnUse"><stop offset="0" stop-color="#b1191b"/><stop offset="1" stop-color="#87191b"/></linearGradient><linearGradient id="linear-gradient-4" x1="200.45" y1="40.18" x2="156.43" y2="112.69" gradientTransform="translate(-82.45 -28.79) rotate(2.19)" gradientUnits="userSpaceOnUse"><stop offset="0" stop-color="#669e3e"/><stop offset="1" stop-color="#88c053"/></linearGradient><linearGradient id="linear-gradient-5" x1="286.31" y1="150.25" x2="406.51" y2="150.25" gradientTransform="translate(-297.77 -0.04) rotate(-6.82)" gradientUnits="userSpaceOnUse"><stop offset="0" stop-color="#c76045"/><stop offset="1" stop-color="#be3827"/></linearGradient><linearGradient id="linear-gradient-6" x1="291.5" y1="150.86" x2="406.51" y2="150.86" gradientTransform="translate(-297.77 -0.04) rotate(-6.82)" gradientUnits="userSpaceOnUse"><stop offset="0" stop-color="#b75139"/><stop offset="1" stop-color="#af2f20"/></linearGradient><linearGradient id="linear-gradient-7" x1="289.79" y1="149.52" x2="405.7" y2="149.52" gradientTransform="translate(-297.77 -0.04) rotate(-6.82)" gradientUnits="userSpaceOnUse"><stop offset="0" stop-color="#ab4428"/><stop offset="1" stop-color="#a63019"/></linearGradient><linearGradient id="linear-gradient-8" x1="354.48" y1="109.68" x2="394.48" y2="210.04" gradientTransform="translate(-297.77 -0.04) rotate(-6.82)" gradientUnits="userSpaceOnUse"><stop offset="0" stop-color="#f0e2e1"/><stop offset="1" stop-color="#f69677"/></linearGradient><linearGradient id="linear-gradient-9" x1="145.74" y1="159.45" x2="238.83" y2="180.86" gradientTransform="translate(-23.84)" gradientUnits="userSpaceOnUse"><stop offset="0" stop-color="#ff7d33"/><stop offset="1" stop-color="#f26300"/></linearGradient><linearGradient id="linear-gradient-10" x1="-149.69" y1="75.31" x2="-70.26" y2="75.31" gradientTransform="translate(150.29 78.93) rotate(-8.98)" gradientUnits="userSpaceOnUse"><stop offset="0" stop-color="#d96f27"/><stop offset="1" stop-color="#a34123"/></linearGradient><linearGradient id="linear-gradient-11" x1="202.95" y1="204.66" x2="126.33" y2="177.81" gradientUnits="userSpaceOnUse"><stop offset="0" stop-color="#ff6938"/><stop offset="1" stop-color="#ffdebe"/></linearGradient><linearGradient id="linear-gradient-12" x1="222.8" y1="169.91" x2="164.3" y2="194.01" gradientTransform="translate(-23.84)" gradientUnits="userSpaceOnUse"><stop offset="0" stop-color="#ff5526"/><stop offset="1" stop-color="#ffb583"/></linearGradient><linearGradient id="linear-gradient-13" x1="224.13" y1="186.77" x2="160.82" y2="212.85" gradientTransform="translate(-23.84)" gradientUnits="userSpaceOnUse"><stop offset="0" stop-color="#ff5526"/><stop offset="0.19" stop-color="#ff6838"/><stop offset="1" stop-color="#ffb583"/></linearGradient><linearGradient id="linear-gradient-14" x1="197.84" y1="189.45" x2="164.88" y2="163.49" gradientTransform="translate(-23.84)" gradientUnits="userSpaceOnUse"><stop offset="0" stop-color="#ffa47b"/><stop offset="1" stop-color="#ffdebe"/></linearGradient></defs><title>composition_6</title><g id="Layer_2" data-name="Layer 2"><g id="Layer_3" data-name="Layer 3"><g id="_Group_" data-name="&lt;Group&gt;"><g id="_Group_2" data-name="&lt;Group&gt;"><path id="_Path_" data-name="&lt;Path&gt;" class="cls-1" d="M200.33,99.16l6.38,19.7s-48-.31-79.8,36.53l-14.1-17.48S146.12,97.66,200.33,99.16Z"/><path id="_Path_2" data-name="&lt;Path&gt;" class="cls-2" d="M143.51,121.93c10.62-8.12,25.66-9.8,43-28.33,7.31-7.8,10.53-18.13,11.95-25.58l-3.22-2c-4.28-2.69-8.56-5.36-12.83-8.06-2.22,7.86-6,17.05-11.94,21.45C158.91,87.88,137,96,122.71,109.57s-24.36,35-24.36,35L118,161.42S122.9,137.68,143.51,121.93Z"/><path id="_Path_3" data-name="&lt;Path&gt;" class="cls-3" d="M186.11,60.24a46.08,46.08,0,0,1-11.55,21.09c-10.9,11-35.32,17.09-46.54,28-8.77,8.51-23.58,31.26-21.36,32.71s15.37-19.62,22.65-26.67c12.85-12.44,30.11-17,39.85-23.22,14.06-9,19.15-21,21.57-29Z"/><path id="_Path_4" data-name="&lt;Path&gt;" class="cls-3" d="M120.18,144.53s5.54-20.55,23.73-30.65,40.22-19.49,47.94-35.25c0,0,.57,16.85-43.09,38C132.76,124.33,120.18,144.53,120.18,144.53Z"/><path id="_Path_5" data-name="&lt;Path&gt;" class="cls-4" d="M174.7,70.07l-12.39-17S144.56,52,137.39,62.63,128,87,119,96.43c-9.91,10.39-26.53,16-26.53,16l10.92,22.76s18.82-8.06,28-18.66,13.42-27.87,19.43-35.85C157.15,72.19,174.7,70.07,174.7,70.07Z"/><path id="_Path_6" data-name="&lt;Path&gt;" class="cls-3" d="M162,68.32c-13-2.1-21.25,13.64-28.65,30.55-6.08,13.9-14,20-33.52,28.8l3.59,7.48s18.82-8.06,28-18.66,13.42-27.87,19.43-35.85c2.72-3.61,7.46-6,12-7.68A37.43,37.43,0,0,0,162,68.32Z"/><path id="_Path_7" data-name="&lt;Path&gt;" class="cls-5" d="M186.53,93.6c7.31-7.8,10.53-18.13,11.95-25.58l-3.22-2-.76-.48a39.9,39.9,0,0,1-8.95,23.94c-16.25,19.58-35,19.11-51.77,36.07a80.28,80.28,0,0,0-19.2,33l3.39,2.92s4.93-23.74,25.54-39.49C154.13,113.81,169.17,112.13,186.53,93.6Z"/><path id="_Path_8" data-name="&lt;Path&gt;" class="cls-5" d="M174.7,70.07l-2.81-3.85c-11.39,1-23.26,5.48-31.43,26.91-7.89,20.7-19,29.71-39.33,37.31l2.26,4.71s18.82-8.06,28-18.66,13.42-27.87,19.43-35.85C157.15,72.19,174.7,70.07,174.7,70.07Z"/><path id="_Path_9" data-name="&lt;Path&gt;" class="cls-3" d="M164.31,55.8h0s-17.27.76-22.21,7c-5.23,6.56-16.11,29.41-15.2,30.69.38.53,2.72-1,6.49-8.2,3.89-7.47,8.89-17.5,12.26-20.15,5.91-4.64,17.19-5.6,21.22-5.79Z"/><path id="_Path_10" data-name="&lt;Path&gt;" class="cls-3" d="M119.32,102.43c-1.12-.39-7.85,6.24-13.89,9.41a93,93,0,0,1-10.94,4.74L96.61,121C119.68,111,119.32,102.43,119.32,102.43Z"/></g><g id="_Group_3" data-name="&lt;Group&gt;"><g id="_Group_4" data-name="&lt;Group&gt;"><g id="_Group_5" data-name="&lt;Group&gt;"><g id="_Group_6" data-name="&lt;Group&gt;"><path id="_Path_11" data-name="&lt;Path&gt;" class="cls-6" d="M173.07,111.24c1.76,19.68-12.07,37.83-33,39.71-19.66,1.76-37-13.22-38.79-32.9A36.28,36.28,0,0,1,133.33,78.8C153.49,76.42,171.31,91.56,173.07,111.24Z"/><path id="_Path_12" data-name="&lt;Path&gt;" class="cls-7" d="M171.21,111.78a34.49,34.49,0,1,1-37.43-31.31A34.52,34.52,0,0,1,171.21,111.78Z"/><path id="_Path_13" data-name="&lt;Path&gt;" class="cls-8" d="M167.86,112a31.72,31.72,0,1,1-34.43-28.8A31.75,31.75,0,0,1,167.86,112Z"/><path id="_Path_14" data-name="&lt;Path&gt;" class="cls-9" d="M148.46,109c-.77,1.3,3.49,6.71,5.72,5S149.65,107,148.46,109Z"/><path id="_Path_15" data-name="&lt;Path&gt;" class="cls-10" d="M162.38,110.36c2.94-.08,2.56,7.88.08,7.73S159.61,110.44,162.38,110.36Z"/><path id="_Path_16" data-name="&lt;Path&gt;" class="cls-11" d="M146.53,89.67a2.46,2.46,0,1,0,2.53,2.38A2.49,2.49,0,0,0,146.53,89.67Z"/><path id="_Path_17" data-name="&lt;Path&gt;" class="cls-9" d="M137.05,85.43a1.41,1.41,0,0,0,.09,2.82A1.41,1.41,0,0,0,137.05,85.43Z"/><path id="_Path_18" data-name="&lt;Path&gt;" class="cls-9" d="M162.52,124a2.28,2.28,0,0,0-2-1.06,2.25,2.25,0,0,0-1.93,1.19,2.42,2.42,0,0,0-.18,1.81,2.3,2.3,0,0,0,.6,1,2.18,2.18,0,0,0,1,.54l.66.06a2.26,2.26,0,0,0,1.93-1.19A2.35,2.35,0,0,0,162.52,124Z"/><path id="_Path_19" data-name="&lt;Path&gt;" class="cls-9" d="M155.09,133.65a1.54,1.54,0,0,0-1.9-.18,3.37,3.37,0,0,0-.36.3,1.49,1.49,0,0,0,.07,2.1l0,.06a1.56,1.56,0,1,0,2.14-2.28Z"/><path id="_Path_20" data-name="&lt;Path&gt;" class="cls-11" d="M145.82,100a1.46,1.46,0,1,0-2.79.87,1.49,1.49,0,0,0,1.05,1,1.16,1.16,0,0,0,.76,0,1.51,1.51,0,0,0,.65-.4A1.49,1.49,0,0,0,145.82,100Z"/></g></g><path id="_Path_21" data-name="&lt;Path&gt;" class="cls-9" d="M154.29,99.31s4.44,1.21,3.64,2.78-6.18-.12-7-1.63,3.22-7.43,4.65-6.08C156.48,95.26,154.29,99.31,154.29,99.31Z"/></g></g><g id="_Group_7" data-name="&lt;Group&gt;"><g id="_Group_8" data-name="&lt;Group&gt;"><path id="_Path_22" data-name="&lt;Path&gt;" class="cls-12" d="M106.92,62.87a15.86,15.86,0,0,1-4.27-13c.72-6.39,5.36-9.46,5.45-9.16s-.24,3.44-.24,3.44,5.43-4.76,9.7-5.29c1.08-.14-1.67,5.36-1.67,5.36a43.68,43.68,0,0,1,17.18,1.43s-2,15-16.16,13.36c0,0,4.24,4.8,3.55,5.12s-8.8,1.43-12.3-5C108.16,59.1,108.15,64.73,106.92,62.87Z"/></g><g id="_Group_9" data-name="&lt;Group&gt;"><path id="_Path_23" data-name="&lt;Path&gt;" class="cls-12" d="M96.41,25C96,26.41,98,34.37,105.54,36.9s18-3.33,18.22-7.84c0-1.08-5,.13-5,.13a13.19,13.19,0,0,0,3.85-8.93l-3,1.26s1-3.46-1.41-9.84a6.66,6.66,0,0,0-2.12,1.54s0-8.46-10.8-13.22c0,0,1.6,8,.93,11.2l-3.34-1.69a60.46,60.46,0,0,0,.35,10.71l-4.37-1.89s1.8,6.84,2.32,8.42C101.17,26.75,96.82,23.52,96.41,25Z"/></g><g id="_Group_10" data-name="&lt;Group&gt;"><path id="_Path_24" data-name="&lt;Path&gt;" class="cls-12" d="M77.07,35.79s-2.88-12.47-2.6-20.63c0,0,10.69,3.24,14.11,13,0,0,.81-3.41,1.49-4.27,0,0,3.69,2.79,2.84,9.53,0,0,1.89-1,3.31-1.67,0,0,2.37,13.56-7.55,17a17.3,17.3,0,0,1-16.77-3s4.2-.79,5.6-1c0,0-6.41-5.19-6.78-10.7Z"/></g><g id="_Group_11" data-name="&lt;Group&gt;"><path id="_Path_25" data-name="&lt;Path&gt;" class="cls-12" d="M63.51,55.43S62.27,51.16,63,43.8a17.07,17.07,0,0,1,9.46,11s2.29-2,3-1.54,0,6.65-6,8.42-11-5.9-10.82-6.65S63.51,55.43,63.51,55.43Z"/></g><g id="_Group_12" data-name="&lt;Group&gt;"><path id="_Path_26" data-name="&lt;Path&gt;" class="cls-12" d="M88.91,58C83,63.21,84.83,70.41,85.64,71.62s3.65-4,3.65-4,3.33,8.23,4.38,7.65,2.26-4.74,2.26-4.74,6.6,4.67,10.47,3.66c0,0,.29-8.35-8.44-14.9,0,0,4-1.9,2.5-3S92.17,55.06,88.91,58Z"/></g><path id="_Path_27" data-name="&lt;Path&gt;" class="cls-13" d="M125.08,49.82c-.11-.42-.5-.52-.92-.4a78.65,78.65,0,0,1-15.85,2c1-3.69,5.36-7.84,5.41-7.88a.4.4,0,1,0-.54-.58c-.21.19-4.72,4.5-5.69,8.47a56.65,56.65,0,0,1-12.73-1.16c8.33-6.47,12.83-12.72,14.91-20.81A23.42,23.42,0,0,0,119,24.79a.41.41,0,0,0,0-.56.4.4,0,0,0-.56,0,23.13,23.13,0,0,1-8.57,4.39,55.73,55.73,0,0,0,1.26-12.42c0-.44-.11-.82-.55-.82s-.52.38-.53.82a45.44,45.44,0,0,1-2.28,15.22A46.21,46.21,0,0,1,103,22.81a.39.39,0,0,0-.52-.21.4.4,0,0,0-.21.52c.11.26,2.64,6.12,5.25,9.13-3,8.35-12,16.64-19.49,20.94a18.34,18.34,0,0,0,2-9.26,18.74,18.74,0,0,0,3.58-8.41.4.4,0,0,0-.34-.45.4.4,0,0,0-.45.34,19.09,19.09,0,0,1-2.86,7.32c-.78-8.76-6.4-16.28-6.48-16.39-.27-.36-.67-.59-1-.32s-.28.59,0,.94c.09.11,5.72,8,6.06,16.67a21.57,21.57,0,0,0-9.66-4.57.4.4,0,0,0-.46.33.41.41,0,0,0,.33.46,21.16,21.16,0,0,1,9.8,4.84,16.7,16.7,0,0,1-3.79,10.63C74,62.05,68.45,69.85,65.59,75.55c.41.4.83.79,1.25,1.18C69.56,71.16,75,63.27,85.65,56.59q4.13-2.6,7.46-5.06A52.75,52.75,0,0,0,103.65,53a73.92,73.92,0,0,0,20.8-2.36C124.87,50.48,125.19,50.24,125.08,49.82Z"/></g><g id="_Group_13" data-name="&lt;Group&gt;"><path id="_Path_28" data-name="&lt;Path&gt;" class="cls-14" d="M59.31,158.77C29.21,150.7,8.82,126.24,0,78.82c0,0,55.18-39.16,119.83-10.17C119.83,68.65,129,138.38,59.31,158.77Z"/><path id="_Path_29" data-name="&lt;Path&gt;" class="cls-15" d="M119.83,68.65A119.88,119.88,0,0,0,73.09,58s0,0,0,.08c2,12.16-2.73,26.88-10.21,36.41A50.87,50.87,0,0,1,30,113a47.65,47.65,0,0,1-20.91-2.09c10.88,26.8,27.88,41.86,50.25,47.86C129,138.38,119.83,68.65,119.83,68.65Z"/><path id="_Compound_Path_" data-name="&lt;Compound Path&gt;" class="cls-16" d="M120.16,80.3c0-.58,0-1.16,0-1.71a136.87,136.87,0,0,0-29.54-8.42c-3-.54-6.33-1-9.92-1.47.51-3.7,1.12-7.08,1.78-10.12l-1.65-.15c-.65,3-1.26,6.39-1.77,10.08a210.14,210.14,0,0,0-30.52-1.08c.37-2.85.78-5.42,1.2-7.73L48.14,60c-.4,2.25-.79,4.76-1.14,7.5a246.69,246.69,0,0,0-28.66,2.92c.05-.5.1-1,.16-1.46l-1.66.73c0,.34-.07.65-.1,1-1.09.18-2.2.39-3.31.58-1.86.9-3.55,1.76-5,2.57,2.77-.56,5.52-1.07,8.21-1.52a214.93,214.93,0,0,0-.44,30.11q-4.71.77-9.62,1.74c.18.51.35,1,.53,1.51,3.11-.62,6.18-1.18,9.18-1.67.46,7.91,1.35,16.54,2.8,25.87q1,1.5,2.07,2.91a272.62,272.62,0,0,1-3.31-29A243,243,0,0,1,45.66,101a267.48,267.48,0,0,0,3.16,31.72,235.25,235.25,0,0,0-26.43,1.73c.38.48.76,1,1.15,1.45a231.52,231.52,0,0,1,25.54-1.58q1.76,10.76,4.6,22.71l1.76.58c-2-8.17-3.55-16-4.76-23.29a196.83,196.83,0,0,1,32.07,2.61c.71,3.26,1.53,6.62,2.42,10,.47-.31.94-.61,1.39-.93-.77-3-1.5-5.95-2.13-8.82,3.77.66,7.23,1.41,10.38,2.18.48-.45,1-.9,1.42-1.35-3.44-.88-7.26-1.72-11.45-2.46l-.73-.13a217.82,217.82,0,0,1-4.52-33.09,154,154,0,0,1,34.6,8.16c.19-.5.38-1,.56-1.51A145.86,145.86,0,0,0,88.9,102.1c-2.89-.51-6.06-1-9.47-1.41a173.66,173.66,0,0,1,1.1-30.35C100.77,72.8,114.28,77.76,120.16,80.3ZM17.71,102.16A214.33,214.33,0,0,1,18.19,72,242.94,242.94,0,0,1,46.8,69.09a205.7,205.7,0,0,0-1.19,30.32A248.58,248.58,0,0,0,17.71,102.16Zm32.71,30.56A265.39,265.39,0,0,1,47.23,101a207.64,207.64,0,0,1,30.67,1.22,221.62,221.62,0,0,0,4.48,33A198.45,198.45,0,0,0,50.42,132.72Zm27.4-32.22a209.29,209.29,0,0,0-30.64-1.15A203.35,203.35,0,0,1,48.39,69a208.22,208.22,0,0,1,30.49,1.1A173.3,173.3,0,0,0,77.82,100.5Z"/><path id="_Path_30" data-name="&lt;Path&gt;" class="cls-17" d="M119.83,68.65c-4.75-1.92-72.72,16.4-60.52,90.12,1.14,2,63-7.86,87.61-18.5C146.92,140.27,144.09,90.24,119.83,68.65Z"/><path id="_Path_31" data-name="&lt;Path&gt;" class="cls-18" d="M119,72.93S54.55,88.06,64.28,154.2a475.83,475.83,0,0,0,77-17.29S140.65,97,119,72.93Z"/><path id="_Path_32" data-name="&lt;Path&gt;" class="cls-19" d="M58.24,133.41a97.92,97.92,0,0,0,1.07,25.36c1.14,2,63-7.86,87.61-18.5a166,166,0,0,0-3-21.53C135,139.16,88.05,157,58.24,133.41Z"/><path id="_Path_33" data-name="&lt;Path&gt;" class="cls-20" d="M120.32,114.8c-3.46-1.7-7.85.45-9.89,3.53-1.74,2.64-2.31,6.81-.07,9.37,2.87,3.29,9.38,2.83,12.27-1.14C125.35,122.81,124.23,116.73,120.32,114.8Z"/><path id="_Path_34" data-name="&lt;Path&gt;" class="cls-21" d="M119.58,113.61c-3.26-2.88-9-1.42-11.66,2-2.42,3.13-2.85,8.47.4,11.16s8.51,1.2,11.13-1.85S122.69,116.37,119.58,113.61Z"/><path id="_Path_35" data-name="&lt;Path&gt;" class="cls-22" d="M117.35,114.57c-2.47-1.64-6.24.11-7.92,2.6-1.34,2-1.9,5.31-.12,7.14,2.07,2.13,6.5,1.35,8.58-1.28S119.81,116.21,117.35,114.57Z"/><path id="_Path_36" data-name="&lt;Path&gt;" class="cls-23" d="M64.35,128.31C80.18,82.84,119,72.93,119,72.93S72.05,84,64.35,128.31Z"/></g><g id="_Group_14" data-name="&lt;Group&gt;"><path id="_Path_37" data-name="&lt;Path&gt;" class="cls-24" d="M92.65,179.3l32.71,25.26,96.35-66.07s-22.19-14.78-29-18.71-19.89-11.16-39.34-1.75c-25,12.08-52,39.29-60.32,51.2C89.79,174,92.65,179.3,92.65,179.3Z"/><path id="_Path_38" data-name="&lt;Path&gt;" class="cls-25" d="M125.43,204.68l99.07-56.14s-.13-8.34-2.76-9.95c-5.58-3.41-18.47-3-35.55,4.82-23.82,11-49.27,37.59-59.59,49.74C122,198.57,125.43,204.68,125.43,204.68Z"/><g id="_Group_15" data-name="&lt;Group&gt;" class="cls-26"><path id="_Path_39" data-name="&lt;Path&gt;" class="cls-27" d="M129.21,190.18s-4.19-5-6.1-7.5-3.75-5.17-5.47-7.85a88,88,0,0,1-4.75-8.25,42,42,0,0,1-3.36-8.75,18.65,18.65,0,0,1-.48-4.49l.12-1.08a5.59,5.59,0,0,1,.41-1.62c-.9.88-1.78,1.76-2.64,2.62a20.11,20.11,0,0,0,.57,5.05,42.71,42.71,0,0,0,3.59,9.18,95.94,95.94,0,0,0,5,8.36c1.8,2.69,3.7,5.3,5.67,7.86s4.07,5.32,6.16,7.69c.59,1.84,1.08,9,1.11,11.24l1-.57C130.09,198.77,129.21,190.18,129.21,190.18Z"/><path id="_Path_40" data-name="&lt;Path&gt;" class="cls-27" d="M170.29,147.18c-1.58-.39-3.15-.73-4.73-1.07q-4.76-1-9.52-1.73c-6.37-1-12.78-1.79-19.23-2.17-3.23-.18-6.47-.27-9.72-.17a53.65,53.65,0,0,0-9.4,1c-1.29,1.15-2.56,2.3-3.79,3.45a20.93,20.93,0,0,1,3.91-1.22,51.75,51.75,0,0,1,9.35-1c3.16-.1,6.34,0,9.52.17,6.35.37,12.7,1.13,19,2.12q4.74.75,9.42,1.72c1.56.32,3.11.66,4.65,1,1.05.27,3.09.63,4.12.95.78.68,2.7,11.72,2.84,25.31l1.66-.94c-.09-10.11-1.77-25.27-2.31-25.84C174.73,148.34,171.59,147.52,170.29,147.18Z"/></g><path id="_Path_41" data-name="&lt;Path&gt;" class="cls-28" d="M166,155.66c-2-1.08-36.3-9.07-45.85-5.33a4.45,4.45,0,0,0-2.95,2.77c-2.26,7.69,15.27,25.86,18.41,29,.85,4.21,1.15,11.83,1.26,16.08L139,197a139.33,139.33,0,0,0-1.1-16.32c-7.73-7.74-19.63-22-18.19-26.83.13-.46.73-.8,1.21-1,8.19-3.51,40.83,3.52,42.88,4.57,1.2.94,2.24,10.44,2.67,24l2-1.13C168.24,168.59,166.94,156.19,166,155.66Z"/><path id="_Path_42" data-name="&lt;Path&gt;" class="cls-28" d="M155.25,164.55c-.82-1.23-18.06-7.3-23.52-6.55a3.09,3.09,0,0,0-2.2,1.09,2.05,2.05,0,0,0-.31,1.62c.78,3.87,12.57,11.49,15.24,13.17l.72,19.61,1.71-1-.71-19.63-.4-.25c-5.47-3.39-14.33-9.73-14.84-12.28a.33.33,0,0,1,0-.25,1.66,1.66,0,0,1,1-.38c5.07-.71,21.62,5.57,22,6.33s1.18,11.66,1.44,21.61l1.81-1C157,177.12,155.93,165.57,155.25,164.55Z"/><path id="_Path_43" data-name="&lt;Path&gt;" class="cls-28" d="M186.25,143.49c-19.26-7.65-45.6-8.69-58.75-8.67l-1.92,1.54c12.1.06,39.65,1.07,58,8.37A210.13,210.13,0,0,1,186.65,170l1.91-1.08C187.83,153.33,186.47,143.83,186.25,143.49Z"/><path id="_Path_44" data-name="&lt;Path&gt;" class="cls-28" d="M201.78,137.9c-.25-.47-19.28-11.3-62.28-11.83l-1.31.88c41.06.57,61.39,11.62,61.39,11.62.74,2.67,1.67,16.6,2,23l1.25-.7C202.59,153.65,201.94,138.92,201.78,137.9Z"/><path id="_Path_45" data-name="&lt;Path&gt;" class="cls-28" d="M212,136.56s-15.36-16-61.82-16.9l-1.73.93c40.63,1.19,60.19,14.5,61.73,16.16.85,4.64,1,14.72,1,19.35l1.2-.68C212.29,149.36,212,136.56,212,136.56Z"/><path id="_Path_46" data-name="&lt;Path&gt;" class="cls-29" d="M221.74,138.59c-3.15-1.93-8.65-2.64-15.92-1.48-8.69,22.51-38.49,44.26-74.49,50.67-1.81,2-3.4,3.8-4.73,5.37-4.6,5.42-1.17,11.53-1.17,11.53l99.07-56.14S224.37,140.2,221.74,138.59Z"/><path id="_Path_47" data-name="&lt;Path&gt;" class="cls-30" d="M126.6,193.15c1.33-1.57,2.92-3.38,4.73-5.37h0s-27.89-.92-32.44-25.86a89,89,0,0,0-5.8,7.31c-3.3,4.74-.44,10.07-.44,10.07l32.09,24.78C124.2,200.43,124.21,196,126.6,193.15Z"/><path id="_Path_48" data-name="&lt;Path&gt;" class="cls-30" d="M205.82,137.11c7.19-1.15,12.64-.46,15.81,1.43l.08,0s-22.19-14.78-29-18.71c-5.64-3.28-15.67-8.82-30.08-5.17C197.81,116,205.82,137.11,205.82,137.11Z"/><path id="_Path_49" data-name="&lt;Path&gt;" class="cls-31" d="M131.33,187.78c12.14-13.41,34.12-34.84,54.86-44.37a91.47,91.47,0,0,1,10.21-4c-6.16-13.53-27.87-23-43-21.39-20.71,10-42.84,30.42-54.52,43.89,4.55,24.94,32.44,25.86,32.44,25.86Z"/><path id="_Path_50" data-name="&lt;Path&gt;" class="cls-32" d="M102.52,162.4a158.06,158.06,0,0,1,37-32.66S120,149.06,102.52,162.4Z"/></g><g id="_Group_16" data-name="&lt;Group&gt;"><g id="_Group_17" data-name="&lt;Group&gt;"><path id="_Path_51" data-name="&lt;Path&gt;" class="cls-33" d="M74,198.68c3.35,2.61,17.73,12.21,19,16.43.67,2.15.91,6.59,2.27,8.42s5.35,1.59,7,.11c3.56-3.13,1.45-6.07-.45-8.06,2.4,2.63,5.54,2.9,7.83.68a7.09,7.09,0,0,0,0-10.42c-2.38-2.12-4.85-.83-7.1-.66-3.25.23-13.53-10.57-16.78-13.42l-10.21-9-9.67,8.56Z"/><g id="_Group_18" data-name="&lt;Group&gt;"><path id="_Path_52" data-name="&lt;Path&gt;" class="cls-34" d="M79.41,151.39c1.43,7.94-2.76,20.59.16,28.13,2.51,6.46,18.15,11.66,17.71,14.28-.12.71-7.11,4.27-11.43,1.32,2.58,3.07,4,7.2,3.53,8.75-.73,2.46-9.68-3.86-12.78-7.74,4.77,10.14,2.5,13,2.17,13.27-.76.69-2.07.06-2.79-.81-7.41-8.93-9.49-12.28-21.29-13.75-7.66-1-18.55,1.79-25.58-1.92C7.79,181.65,7.86,152,26.51,136.41,45.59,120.46,75.7,130.79,79.41,151.39Z"/></g><g id="_Group_19" data-name="&lt;Group&gt;" class="cls-35"><g id="_Group_20" data-name="&lt;Group&gt;" class="cls-35"><path id="_Path_53" data-name="&lt;Path&gt;" class="cls-36" d="M79.57,179.52a14.89,14.89,0,0,1-.68-2.51C70.82,184.9,59,189.5,47.7,189.67,29.09,190,21.37,182.42,14,174a29.9,29.9,0,0,0,15.15,18.91c7,3.71,17.92,1,25.58,1.92,11.8,1.47,13.88,4.82,21.29,13.75.72.87,2,1.5,2.79.81.33-.3,2.6-3.13-2.17-13.27,3.1,3.88,12.05,10.2,12.78,7.74.44-1.55-.95-5.68-3.53-8.75,4.32,2.95,11.31-.61,11.43-1.32C97.72,191.18,82.08,186,79.57,179.52Z"/></g></g><path id="_Path_54" data-name="&lt;Path&gt;" class="cls-37" d="M45.33,131.2C28.87,131,14.75,152.5,18.9,160.7c3.29,6.47,18.64,6,28.83,2,1.71-.68,18.14-7.15,17.44-17.32C64.63,137.44,54,131.29,45.33,131.2Z"/><path id="_Path_55" data-name="&lt;Path&gt;" class="cls-38" d="M44.71,134.84c-1.31-2.65-12.68,1.94-11.16,5.63C34.55,142.91,45.72,136.87,44.71,134.84Z"/><path id="_Path_56" data-name="&lt;Path&gt;" class="cls-38" d="M31.11,142.08c-1.82-1.68-7.11,3.83-4.68,5.46S33.53,144.32,31.11,142.08Z"/><path id="_Path_57" data-name="&lt;Path&gt;" class="cls-39" d="M36,188.56c-.25,2.69,9.71,3.28,10.13,1.26C46.61,187.36,36.19,186.33,36,188.56Z"/><path id="_Path_58" data-name="&lt;Path&gt;" class="cls-39" d="M48.74,189.62c-.36-1.83,5.68-1.6,5.47.43S49.14,191.65,48.74,189.62Z"/></g><path id="_Path_59" data-name="&lt;Path&gt;" class="cls-40" d="M91.62,201.87s7,7.25,11.14,9.82,7.93-.82,6.1-3.52-7.78-.17-7.78-.17l-8.18-6.84Z"/></g><g id="_Group_21" data-name="&lt;Group&gt;"><g id="_Group_22" data-name="&lt;Group&gt;"><g id="_Group_23" data-name="&lt;Group&gt;"><path id="_Path_60" data-name="&lt;Path&gt;" class="cls-41" d="M174.63,197s-14.45-4-14.23-2.5,8.3,5,8.3,5-5,2.09-3.76,3.43,9.69-2.65,9.69-2.65Z"/><path id="_Path_61" data-name="&lt;Path&gt;" class="cls-42" d="M155,215.12c6.47-1.69,17.12-6.72,17.89-14.56,1.21-12.37-16.5-8.89-20.71-23.44a22.89,22.89,0,0,1,0-10.76c-2.32-1.69-9.81-4.59-9.71-5.17.14-.78,9.37,1.82,9.37,1.82s-9.12-6.56-8.21-7.2,8.15,3.42,8.15,3.42-8.2-7.57-6.64-7.3,9.57,6.6,9.57,6.6a125.67,125.67,0,0,0,21.87,14.41c13.73,7.28,17.66,17.47,16.44,27.4-1,8.62-6.95,21.22-35.71,20.76A15.48,15.48,0,0,0,155,215.12Z"/><path id="_Path_62" data-name="&lt;Path&gt;" class="cls-43" d="M164.54,168.93a3.25,3.25,0,1,0,2.73-3.7A3.25,3.25,0,0,0,164.54,168.93Z"/><path id="_Path_63" data-name="&lt;Path&gt;" class="cls-44" d="M168.51,169.43a.65.65,0,1,0,1.29-.19.65.65,0,0,0-1.29.19Z"/><path id="_Path_64" data-name="&lt;Path&gt;" class="cls-44" d="M166.64,167.46A1.27,1.27,0,1,0,167.7,166,1.27,1.27,0,0,0,166.64,167.46Z"/><path id="_Path_65" data-name="&lt;Path&gt;" class="cls-41" d="M139.39,226.4c-2.44-3.21,7.61-6.92,7.61-6.92s-10.3-1.14-9.5-4.31c.72-2.81,13.66.8,13.66.8a55.8,55.8,0,0,0,5.94-1.45,9.75,9.75,0,0,0,3,6.58c-2.49,0-5.14,0-8-.22C152.15,220.88,141.64,229.36,139.39,226.4Z"/></g></g><path id="_Path_66" data-name="&lt;Path&gt;" class="cls-45" d="M174.09,171.62c.79.44,1.59.88,2.42,1.32a45.13,45.13,0,0,1,4.39,2.66c-1.75,3.64-6.27,11.78-13.28,15.76-1.11-.67-2.32-1.3-3.57-2C166.75,187.28,172.05,181.91,174.09,171.62Z"/><path id="_Path_67" data-name="&lt;Path&gt;" class="cls-46" d="M193.07,194.9c-4.06,2-12,5.21-20.19,4a8.37,8.37,0,0,0-.56-2.72,30.46,30.46,0,0,0,18-10.63A23.28,23.28,0,0,1,193.07,194.9Z"/><path id="_Path_68" data-name="&lt;Path&gt;" class="cls-47" d="M170.53,206a11.91,11.91,0,0,0,1.71-3c2.68,1.45,11.22,5.62,18.77,4.16a19.91,19.91,0,0,1-6.64,7.76A24.86,24.86,0,0,1,170.53,206Z"/><path id="_Path_69" data-name="&lt;Path&gt;" class="cls-47" d="M166.81,209.6a19.69,19.69,0,0,0,8.72,9.45,48.54,48.54,0,0,1-7.2,1.47,17.82,17.82,0,0,1-4.75-8.86A30,30,0,0,0,166.81,209.6Z"/><path id="_Path_70" data-name="&lt;Path&gt;" class="cls-48" d="M152.13,177.12a20.13,20.13,0,0,1-.49-7.83c4.81.29,13.49,1.59,15.2,7.1,1.47,4.74-1.68,9.25-5,11.87C157.86,186,153.86,183.09,152.13,177.12Z"/><path id="_Path_71" data-name="&lt;Path&gt;" class="cls-49" d="M172.27,191.89c-1.9-1.08-3.27-3.67-2.39-5.38,1-2,4.81-2.46,6.76-.54,1.57,1.54,1.86,4.56.27,5.93C175.57,193.06,173.47,192.57,172.27,191.89Z"/><path id="_Path_72" data-name="&lt;Path&gt;" class="cls-49" d="M175.86,207.39c-2.43-.69-1.64-11.27,2.24-10.94C183.66,196.92,180.11,208.6,175.86,207.39Z"/></g></g></g></g></svg>