<svg xmlns="http://www.w3.org/2000/svg" xmlns:xlink="http://www.w3.org/1999/xlink" viewBox="0 0 222.51 196.71"><defs><style>.cls-1{fill:#8ab273;}.cls-2{fill:#c4d39c;}.cls-3{fill:#589036;}.cls-4{fill:#9fc67f;}.cls-5{fill:#84b73b;}.cls-6{fill:#538416;}.cls-7{fill:#71a726;}.cls-8{fill:url(#linear-gradient);}.cls-9{fill:url(#linear-gradient-2);}.cls-10{fill:url(#linear-gradient-3);}.cls-11{fill:url(#linear-gradient-4);}.cls-12{fill:url(#linear-gradient-5);}.cls-13{fill:url(#linear-gradient-6);}.cls-14{fill:url(#linear-gradient-7);}.cls-15{fill:#8ec726;}.cls-16{fill:url(#linear-gradient-8);}.cls-17{fill:url(#linear-gradient-9);}.cls-18{fill:url(#linear-gradient-10);}.cls-19{fill:url(#linear-gradient-11);}.cls-20{fill:gold;}.cls-21{fill:url(#linear-gradient-12);}.cls-22{fill:#fbcd00;}.cls-23{fill:#f4bb00;}.cls-24{fill:#edab00;}.cls-25{fill:#eca900;}.cls-26{fill:#789844;}.cls-27{fill:#6c8d46;}.cls-28{fill:#fff188;}.cls-29{fill:#9fc950;}.cls-30{fill:#614256;}.cls-31{fill:#523647;}.cls-32{fill:url(#linear-gradient-13);}.cls-33{fill:#91717e;}.cls-34{fill:#4a2f3d;}.cls-34,.cls-48{opacity:0.5;}.cls-35{fill:#688c2e;}.cls-36{fill:#7fa03e;}.cls-37{fill:url(#linear-gradient-14);}.cls-38{fill:#e1301a;}.cls-39{fill:#cf2715;}.cls-40{fill:#486800;}.cls-41{fill:#5b7228;}.cls-42{fill:#ea3e22;}.cls-43{fill:#fff;opacity:0.1;}.cls-44{fill:#ffc7b2;}.cls-45{fill:#d8c5bc;}.cls-46{fill:#b48a60;}.cls-47{fill:#a97f57;}.cls-48{fill:#8f6243;}.cls-49{fill:#c79f72;}.cls-50{fill:#e3d6c2;}.cls-51{fill:#ede9d6;}.cls-52{fill:#b79f87;}.cls-53{fill:#cdbaa4;}.cls-54{fill:#f1ecde;}.cls-55{fill:#f8f6ea;}.cls-56{fill:#cbac74;}.cls-57{fill:url(#linear-gradient-15);}.cls-58{fill:#6f812c;}.cls-59{fill:url(#radial-gradient);}.cls-60{fill:url(#radial-gradient-2);}.cls-61{fill:url(#radial-gradient-3);}.cls-62{fill:url(#linear-gradient-16);}.cls-63{fill:#8f5623;}.cls-64{fill:#e5d5b4;}</style><linearGradient id="linear-gradient" x1="738.8" y1="339.04" x2="709.8" y2="401.39" gradientTransform="translate(-721.29 -118.82) rotate(-16.54)" gradientUnits="userSpaceOnUse"><stop offset="0" stop-color="#8ec726"/><stop offset="1" stop-color="#6d9f3b"/></linearGradient><linearGradient id="linear-gradient-2" x1="708" y1="337.81" x2="700.34" y2="370.15" xlink:href="#linear-gradient"/><linearGradient id="linear-gradient-3" x1="645.97" y1="326.82" x2="675.98" y2="365.13" xlink:href="#linear-gradient"/><linearGradient id="linear-gradient-4" x1="687.55" y1="347.15" x2="687.55" y2="393.17" xlink:href="#linear-gradient"/><linearGradient id="linear-gradient-5" x1="693.65" y1="353.08" x2="713.05" y2="422.85" gradientTransform="translate(-721.29 -118.82) rotate(-16.54)" gradientUnits="userSpaceOnUse"><stop offset="0" stop-color="#c7e339"/><stop offset="0.3" stop-color="#b9dd3e"/><stop offset="0.88" stop-color="#95ce4b"/><stop offset="1" stop-color="#8ccb4e"/><stop offset="1" stop-color="#8ccb4e"/></linearGradient><linearGradient id="linear-gradient-6" x1="715.5" y1="370.04" x2="713.76" y2="430.94" gradientTransform="translate(-721.29 -118.82) rotate(-16.54)" gradientUnits="userSpaceOnUse"><stop offset="0" stop-color="#8ec726"/><stop offset="1" stop-color="#5d9734"/></linearGradient><linearGradient id="linear-gradient-7" x1="706.8" y1="349.42" x2="726.2" y2="419.22" xlink:href="#linear-gradient-5"/><linearGradient id="linear-gradient-8" x1="696.57" y1="328.53" x2="741.9" y2="406.85" xlink:href="#linear-gradient-5"/><linearGradient id="linear-gradient-9" x1="650.2" y1="355.42" x2="695.5" y2="433.68" xlink:href="#linear-gradient-5"/><linearGradient id="linear-gradient-10" x1="719.63" y1="345.84" x2="739.03" y2="415.65" xlink:href="#linear-gradient-5"/><linearGradient id="linear-gradient-11" x1="670.24" y1="383.01" x2="693.93" y2="415.17" gradientTransform="translate(-721.29 -118.82) rotate(-16.54)" gradientUnits="userSpaceOnUse"><stop offset="0" stop-color="#a5d251"/><stop offset="1" stop-color="#8ec726"/></linearGradient><linearGradient id="linear-gradient-12" x1="97.24" y1="41.59" x2="140.21" y2="81.23" gradientTransform="translate(-23.84)" gradientUnits="userSpaceOnUse"><stop offset="0" stop-color="#ffeb1f"/><stop offset="1" stop-color="gold"/></linearGradient><linearGradient id="linear-gradient-13" x1="35.09" y1="-710.93" x2="91.92" y2="-695.98" gradientTransform="matrix(0.71, 0.7, -0.7, 0.71, -397.18, 547.06)" gradientUnits="userSpaceOnUse"><stop offset="0" stop-color="#8a5881"/><stop offset="1" stop-color="#614256"/></linearGradient><linearGradient id="linear-gradient-14" x1="-104.78" y1="4429.95" x2="-156.09" y2="4514.49" gradientTransform="matrix(-0.78, -0.63, 0.63, -0.78, -2860.38, 3506.91)" gradientUnits="userSpaceOnUse"><stop offset="0" stop-color="#669e3e"/><stop offset="1" stop-color="#88c053"/></linearGradient><linearGradient id="linear-gradient-15" x1="197.25" y1="58.91" x2="147.2" y2="142.33" gradientTransform="translate(69.41 -21.46) rotate(29.39)" gradientUnits="userSpaceOnUse"><stop offset="0" stop-color="#545b03"/><stop offset="0.35" stop-color="#4e5708"/><stop offset="0.81" stop-color="#3d4d18"/><stop offset="1" stop-color="#344820"/></linearGradient><radialGradient id="radial-gradient" cx="-695.92" cy="3796.96" r="1.51" gradientTransform="matrix(58.22, -6.62, -3.59, -31.59, 54291.2, 115484.3)" gradientUnits="userSpaceOnUse"><stop offset="0" stop-color="#ffd97e"/><stop offset="0.33" stop-color="#ffd97e"/><stop offset="0.44" stop-color="#f6d579"/><stop offset="0.61" stop-color="#dec96a"/><stop offset="0.82" stop-color="#b8b553"/><stop offset="1" stop-color="#91a23c"/></radialGradient><radialGradient id="radial-gradient-2" cx="-702.7" cy="-178.6" r="1.53" gradientTransform="matrix(41.48, -6.24, -4.83, -32.14, 28438.22, -9988.45)" gradientUnits="userSpaceOnUse"><stop offset="0" stop-color="#ffeb8f"/><stop offset="0.5" stop-color="#ffeb8f"/><stop offset="1" stop-color="#c8cc44"/></radialGradient><radialGradient id="radial-gradient-3" cx="-532.79" cy="-18.44" r="45.43" gradientTransform="matrix(0.67, 0.16, -0.16, 0.67, 506.42, 238.26)" gradientUnits="userSpaceOnUse"><stop offset="0" stop-color="#d4be6b"/><stop offset="0.5" stop-color="#d4be6b"/><stop offset="1" stop-color="#b9af46"/></radialGradient><linearGradient id="linear-gradient-16" x1="-656.56" y1="-2264.67" x2="-655.53" y2="-2264.67" gradientTransform="matrix(-5.81, 65.08, 65.08, 5.81, 143720.35, 55967.36)" gradientUnits="userSpaceOnUse"><stop offset="0" stop-color="#c4a67f"/><stop offset="0.17" stop-color="#c1a179"/><stop offset="0.4" stop-color="#b99268"/><stop offset="0.67" stop-color="#ad7a4c"/><stop offset="0.96" stop-color="#9b5825"/><stop offset="1" stop-color="#98531f"/></linearGradient></defs><title>composition_4</title><g id="Layer_2" data-name="Layer 2"><g id="Layer_3" data-name="Layer 3"><g id="_Group_" data-name="&lt;Group&gt;"><g id="_Group_2" data-name="&lt;Group&gt;"><g id="_Group_3" data-name="&lt;Group&gt;"><path id="_Path_" data-name="&lt;Path&gt;" class="cls-1" d="M149.13,39.84a16.49,16.49,0,0,0,13.79-3.54c5.18-4.21,5.27-10,5-9.92S165,28.51,165,28.51s1.13-7.42-.81-11.47c-.48-1-3.75,4.47-3.75,4.47A45.43,45.43,0,0,0,149.56,7.25s-12,10.2-2.64,21.66c0,0-6.58-1-6.47-.25s3.68,8.52,11.28,8C151.73,36.64,146.81,39.81,149.13,39.84Z"/></g><g id="_Group_4" data-name="&lt;Group&gt;"><path id="_Path_2" data-name="&lt;Path&gt;" class="cls-1" d="M188.2,27.82c-1,1.16-9.14,3.86-15.56-1.33S165.43,8.8,169.28,6.12c.93-.64,2.7,4.47,2.7,4.47a13.76,13.76,0,0,1,5.66-8.39l.57,3.33s2.51-2.77,9.41-4.28A7,7,0,0,1,187.46,4s7.38-4.78,17.62,2.07c0,0-7.94,3.09-10.32,5.46l3.35,2a62.53,62.53,0,0,1-9.57,5.71l4.1,2.77s-7,2.26-8.67,2.68C184,24.64,189.24,26.65,188.2,27.82Z"/></g><g id="_Group_5" data-name="&lt;Group&gt;"><path id="_Path_3" data-name="&lt;Path&gt;" class="cls-1" d="M189.56,50.85s12.53-4.46,19.52-9.28c0,0-8.83-7.57-19.29-5.09,0,0,2.54-2.62,2.9-3.7,0,0-4.5-1.68-9.93,2.85,0,0-.19-2.22-.4-3.84,0,0-13.19,5.52-10.59,16.12a18,18,0,0,0,12,13.05s-1.67-4.12-2.31-5.45c0,0,8.13,2.72,13.16,0Z"/></g><g id="_Group_6" data-name="&lt;Group&gt;"><path id="_Path_4" data-name="&lt;Path&gt;" class="cls-2" d="M180,73.76s4.43-1.31,10.45-6.08a17.68,17.68,0,0,0-14.92-2.13s.47-3.14-.36-3.55-5.82,3.75-4,10,11.29,6.3,11.88,5.76S180,73.76,180,73.76Z"/></g><g id="_Group_7" data-name="&lt;Group&gt;"><path id="_Path_5" data-name="&lt;Path&gt;" class="cls-3" d="M163.54,52.88c-1.29,8.15-8.63,10.56-10.13,10.53S154.9,58,154.9,58s-9.08,1.69-9.16.44,2.88-4.64,2.88-4.64-7.78-3.17-9.07-7.13c0,0,7.15-4.94,17.77-.95,0,0-.59-4.6,1.22-3.87S164.24,48.41,163.54,52.88Z"/></g><path id="_Path_6" data-name="&lt;Path&gt;" class="cls-4" d="M150.38,16.59c.43-.13.73.15.87.59a81.88,81.88,0,0,0,7.12,15c2.66-3,3.85-9.1,3.86-9.16a.41.41,0,0,1,.49-.33.42.42,0,0,1,.33.48c-.06.29-1.3,6.66-4.23,9.74A59.61,59.61,0,0,0,167,43.45c1-10.93,3.95-18.39,9.87-24.75A24.22,24.22,0,0,1,175.7,7.92a.42.42,0,0,1,.47-.35.43.43,0,0,1,.35.48,23.93,23.93,0,0,0,.95,10A58.15,58.15,0,0,1,187.63,10c.39-.25.79-.37,1,0s0,.67-.42.92a47.59,47.59,0,0,0-12,10.53,47.51,47.51,0,0,0,10.22-.57.42.42,0,0,1,.13.82c-.28,0-6.84,1.11-10.93.51-5.62,7.32-7.83,19.87-7.4,28.84a19.1,19.1,0,0,1,7-7,19.48,19.48,0,0,1,5.37-7.85.41.41,0,0,1,.58,0,.42.42,0,0,1,0,.59,19.68,19.68,0,0,0-4.81,6.61c8.1-4.23,17.83-3.51,18-3.5.46,0,.88.26.85.71s-.36.58-.81.55c-.15,0-10.18-.56-18,4a22.23,22.23,0,0,1,9.41,5.91.41.41,0,1,1-.61.55,22.1,22.1,0,0,0-9.73-5.88,17.29,17.29,0,0,0-7.18,9.28c.09,13.13-3.62,22.39-7,28.09l-1.73-.43c3.35-5.51,7.2-14.71,7.08-27.79,0-3.4,0-6.5.24-9.39a53.87,53.87,0,0,1-7.14-8.44,76.62,76.62,0,0,1-9.6-19.58C149.92,17.15,149.94,16.73,150.38,16.59Z"/></g><g id="_Group_8" data-name="&lt;Group&gt;"><g id="_Group_9" data-name="&lt;Group&gt;"><path id="_Path_7" data-name="&lt;Path&gt;" class="cls-3" d="M107.08,184a9.21,9.21,0,0,0-1,10.76c.74.83,2.34-3.47,2.34-3.47s3.43,5.9,4.16,5.35,1.21-3.85,1.21-3.85,5.52,2.83,8.36,1.65c0,0-.69-6.39-8-10.42,0,0,2.86-1.89,1.58-2.55S109.25,181.49,107.08,184Z"/></g></g><g id="_Group_10" data-name="&lt;Group&gt;"><g id="_Group_11" data-name="&lt;Group&gt;"><path id="_Path_8" data-name="&lt;Path&gt;" class="cls-5" d="M110.76,37.82s-2.57-11.91-13.24-10.44-6.93,18.28-6.93,18.28Z"/><path id="_Path_9" data-name="&lt;Path&gt;" class="cls-5" d="M.71,59.42S-2.86,49.17,7.34,44.21s18.19,9,18.19,9S9.2,50.73.71,59.42Z"/><g id="_Group_12" data-name="&lt;Group&gt;"><path id="_Path_10" data-name="&lt;Path&gt;" class="cls-6" d="M102.63,15.7c-4.29-1.06-15.79,5.87-15.79,5.87S84.7,3.62,76.84,4.41c-6.89.69-12,15.66-12,15.66-4-11.51-10.19-16.65-15.38-15.7-10.74,2-15.9,32.33-24,30.07s-24.5,3-23.36,6.78C2.85,43.84,15.57,50,15.57,50c8.65,0,29.35,21.69,29.35,21.69a90.26,90.26,0,0,0,10,13.52,24.4,24.4,0,0,1,2.21-5.68l3.66-5.09a18.23,18.23,0,0,1,7.89-5.38,18.6,18.6,0,0,1,9.48-2.36,18.42,18.42,0,0,1,9.22,1.83,18.33,18.33,0,0,1,2.73,1c.25-10.39,1.32-22.81,4.72-29.1C101.29,28.51,106.92,16.77,102.63,15.7Z"/><path id="_Path_11" data-name="&lt;Path&gt;" class="cls-7" d="M81.87,58.15c7.71,1.08,8.42,28.62,8.42,28.62S91.4,96,75.84,97.16,44.92,71.71,44.92,71.71,78.24,57.63,81.87,58.15Z"/><path id="_Path_12" data-name="&lt;Path&gt;" class="cls-8" d="M88.93,55.7c2.28-17.11,6.5-38,12.24-53.27,0,0-16.61-7.21-21.32,3.2-1.78,3.93,6,10.4.52,10.85-2.27.19-17-3-20.05,9.63C56.63,41.38,88.93,55.7,88.93,55.7Z"/><path id="_Path_13" data-name="&lt;Path&gt;" class="cls-9" d="M39.79,43S26.09,9,32.58,6.22s14.19,11.19,18,10.05,7.67-7.68,13.3-6.85c6.1.9,3.88,16.6,6.1,16.36s10.52-8.14,7.56,10.7c-2.1,13.36-22.79,40.61-22.79,40.61Z"/><path id="_Path_14" data-name="&lt;Path&gt;" class="cls-10" d="M32.94,60.19S19.93,36.87.3,31.56c-2.51-.68,11.39-9.74,18.69-4.2,0,0,3.57-5.95,9.69-7.22,11.6-2.4,14,24.2,14.6,29.66S32.94,60.19,32.94,60.19Z"/><path id="_Path_15" data-name="&lt;Path&gt;" class="cls-11" d="M12.33,18.15S36.64,34.44,50,71.6C61.73,104.1,70.55,65.79,70,55.9S66.2,28.8,58.46,27,43.22,34,40.39,31.51s2-16.25-4.76-19.38C29.76,9.41,18.87,13.39,12.33,18.15Z"/><path id="_Path_16" data-name="&lt;Path&gt;" class="cls-12" d="M58.46,27c-7.7-1.75-15.24,6.91-18.07,4.47s2-16.25-4.76-19.38a11.21,11.21,0,0,0-4.87-.87h0s5.19.83,6.65,4.83c1.75,4.78-1.49,13.71,2.41,16.52S49.85,27.29,58.46,27Z"/><path id="_Path_17" data-name="&lt;Path&gt;" class="cls-13" d="M59.67,73.93c-4.49-3.66-8-11.67-5.91-17.21s12.1-.73,13-2S55.55,33.43,62,29.24c5-3.24,13,4.13,14.4,3.62,3.8-1.36,1.67-14.07,14.66-14.42-6.78,22.85-8.18,38.92-3.35,59.27,0,0,4.2,5.8,1.33,12.61A10,10,0,0,1,83.3,96s2.48-7.82-3.89-11.11C69.94,80,64.09,77.53,59.67,73.93Z"/><path id="_Path_18" data-name="&lt;Path&gt;" class="cls-14" d="M76.74,34.26c3.06-.91,3.91-8.28,5.8-12.44-3.71,4-3.56,10.12-6.14,11C75,33.37,67,26,62,29.24c-6.45,4.19,5.65,24.12,4.75,25.43-.6.89-5.33-1-9-.63,2.28.92,9.57,3.68,11,2,1.63-2-11.19-20.24-6.76-25.27C65.75,26.49,72.93,35.39,76.74,34.26Z"/><path id="_Path_19" data-name="&lt;Path&gt;" class="cls-15" d="M99.41,32.94c-6.36,1.9-6.9,6.18-9.35,7.9S86,36,78.8,39.57s-5.32,14.28.79,19.89c0,0-4.88-.36-5.92,2.26s4.86,5.81,4.73,8.16-7.65,3.1-5.07,6.79,13.32,3.64,14.23,8C89.85,95.56,72.81,100,67,92.07c-4.39-6,5.65-24.29-1.42-28.13s-12,2.26-14.5,0S49.59,45.75,44.1,43.91,39.44,48.76,37,49,29.52,35.66,22.44,37.36c-5.25,1.27-3.28,7.37-8.23,9C10.56,47.57.23,49.27.71,59.42c0,0,14.33-6.69,25.43,1.2,9.87,7,20.09,33.55,29.43,38.63,5.84,3.17,13.13,2.44,21.11.07,3.16-.94,6.48-1.88,9.19-3.81,5.77-4.1,7.4-9.91,6.84-16.55-.64-7.61-.86-14.83,1.22-22.28C97.49,44,110.76,37.82,110.76,37.82S106.79,30.75,99.41,32.94Z"/></g><path id="_Path_20" data-name="&lt;Path&gt;" class="cls-16" d="M70,25.78c-2.22.24,0-15.46-6.1-16.36-5.63-.83-9.47,5.71-13.3,6.85-2.69.8-7.29-5.83-12-8.9l-.11,0s8.46,10.33,11.69,10.17,8.53-7.19,12.59-7.2c5.65,0,3.6,16.23,6.59,16.6,1.6.21,3.83-2.58,6.53-3C73.85,23.54,71.14,25.65,70,25.78Z"/><path id="_Path_21" data-name="&lt;Path&gt;" class="cls-17" d="M22.33,38.65c3.62-1.45,9,4.16,10.47,5.71-2.66-3.66-6.16-8-10.36-7-5.25,1.27-3.28,7.37-8.23,9-3.1,1-11,2.41-13,9,0,.25-.09.5-.12.76a16.31,16.31,0,0,1,7.18-6.76c4.23-2,6.37-1.11,8.33-2.23C19.32,45.57,19.62,39.74,22.33,38.65Z"/><path id="_Path_22" data-name="&lt;Path&gt;" class="cls-18" d="M103,32.57a9.5,9.5,0,0,0-3.57.37c-6.36,1.9-6.9,6.18-9.35,7.9S86,36,78.8,39.57s-5.32,14.28.79,19.89c0,0-8.6-12.31-2-17.49,7.3-5.69,8.85,1.31,12.32.28C94.05,41,92.74,34.43,103,32.57Z"/></g><path id="_Path_23" data-name="&lt;Path&gt;" class="cls-19" d="M4.38,56.18a13,13,0,0,1,11.39-4.87c7.38.76,5.6-6.4,9.09-7.44s9.53,12,12.48,11.35,2.91-6.46,5.21-6.51,1.67,20.48,5.73,21.38S58.55,65.65,61,69.76,55.8,97.42,45.91,82.2C35.91,66.8,29.51,48.28,4.38,56.18Z"/></g><g id="_Group_13" data-name="&lt;Group&gt;"><g id="_Group_14" data-name="&lt;Group&gt;"><g id="_Group_15" data-name="&lt;Group&gt;"><path id="_Path_24" data-name="&lt;Path&gt;" class="cls-20" d="M116.52,46S106.45,24.75,88,31.47C75,36.18,69.51,52.76,76.79,78c4,13.84,24.62,48.74,44.77,26.89,0,0,6.14,6.93,15.11,6.72,24.06-.56,41.41-61.07,19.58-75.08C136.75,24,116.52,46,116.52,46Z"/><path id="_Path_25" data-name="&lt;Path&gt;" class="cls-21" d="M86.21,36.68c-7.46,2.82-9.78,14.82-9.36,22.39.7,12.73,10,28.07,20.8,27.33,9.46-.65,17.49-13.5,16.89-24.73C113.72,46,96.15,32.93,86.21,36.68Z"/><path id="_Path_26" data-name="&lt;Path&gt;" class="cls-22" d="M156.25,36.51c-13.19-8.46-26.7-1.13-34.07,4.51a14.07,14.07,0,0,0,1.1,4.34c9.64,23.11,1.46,57.34-16.36,58.51-13.54.89-26.88-18.72-32.8-38.32A87.08,87.08,0,0,0,76.78,78c4,13.84,24.63,48.74,44.78,26.89,0,0,6.14,6.93,15.11,6.72C160.73,111,178.08,50.52,156.25,36.51Z"/><path id="_Path_27" data-name="&lt;Path&gt;" class="cls-23" d="M156.25,36.51a25,25,0,0,0-4.73-2.38c6,49.54-38.09,70.52-65.86,61.78,8.79,12.84,22.45,23.55,35.9,9,0,0,6.14,6.93,15.11,6.72C160.73,111,178.08,50.52,156.25,36.51Z"/><path id="_Path_28" data-name="&lt;Path&gt;" class="cls-24" d="M136.67,111.59c20.62-.48,36.31-45,26.63-66.53,2.24,12.21-1.29,34-9.73,47.59-13.14,21.23-32,12.22-32,12.22S127.7,111.8,136.67,111.59Z"/><path id="_Path_29" data-name="&lt;Path&gt;" class="cls-25" d="M137.18,33.45C125.46,36.3,116.52,46,116.52,46s14.42,10.9,17.8,7.28C137,50.47,130.15,45,130.15,45S139.05,39.67,137.18,33.45Z"/><path id="_Path_30" data-name="&lt;Path&gt;" class="cls-26" d="M113.91,37.69s1.58-12-9.25-15.7l10.8-8.75s7.71,8.49,3.85,24.45c0,0,11.1-5.8,13.11-2.58,1.28,2.06-6.94,9-6.94,9s6.42,5.92,3.34,7.72S116,47.44,116,47.44s-15.41,5.61-15.15,3,8.75-7.38,8.75-7.38-8.23-6.43-7.46-9S110.32,32.8,113.91,37.69Z"/><path id="_Path_31" data-name="&lt;Path&gt;" class="cls-27" d="M116,47.44s9.79,6.2,12.87,4.4-3.34-7.72-3.34-7.72,8.22-6.95,6.94-9c-2-3.22-13.11,2.58-13.11,2.58,3.86-16-3.85-24.45-3.85-24.45l-2.78,2.25.14,2.75s8.93,9,4.6,20.92c0,0,9.76,7.19,9.12,9.77S116,47.44,116,47.44Z"/></g><path id="_Path_32" data-name="&lt;Path&gt;" class="cls-28" d="M87.27,40.86c-2.7-.33-6,4.27-6.07,8.62,0,3.76,2.44,8.13,5.07,8.12s4.91-4.61,5.07-8.29S89.79,41.17,87.27,40.86Z"/><path id="_Path_33" data-name="&lt;Path&gt;" class="cls-28" d="M85.26,61.32a3.81,3.81,0,0,0-3.72,3.55,3.93,3.93,0,0,0,4.39,3.72,3.75,3.75,0,0,0,3.21-3.21A3.87,3.87,0,0,0,85.26,61.32Z"/></g><path id="_Path_34" data-name="&lt;Path&gt;" class="cls-29" d="M115.46,13.24,104.66,22S117.38,24.78,115.46,13.24Z"/></g><g id="_Group_16" data-name="&lt;Group&gt;"><g id="_Group_17" data-name="&lt;Group&gt;"><path id="_Path_35" data-name="&lt;Path&gt;" class="cls-30" d="M209.87,39.18C205,36,193.58,36.3,188.51,42.63s-15.28,26.92-37,29C138.93,72.77,126,71,114.32,80.38c-8.91,7.14-15.39,18.76-10,35.93,5.09,16.35,19.71,26.26,38.24,26.46,18,.18,32.36-9.27,44.44-20.26C212.17,99.59,218,72.42,218.43,57A22,22,0,0,0,209.87,39.18Z"/><path id="_Path_36" data-name="&lt;Path&gt;" class="cls-31" d="M218.43,57a20.87,20.87,0,0,0-2-9.65c-4.34.56-14.31,1.19-13.33,9.24,0,.26.06.52.09.78-1.89-6.95-9.08-15-16.56-12.09-1.49,2.15-3.32,4.9-5.55,7.82a94.93,94.93,0,0,0,6.25,18.74,31.73,31.73,0,0,0,14.25-6.52,5.07,5.07,0,0,0,2-3.25c2,43.53-34.79,87.93-76,65.36-22.29-12.21-21.17-34.6-14.76-45.7-8.07,7.22-13.52,18.47-8.49,34.62,5.09,16.35,19.71,26.26,38.24,26.46,18,.18,32.36-9.27,44.44-20.26C212.17,99.59,218,72.42,218.43,57Z"/><path id="_Path_37" data-name="&lt;Path&gt;" class="cls-32" d="M174.78,86.52C166.84,73,128,73.83,118.9,86.33c-5.09,7-5.34,16.81-1.69,24,5.72,11.19,22.78,17.1,35.73,12.93C169.42,117.91,180.49,96.27,174.78,86.52Z"/><path id="_Path_38" data-name="&lt;Path&gt;" class="cls-33" d="M137.21,80c-.7-5.74-17.68-.69-17,3.43S137.7,84,137.21,80Z"/><path id="_Path_39" data-name="&lt;Path&gt;" class="cls-33" d="M141.91,78.78c-.37-4.5,7.61-4.51,8.38-1.42C151.42,81.88,142.25,82.9,141.91,78.78Z"/><path id="_Path_40" data-name="&lt;Path&gt;" class="cls-34" d="M218.43,57a22,22,0,0,0-8.56-17.78,16,16,0,0,0-8.72-2,57.77,57.77,0,0,1,8.61,28.22c.76,14-5.93,27.31-15,37.5-19.78,22.15-54.27,20.71-74.57.82a50.78,50.78,0,0,1-11.65-17.52c-5.51,7.11-8.32,17-4.24,30.07,5.09,16.35,19.71,26.26,38.24,26.46,18,.18,32.36-9.27,44.44-20.26C212.17,99.59,218,72.42,218.43,57Z"/><path id="_Path_41" data-name="&lt;Path&gt;" class="cls-35" d="M213.23,19.06l-5.37,16.17S179,31.94,174,54.91c0,0,8.59-3.55,11.91-3.7,0,0-4.12,4.9-3.69,16.59,0,0,9.72-.3,16.54-6.6,0,0-1.9,8,2.32,14.39a24.58,24.58,0,0,0,11.5-10.18s.17,15,.65,23.24c0,0,21.72-27.24-1.11-51.52l7.71-16.26Z"/></g><path id="_Path_42" data-name="&lt;Path&gt;" class="cls-36" d="M186.91,62.54s18.36-5.89,15.61-23c-8.87-1.31-19.17,3.53-21.28,8.48l10-1.89S186.65,56.83,186.91,62.54Z"/></g><g id="_Group_18" data-name="&lt;Group&gt;"><g id="_Group_19" data-name="&lt;Group&gt;"><path id="_Path_43" data-name="&lt;Path&gt;" class="cls-3" d="M47,104.17A18.53,18.53,0,0,1,42,119.33c-5.13,5.48-11.61,5.11-11.49,4.76s2.62-3,2.62-3-8.39.67-12.76-1.82c-1.1-.63,5.29-3.85,5.29-3.85A51.15,51.15,0,0,1,10.56,102S22.93,89.41,35,100.82c0,0-.63-7.46.25-7.27s9.22,4.8,8,13.28C43.25,106.83,47.18,101.57,47,104.17Z"/></g><path id="_Path_44" data-name="&lt;Path&gt;" class="cls-37" d="M21,103.7c-.19.48.1.83.58,1a92.08,92.08,0,0,1,16.23,9.19c-3.53,2.74-10.48,3.58-10.55,3.59a.47.47,0,0,0,.1.93c.33,0,7.55-.92,11.23-4a69.67,69.67,0,0,1,10,8.7,11.61,11.61,0,0,1,1.37-1.25,65.38,65.38,0,0,0-6.67-6.18,85.66,85.66,0,0,0-21.11-12.32C21.6,103.23,21.13,103.23,21,103.7Z"/></g><g id="_Group_20" data-name="&lt;Group&gt;"><path id="_Path_45" data-name="&lt;Path&gt;" class="cls-38" d="M79.28,93.22A27.8,27.8,0,0,0,57,88.92C43.53,91.85,35.9,113.18,46.3,129.74s27.14,16.31,33,16.56,25.46-1.67,34-18.4c8.88-17.41,1-34.68-10.15-39S79.28,93.22,79.28,93.22Z"/><path id="_Path_46" data-name="&lt;Path&gt;" class="cls-39" d="M112.29,96.48C111.06,121.4,89.37,140,61.63,143.05c7.3,3.12,14.29,3.1,17.65,3.25,5.83.25,25.46-1.67,34-18.4C119.34,116,117.58,104.16,112.29,96.48Z"/><g id="_Group_21" data-name="&lt;Group&gt;"><path id="_Path_47" data-name="&lt;Path&gt;" class="cls-40" d="M78.53,92.33c.23,0,.45,0,.69,0a8.91,8.91,0,0,1,1.5.13c.25-4,.65-8.48,1.1-11.41.27-1.74-4.69-1.63-4.34.26A93.39,93.39,0,0,1,78.53,92.33Z"/></g><path id="_Path_48" data-name="&lt;Path&gt;" class="cls-41" d="M79.28,95.67c-8,0-16.55-4.81-21.47-9.8,0,0,10.47.37,16.62,4.55A18.59,18.59,0,0,1,72,79s6,5.19,7.3,11.37c0,0,2.63-6.45,9.5-7.19a52.86,52.86,0,0,1-4,7.11s3.64-3.39,10.34-3.3A18,18,0,0,1,79.28,95.67Z"/><path id="_Path_49" data-name="&lt;Path&gt;" class="cls-42" d="M55.17,98.91c-6.1,2.87-10.7,11.63-6.08,22.62,3.76,8.95,13.47,14.24,22.71,11.5,8.62-2.56,14.11-8.79,11.45-20.53C80.68,101.16,63.84,94.82,55.17,98.91Z"/><path id="_Path_50" data-name="&lt;Path&gt;" class="cls-43" d="M54,94.36c-7.59,2.52-14.34,17.49-2.27,26.69,11.3,8.61,24.5-3.45,23.89-14.27C75.07,97.63,63,91.36,54,94.36Z"/><path id="_Path_51" data-name="&lt;Path&gt;" class="cls-44" d="M57.63,97.53C55.93,96.19,53.1,97.07,52,99a3.86,3.86,0,0,0,.5,4.68c1.65,1.44,4.73.66,5.86-1.36A3.85,3.85,0,0,0,57.63,97.53Z"/></g><g id="_Group_22" data-name="&lt;Group&gt;"><g id="_Group_23" data-name="&lt;Group&gt;"><g id="_Group_24" data-name="&lt;Group&gt;"><polygon id="_Path_52" data-name="&lt;Path&gt;" class="cls-45" points="42.91 137.97 60.62 129.91 69.48 147.94 48.5 157.82 42.91 137.97"/><path id="_Path_53" data-name="&lt;Path&gt;" class="cls-46" d="M30.62,126.62c-12.68,4.79-17.23,20.86-12.29,32.51,5.5,13,22.74,20.49,34.86,13.74,10.8-6,13.49-21.1,8.32-32S42.84,122,30.62,126.62Z"/><path id="_Path_54" data-name="&lt;Path&gt;" class="cls-47" d="M61.51,140.92c-4.9-10.28-17.53-18.21-29.32-14.81,8.93,3.22,15,11.92,15.46,21.83.5,11.2-7.06,21-19.36,22.82,7.5,4.93,17.23,6.39,24.9,2.11C64,166.86,66.68,151.77,61.51,140.92Z"/><path id="_Path_55" data-name="&lt;Path&gt;" class="cls-48" d="M38.75,167.65a25.15,25.15,0,0,1-21.66-12.36,24.23,24.23,0,0,0,1.24,3.84c5.5,13,22.74,20.49,34.86,13.74,8.47-4.71,11.94-15,10.57-24.45C60.91,159.31,50,167.65,38.75,167.65Z"/></g><g id="_Group_25" data-name="&lt;Group&gt;"><g id="_Group_26" data-name="&lt;Group&gt;"><g id="_Group_27" data-name="&lt;Group&gt;"><path id="_Path_56" data-name="&lt;Path&gt;" class="cls-49" d="M48.64,161c-1.83,2.62-3.86,6.95-3.86,14.39,0,12,13.7,20.05,27.55,20.05,15.34,0,26.78-6.38,27.7-18.9a23.91,23.91,0,0,0-4.51-15.76C80.17,160.92,64,160.83,48.64,161Z"/><path id="_Path_57" data-name="&lt;Path&gt;" class="cls-46" d="M95.52,160.77l-6.71,0a23.59,23.59,0,0,1,2.88,10.31c.52,11.61-10.24,21.49-21.46,21.49-12,0-21.65-8.88-21.46-21.49a19.51,19.51,0,0,1,4.14-10.89c-.87,0-3.39.74-4.27.75-1.83,2.62-3.86,6.95-3.86,14.39,0,12,13.7,20.05,27.55,20.05,15.34,0,26.78-6.38,27.7-18.9A23.91,23.91,0,0,0,95.52,160.77Z"/><path id="_Path_58" data-name="&lt;Path&gt;" class="cls-48" d="M95.52,160.77c-3.6,0-10.89,4.51-9.53,9,4,13.34-1.69,20.32-8.18,25.34,12.52-1.38,21.42-7.63,22.22-18.61A23.91,23.91,0,0,0,95.52,160.77Z"/><path id="_Path_59" data-name="&lt;Path&gt;" class="cls-50" d="M48.62,160.94c.87-1.13,10.4-10.84,23.79-10.78,13.23.06,22.32,9.62,23.21,10.78-4,7.85-14.07,13-23.34,13S52.64,168.49,48.62,160.94Z"/><path id="_Path_60" data-name="&lt;Path&gt;" class="cls-51" d="M50.26,163.45h0c4.76,6.21,13.82,10.46,22,10.46a28.79,28.79,0,0,0,10.89-2.24C63.69,177.94,50.26,163.45,50.26,163.45Z"/><path id="_Path_61" data-name="&lt;Path&gt;" class="cls-52" d="M57.26,160.42c.55-.71,6.57-6.85,15-6.82s14.12,6.09,14.69,6.82c-2.54,5-8.9,8.21-14.77,8.21S59.8,165.2,57.26,160.42Z"/><path id="_Path_62" data-name="&lt;Path&gt;" class="cls-50" d="M59.9,160.47c.08-3.3.84-9.33,1.23-12.75,2.2-1.56,19.91-1.87,22-.23.58,3,1.5,11.75,1.23,13-1.46,3.27-7.31,6.28-12.13,6.28S61.47,163.51,59.9,160.47Z"/><path id="_Path_63" data-name="&lt;Path&gt;" class="cls-53" d="M83.11,147.49c-1-.76-6.85,1.14-6.85,1.14l1,17.19c3.24-1.14,6.13-3.19,7.09-5.35C84.61,159.24,83.69,150.49,83.11,147.49Z"/><path id="_Path_64" data-name="&lt;Path&gt;" class="cls-54" d="M60.94,147.46c.41-.54,5-5.16,11.32-5.13a15.76,15.76,0,0,1,11,5.13c-1.91,3.73-6.69,6.17-11.1,6.17S62.85,151.05,60.94,147.46Z"/><path id="_Path_65" data-name="&lt;Path&gt;" class="cls-55" d="M61.13,147.72v0c2,3.43,6.79,5.87,11.08,5.87a13.35,13.35,0,0,0,4.17-.69A17.35,17.35,0,0,1,61.13,147.72Z"/></g></g></g></g><path id="_Path_66" data-name="&lt;Path&gt;" class="cls-56" d="M29.62,134.44c-4.27-.15-8.15,5.72-8.67,10.86s2,11.84,6.5,12.53,9-4.77,9.85-9.86C38.31,141.89,34.28,134.61,29.62,134.44Z"/></g><g id="_Group_28" data-name="&lt;Group&gt;"><g id="_Group_29" data-name="&lt;Group&gt;"><g id="_Group_30" data-name="&lt;Group&gt;"><path id="_Path_67" data-name="&lt;Path&gt;" class="cls-57" d="M104,148.87s3.13,30,37.72,38.7c35.89,9,64.66-13.79,73.11-51.55Z"/><path id="_Path_68" data-name="&lt;Path&gt;" class="cls-58" d="M202,155.05c7.27-7.84,17.74-21.56,13.35-32.89-5.23-13.46-28.93-11.84-46.94-11.86-24,0-47.08-4-58,10.67-9.84,13.23-11.53,40.91,12.09,52.37C157.49,190.33,192,165.78,202,155.05Z"/></g></g><g id="_Group_31" data-name="&lt;Group&gt;"><path id="_Path_69" data-name="&lt;Path&gt;" class="cls-59" d="M118.68,118.69c-10.76,6.65-21.63,34.36,2.45,49.4,25.56,16,62.77-2.46,73.83-11.87,10.24-8.72,21-23,14.75-34s-25-7.7-45.73-8.36S132.12,110.38,118.68,118.69Z"/></g><g id="_Group_32" data-name="&lt;Group&gt;"><path id="_Path_70" data-name="&lt;Path&gt;" class="cls-60" d="M152,118.44c-18.66-1-41.32,3.16-38.45,26.62,3.26,26.59,49.64,31.14,74.14,6.24,5.84-5.93,10.41-14.16,7.49-21.22C190.72,119.45,169.05,119.31,152,118.44Z"/></g><path id="_Path_71" data-name="&lt;Path&gt;" class="cls-61" d="M151.61,123.35c-12.81-1.75-16.09-.69-19.62,10.92-2.49,8.2-.36,17.76,10,22.24,15.62,6.74,35.28-.74,35.77-12.79C178.19,133.19,165,125.17,151.61,123.35Z"/><g id="_Group_33" data-name="&lt;Group&gt;"><path id="_Path_72" data-name="&lt;Path&gt;" class="cls-62" d="M173.22,136.63c-.06-16.82-25.06-26.34-37.54-17.29-6,4.34-12.5,13.44-10.5,21.7,2.49,10.28,13.9,13.54,23,13.52C165,154.5,173.24,144.72,173.22,136.63Z"/></g><path id="_Path_73" data-name="&lt;Path&gt;" class="cls-63" d="M173.22,136.63a16.55,16.55,0,0,0-1.16-6c-4.47,11.31-18,18-29.75,15.16a24.94,24.94,0,0,1-16.6-13.1,15.28,15.28,0,0,0-.53,8.38c2.49,10.28,13.9,13.54,23,13.52C165,154.5,173.24,144.72,173.22,136.63Z"/><path id="_Path_74" data-name="&lt;Path&gt;" class="cls-64" d="M151.09,121.18c-.63-3.89-11.07-2.49-10.6,2.49C140.93,128.21,151.83,125.74,151.09,121.18Z"/></g></g></g></g></svg>