<svg xmlns="http://www.w3.org/2000/svg" xmlns:xlink="http://www.w3.org/1999/xlink" viewBox="0 0 209.69 216.46"><defs><style>.cls-1{fill:#a37875;}.cls-2{fill:#804b4a;}.cls-3{fill:#713731;}.cls-4{fill:url(#linear-gradient);}.cls-5{fill:#e15915;}.cls-6{fill:#f2e1e2;}.cls-7{fill:#d59c86;}.cls-8{fill:url(#linear-gradient-2);}.cls-9{fill:#ffe34c;}.cls-10{fill:#fff050;}.cls-11{fill:#fff;}.cls-12{fill:#fff9ce;}.cls-13{fill:#e28130;}.cls-14{fill:#c55a32;}.cls-15{fill:#f2b35e;}.cls-16{fill:#e9deba;}.cls-17{fill:url(#linear-gradient-3);}.cls-18{fill:#ffce4e;}.cls-19{fill:#d16919;}.cls-20{fill:#ffe57b;}.cls-21{fill:#af3a00;}.cls-22{fill:#d2ad9d;}.cls-23{fill:#ddbfab;}.cls-24{fill:#e7d9cf;}.cls-25{fill:#f7ebb9;}.cls-26{fill:#64260f;}.cls-27{fill:#914020;}.cls-28{fill:#f6e1b6;}.cls-29{fill:#dead7a;}.cls-30{fill:#80a23e;}.cls-31{fill:#708f39;}.cls-32{fill:#9fcb3b;}.cls-33{fill:#7a3f31;}.cls-34{fill:#632f24;}.cls-35{fill:#8b4837;}.cls-36{fill:#9c513c;}.cls-37{fill:#863f32;}.cls-38{fill:#803d2c;}.cls-39{fill:#6d2f22;}.cls-40{fill:#572d1e;}.cls-41{fill:url(#linear-gradient-4);}.cls-42{fill:url(#linear-gradient-5);}.cls-43{fill:url(#linear-gradient-6);}.cls-44{fill:#c5ada0;}.cls-45{fill:url(#linear-gradient-7);}.cls-46{fill:url(#linear-gradient-8);}.cls-47{fill:#decec5;}.cls-48{fill:url(#linear-gradient-9);}.cls-49{fill:#bc9e95;}.cls-50{fill:#7a3923;}.cls-51{fill:#69311e;}.cls-52{fill:url(#linear-gradient-10);}.cls-53{fill:#dd7b1f;}.cls-54{fill:url(#linear-gradient-11);}.cls-55{fill:#f9dfc5;}.cls-56{fill:url(#linear-gradient-12);}.cls-57{fill:#f8dcc0;}.cls-58{fill:url(#linear-gradient-13);}.cls-59{fill:#f7d9b9;}.cls-60{fill:url(#linear-gradient-14);}.cls-61{fill:#efcba2;}.cls-62{fill:url(#linear-gradient-15);}.cls-63{fill:#edc79b;}.cls-64{fill:url(#linear-gradient-16);}.cls-65{fill:#e38a28;}.cls-66{fill:#f5be50;}.cls-67{fill:#ffe9ab;opacity:0.2;}.cls-68{fill:#fffcd1;}</style><linearGradient id="linear-gradient" x1="127.08" y1="58.74" x2="183.55" y2="58.74" gradientTransform="translate(-2.42 9.31) rotate(0.53)" gradientUnits="userSpaceOnUse"><stop offset="0" stop-color="#fd0"/><stop offset="1" stop-color="#fac200"/></linearGradient><linearGradient id="linear-gradient-2" x1="124.49" y1="10.68" x2="184.49" y2="10.68" xlink:href="#linear-gradient"/><linearGradient id="linear-gradient-3" x1="73.05" y1="133.53" x2="73.05" y2="46.14" gradientTransform="translate(-23.84)" gradientUnits="userSpaceOnUse"><stop offset="0" stop-color="#ffea8a"/><stop offset="0.29" stop-color="#f5af00"/><stop offset="0.42" stop-color="#ef9b00"/><stop offset="0.65" stop-color="#e77d00"/><stop offset="1" stop-color="#c94e00"/></linearGradient><linearGradient id="linear-gradient-4" x1="-11.19" y1="181.49" x2="248.97" y2="181.49" gradientTransform="translate(-23.84)" gradientUnits="userSpaceOnUse"><stop offset="0" stop-color="#f2ebe3"/><stop offset="1" stop-color="#e4d7cf"/></linearGradient><linearGradient id="linear-gradient-5" x1="-11.19" y1="174.27" x2="248.97" y2="174.27" gradientTransform="translate(-23.84)" gradientUnits="userSpaceOnUse"><stop offset="0" stop-color="#f9f5f1"/><stop offset="1" stop-color="#f2ebe7"/></linearGradient><linearGradient id="linear-gradient-6" x1="46.07" y1="173.66" x2="97.35" y2="173.66" xlink:href="#linear-gradient-4"/><linearGradient id="linear-gradient-7" x1="1902.3" y1="151.9" x2="1924.25" y2="148.98" gradientTransform="matrix(-1, 0, 0, 1, 1988.87, 0)" xlink:href="#linear-gradient-4"/><linearGradient id="linear-gradient-8" x1="41.81" y1="150.72" x2="99.48" y2="150.72" xlink:href="#linear-gradient-4"/><linearGradient id="linear-gradient-9" x1="61.65" y1="119.67" x2="102.06" y2="153.23" xlink:href="#linear-gradient-5"/><linearGradient id="linear-gradient-10" x1="176.1" y1="186.03" x2="93.05" y2="186.03" gradientTransform="translate(-23.84)" gradientUnits="userSpaceOnUse"><stop offset="0.15" stop-color="#eb9227"/><stop offset="0.34" stop-color="#ec962c"/><stop offset="0.57" stop-color="#efa23b"/><stop offset="0.83" stop-color="#f5b653"/><stop offset="1" stop-color="#f9c668"/></linearGradient><linearGradient id="linear-gradient-11" x1="95" y1="177.09" x2="144.09" y2="177.09" gradientTransform="translate(-16.91 -4.48) rotate(2.21)" gradientUnits="userSpaceOnUse"><stop offset="0.28" stop-color="#ffeee0"/><stop offset="0.49" stop-color="#fde9d8"/><stop offset="0.84" stop-color="#f7ddc1"/><stop offset="1" stop-color="#f3d6b4"/></linearGradient><linearGradient id="linear-gradient-12" x1="103.6" y1="183.36" x2="140.16" y2="170.48" gradientTransform="translate(-23.84)" xlink:href="#linear-gradient-11"/><linearGradient id="linear-gradient-13" x1="114.59" y1="183.34" x2="156.02" y2="169.64" gradientTransform="translate(-23.84)" xlink:href="#linear-gradient-11"/><linearGradient id="linear-gradient-14" x1="120.88" y1="184.25" x2="171.59" y2="167.77" gradientTransform="translate(-23.84)" xlink:href="#linear-gradient-11"/><linearGradient id="linear-gradient-15" x1="127.33" y1="176.87" x2="169.7" y2="155.63" gradientTransform="translate(274.94 -0.11) rotate(84.03)" gradientUnits="userSpaceOnUse"><stop offset="0.02" stop-color="#ffeee0"/><stop offset="0.41" stop-color="#fae4cd"/><stop offset="1" stop-color="#f3d6b4"/></linearGradient><linearGradient id="linear-gradient-16" x1="175.77" y1="189.37" x2="109.25" y2="134.34" gradientTransform="translate(-23.84)" gradientUnits="userSpaceOnUse"><stop offset="0" stop-color="#eb9227"/><stop offset="0.23" stop-color="#ec962c"/><stop offset="0.5" stop-color="#efa23b"/><stop offset="0.8" stop-color="#f5b653"/><stop offset="1" stop-color="#f9c668"/></linearGradient></defs><title>composition_8</title><g id="Layer_2" data-name="Layer 2"><g id="Layer_3" data-name="Layer 3"><g id="_Group_" data-name="&lt;Group&gt;"><g id="_Group_2" data-name="&lt;Group&gt;"><path id="_Path_" data-name="&lt;Path&gt;" class="cls-1" d="M136.87,36.05c-7.66,2.32-17.62,9.9-19.53,15.09C115.2,57,113.75,82,114.86,93.45c.22,2.35,1.84,6.2,2.47,6.7,3.52,2.78,66.17,3.56,71.07.15a11.87,11.87,0,0,0,2.84-5c2.44-11.75-1.06-39-3.66-44.2s-10.53-12-18.15-14.39C163.05,34.7,142.48,34.3,136.87,36.05Z"/><path id="_Path_2" data-name="&lt;Path&gt;" class="cls-2" d="M134.72,22.62c-8.75,2.62-20.12,11.19-22.3,17.05-2.94,7.92-1.66,49.86.15,54.92,1.73,4.83,78,5.58,80,.53,1.52-3.71,3.73-48.08,0-55.46-3.06-6.06-12-13.53-20.72-16.27C164.6,21.09,141.11,20.63,134.72,22.62Z"/><path id="_Path_3" data-name="&lt;Path&gt;" class="cls-3" d="M124,26.43s8.5,11.57,27.72,11.75c21.47.2,28.73-11.91,28.73-11.91Z"/><path id="_Path_4" data-name="&lt;Path&gt;" class="cls-4" d="M124.52,89.1C122.87,87,123.2,47,152.29,47s29.31,40.88,27.57,42.42C175.72,93,127.49,92.83,124.52,89.1Z"/><path id="_Path_5" data-name="&lt;Path&gt;" class="cls-5" d="M127.78,86.81c-1.46-1.82-.32-36.17,24.6-36.24S178,85.73,176.49,87.09C172.83,90.33,130.41,90.11,127.78,86.81Z"/><path id="_Path_6" data-name="&lt;Path&gt;" class="cls-6" d="M161.27,62.66s-3.27-8.44-9.75-8.45-9.69,7.87-9.89,14.54c-.18,6.3,3.11,14,9.93,15.14S163.06,77,163.06,77l-4.52-3.66s-1.45,5.15-6.25,4.82-3.92-17.92-.74-18.76,4.67,5,4.67,5Z"/><path id="_Path_7" data-name="&lt;Path&gt;" class="cls-7" d="M119,71.14c-2.16,0,4.84-30.85,33.67-30.58s34.62,31,32.85,30.94-6.82-28.42-33.12-28.67C125.3,42.58,121.24,71.16,119,71.14Z"/><g id="_Group_3" data-name="&lt;Group&gt;"><path id="_Path_8" data-name="&lt;Path&gt;" class="cls-8" d="M122.08,9.33l-.16,17.12s26,14.67,60,.86l.15-16.82Z"/><path id="_Path_9" data-name="&lt;Path&gt;" class="cls-9" d="M125.47,9.63s.06,11.8.15,18.54a71.49,71.49,0,0,0,28.61,5c.29-8.72.23-16.47.23-16.47Z"/><path id="_Path_10" data-name="&lt;Path&gt;" class="cls-10" d="M122.08,9.33A54.4,54.4,0,0,1,152.48,0a49.49,49.49,0,0,1,29.6,10.49S173,23,150.46,22.81A38,38,0,0,1,122.08,9.33Z"/><path id="_Path_11" data-name="&lt;Path&gt;" class="cls-11" d="M128.43,15.3a37.27,37.27,0,0,0,22,7.51c11.49.11,19.48-3.1,24.56-6.27l.08-.11C150.4,27.3,131.86,17.38,128.43,15.3Z"/></g><path id="_Path_12" data-name="&lt;Path&gt;" class="cls-12" d="M126.09,31.86c-2.61-1.81-11.24,9.35-9.31,10.73C118.93,44.13,128,33.15,126.09,31.86Z"/><path id="_Path_13" data-name="&lt;Path&gt;" class="cls-12" d="M116.64,46.11c-2.16.27-2.61,7.44-.65,7.62S119,45.83,116.64,46.11Z"/></g><g id="_Group_4" data-name="&lt;Group&gt;"><path id="_Path_14" data-name="&lt;Path&gt;" class="cls-13" d="M126.31,84.9c3.36-4.43,73-5.2,76.93-3.44s4.28,50.48,1.67,53.31-73.21,5.2-77,1.22S122.8,89.52,126.31,84.9Z"/><path id="_Path_15" data-name="&lt;Path&gt;" class="cls-14" d="M202.7,126.55a293.46,293.46,0,0,0-1.1-36.46c-.75,2.23-6.06,5.25-6.83,4-1.14-1.8,2.16-6.46,2.16-6.46s-5.39,3.65-7,1.75c-.71-.85.86-3.65,4.39-5.43-11.33.11-40.5.56-59.27,2.19,2.66,1.15,4.72,3.56,4.13,4.38-1.45,2-6.73-.7-6.73-.7s3.61,4.42,2.6,6.3c-.69,1.26-5.68-1.53-6.87-4.26a366.53,366.53,0,0,0,1.24,36.73c1.44-2.26,5.85-5.75,6.57-4.61,1.14,1.8-2.16,6.46-2.16,6.46s5.39-3.65,7-1.75c.75.9-1.71,4.14-4.7,5.48a432.19,432.19,0,0,0,61-1.65c-2.38-1-6.08-3.83-5.28-4.93,1.45-2,6.48.67,6.48.67s-3.61-4.43-2.59-6.31C196.38,120.73,201.08,123.7,202.7,126.55Z"/><path id="_Compound_Path_" data-name="&lt;Compound Path&gt;" class="cls-13" d="M165.65,88.68c-3.43.1-31,19.29-30.86,22.2.07,2.34,28.44,20.46,32.3,20.33,4.28-.15,29-20.43,29.08-22.14S169.09,88.58,165.65,88.68Zm1.26,38.21c-2.59,0-26.51-14.64-26.47-16.07s23-17.6,25.36-17.72,24.71,14.74,24.72,16.44S169.5,126.89,166.91,126.89Z"/><path id="_Path_16" data-name="&lt;Path&gt;" class="cls-13" d="M144.67,97.1a2.3,2.3,0,1,1-2.38-2.22A2.31,2.31,0,0,1,144.67,97.1Z"/><path id="_Path_17" data-name="&lt;Path&gt;" class="cls-13" d="M190.73,95.3a2.3,2.3,0,1,1-2.38-2.23A2.31,2.31,0,0,1,190.73,95.3Z"/><path id="_Path_18" data-name="&lt;Path&gt;" class="cls-13" d="M144.23,123.66a2.3,2.3,0,1,1-2.37-2.22A2.3,2.3,0,0,1,144.23,123.66Z"/><path id="_Path_19" data-name="&lt;Path&gt;" class="cls-13" d="M192.48,122.14a2.3,2.3,0,1,1-2.37-2.22A2.3,2.3,0,0,1,192.48,122.14Z"/><path id="_Path_20" data-name="&lt;Path&gt;" class="cls-13" d="M181.86,94.93s-7-4.85-6.82-6.43,6.53,2,6.53,2,3.59-2.45,4.71-1.39S181.86,94.93,181.86,94.93Z"/><path id="_Path_21" data-name="&lt;Path&gt;" class="cls-13" d="M147.57,95.81s6.51-5.3,6.22-6.87-6,1.72-6,1.72-4.64-2.86-5.69-1.73S147.57,95.81,147.57,95.81Z"/><path id="_Path_22" data-name="&lt;Path&gt;" class="cls-13" d="M183.71,123.81s-7.27,5.23-7,6.8,7.12-2.5,7.12-2.5,3.53,2.53,4.58,1.41S183.71,123.81,183.71,123.81Z"/><path id="_Path_23" data-name="&lt;Path&gt;" class="cls-13" d="M148.68,124.82s6.87,5.07,6.68,6.65-6.61-2.08-6.61-2.08-3.74,2.69-4.86,1.64S148.68,124.82,148.68,124.82Z"/><path id="_Path_24" data-name="&lt;Path&gt;" class="cls-13" d="M133.75,99.16l.11,6.28s4.15-2.91,4.22-4.08S133.75,99.16,133.75,99.16Z"/><path id="_Path_25" data-name="&lt;Path&gt;" class="cls-13" d="M134.49,121l-.32-6.27s4.34,2.62,4.49,3.79S134.49,121,134.49,121Z"/><path id="_Path_26" data-name="&lt;Path&gt;" class="cls-13" d="M196.89,98l.32,6.27s-4.34-2.62-4.49-3.79S196.89,98,196.89,98Z"/><path id="_Path_27" data-name="&lt;Path&gt;" class="cls-13" d="M197.93,119l-.1-6.28s-4.16,2.91-4.22,4.08S197.93,119,197.93,119Z"/><path id="_Compound_Path_2" data-name="&lt;Compound Path&gt;" class="cls-13" d="M184.32,108.48c-1.81-2.19-9.56,1.45-9.56,1.45s3.64-7.39,2.08-8.16-6.83,3.61-6.83,3.61-1.79-10.58-4.42-9.77-3.73,10.56-3.73,10.56-6-4.4-7-3.35,1.71,8.13,1.71,8.13-8.26-2.38-9.53-.6,17.37,12.1,19.52,12C169.66,122.28,186.13,110.67,184.32,108.48Zm-31.67,4.24c6.74-1.58,8.41,5.25,8.41,5.25Zm13.9,5.8c-1.59.06-8-9.22-7.54-10.36s5.84,3.41,5.84,3.41-.43-9.25.81-9.41,2,8.86,2,8.86,4.6-4.22,5.42-3.34S168.36,118.46,166.55,118.52Zm4.83-.54s1.22-6.93,8-6.16Z"/><polygon id="_Path_28" data-name="&lt;Path&gt;" class="cls-13" points="129.68 98.61 130.57 121.11 132.25 121.61 131.32 98.14 129.68 98.61"/><polygon id="_Path_29" data-name="&lt;Path&gt;" class="cls-13" points="198.81 97.23 199.71 119.73 201.38 120.23 200.45 96.76 198.81 97.23"/><path id="_Path_30" data-name="&lt;Path&gt;" class="cls-15" d="M165.65,88.68c-2.58.07-18.8,11-26.64,17.58,8.37-5.49,25.3-16.18,26.59-16.34s16.7,9.79,25.09,14.29C182.58,98.11,168.1,88.61,165.65,88.68Z"/><path id="_Path_31" data-name="&lt;Path&gt;" class="cls-15" d="M156,103.89c.81-.58,6.94,3.82,6.94,3.82s1.38-11,3-10.88c.93.07,2.1,2,2.94,3.66-.77-2.65-1.91-5.3-3.28-4.88-2.63.8-3.73,10.56-3.73,10.56s-6-4.4-7-3.35c-.56.61.07,3.17.72,5.26C155.51,106.47,155.45,104.25,156,103.89Z"/><path id="_Path_32" data-name="&lt;Path&gt;" class="cls-15" d="M150,125.87c-.8-.63-1.36-1.05-1.36-1.05s-5.92,5.16-4.79,6.21a1,1,0,0,0,.65.24A10,10,0,0,1,150,125.87Z"/><path id="_Path_33" data-name="&lt;Path&gt;" class="cls-15" d="M183.71,123.81s-7.27,5.23-7,6.8c.08.45.72.43,1.58.17a14.09,14.09,0,0,1,6.63-5.93C184.24,124.23,183.71,123.81,183.71,123.81Z"/><path id="_Path_34" data-name="&lt;Path&gt;" class="cls-15" d="M142.05,88.93c-.41.43.33,1.57,1.39,2.79-.08-1.25.62-2.41,4.3-1.06C147.74,90.66,143.1,87.8,142.05,88.93Z"/><path id="_Path_35" data-name="&lt;Path&gt;" class="cls-15" d="M179,89.22c-1.78-.84-3.88-1.62-4-.72-.07.59.87,1.64,2.07,2.73C177.21,90.5,177.7,89.75,179,89.22Z"/></g><g id="_Group_5" data-name="&lt;Group&gt;"><path id="_Path_36" data-name="&lt;Path&gt;" class="cls-16" d="M25.18,37.8S0,54.2,0,80.42,23.39,123.8,28.35,125c8,1.84,32,2.19,40.08.36,4.9-1.1,30-17.68,30-44.22C98.41,52,68.74,38,68.74,38Z"/><path id="_Path_37" data-name="&lt;Path&gt;" class="cls-17" d="M26.86,40.9S3.44,56,3.44,80.05,25.2,119.91,29.81,121c7.4,1.7,29.75,2,37.28.34,4.55-1,27.88-16.24,27.88-40.63,0-26.75-27.6-39.62-27.6-39.62Z"/><g id="_Group_6" data-name="&lt;Group&gt;"><path id="_Path_38" data-name="&lt;Path&gt;" class="cls-18" d="M48.74,60.11C34.2,60,21.55,71.76,21.44,86.45c-.12,15.19,13.2,27.21,27.89,26.75,13.81-.44,25.91-11.83,26.12-26.16C75.66,72.35,63.27,60.27,48.74,60.11Z"/><polygon id="_Path_39" data-name="&lt;Path&gt;" class="cls-19" points="41 72.63 44.24 67.38 53.86 67.49 56.86 72.81 63 72.81 67.66 81.07 64.59 86.86 67.72 92.29 63.06 99.91 56.69 99.97 53.56 105.34 44.3 105.28 41.06 99.91 34.92 99.73 30.27 92 33.33 86.33 29.8 80.42 34.45 72.81 41 72.63"/><path id="_Compound_Path_3" data-name="&lt;Compound Path&gt;" class="cls-20" d="M69.12,80l-4.6-8H57.19l-3.65-6.32H44.35L40.7,72.05H33.36l-4.59,8,3.65,6.34-3.65,6.33,4.59,8h7.33L44.35,107h9.19l3.66-6.34h7.32l4.6-8-3.66-6.33Zm-2.83,0-3.16,5.48h-6.4L53.57,80l3.19-5.53h6.35Zm-11,6.33-3.17,5.5H45.76l-3.18-5.5,3.16-5.48h6.4ZM45.76,68.18h6.37l3.17,5.5-3.17,5.51H45.75l-3.17-5.5Zm-11,6.33h6.35L44.31,80l-3.15,5.47h-6.4L31.59,80ZM31.59,92.69l3.17-5.48h6.39l3.16,5.49-3.17,5.51H34.78Zm20.54,11.87H45.76L42.58,99l3.17-5.49h6.39l3.16,5.5Zm11-6.35H56.75l-3.18-5.5,3.17-5.5h6.39l3.16,5.48Z"/></g><path id="_Path_40" data-name="&lt;Path&gt;" class="cls-21" d="M19.46,42.5s8.78,11.71,28.38,11.71C69.73,54.21,77,41.8,77,41.8Z"/><path id="_Path_41" data-name="&lt;Path&gt;" class="cls-22" d="M17.49,24.67V42.13s26.62,14.71,61.19.31V25.29Z"/><path id="_Path_42" data-name="&lt;Path&gt;" class="cls-23" d="M21,25s.17,12,.32,18.9a73.05,73.05,0,0,0,29.22,4.86c.22-8.89.08-16.79.08-16.79Z"/><path id="_Path_43" data-name="&lt;Path&gt;" class="cls-24" d="M17.49,24.67a55.42,55.42,0,0,1,30.9-9.8A50.46,50.46,0,0,1,78.68,25.29S69.5,38.15,46.56,38.15A38.73,38.73,0,0,1,17.49,24.67Z"/><path id="_Path_44" data-name="&lt;Path&gt;" class="cls-25" d="M24,30.7a38.05,38.05,0,0,0,22.54,7.45c11.71,0,19.82-3.35,25-6.63l.09-.11C46.53,42.73,27.54,32.78,24,30.7Z"/><path id="_Path_45" data-name="&lt;Path&gt;" class="cls-12" d="M20.16,52.93C15.76,51.83,8,66.64,11,67.82,13.74,68.92,23.21,53.69,20.16,52.93Z"/><path id="_Path_46" data-name="&lt;Path&gt;" class="cls-12" d="M9.51,71.5c-2.75-.22-4,9-.91,9.37S11.9,71.68,9.51,71.5Z"/></g><g id="_Group_7" data-name="&lt;Group&gt;"><path id="_Path_47" data-name="&lt;Path&gt;" class="cls-26" d="M42.81,104.9s.9,5.25,2.25,12.26c.91,4.73,6.57,11.84,7.75,17.1,1,4.43-2.52,7.09-1.52,10.5,1.06,3.64,2.08,6.33,3,7.3,4.12,4.58,89.18,7.33,93.29,2.75.92-1,1.94-3.95,3-7.9.84-3.19-4-8.09-3.18-12.13,1.21-6,8-11.42,8.92-16.7,1.09-6.56,1.79-11.35,1.79-11.35Z"/><path id="_Path_48" data-name="&lt;Path&gt;" class="cls-27" d="M42.81,104.9C38.9,103.32,116,58.66,121,58.66s41,45.52,37,48.07S63.46,113.27,42.81,104.9Z"/><path id="_Path_49" data-name="&lt;Path&gt;" class="cls-28" d="M150.59,146.62c2.09-8,4.25-20,5.7-28.72-34.35,7.51-94.35,2.72-111.18-.48,1.68,8.7,4,20,6.2,27.4C100.53,148.09,133.52,146.65,150.59,146.62Z"/><g id="_Group_8" data-name="&lt;Group&gt;"><path id="_Path_50" data-name="&lt;Path&gt;" class="cls-29" d="M155.31,123.63c.35-2,.68-3.94,1-5.73-35.2,5.77-93.78,2.66-111.18-.48.38,2,.79,4.06,1.23,6.21C59.3,124.82,100,127.72,155.31,123.63Z"/><path id="_Path_51" data-name="&lt;Path&gt;" class="cls-29" d="M50,139.81c.45,1.8.91,3.49,1.36,5,50.51,6.2,83.69,3.83,99.28,1.8.42-1.58.83-3.32,1.24-5.15C136.75,143,91,146.61,50,139.81Z"/></g><path id="_Path_52" data-name="&lt;Path&gt;" class="cls-29" d="M53.65,127a1.8,1.8,0,0,0,0,3.6A1.8,1.8,0,0,0,53.65,127Z"/><path id="_Path_53" data-name="&lt;Path&gt;" class="cls-29" d="M69.5,137.08a1.44,1.44,0,0,0,0,2.88A1.44,1.44,0,0,0,69.5,137.08Z"/><path id="_Path_54" data-name="&lt;Path&gt;" class="cls-29" d="M147.71,130.27a1.44,1.44,0,0,0,0,2.88A1.44,1.44,0,0,0,147.71,130.27Z"/><path id="_Path_55" data-name="&lt;Path&gt;" class="cls-29" d="M55.74,133.21a1.44,1.44,0,0,0,0,2.88A1.44,1.44,0,0,0,55.74,133.21Z"/><path id="_Path_56" data-name="&lt;Path&gt;" class="cls-29" d="M61.64,128.2c-2.78,0-2.78,4.32,0,4.32S64.42,128.2,61.64,128.2Z"/><path id="_Path_57" data-name="&lt;Path&gt;" class="cls-29" d="M144.66,135c-2.79,0-2.79,4.32,0,4.32S147.44,135,144.66,135Z"/><path id="_Path_58" data-name="&lt;Path&gt;" class="cls-30" d="M106.16,88.17S104.57,71,85.54,70.83l.76,4.37A29.1,29.1,0,0,0,68,80.41s7.94,6.3,15.29,8.14l-4.65,3.3S95.2,100.8,106.16,88.17Z"/><path id="_Path_59" data-name="&lt;Path&gt;" class="cls-31" d="M104,87.58S99,75,116.36,67.1l1.24,5s3.69-5.4,17.88-5.79A101.23,101.23,0,0,1,129,79.12l5,1S125.59,98.22,104,87.58Z"/><path id="_Path_60" data-name="&lt;Path&gt;" class="cls-30" d="M105.81,86c-3.25.34-6,7-3.31,12.64L105,96.72s3.11,6.22,8.28,8.7L112,95.48l4.14.62S115.74,84.91,105.81,86Z"/><path id="_Path_61" data-name="&lt;Path&gt;" class="cls-32" d="M96.25,88.14c1.28-3.83-8.46-12.64-21.39-6.69,0,0,6.54,5,12.48,6.39l-3.86,3.27S94,94.83,96.25,88.14Z"/></g><g id="_Group_9" data-name="&lt;Group&gt;"><path id="_Path_62" data-name="&lt;Path&gt;" class="cls-33" d="M136.87,148.9q-.59,6.43-1.19,12.87l32,26.43,42-27q-.36-6.18-.7-12.36l-41.47,27Z"/><polygon id="_Path_63" data-name="&lt;Path&gt;" class="cls-34" points="208.99 148.78 209.69 161.15 167.68 188.2 167.52 175.76 208.99 148.78"/><path id="_Path_64" data-name="&lt;Path&gt;" class="cls-35" d="M136.87,148.9a41.19,41.19,0,0,0,14.58,19.94,40.09,40.09,0,0,0,16.07,6.92Z"/><polygon id="_Path_65" data-name="&lt;Path&gt;" class="cls-36" points="136.87 148.9 167.52 175.76 208.99 148.78 177.07 126.16 136.87 148.9"/><path id="_Path_66" data-name="&lt;Path&gt;" class="cls-37" d="M192.56,137.14a17.06,17.06,0,0,1,4,11.26A17.39,17.39,0,0,1,190.35,161L209,148.79Z"/><path id="_Path_67" data-name="&lt;Path&gt;" class="cls-38" d="M182.28,151.06c-1-.13-1.16-4.11.25-4.25S183.3,151.19,182.28,151.06Z"/><path id="_Path_68" data-name="&lt;Path&gt;" class="cls-38" d="M186.52,144c-1.26.28-1.54,9.27-.13,9.39S187.68,143.72,186.52,144Z"/><path id="_Path_69" data-name="&lt;Path&gt;" class="cls-38" d="M190.86,141.73c-1.42.14-1.16,11.07-.13,11.07S192.14,141.6,190.86,141.73Z"/><path id="_Path_70" data-name="&lt;Path&gt;" class="cls-38" d="M194.14,141.73c-1.16.13-.45,9.37.58,9.23C196.28,150.75,195.3,141.6,194.14,141.73Z"/><path id="_Path_71" data-name="&lt;Path&gt;" class="cls-39" d="M199.5,144.91c-1,.11-.9,5.53.13,5.66S200.66,144.78,199.5,144.91Z"/><path id="_Path_72" data-name="&lt;Path&gt;" class="cls-40" d="M157.58,137.2,189,162.86l1.4-1.87-30.73-25Z"/><path id="_Path_73" data-name="&lt;Path&gt;" class="cls-40" d="M150.44,161l1.92,1.48,40.32-25.42-2.17-1.4Z"/><path id="_Path_74" data-name="&lt;Path&gt;" class="cls-40" d="M150.44,161l.08,4.74,1.84-3.26Z"/><path id="_Path_75" data-name="&lt;Path&gt;" class="cls-37" d="M150.44,161c1.43-1.13,8.11-5,9.18-13.73a16.78,16.78,0,0,0-2-10.06L170.77,148Z"/><path id="_Path_76" data-name="&lt;Path&gt;" class="cls-37" d="M177.07,126.16a14.23,14.23,0,0,1,2.88,9c-.3,7.07-6.08,11-6.7,11.38l17.26-10.91Z"/><path id="_Path_77" data-name="&lt;Path&gt;" class="cls-37" d="M172.75,149.6a20.11,20.11,0,0,1,3.16,11.2c-.27,9.08-7.49,14.33-8.39,15l20.73-13.45C183.07,158.19,177.94,153.72,172.75,149.6Z"/><path id="_Path_78" data-name="&lt;Path&gt;" class="cls-38" d="M145.23,150.39c-.14-1.73.15-3.62.48-3.63s.67,1.8.77,3.16c.11,1.59-.06,3.51-.39,3.53S145.35,151.82,145.23,150.39Z"/><path id="_Path_79" data-name="&lt;Path&gt;" class="cls-38" d="M149.69,144.06c-1.33.16-.9,12.48.64,12.48S150.72,143.93,149.69,144.06Z"/><path id="_Path_80" data-name="&lt;Path&gt;" class="cls-38" d="M153.81,141.48c-1.68,0-1.17,13.27.12,13.4S154.71,141.48,153.81,141.48Z"/><path id="_Path_81" data-name="&lt;Path&gt;" class="cls-38" d="M157.32,141.08c-1.16-.08-.68,9.22.23,9.22C158.78,150.3,159.18,141.2,157.32,141.08Z"/><path id="_Path_82" data-name="&lt;Path&gt;" class="cls-39" d="M162.55,144.06c-1.28.1-.65,6.56.13,6.69S164.09,143.93,162.55,144.06Z"/><path id="_Path_83" data-name="&lt;Path&gt;" class="cls-38" d="M161,167c-.77.14-1.41-5.71,0-6S161.78,166.81,161,167Z"/><path id="_Path_84" data-name="&lt;Path&gt;" class="cls-38" d="M164.61,159c-1.39.42-.77,11.41.26,11.7S166,158.53,164.61,159Z"/><path id="_Path_85" data-name="&lt;Path&gt;" class="cls-38" d="M168.6,156c-1.43.15-.78,15,0,15S169.88,155.82,168.6,156Z"/><path id="_Path_86" data-name="&lt;Path&gt;" class="cls-38" d="M172.94,153.45c-1.81.37-1.18,12.28,0,12.28C174.5,165.74,174.36,153.17,172.94,153.45Z"/><path id="_Path_87" data-name="&lt;Path&gt;" class="cls-39" d="M177.84,156.45c-1.31.15-.65,8.35.26,8.36C179.4,164.81,179.12,156.31,177.84,156.45Z"/><path id="_Path_88" data-name="&lt;Path&gt;" class="cls-38" d="M166.4,137.71c-.9-.13-.9-3.61.26-3.74S167.3,137.83,166.4,137.71Z"/><path id="_Path_89" data-name="&lt;Path&gt;" class="cls-38" d="M170.38,132.3c-1.12.25-1.15,7.85-.25,8.11S171.54,132,170.38,132.3Z"/><path id="_Path_90" data-name="&lt;Path&gt;" class="cls-38" d="M174.37,130.37c-1.29,0-1.28,12.59.13,12.74C175.66,143.24,175.53,130.37,174.37,130.37Z"/><path id="_Path_91" data-name="&lt;Path&gt;" class="cls-38" d="M178.09,130.62c-1.36-.38-1.24,8.29-.2,8.29C179.43,138.91,179.51,131,178.09,130.62Z"/><path id="_Path_92" data-name="&lt;Path&gt;" class="cls-39" d="M182.66,132.76c-1.55,0-1,5.46.07,5.46S184.07,132.76,182.66,132.76Z"/></g><g id="_Group_10" data-name="&lt;Group&gt;"><path id="_Path_93" data-name="&lt;Path&gt;" class="cls-41" d="M5.15,172.4l.53,5S45.74,207.89,92,176.12l.17-3.25Z"/><g id="_Group_11" data-name="&lt;Group&gt;"><path id="_Path_94" data-name="&lt;Path&gt;" class="cls-42" d="M5.15,172.4s34.52,35.65,87,.47C92.18,172.87,57,144.56,5.15,172.4Z"/><path id="_Path_95" data-name="&lt;Path&gt;" class="cls-43" d="M22.23,172.63s27.41-16.09,51.28.48C73.51,173.11,47,192.75,22.23,172.63Z"/><path id="_Path_96" data-name="&lt;Path&gt;" class="cls-44" d="M29.11,172.54s20.45-8.88,36.82.17C65.93,172.71,48.4,184.47,29.11,172.54Z"/><path id="_Path_97" data-name="&lt;Path&gt;" class="cls-45" d="M77,134.88a12.63,12.63,0,0,0-6.2-.38c-.12,1.14-.23,2.26-.37,3.32a58.2,58.2,0,0,1-1.63,7.52c1.42-.9,1.36-2.28,4.2-2.58,3.86-.41,6,3.2,4.67,6.41s-6.45,5.41-10.15,6.71q-1.84,4.53-4,8.9a42,42,0,0,0,7.2-2.14c5.42-2.2,10.92-5.66,13.12-11.35C86.16,145.35,85,137.33,77,134.88Z"/><path id="_Path_98" data-name="&lt;Path&gt;" class="cls-46" d="M18,125.31s.24,18,4.26,28.87,7.32,16.8,11.11,18.93,14.18,5.2,26.47.71S75.64,127,75.64,127Z"/><path id="_Path_99" data-name="&lt;Path&gt;" class="cls-47" d="M52.52,175.7a38.34,38.34,0,0,0,7.28-1.88C72.09,169.32,75.64,127,75.64,127l-6.19-.18-10.83,9.64S60,158.2,52.52,175.7Z"/><path id="_Path_100" data-name="&lt;Path&gt;" class="cls-48" d="M18,125.31s9.46,15.85,27.89,15.85S75.64,127,75.64,127,52.48,103.31,18,125.31Z"/><path id="_Path_101" data-name="&lt;Path&gt;" class="cls-49" d="M22.46,126s19.38,25.79,49.4,1.42C71.86,127.44,50.82,109,22.46,126Z"/><path id="_Path_102" data-name="&lt;Path&gt;" class="cls-50" d="M67.56,130.64c-16-13.6-36.5-4.81-42.45-1.76C31,134.47,46.28,145.1,67.56,130.64Z"/><path id="_Path_103" data-name="&lt;Path&gt;" class="cls-51" d="M57,126.27a36.28,36.28,0,0,1,4.45.29c-14.75-7.42-31.1-.35-36.31,2.32a34.52,34.52,0,0,0,8.15,5.8C38.54,129.33,48.61,126.27,57,126.27Z"/></g></g><g id="_Group_12" data-name="&lt;Group&gt;"><path id="_Path_104" data-name="&lt;Path&gt;" class="cls-52" d="M72.85,189.57c-1.63-17.43,19.82-34.55,40.15-34,18.71.55,37.43,15.48,37.44,33.41,0,17.12-17.1,27.44-38.25,27.44C92.1,216.46,74.35,205.65,72.85,189.57Z"/><path id="_Path_105" data-name="&lt;Path&gt;" class="cls-53" d="M149.29,181.38c-12.25-6.85-58.07-16.24-75.12.21,0,0,1.12,11.71,11.84,12.72,0,0,9.65,13,29.63,5.48,0,0,16.25,5.81,24.24-8.12a15.86,15.86,0,0,0,10.53-3.89A26.51,26.51,0,0,0,149.29,181.38Z"/><ellipse id="_Path_106" data-name="&lt;Path&gt;" class="cls-54" cx="95.71" cy="177.09" rx="24.56" ry="16.31" transform="translate(-6.77 3.83) rotate(-2.21)"/><ellipse id="_Path_107" data-name="&lt;Path&gt;" class="cls-55" cx="98.64" cy="175.77" rx="24.56" ry="16.31" transform="translate(-6.71 3.94) rotate(-2.21)"/><path id="_Path_108" data-name="&lt;Path&gt;" class="cls-56" d="M78.26,159.81c6.64-7.61,22.75-5.08,32.05,2.68,8.78,7.33,15,22.21,8.46,30.64-6.3,8.18-21.69,6.58-30.8.26C76.75,185.6,71.14,168,78.26,159.81Z"/><path id="_Path_109" data-name="&lt;Path&gt;" class="cls-57" d="M83.73,155.86c6.61-7.63,22.41-5.28,31.48,2.34,8.56,7.2,14.49,21.92,8,30.37-6.28,8.19-21.39,6.76-30.29.56C82,181.51,76.65,164,83.73,155.86Z"/><path id="_Path_110" data-name="&lt;Path&gt;" class="cls-58" d="M84.87,162.38c4.32-7.78,21-7.31,32-2.65,13.22,5.59,25.55,20.29,21.74,29.13-3.67,8.47-19.23,11.62-34.21,4.65S80.2,170.78,84.87,162.38Z"/><path id="_Path_111" data-name="&lt;Path&gt;" class="cls-59" d="M91.49,162c3.64-8.69,17.64-10.83,27-8.17,13.28,3.79,24,19.2,20,28.37-3.86,8.8-21.06,11.3-32.54,5.37C96.78,182.88,87.73,171,91.49,162Z"/><path id="_Path_112" data-name="&lt;Path&gt;" class="cls-60" d="M153,181c-1.66,7.7-18.13,11.53-30.64,9.3-12.78-2.28-27.85-10.69-25.89-19.88,1.66-7.8,17.55-13,30.49-10.89C140.75,161.8,154.72,173.08,153,181Z"/><path id="_Path_113" data-name="&lt;Path&gt;" class="cls-61" d="M148.53,174.66c-1.58,7.71-16.44,11.7-27.68,9.61-11.49-2.15-25-10.39-23.11-19.59,1.58-7.81,15.94-13.22,27.57-11.2C137.68,155.64,150.15,166.77,148.53,174.66Z"/><ellipse id="_Path_114" data-name="&lt;Path&gt;" class="cls-62" cx="125.61" cy="165.78" rx="16.31" ry="24.56" transform="translate(-52.34 273.46) rotate(-84.03)"/><ellipse id="_Path_115" data-name="&lt;Path&gt;" class="cls-63" cx="122.86" cy="162.59" rx="14.74" ry="24.56" transform="translate(-40.9 283.88) rotate(-89.45)"/><path id="_Path_116" data-name="&lt;Path&gt;" class="cls-64" d="M75.81,158.33c-1.16-11.63,18.09-25.27,36.1-25.27,20.89,0,37.48,14.46,36.07,26.08-1.35,11.21-21.68,18.27-36.9,17.93C96.57,176.74,76.93,169.46,75.81,158.33Z"/><path id="_Path_117" data-name="&lt;Path&gt;" class="cls-65" d="M105.18,173.37c-18.66-.91-28.07-11-28.07-11,4.78,8.79,21.32,14.37,34,14.65,15.22.34,35.55-6.72,36.9-17.93.42-3.46-.75-7.16-3.16-10.67C146.11,164.49,121.48,173.37,105.18,173.37Z"/><path id="_Path_118" data-name="&lt;Path&gt;" class="cls-66" d="M111.91,133.06c-14.13,0-29,8.4-34.22,17.62C81.35,158.11,97.75,141,106,145c10.31,5,8.08,21.43,15.75,21,9.81-.61,7.59-18.94,22-18.92C137.6,139.36,125.69,133.06,111.91,133.06Z"/><path id="_Path_119" data-name="&lt;Path&gt;" class="cls-67" d="M106.84,136c-7.31-.19-25.66,8.25-27,18.57-1.48,11.15,32.27,16.18,38.5,8.48C124.19,155.74,117.58,136.23,106.84,136Z"/><g id="_Group_13" data-name="&lt;Group&gt;"><path id="_Path_120" data-name="&lt;Path&gt;" class="cls-68" d="M88.46,147.5a1.69,1.69,0,0,0-3,.75,1.71,1.71,0,0,0,.32,1.26,1.7,1.7,0,0,0,2.36.35,1.72,1.72,0,0,0,.66-1.11A1.68,1.68,0,0,0,88.46,147.5Z"/><path id="_Path_121" data-name="&lt;Path&gt;" class="cls-68" d="M86.74,156.45a.85.85,0,1,0,.71,1A.85.85,0,0,0,86.74,156.45Z"/><path id="_Path_122" data-name="&lt;Path&gt;" class="cls-68" d="M93.89,154.12a1.27,1.27,0,1,0-.37,2.52A1.27,1.27,0,0,0,95,155.57,1.3,1.3,0,0,0,93.89,154.12Z"/><path id="_Path_123" data-name="&lt;Path&gt;" class="cls-68" d="M93.06,147.41a1.53,1.53,0,0,0-1.1.28,1.45,1.45,0,0,0-.58,1,1.49,1.49,0,0,0,1.24,1.68,1.47,1.47,0,0,0,1.68-1.25A1.51,1.51,0,0,0,93.06,147.41Z"/><path id="_Path_124" data-name="&lt;Path&gt;" class="cls-68" d="M101.58,153.05a1.9,1.9,0,0,0-2.15,1.6A1.92,1.92,0,0,0,101,156.8a1.9,1.9,0,0,0,2.16-1.59A1.94,1.94,0,0,0,101.58,153.05Z"/><path id="_Path_125" data-name="&lt;Path&gt;" class="cls-68" d="M96.7,158.47a1.14,1.14,0,0,0-1.28.95,1.16,1.16,0,0,0,1,1.28,1.13,1.13,0,1,0,.33-2.23Z"/><path id="_Path_126" data-name="&lt;Path&gt;" class="cls-68" d="M96.17,141a1.29,1.29,0,0,0-1.46,1.08,1.31,1.31,0,0,0,1.08,1.46,1.28,1.28,0,0,0,.38-2.54Z"/></g><g id="_Group_14" data-name="&lt;Group&gt;"><path id="_Path_127" data-name="&lt;Path&gt;" class="cls-68" d="M132.17,140.42a1.91,1.91,0,0,0-1.25-.59,1.82,1.82,0,0,0-1.29.48,1.79,1.79,0,0,0-.58,1.24,1.82,1.82,0,0,0,.47,1.3,1.8,1.8,0,0,0,3.12-1.14A1.79,1.79,0,0,0,132.17,140.42Z"/><path id="_Path_128" data-name="&lt;Path&gt;" class="cls-68" d="M132.2,146.23a1.29,1.29,0,0,0-.94.34,1.31,1.31,0,0,0-.43.9,1.3,1.3,0,0,0,2.19,1,1.29,1.29,0,0,0,.42-.9A1.32,1.32,0,0,0,132.2,146.23Z"/><path id="_Path_129" data-name="&lt;Path&gt;" class="cls-68" d="M127,144.72a1.21,1.21,0,1,0,1.15,1.26A1.22,1.22,0,0,0,127,144.72Z"/><path id="_Path_130" data-name="&lt;Path&gt;" class="cls-68" d="M139.08,145.36a1.22,1.22,0,1,0,1.17,1.28A1.26,1.26,0,0,0,139.08,145.36Z"/><path id="_Path_131" data-name="&lt;Path&gt;" class="cls-68" d="M136.6,155a1.83,1.83,0,0,0-1.2-.56,1.79,1.79,0,0,0-1.25.46,1.76,1.76,0,0,0-.56,1.2,1.71,1.71,0,0,0,.46,1.24,1.7,1.7,0,0,0,2.44.11,1.74,1.74,0,0,0,.56-1.2A1.79,1.79,0,0,0,136.6,155Z"/><path id="_Path_132" data-name="&lt;Path&gt;" class="cls-68" d="M141.65,154.94a.77.77,0,0,0-.07,1.54A.77.77,0,0,0,141.65,154.94Z"/><path id="_Path_133" data-name="&lt;Path&gt;" class="cls-68" d="M128.88,151.25a.77.77,0,0,0-.07,1.54A.77.77,0,0,0,128.88,151.25Z"/><path id="_Path_134" data-name="&lt;Path&gt;" class="cls-68" d="M121.15,141.82a1.28,1.28,0,1,0,1.07,1.45A1.3,1.3,0,0,0,121.15,141.82Z"/></g></g></g></g></g></svg>