<svg xmlns="http://www.w3.org/2000/svg" xmlns:xlink="http://www.w3.org/1999/xlink" viewBox="0 0 233.83 213.78"><defs><style>.cls-1{isolation:isolate;}.cls-2{fill:#f4ede6;}.cls-3{fill:#eee2da;}.cls-4{fill:url(#linear-gradient);}.cls-5{fill:url(#linear-gradient-2);}.cls-6{fill:url(#linear-gradient-3);}.cls-7{fill:#c15a20;}.cls-8{fill:#943a2c;opacity:0.1;}.cls-9{fill:#f7f7f6;}.cls-10{fill:#f2c27c;}.cls-11{fill:#975b28;}.cls-12{fill:#ae6a2d;}.cls-13{fill:#e39b35;}.cls-14{fill:#f6d689;}.cls-15{fill:#f2b44a;}.cls-16{fill:#e99e2b;}.cls-17{fill:#dd7811;}.cls-18{fill:#efb342;opacity:0.8;mix-blend-mode:multiply;}.cls-19{fill:#74794c;}.cls-20{fill:#58884c;}.cls-21{fill:#d74c24;}.cls-22{fill:#ffbb28;}.cls-23{fill:#cf5d27;}.cls-24{fill:#3c7d29;}.cls-25{fill:#f5eace;}.cls-26{fill:#bd7430;}.cls-27{fill:url(#linear-gradient-4);}.cls-28{fill:#f05a29;}.cls-29{fill:url(#linear-gradient-5);}.cls-30{fill:url(#linear-gradient-6);}.cls-31{fill:#d16327;}.cls-32{fill:#7c982d;}.cls-33{fill:#538416;}.cls-34{fill:#8ab52d;}.cls-35{fill:#f69677;}.cls-36{fill:#d65c4c;}.cls-37{fill:#fdbe10;}.cls-38{fill:#ff972a;}.cls-39{fill:url(#linear-gradient-7);}.cls-40{fill:#db7634;}.cls-41{fill:#eab366;}.cls-42{fill:#fed870;}.cls-43{fill:#a8d458;}.cls-44{fill:#d4c8c4;}.cls-45{fill:#c5b2b0;}.cls-46{fill:#f4eddd;}.cls-47{fill:#af7255;}.cls-48{fill:#a3654d;}.cls-49{fill:#d4dad9;}.cls-50{fill:#fff;}.cls-51{fill:#cccece;}.cls-52{fill:#e8e7e6;}.cls-53{fill:#694731;}.cls-54{fill:#ffc800;}.cls-55{fill:#f7941e;opacity:0.3;}.cls-56{fill:#ca5600;}.cls-57{fill:#ffd74a;}.cls-58{fill:#815f4e;}.cls-59{fill:url(#radial-gradient);}.cls-60{fill:#baba18;}.cls-61{fill:#968022;opacity:0.2;}.cls-62{fill:#589036;}.cls-63{fill:url(#linear-gradient-8);}.cls-64{fill:#d8dd49;opacity:0.5;}.cls-65{fill:#b89b0d;}.cls-66{fill:#d4b43a;}.cls-67{fill:#f1ee9d;}.cls-68{fill:#9c960e;}.cls-69{fill:#a5a312;}.cls-70{fill:url(#radial-gradient-2);}.cls-71{fill:#fff7c8;}.cls-72{fill:#fcedb8;}.cls-73{fill:#efc998;}.cls-74{fill:#583620;}.cls-75{fill:#a4805c;}</style><linearGradient id="linear-gradient" x1="52.96" y1="161.59" x2="80.45" y2="70.71" gradientTransform="translate(-23.84)" gradientUnits="userSpaceOnUse"><stop offset="0" stop-color="#fbd64a"/><stop offset="0.49" stop-color="#f38220"/><stop offset="0.99" stop-color="#c46720"/></linearGradient><linearGradient id="linear-gradient-2" x1="125.96" y1="77.06" x2="34.25" y2="77.06" gradientTransform="translate(-23.84)" gradientUnits="userSpaceOnUse"><stop offset="0" stop-color="#fbd64a"/><stop offset="1" stop-color="#f38220"/></linearGradient><linearGradient id="linear-gradient-3" x1="50.67" y1="145.16" x2="50.67" y2="110.68" gradientUnits="userSpaceOnUse"><stop offset="0" stop-color="#f5a129"/><stop offset="0.49" stop-color="#ed6212"/><stop offset="0.99" stop-color="#bf4e12"/><stop offset="1" stop-color="#bf4e12"/></linearGradient><linearGradient id="linear-gradient-4" x1="107.14" y1="106.19" x2="183.12" y2="139.39" gradientUnits="userSpaceOnUse"><stop offset="0" stop-color="#d63c1e"/><stop offset="0.99" stop-color="#b3331b"/></linearGradient><linearGradient id="linear-gradient-5" x1="188.54" y1="79.4" x2="198.82" y2="88.26" gradientUnits="userSpaceOnUse"><stop offset="0" stop-color="#3c7d29"/><stop offset="1" stop-color="#3c5e29"/></linearGradient><linearGradient id="linear-gradient-6" x1="142.64" y1="48.88" x2="130.64" y2="66.09" xlink:href="#linear-gradient-5"/><linearGradient id="linear-gradient-7" x1="153.12" y1="141.33" x2="231.83" y2="183.59" gradientUnits="userSpaceOnUse"><stop offset="0.19" stop-color="#ffe49b"/><stop offset="1" stop-color="#ffb144"/></linearGradient><radialGradient id="radial-gradient" cx="-195.76" cy="291.7" r="81.1" gradientTransform="translate(177.58 -48.68) scale(0.68 0.69)" gradientUnits="userSpaceOnUse"><stop offset="0.01" stop-color="#d9df43"/><stop offset="1" stop-color="#b8bd00"/></radialGradient><linearGradient id="linear-gradient-8" x1="50.03" y1="149.6" x2="48.24" y2="134.76" gradientUnits="userSpaceOnUse"><stop offset="0" stop-color="#a86b22"/><stop offset="1" stop-color="#b09400"/></linearGradient><radialGradient id="radial-gradient-2" cx="-858.78" cy="356.22" r="34.69" gradientTransform="matrix(-0.68, 0, 0, 0.69, -557.64, -48.68)" xlink:href="#radial-gradient"/></defs><title>composition_12</title><g class="cls-1"><g id="Layer_2" data-name="Layer 2"><g id="Layer_3" data-name="Layer 3"><g id="_Group_" data-name="&lt;Group&gt;"><g id="_Group_2" data-name="&lt;Group&gt;"><g id="_Group_3" data-name="&lt;Group&gt;"><path id="_Path_" data-name="&lt;Path&gt;" class="cls-2" d="M14.92,45.63s1.49,66.19,14,98.3c1.08,2.78,41.63,3.76,44.63.09S84.21,88.32,85.88,48Z"/><polygon id="_Path_2" data-name="&lt;Path&gt;" class="cls-3" points="20.22 75.35 18.59 47.32 81.38 48.68 80.56 75.62 20.22 75.35"/><path id="_Path_3" data-name="&lt;Path&gt;" class="cls-4" d="M20.22,75.35s5.16,58.24,10.87,63.41,35.61,4.63,39.14.27,7.34-27.21,10.33-63.41Z"/><path id="_Path_4" data-name="&lt;Path&gt;" class="cls-5" d="M20.22,75.35s28.81,27.76,60.34.27C80.56,75.62,53.65,54.94,20.22,75.35Z"/><path id="_Path_5" data-name="&lt;Path&gt;" class="cls-6" d="M30.6,138.19a4.22,4.22,0,0,0,.49.57c5.71,5.17,35.61,4.63,39.14.27a5.76,5.76,0,0,0,.5-.73C52.15,124.91,34.63,134.71,30.6,138.19Z"/><path id="_Path_6" data-name="&lt;Path&gt;" class="cls-7" d="M24,78.56s8.77,10,27.3,10S77.81,78,77.81,78s-8.76,8.17-26.62,8.17S24,78.56,24,78.56Z"/><path id="_Path_7" data-name="&lt;Path&gt;" class="cls-8" d="M61.17,146.23c6.36-.3,11.4-1,12.38-2.21,3.12-3.81,10.66-55.7,12.33-96.05l-6.28-.21-13,10.56S65.7,102.51,61.17,146.23Z"/><path id="_Path_8" data-name="&lt;Path&gt;" class="cls-9" d="M14.92,45.63S43.24,84,85.88,48C85.88,48,55.23,18.28,14.92,45.63Z"/><path id="_Path_9" data-name="&lt;Path&gt;" class="cls-3" d="M19.67,45.69s24.47,31.57,61.16,1.9C80.83,47.59,55.56,25.55,19.67,45.69Z"/><path id="_Path_10" data-name="&lt;Path&gt;" class="cls-7" d="M28.53,90.4a1.37,1.37,0,0,0,0,2.74A1.37,1.37,0,0,0,28.53,90.4Z"/><path id="_Path_11" data-name="&lt;Path&gt;" class="cls-7" d="M32.65,95.55a1.38,1.38,0,0,0,0,2.76A1.38,1.38,0,0,0,32.65,95.55Z"/><path id="_Path_12" data-name="&lt;Path&gt;" class="cls-7" d="M29.15,101.31a1.39,1.39,0,0,0,0,2.78A1.39,1.39,0,0,0,29.15,101.31Z"/><path id="_Path_13" data-name="&lt;Path&gt;" class="cls-7" d="M40.27,119.66a1.4,1.4,0,0,0,0,2.8A1.4,1.4,0,0,0,40.27,119.66Z"/><path id="_Path_14" data-name="&lt;Path&gt;" class="cls-7" d="M36.55,124.18a2,2,0,1,0,2,2A2,2,0,0,0,36.55,124.18Z"/><path id="_Path_15" data-name="&lt;Path&gt;" class="cls-7" d="M42.33,131.23a1.38,1.38,0,0,0,0,2.75A1.38,1.38,0,0,0,42.33,131.23Z"/></g></g><g id="_Group_4" data-name="&lt;Group&gt;"><g id="_Group_5" data-name="&lt;Group&gt;"><g id="_Group_6" data-name="&lt;Group&gt;"><path id="_Path_16" data-name="&lt;Path&gt;" class="cls-10" d="M153.55,45.42,160.11.73a7.13,7.13,0,0,1,7,.41l-6.71,43.52Z"/></g><g id="_Group_7" data-name="&lt;Group&gt;"><path id="_Path_17" data-name="&lt;Path&gt;" class="cls-10" d="M165.76,45.41l6.79-44.19s4.16-2,7,1.07l-7.54,43Z"/></g><g id="_Group_8" data-name="&lt;Group&gt;"><g id="_Group_9" data-name="&lt;Group&gt;"><path id="_Path_18" data-name="&lt;Path&gt;" class="cls-11" d="M114.87,60.2s-8.7-12.32-9-15.62,11.34-11.76,13.44-11.46,7.76,5.55,7.76,5.55-5.62,8.14-3.06,16.49C124,55.16,117,57.8,114.87,60.2Z"/><path id="_Path_19" data-name="&lt;Path&gt;" class="cls-12" d="M117.41,44.62,114,38.54s-4.86,2.64-5.08,5.75c-.09,1.19,1.34,4.22,2.19,5.79C112.61,48.9,115.55,46.28,117.41,44.62Z"/></g><path id="_Path_20" data-name="&lt;Path&gt;" class="cls-13" d="M124.88,51.86c5.17-3.45,13.7-4.44,19.59-5.82,10.06-2.35,20.8-4.62,31.19-3.85,8.45.63,17,7.75,15.19,17.07a23.45,23.45,0,0,1,12.52,28.53,10.88,10.88,0,0,0-.78,3.24,9.14,9.14,0,0,0,.25,1.87c.18.86,3.14,13.19,2.63,13.19-2.65,3-95.66,2.42-98.85-.33C103.86,103.4,122.9,53.18,124.88,51.86Z"/><g id="_Group_10" data-name="&lt;Group&gt;"><g id="_Group_11" data-name="&lt;Group&gt;"><g id="_Group_12" data-name="&lt;Group&gt;"><g id="_Group_13" data-name="&lt;Group&gt;"><path id="_Path_21" data-name="&lt;Path&gt;" class="cls-14" d="M112.81,71.24c-2.16-2.51-5.82-1.59-8.52-.56a11,11,0,0,0-6.85,7.18C95.7,84,102.16,92,108,93.14c1.29.25,2.74-1.49,1.45-2.5-3.53-2.73-8-5.34-8.52-10.28-.53-5.17,7.07-8,11.22-7.62.83.08,1.07-1,.62-1.5Z"/></g><g id="_Group_14" data-name="&lt;Group&gt;"><path id="_Path_22" data-name="&lt;Path&gt;" class="cls-15" d="M184,62.1c4.35-.76,5.63-2,7.6-5.6,3.28-6,2.38-13.36-1.46-17-3.5-3.3-8.1-3.41-12.73-2.64-4.38.74-10.52,3.86-11.71,8.49a1.54,1.54,0,0,0,2.1,1.89c3.39-1.67,5.5-4.73,8.79-6.5,5.45-2.93,12.86-1.44,13.43,5.84.33,4.31-2.74,11.56-6.56,13.84A.88.88,0,0,0,184,62.1Z"/></g><g id="_Group_15" data-name="&lt;Group&gt;"><path id="_Path_23" data-name="&lt;Path&gt;" class="cls-14" d="M124.92,55.87c-1.41-7.06,1.39-16.68,9-18.92,3.9-1.16,7.49,1.21,10.17,3.8,2.27,2.2,3.71,5.89,6.51,7.4a1.27,1.27,0,0,0,1.89-1.08c-.1-4-4.6-8.25-7.52-10.59a12.86,12.86,0,0,0-12.72-2.29c-8.62,3.15-11.36,14.14-8.79,22.1a.78.78,0,0,0,1.51-.42Z"/></g><path id="_Path_24" data-name="&lt;Path&gt;" class="cls-16" d="M110,108.4s-10.25-21.2,0-32.15c0,0-9.25-14.79,10.22-27.48,12.91-8.42,21.92-2.71,21.92-2.71s15-10.82,26.11-5.41S184,62.53,184,62.53s22.25-3.29,27.36,13.52c4.71,15.48-13,25.56-13,25.56s11.83,23.2-25.39,34S110.27,109.71,110,108.4Z"/><g id="_Group_16" data-name="&lt;Group&gt;"><path id="_Path_25" data-name="&lt;Path&gt;" class="cls-14" d="M208.47,86a20,20,0,0,0-2.95-5.23,21.58,21.58,0,0,1-1.45,4.16,10.65,10.65,0,0,1,.59,1.22c1.26,3,1.73,6.31.24,9.17-1.31,2.53-4,4-5.86,6-1.23,1.3-1.24,3.82.35,3.26C206.92,102,211.27,93.2,208.47,86Z"/></g><path id="_Path_26" data-name="&lt;Path&gt;" class="cls-17" d="M113.88,106s-8.78-11.1-3.09-23,20-10.66,20-10.66l-1.59-4.79S109.78,66.25,105.84,83s3.46,24.51,3.46,24.51Z"/><path id="_Path_27" data-name="&lt;Path&gt;" class="cls-17" d="M159.79,91.75s-1.4,8.62-6,15l1.41,2s10-9.42,11-13.62Z"/><path id="_Path_28" data-name="&lt;Path&gt;" class="cls-17" d="M147,98.36s3.8-6.81,3.6-13.22l4.21,3.8S153,99.36,150,101.57Z"/><path id="_Path_29" data-name="&lt;Path&gt;" class="cls-17" d="M149.58,48.62s18.71-6.33,24,10.21L170.3,59s-8-9.77-17.87-6.61Z"/><path id="_Path_30" data-name="&lt;Path&gt;" class="cls-17" d="M141.48,71.76s2.25,12.93-3.16,23.15l3.61,1s5.55-8.27,3.45-22.39Z"/><path id="_Path_31" data-name="&lt;Path&gt;" class="cls-18" d="M132.77,121l7.67-2.45a28.63,28.63,0,0,1,11.39,9.81C156.46,135.27,141.3,136.25,132.77,121Z"/><path id="_Path_32" data-name="&lt;Path&gt;" class="cls-17" d="M172.83,81.26c-14.28-15.52-26.11-15.48-26.11-15.48l-.14,5.93s6.9-.35,17.92,9.41,12.9,18.85,12.7,23.25c-.29,6.48-4.42,10.46-10.46,10.51-3.63,0-7-2.81-9.52-5.08-4.87-4.37-10.22-13.81-17.14-15a21.25,21.25,0,0,0-7.13.25c1.83-2.9,5.63-11,2.64-25.55-2.05-10-21.75-4.44-20.25-1.26l13.88-.71c2.91-.15,1.2,19.52.71,21.13-2.53,8.23-11.06,18.44-20,19.73l12,4.94,2.31,3.21s9.58-3.31,10.78-10.82l-1.52-4.15c-.17-.44,2.56-1.16,2.78-1.19,3.24-.47,6.88,1.65,8.72,4,4.86,6.12,11.76,15.13,20.25,16s16.38-5,17.19-13.29C183.4,97.05,178.43,87.34,172.83,81.26Z"/><path id="_Path_33" data-name="&lt;Path&gt;" class="cls-17" d="M189.83,85.26c-1.73-2.68-5.25-4-8.54-3.76.85,1.81,1.53,3.17,1.77,3.53,1.85,2.67,5.23,5.81,8.57,6.55A13.58,13.58,0,0,0,189.83,85.26Z"/><path id="_Path_34" data-name="&lt;Path&gt;" class="cls-17" d="M174.89,67.52s2.55,5.7,4.83,10.62C184,76.83,189,77.56,192.06,81a17.9,17.9,0,0,1,4,9.57c3.69-.45,6.64-2.67,6.64-7.23C202.72,64.7,180.3,64.13,174.89,67.52Z"/><path id="_Compound_Path_" data-name="&lt;Compound Path&gt;" class="cls-19" d="M156.46,115.67a4.29,4.29,0,0,0-.83-1.6,4.53,4.53,0,0,0-.64-.82,4.68,4.68,0,0,0-7.29,1,4.52,4.52,0,0,0-.45,3.54,4.67,4.67,0,0,0,1.19,2,6.28,6.28,0,0,0,2.48,1.42,4.65,4.65,0,0,0,2.4,0,4.5,4.5,0,0,0,3.14-5.55Zm-3.26,3.16a2.74,2.74,0,0,1-4.07-3.53,3.1,3.1,0,0,1,1.2-1.13,2.87,2.87,0,0,1,2.11-.27,2.68,2.68,0,0,1,1.63,1.26A2.75,2.75,0,0,1,153.2,118.83Z"/><path id="_Compound_Path_2" data-name="&lt;Compound Path&gt;" class="cls-19" d="M198.19,97.18a4.64,4.64,0,0,0-8.48,3.59,4.73,4.73,0,0,0,.57,1.47,4.52,4.52,0,0,0,7.81,0,5.28,5.28,0,0,0,.1-5.06Zm-3.54,5.39a2.52,2.52,0,0,1-.73.1,2.69,2.69,0,0,1-2.35-1.34,2.86,2.86,0,0,1,4.5-3.46,2.78,2.78,0,0,1,.81,2A2.84,2.84,0,0,1,194.65,102.57Z"/><path id="_Compound_Path_3" data-name="&lt;Compound Path&gt;" class="cls-20" d="M164.71,78.19a5.49,5.49,0,0,0-9.37,3.89,5.52,5.52,0,0,0,5.48,5.51,5.56,5.56,0,0,0,5.3-4A5.56,5.56,0,0,0,164.71,78.19Zm-.85,6.14a3.51,3.51,0,0,1-5.33.43,2.93,2.93,0,0,1-.39-.48,3.69,3.69,0,0,1-.24-4,3.61,3.61,0,0,1,6.6.87A3.7,3.7,0,0,1,163.86,84.33Z"/><path id="_Path_35" data-name="&lt;Path&gt;" class="cls-20" d="M119,61.27l.07-.09a4.23,4.23,0,0,1-.33-.41,3.71,3.71,0,0,1-.24-4,3.61,3.61,0,0,1,6.36.24,7.93,7.93,0,0,1,1.53-.15h.23a5.42,5.42,0,0,0-1.31-2.16A5.5,5.5,0,1,0,118.23,63,8.63,8.63,0,0,1,119,61.27Z"/><g id="_Group_17" data-name="&lt;Group&gt;"><path id="_Path_36" data-name="&lt;Path&gt;" class="cls-14" d="M146.78,112.62c-4.29-1.88-8.48-5.93-11.1-9.75-.73-1.08-2.29-3.47-1.24-4.78,1.25-1.54,3.93-1.56,5.65-1,3.91,1.21,6.27,5.54,8.87,8.46a64.06,64.06,0,0,0,10.69,9.72c8.8,6.17,16.84,1.69,18-8,.92-7.53-1.2-13.12-3.83-18.16a49.93,49.93,0,0,0-11.08-13.31c-3.71-3-8.18-6.26-13.22-5.79s-7.32,5.09-6.26,9.55c1.11,4.65,5.67,8.1,9.37,10.65a39,39,0,0,0,12.61,5.87c2.13.55,3.81-3.1,1.54-3.67-12.26-3.08-17.84-9.24-19-12.71-.58-1.73-.22-5.1,2.31-5.34s5.42,1.83,7.44,3.2a35.2,35.2,0,0,1,5.57,4.76,43.58,43.58,0,0,1,9.62,15c1.9,5.26,1,10.54-4,14.12-2.7,1.92-6.27-.12-9.15-2.16C152,104,145.69,92.62,139.43,92.62c-6.08,0-11.21,3.94-8.56,9.91s8.68,11,14.69,13c1.68.57,2.86-2.17,1.22-2.9Z"/></g><g id="_Group_18" data-name="&lt;Group&gt;"><path id="_Path_37" data-name="&lt;Path&gt;" class="cls-14" d="M148.88,71.42C146,66.3,147,57.12,153.07,54.86c5.33-2,9.79,1.08,13.15,5,7.1,8.31,9.48,19.68,15.46,28.72,3.44,5.21,8.57,8.45,14.94,7.12,6.14-1.29,9.51-7.69,10.18-13.4C208.25,70,199.07,60.53,188,57.45c-6.05-1.69-15.33-3-21.06.14a1.71,1.71,0,0,0,.4,3.09c2.67.73,5.44.43,8.19.49a51.31,51.31,0,0,1,9.09.83c5.32,1.06,10.51,3.42,13.83,7.86,3.62,4.83,4.84,12.22,1.71,17.53A7.8,7.8,0,0,1,192,91.15c-3.25-.59-5.46-3.58-7.13-6.18-5.83-9.08-8.6-19.78-15.6-28.18-3.14-3.77-7.43-6.54-12.45-6.62a12.09,12.09,0,0,0-11.65,7.88,16,16,0,0,0,1.39,14.71,1.33,1.33,0,0,0,2.29-1.34Z"/></g><g id="_Group_19" data-name="&lt;Group&gt;"><path id="_Path_38" data-name="&lt;Path&gt;" class="cls-14" d="M161,134.49c11.34,4.52,24.72,1.71,32.64-7.73a31,31,0,0,0,6.7-15.54c.86-5.89.6-13.15-2.53-18.37-.93-1.57-4-1.07-3.71,1,.72,5.46,2.19,10.44,1.72,16a27.18,27.18,0,0,1-5.24,13.66c-6.9,9.45-18.67,10.23-29.31,9-1.21-.14-1.22,1.58-.27,2Z"/></g><g id="_Group_20" data-name="&lt;Group&gt;"><path id="_Path_39" data-name="&lt;Path&gt;" class="cls-14" d="M116.9,111.35c-2.58-.82-4.75-3.37-6.05-5.5-3.68-6-5.24-15.1-3.25-21.95,2.19-7.55,9.16-12.07,16.51-13.57,7.86-1.61,14.77,1,21.27,5.11a.45.45,0,0,1,0-.11c.12-.3.25-.63.4-.93a4.72,4.72,0,0,1,.54-.92A6.09,6.09,0,0,1,148,71.87c-6.38-6.46-17.31-7.63-25.74-5.73-9.12,2.06-16.63,8.89-18.72,18.09-1.83,8.08.59,19.52,5.92,25.88a13.77,13.77,0,0,0,6.82,4.56A21.79,21.79,0,0,1,116.9,111.35Z"/></g><g id="_Group_21" data-name="&lt;Group&gt;"><path id="_Path_40" data-name="&lt;Path&gt;" class="cls-14" d="M109.94,76.25C105.66,65.85,112,56,121.07,51a27.75,27.75,0,0,1,15.78-3.56c6,.49,10.32,4.17,15.51,6.62a1.76,1.76,0,0,0,2.12-2.75c-3.86-4.92-10.73-7.31-16.73-8.11-6.51-.87-13,1.28-18.68,4.37-10.55,5.78-17.06,18.24-11.6,29.75.66,1.37,3,.38,2.47-1Z"/></g><g id="_Group_22" data-name="&lt;Group&gt;"><path id="_Path_41" data-name="&lt;Path&gt;" class="cls-14" d="M142.61,47.89a21.39,21.39,0,0,1,32.27.2c2.59,2.93,3.48,6.43,4.35,10.13.46,1.93,3,1.27,3.2-.43,1.09-9.13-7.79-16.61-15.51-19.31a23.43,23.43,0,0,0-26.09,7.63c-1,1.24.65,3,1.78,1.78Z"/></g><g id="_Group_23" data-name="&lt;Group&gt;"><path id="_Path_42" data-name="&lt;Path&gt;" class="cls-14" d="M117.18,103.11c-2.7-5.2-3.52-11.27-.87-16.66,2.91-5.93,8.41-7.18,14.36-7.94,1.5-.19,2.21-2.64.39-2.93-6.8-1.06-13.74,3-17.15,8.71-3.69,6.25-2.77,14.2,1.22,20a1.19,1.19,0,0,0,2.05-1.19Z"/></g><g id="_Group_24" data-name="&lt;Group&gt;"><path id="_Path_43" data-name="&lt;Path&gt;" class="cls-14" d="M116.62,70.41c.1-6.83,5-11.53,11.25-13.44a20.85,20.85,0,0,1,9.35-.68c3.4.55,5.46,2.36,8.3,4a1.53,1.53,0,0,0,2.07-2.08c-1.64-2.95-5.76-4.48-8.87-5.15a23.24,23.24,0,0,0-11.73.69c-7.35,2.32-13.34,8.57-12.29,16.65a1,1,0,0,0,1.92,0Z"/></g><g id="_Group_25" data-name="&lt;Group&gt;"><path id="_Path_44" data-name="&lt;Path&gt;" class="cls-14" d="M110,108.4c8.37-1.58,15.23-7.68,19.53-14.81a30.4,30.4,0,0,0,4.11-12.86c.41-4.27-.24-11.14-3.56-14.2-1-.89-3-.37-2.84,1.17.22,2,1.22,3.82,1.79,5.79a21.49,21.49,0,0,1,.72,6.39,25.44,25.44,0,0,1-3.51,11.78c-3.56,6.41-9.82,12.17-16.88,14.38a1.22,1.22,0,0,0,.64,2.36Z"/></g><g id="_Group_26" data-name="&lt;Group&gt;"><path id="_Path_45" data-name="&lt;Path&gt;" class="cls-14" d="M199.85,91.44c2.36-6.66.62-13.25-5-17.65A20,20,0,0,0,186.22,70c-3.08-.58-9-.25-11.06.6-1.46.61-.08,3.56,1.64,3.62,2.49.08,4.91-.72,7.45-.6a16.47,16.47,0,0,1,7.82,2.64c4.93,3.08,6.85,9.08,5.79,14.62a1,1,0,0,0,2,.55Z"/></g><g id="_Group_27" data-name="&lt;Group&gt;"><path id="_Path_46" data-name="&lt;Path&gt;" class="cls-14" d="M180.7,86c2.47,4.06,4.87,7.59,5.87,12.35a26.29,26.29,0,0,1-.88,13.54,18.27,18.27,0,0,1-7.46,9.8c-4.47,2.79-9.15,1.66-14,1-1.8-.26-3.1,2.07-1.31,3.11,4.84,2.8,11,2.47,16,.17,4.74-2.2,7.84-6.76,9.67-11.49C192,105.59,191,90.22,181.68,85a.72.72,0,0,0-1,1Z"/></g><g id="_Group_28" data-name="&lt;Group&gt;"><path id="_Path_47" data-name="&lt;Path&gt;" class="cls-14" d="M120.16,123.47c11.81,1.31,25-4.41,34.16-11.49a46.88,46.88,0,0,0,11.11-12.17c2.64-4.21,6-10.29,5.23-15.34-.24-1.49-3.29-.92-3.51.3a29.12,29.12,0,0,1-1.84,7A43.71,43.71,0,0,1,162.36,98a42.68,42.68,0,0,1-11.14,12,57.57,57.57,0,0,1-14.42,7.87c-5.47,2.07-11.15,2.87-16.84,4-.91.19-.59,1.41.2,1.5Z"/></g><g id="_Group_29" data-name="&lt;Group&gt;"><path id="_Path_48" data-name="&lt;Path&gt;" class="cls-14" d="M166.34,81.43c3-7,1.46-17.65-5.81-21.43-3.28-1.7-7.16-1.31-10.42.14-3,1.34-6.16,4.74-5.4,8.22a1.33,1.33,0,0,0,2.2.58c1.7-1.71,2.43-3.8,4.58-5.11a8.82,8.82,0,0,1,7.85-.45c6,2.57,6.21,11.89,5.2,17.29-.19,1,1.33,1.85,1.8.76Z"/></g><path id="_Path_49" data-name="&lt;Path&gt;" class="cls-21" d="M173.71,67.34a1.82,1.82,0,0,0-2.48.65,3.3,3.3,0,0,0-.18.32l0,0a2.14,2.14,0,0,0-.33,1.84,1.86,1.86,0,0,0,1.34,1.34,2.07,2.07,0,0,0,1,0C174.94,71.17,175.2,68.21,173.71,67.34Z"/><path id="_Path_50" data-name="&lt;Path&gt;" class="cls-21" d="M185.11,89.46c-1.12-.73-3-.49-3.11,1.32a2.12,2.12,0,0,0,1.56,2.12,1.93,1.93,0,0,0,1.55-3.44Z"/><path id="_Path_51" data-name="&lt;Path&gt;" class="cls-22" d="M157.49,42.86l-.5,0a1.62,1.62,0,0,0,0,3.24l.5,0a1.6,1.6,0,0,0,0-3.2Z"/><path id="_Path_52" data-name="&lt;Path&gt;" class="cls-21" d="M135,112.82a1.38,1.38,0,0,0-1.37,1.37,2.78,2.78,0,0,0,.09.76,1.34,1.34,0,0,0,2.56,0,2.78,2.78,0,0,0,.09-.76A1.37,1.37,0,0,0,135,112.82Z"/><path id="_Path_53" data-name="&lt;Path&gt;" class="cls-21" d="M125.63,74.85a1.91,1.91,0,0,0-1.1-.85,1.84,1.84,0,0,0-2.33,1.78,1.91,1.91,0,0,0,.91,1.59,1.81,1.81,0,0,0,2.52-2.52Z"/><path id="_Path_54" data-name="&lt;Path&gt;" class="cls-21" d="M184.62,102.37s0-.09,0-.14,0,.08,0,.12a1.79,1.79,0,0,0-.84-1.72l0,0a1.86,1.86,0,0,0-2.51.66,2.08,2.08,0,0,0-.18,1.6,1.8,1.8,0,0,0,3.48,0,2.27,2.27,0,0,0,.06-.25s0,.07,0,.1A2,2,0,0,0,184.62,102.37Z"/><path id="_Path_55" data-name="&lt;Path&gt;" class="cls-23" d="M152.68,76.36a1.85,1.85,0,0,0-2.73-.27,1.77,1.77,0,0,0,0,2.47c-.34-.4-.12-.13,0,0a2.28,2.28,0,0,0,1.15.87,1.75,1.75,0,0,0,2-.81A1.88,1.88,0,0,0,152.68,76.36Z"/><path id="_Path_56" data-name="&lt;Path&gt;" class="cls-16" d="M200,57.28c-.25-.59-.95-.69-1.5-.76a1.4,1.4,0,0,0-1.39,1.4,1.46,1.46,0,0,0,1.14,1.39,1.08,1.08,0,0,0,.65.21,1.25,1.25,0,0,0,1.16-.88A1.66,1.66,0,0,0,200,57.28Z"/><path id="_Path_57" data-name="&lt;Path&gt;" class="cls-23" d="M101.8,92a2.14,2.14,0,0,0-2.13,2.12c0,.1,0,.2,0,.3a2.3,2.3,0,0,0,.64,1.51,2.09,2.09,0,0,0,2.93,0,2.3,2.3,0,0,0,.64-1.51c0-.1,0-.2,0-.3A2.13,2.13,0,0,0,101.8,92Z"/></g><path id="_Path_58" data-name="&lt;Path&gt;" class="cls-22" d="M157.11,61.81a1.53,1.53,0,0,0-2.39-.31,1.55,1.55,0,0,0,.3,2.4,1.67,1.67,0,0,0,1.32.22,1.38,1.38,0,0,0,1-1A1.66,1.66,0,0,0,157.11,61.81Z"/><path id="_Path_59" data-name="&lt;Path&gt;" class="cls-22" d="M119.94,92.57a1.53,1.53,0,1,0-2.09,2.09,1.72,1.72,0,0,0,1.32.23,1.39,1.39,0,0,0,1-1A1.67,1.67,0,0,0,119.94,92.57Z"/><path id="_Path_60" data-name="&lt;Path&gt;" class="cls-22" d="M166.22,114.23a2.41,2.41,0,0,0-3.63,2.06,2.42,2.42,0,0,0,.11.68,2.08,2.08,0,0,0,1.49,2,2.06,2.06,0,0,0,1.57-.21,1.5,1.5,0,0,0,.24-.18,1.26,1.26,0,0,0,.26-.13,2.46,2.46,0,0,0,1.08-1.41A2.51,2.51,0,0,0,166.22,114.23Z"/></g></g><g id="_Group_30" data-name="&lt;Group&gt;"><g id="_Group_31" data-name="&lt;Group&gt;"><path id="_Path_61" data-name="&lt;Path&gt;" class="cls-11" d="M132.39,111.53s-7.18-11.89-6-30.09c0,0,12.17-1.9,15.54-.44,0,0-2.35,18.2,9.53,25.83l2.56,1.58S140.49,106.12,132.39,111.53Z"/><path id="_Path_62" data-name="&lt;Path&gt;" class="cls-24" d="M116.53,106.77c1,.39,2.49.9,3.86,1.37.59-3.59,1.43-9.17-.33-13.22l-3.17.35A18.59,18.59,0,0,1,116.53,106.77Z"/><path id="_Path_63" data-name="&lt;Path&gt;" class="cls-25" d="M106.62,105.76s87.52,0,98.85.33C205.47,106.09,150.06,119.24,106.62,105.76Z"/><path id="_Path_64" data-name="&lt;Path&gt;" class="cls-26" d="M130.06,99.6a26.36,26.36,0,0,0,1.6,4.51l6.88-2.22a25.63,25.63,0,0,1-1.64-4.36C134.63,98.25,132.35,99,130.06,99.6Z"/><path id="_Path_65" data-name="&lt;Path&gt;" class="cls-26" d="M135.22,86.15c0-.74,0-1.48,0-2.26,0,0-5.55-.67-6.44.66a4.1,4.1,0,0,0-.42,1.66C130.64,86.16,132.93,86.15,135.22,86.15Z"/><path id="_Path_66" data-name="&lt;Path&gt;" class="cls-26" d="M128.32,88.7a52,52,0,0,0,1.16,8.52c2.28-.64,4.55-1.36,6.81-2.08a44.37,44.37,0,0,1-.95-6.5Q131.83,88.64,128.32,88.7Z"/></g><path id="_Path_67" data-name="&lt;Path&gt;" class="cls-27" d="M106.62,105.76l12.44,48.7,74.11.48,12.3-48.85C190.27,109,125.19,109.16,106.62,105.76Z"/></g></g></g><g id="_Group_32" data-name="&lt;Group&gt;"><g id="_Group_33" data-name="&lt;Group&gt;"><path id="_Path_68" data-name="&lt;Path&gt;" class="cls-11" d="M177.28,70.08a30.86,30.86,0,0,1,8.94-.07,22.88,22.88,0,0,1,3.62,1c1.9-5.28,5.16-13.64,4.65-14.35-.72-1-11.91-5.88-13.23-5.18-.72.38-3.86,7.26-6.61,13.37C175.58,66.57,176.44,68.32,177.28,70.08Z"/></g><path id="_Path_69" data-name="&lt;Path&gt;" class="cls-26" d="M188.05,60.09l1.59-3.37s-6.59-3.35-8.17-2.11a4.93,4.93,0,0,0-.86,1.13C181.53,56.31,187,59.4,188.05,60.09Z"/><path id="_Path_70" data-name="&lt;Path&gt;" class="cls-26" d="M185.1,60.91c-1.85-1.12-3.69-2.23-5.6-3.19-1,1.85-1.92,3.85-2.93,6,2.58.94,5.46,2,8.35,2.89l2.17-4.52Z"/><path id="_Path_71" data-name="&lt;Path&gt;" class="cls-26" d="M175.4,66.3c.65,1.25,1.28,2.51,1.88,3.78a34.75,34.75,0,0,1,6.23-.33l.56-1.19c-2.67-1-5.87-2.12-8.28-3.12Z"/></g><g id="_Group_34" data-name="&lt;Group&gt;"><path id="_Path_72" data-name="&lt;Path&gt;" class="cls-28" d="M178.84,80.94s-4.58,14.35-22.08,12.2l-.2,3s16.71,4.32,24.7-14.4Z"/><path id="_Path_73" data-name="&lt;Path&gt;" class="cls-28" d="M110.39,60.73s-9,15,6.84,26.87l3-2.8s-15.38-5.6-7.46-24.74Z"/><path id="_Path_74" data-name="&lt;Path&gt;" class="cls-28" d="M152.45,46s11.89-15.93-9.51-18.2l.2,3.17s8.63.38,9.78,4-3,10-3,10Z"/></g><path id="_Path_75" data-name="&lt;Path&gt;" class="cls-29" d="M200.11,87.46a20,20,0,0,0-10.23-7.85L188.48,82c5.8,2.23,8.17,6,9.06,8.08A8,8,0,0,0,200.11,87.46Z"/><path id="_Path_76" data-name="&lt;Path&gt;" class="cls-30" d="M133.24,65.5C133.56,55,144.1,52.74,144.1,52.74l-1-2.58c-10.81,4-13.46,11.4-14.1,15.17A31.42,31.42,0,0,1,133.24,65.5Z"/></g><g id="_Group_35" data-name="&lt;Group&gt;"><g id="_Group_36" data-name="&lt;Group&gt;"><path id="_Path_77" data-name="&lt;Path&gt;" class="cls-31" d="M129.68,203.87c-1.18-3.27-2.8-18.84-.46-23.05,5.81-10.43,22-13.4,36.75-18.67,17.67-6.29,43.93-15.18,54.44-8.55,3.09,1.94,1.78,26.57,1.54,31.55C214.76,206.37,158.78,221.35,129.68,203.87Z"/><path id="_Path_78" data-name="&lt;Path&gt;" class="cls-32" d="M125.89,191s-2.88,2.15-2.82,3.89,2.35,5.9,6.5,6.84a15.26,15.26,0,0,0,6.7.26l6.16-3.48-.36,6.5s2.64,2.62,12.69,2.09l3.88-4.56s4.89,5.56,6.64,5,1.54-5.23,1.54-5.23,3.28,2.81,3.82,3.15,10,2.21,15.54-1.61c0,0,.87-.34.73-2A7.63,7.63,0,0,0,186,199s6.5.67,8.18.6l1.27-2.28-.14-2.08a48.84,48.84,0,0,0,9.65,1.34c3.82-.07,8.31-3.08,8.31-3.08s1.94-1,.67-2.55.13-.34.13-.34l-2.28-4.36a31.72,31.72,0,0,0,9.41,1.21c4.13-.34,5.67-5.37,5.67-5.37s1.2-2.41-2.68-3.35S140.82,182.66,125.89,191Z"/><path id="_Path_79" data-name="&lt;Path&gt;" class="cls-33" d="M207.25,188.68c.49,1.19,6.33,1.11,7,2.55a2.76,2.76,0,0,0-.26-.41c-1.27-1.54.13-.33.13-.33l-2.28-4.36-2.78-.47S206.74,187.47,207.25,188.68Z"/><path id="_Path_80" data-name="&lt;Path&gt;" class="cls-33" d="M193.4,199.47c-.25-.13-10.65-5.62-11.38-4.82s4.56,5.63,4.56,5.63h0a7.53,7.53,0,0,0-.58-1.42S191,199.39,193.4,199.47Z"/><path id="_Path_81" data-name="&lt;Path&gt;" class="cls-33" d="M179.68,200.51s-1.94-2-3.69-3.65l-5.15,1.81S177.75,198.8,179.68,200.51Z"/><path id="_Path_82" data-name="&lt;Path&gt;" class="cls-33" d="M154.16,198.13c-.67.47,1.74,6,.67,8.46l.2.15,3.61-4.25S154.83,197.66,154.16,198.13Z"/><path id="_Path_83" data-name="&lt;Path&gt;" class="cls-33" d="M148.73,203l3.28-4.09-10.78-1.41S148.79,202.09,148.73,203Z"/><path id="_Path_84" data-name="&lt;Path&gt;" class="cls-33" d="M136.27,201.94l6.16-3.47s-5.36-3.74-6.78-2.93,1.58,4.38,0,6.52A6.5,6.5,0,0,0,136.27,201.94Z"/><path id="_Path_85" data-name="&lt;Path&gt;" class="cls-34" d="M204.93,196.12l-3.81-6.44,11.25,4.23S207.92,196.16,204.93,196.12Z"/><path id="_Path_86" data-name="&lt;Path&gt;" class="cls-34" d="M161,204.77l2.72-3.72,2.81,3.32S167.25,210.41,161,204.77Z"/><path id="_Path_87" data-name="&lt;Path&gt;" class="cls-34" d="M153.89,201,150,207s4.08.95,4.79.06C155.29,206.38,154.69,202,153.89,201Z"/><path id="_Path_88" data-name="&lt;Path&gt;" class="cls-34" d="M125.65,199.54s6-4.93,7.54-5.23a1.45,1.45,0,0,1,1.76,1.21s1.65,5.23,1.15,5.93S131.28,203.47,125.65,199.54Z"/><path id="_Path_89" data-name="&lt;Path&gt;" class="cls-35" d="M157.19,155.87s-25.62,15.58-34.06,31.39a7.22,7.22,0,0,0,0,3.14c.21.88,4.93,3.42,12.19,5.63.06-.35.2-.65.48-.73.68-.19,4.06,1.68,5,2.2A79.89,79.89,0,0,0,167,199.39a1.27,1.27,0,0,1,.73-.67,13.93,13.93,0,0,1,3.57.06,55.34,55.34,0,0,0,10.91-3.06c-.22-.54-.42-1.21-.1-1.44s1.38.17,2.19.55a48.63,48.63,0,0,0,13.88-9.42C198.77,184.22,174.64,163.19,157.19,155.87Z"/><path id="_Path_90" data-name="&lt;Path&gt;" class="cls-36" d="M123.1,187.19c.68,2.82,44.58,23.8,75.11-4.53.56-1.19-23.57-22.22-41-29.54C157.19,153.12,130.52,170.86,123.1,187.19Z"/><path id="_Path_91" data-name="&lt;Path&gt;" class="cls-35" d="M233.26,163.41c-7-4.58-28.31-13.16-44.78-17.87,0,0-24.58,15.48-32,31.81.45,1.92,27.65,15.12,50.74,10.66.46-.71,2.32-3.41,4.1-3.81,1.45-.32,3.5.59,4.57,1.14,7.3-3.22,13.67-8.9,17.9-18.18C233.91,166.91,233.7,163.81,233.26,163.41Z"/><path id="_Path_92" data-name="&lt;Path&gt;" class="cls-36" d="M156.48,174.6c.67,2.82,56.68,30.89,76.8-11,.56-1.19-24-14.87-44.8-20.82C188.48,142.79,163.9,158.27,156.48,174.6Z"/><path id="_Path_93" data-name="&lt;Path&gt;" class="cls-37" d="M127.14,172.68s-5.74,4-5.74,10c0,6.76,8.07,12.2,18.79,4.53,0,0,2.85,10,12.83,9.75s12.34-6,18-7.13,11.16,6.41,22.32,2.37,9.74-18.3,9.74-18.3,6.86,8.28,13.53,5.23c8.31-3.8,5.46-10.94,8.07-13.55,0,0,17.33-9.51-2.49-18.07S127.14,172.68,127.14,172.68Z"/><path id="_Path_94" data-name="&lt;Path&gt;" class="cls-31" d="M126.07,181s-1.14-14.57,1.3-18.78c6-10.42,22.87-13.4,38.23-18.66,18.38-6.3,44.63-15.07,55.56-8.44,3.21,1.95,3.56,23.42,3.56,23.42s-5.28,17.05-36.33,25.67C152.42,194.19,126.07,181,126.07,181Z"/><path id="_Path_95" data-name="&lt;Path&gt;" class="cls-38" d="M126.78,170.66c-3.85-11.59,12.46-28.54,38.82-38.87,24.57-9.63,52.67-6.23,57,5.71,4.08,11.27-12.46,29.59-34.54,38.51C163.55,185.89,130.87,183,126.78,170.66Z"/><path id="_Path_96" data-name="&lt;Path&gt;" class="cls-39" d="M129.3,167.82c-3.15-10.59,18-27.65,37.28-34.6,20.66-7.46,49.07-6.86,53.23,3.92,3.91,10.16-14.1,28.46-32.34,36.24C164,183.39,132.68,179.16,129.3,167.82Z"/><path id="_Path_97" data-name="&lt;Path&gt;" class="cls-40" d="M144.17,151.65c-2.14,2,11.94,22.42,13.87,21.53C160.52,172,146.11,149.83,144.17,151.65Z"/><path id="_Path_98" data-name="&lt;Path&gt;" class="cls-40" d="M190.08,133.68c-2.12,1.59,13.08,19.69,15,18.17C207.23,150.2,192.22,132.07,190.08,133.68Z"/><path id="_Path_99" data-name="&lt;Path&gt;" class="cls-40" d="M153,144.23c-2.14,1.75,16.77,29.36,20.1,27.56C175.63,170.42,155.2,142.43,153,144.23Z"/><path id="_Path_100" data-name="&lt;Path&gt;" class="cls-40" d="M164.51,138.56c-2.29,1.46,19.8,31.31,22,29.86C189.19,166.66,167.45,136.69,164.51,138.56Z"/><path id="_Path_101" data-name="&lt;Path&gt;" class="cls-40" d="M177,135.24c-1.93,1.45,18.47,26.83,19.91,25.8C199.22,159.39,179.68,133.23,177,135.24Z"/><path id="_Path_102" data-name="&lt;Path&gt;" class="cls-41" d="M143.33,166.71a1.58,1.58,0,0,0-2.18.6,1.63,1.63,0,0,0,.59,2.19,1.67,1.67,0,0,0,1.22.15,1.6,1.6,0,0,0,.37-2.94Z"/><path id="_Path_103" data-name="&lt;Path&gt;" class="cls-41" d="M200.54,153.56a1.66,1.66,0,0,0-1.22-.15,1.61,1.61,0,0,0-.37,2.94,1.67,1.67,0,0,0,1.22.16,1.61,1.61,0,0,0,.37-2.95Z"/><path id="_Path_104" data-name="&lt;Path&gt;" class="cls-41" d="M139,158.82a1.31,1.31,0,1,0,.49,1.79A1.34,1.34,0,0,0,139,158.82Z"/><path id="_Path_105" data-name="&lt;Path&gt;" class="cls-41" d="M203.82,136.82a1.31,1.31,0,1,0,.49,1.79A1.33,1.33,0,0,0,203.82,136.82Z"/><path id="_Path_106" data-name="&lt;Path&gt;" class="cls-41" d="M138.11,164.69a1.06,1.06,0,0,0-1.44.37,1.08,1.08,0,0,0,.37,1.45,1.06,1.06,0,0,0,1.44-.37A1.08,1.08,0,0,0,138.11,164.69Z"/><path id="_Path_107" data-name="&lt;Path&gt;" class="cls-42" d="M124.29,183.67c-.89,4.28,5.16,6.07,6.76,4.46S124.68,181.79,124.29,183.67Z"/><path id="_Path_108" data-name="&lt;Path&gt;" class="cls-42" d="M144.94,190.27c-.17,4.28,9.63,5.77,10.69,2.32C156.34,190.27,145,188.46,144.94,190.27Z"/></g><path id="_Path_109" data-name="&lt;Path&gt;" class="cls-43" d="M154.29,199.56l-.82-.07c.08.46.23,1,.41,1.66.47,1.69,1.11,4,.54,5.57-.71.59-9.43-.13-11.45-1.6a15.43,15.43,0,0,1,2.3-.66c2-.48,3.27-.81,3.46-1.5a.76.76,0,0,0-.26-.76c-3.62-3.49-11.24-7.46-12.67-7.21a1.17,1.17,0,0,0-.85.53c-.42.68-.1,1.75.28,3s.72,2.39.35,3a1.07,1.07,0,0,1-.73.44c-2.91.58-9.36-1.86-11-6-.46-1.24-.38-2.46,1.52-3.85l-.77-.44a4,4,0,0,0-1.5,4.49c1.54,4.85,8.1,7.34,11.87,6.58a1.8,1.8,0,0,0,1.26-.81c.55-.93.13-2.32-.27-3.66-.28-.92-.6-2-.36-2.34,0,0,.07-.12.29-.16.83-.13,8.13,3.31,12,7a11.6,11.6,0,0,1-2.82.89c-1.93.46-2.87.7-3,1.29a.63.63,0,0,0,.23.64c1.36,1.25,7,2.14,10.22,2.14a8.75,8.75,0,0,0,1.83-.15,1,1,0,0,0,.78-.54c.71-1.87,0-4.33-.48-6.12C154.53,200.5,154.39,200,154.29,199.56Z"/><path id="_Path_110" data-name="&lt;Path&gt;" class="cls-43" d="M194.32,191.79c-.24.11-.49.21-.74.3l.08.18c1,2,2.3,4.68,1,6.06-1.12,1.18-4.45-.72-7.13-2.24s-4.79-2.73-5.72-1.79a1.06,1.06,0,0,0-.35.83c0,.79.91,1.54,2,2.49,1.56,1.33,3.51,3,3,4.91-.57,2.38-8,3.57-12.57,3.18-2.1-.18-2.57-.61-2.58-.69-.05-.73,2.3-1.22,4-1.58,2.18-.46,4.06-.85,4.52-1.85a.93.93,0,0,0-.23-1.08c-1.57-1.71-9.79-2.86-12.06-2-1.59.59-1.44,2.42-1.3,4.19.13,1.58.26,3.22-.71,4.07-1.14,1-5.08-3-7.43-5.38l-1.68-1.69-1.24-.05c.69.62,1.57,1.52,2.35,2.31,3.19,3.25,6.81,6.93,8.54,5.42,1.26-1.12,1.11-3.05,1-4.74-.15-1.87-.17-3,.77-3.37,2.13-.78,10,.48,11.2,1.81.12.13.1.17.09.19-.29.63-2.32,1.06-4,1.4-2.44.52-4.75,1-4.65,2.42.05.79,1.13,1.26,3.31,1.45,4.28.36,12.66-.62,13.42-3.8.58-2.4-1.57-4.24-3.3-5.72-.84-.72-1.72-1.46-1.74-1.9a.33.33,0,0,1,.11-.24c.5-.49,3,.91,4.77,1.93,3.22,1.84,6.55,3.73,8.1,2.09s.22-4.78-.86-7Z"/><path id="_Path_111" data-name="&lt;Path&gt;" class="cls-43" d="M225.79,178.7c-.22.21-.43.42-.66.62a1.85,1.85,0,0,1,1.55,1.9c-.08,2.08-2.86,5.14-5.49,5.31-1.52.1-3.38-.68-5.18-1.44-2.09-.88-4.06-1.71-5.42-1.07s-4.2,2.65-3.84,4.46c.25,1.25,1.86,1.93,4.93,2.08,1.31.06,2.16.43,2.22,1,.09.8-1.48,2.5-6.2,3.87s-8.92-2.2-11.59-4.56c-.23.15-.47.29-.72.43,2.78,2.47,7.33,6.42,12.54,4.9,4.37-1.27,7-3.09,6.77-4.74-.12-1-1.2-1.59-3-1.68-3.42-.16-4.09-1-4.18-1.43-.21-1.08,1.9-2.87,3.39-3.57,1-.49,2.85.27,4.77,1.08s3.82,1.61,5.54,1.51c2.82-.19,6.14-3.43,6.24-6.09A2.56,2.56,0,0,0,225.79,178.7Z"/></g><g id="_Group_37" data-name="&lt;Group&gt;"><g id="_Group_38" data-name="&lt;Group&gt;"><g id="_Group_39" data-name="&lt;Group&gt;"><g id="_Group_40" data-name="&lt;Group&gt;"><path id="_Path_112" data-name="&lt;Path&gt;" class="cls-44" d="M59.91,115s10.94,57.77,12.14,59.57,43.91,1.93,45.26-.23c1-1.6,9.62-62,9.62-62Z"/><path id="_Path_113" data-name="&lt;Path&gt;" class="cls-45" d="M61,120.56c4.07,3.3,20.2,10,47.11,6.81l-1.77,48.37c6-.25,10.58-.7,11-1.38,1-1.6,9.62-62,9.62-62l-67,2.64Z"/><g id="_Group_41" data-name="&lt;Group&gt;"><path id="_Path_114" data-name="&lt;Path&gt;" class="cls-46" d="M108,121.62c0,2.44,0,5-.11,7.52l1.31,0c.08-3,.12-5.54.15-7.71Q108.63,121.58,108,121.62Z"/></g><path id="_Path_115" data-name="&lt;Path&gt;" class="cls-47" d="M69,161.34c10.76,2.86,38.85,3.49,50.62.38,1.61-10.18,3.72-24.47,5.27-35-18.19,10.41-47.1,7.2-62.39,1.76C64.37,138.26,67,151.54,69,161.34Z"/><path id="_Path_116" data-name="&lt;Path&gt;" class="cls-48" d="M119.6,161.72c1.61-10.18,3.72-24.47,5.27-35a51.61,51.61,0,0,1-17,5.74l-1.13,31.06A71.64,71.64,0,0,0,119.6,161.72Z"/><path id="_Path_117" data-name="&lt;Path&gt;" class="cls-49" d="M54.3,113s9,11.73,39.46,11.73c28.55,0,39.21-11.48,39.21-11.48s-.6-6-.81-7.72c-6.36-3.48-23.4-4.64-39.79-4.5-14.54.12-31.38.75-37.67,4.15C54.39,108.13,54.3,113,54.3,113Z"/><path id="_Path_118" data-name="&lt;Path&gt;" class="cls-50" d="M55.93,106.61s8.74,12,37.3,10.29C93.23,116.9,69,112.93,55.93,106.61Z"/><path id="_Path_119" data-name="&lt;Path&gt;" class="cls-51" d="M133,113.22s-.6-6-.81-7.72a26.78,26.78,0,0,0-7.29-2.34l-15.67,8.19,1,11.91C126.51,120.17,133,113.22,133,113.22Z"/><path id="_Path_120" data-name="&lt;Path&gt;" class="cls-52" d="M54.67,105.16s8.66,11.73,39.09,11.73c28.55,0,38.47-11.49,38.47-11.49S120.83,93,92.37,93.19C67.89,93.39,54.67,105.16,54.67,105.16Z"/><path id="_Path_121" data-name="&lt;Path&gt;" class="cls-49" d="M59.08,104.75S66.94,114,93.42,114c24.86,0,34.64-9,34.64-9s-.91-6-2-10.62c-5.87-2.59-21.92-.12-33.88,0-10.37.09-26.5-2.75-32.11-.24C59.63,97.4,59.08,104.75,59.08,104.75Z"/><path id="_Path_122" data-name="&lt;Path&gt;" class="cls-50" d="M60.09,94.06s7.57,10.61,31.77,9.15C91.86,103.21,70.32,100.22,60.09,94.06Z"/><path id="_Path_123" data-name="&lt;Path&gt;" class="cls-51" d="M126.1,94.34c-1.87-.82-4.76-1.13-8.23-1.17l-13.2,7.2.68,12.84C121.46,111,128.06,105,128.06,105S127.15,99,126.1,94.34Z"/><path id="_Path_124" data-name="&lt;Path&gt;" class="cls-52" d="M60.09,94.06s8.08,9.12,33.34,9.12c23.71,0,32.72-8.8,32.72-8.8s-10.25-9.69-33.87-9.49C72,85.05,60.09,94.06,60.09,94.06Z"/><path id="_Path_125" data-name="&lt;Path&gt;" class="cls-52" d="M63.92,94.24S75.32,86.59,93,86.59c17.9,0,29.28,7.52,29.28,7.52S111.72,101,93.17,101,63.92,94.24,63.92,94.24Z"/><path id="_Path_126" data-name="&lt;Path&gt;" class="cls-49" d="M122.28,94.11S110.9,86.59,93,86.59c-17.68,0-29.08,7.65-29.08,7.65a29.14,29.14,0,0,0,3.6,1.8A53.11,53.11,0,0,1,92.89,89.5,60.08,60.08,0,0,1,119,95.82,28.19,28.19,0,0,0,122.28,94.11Z"/><path id="_Path_127" data-name="&lt;Path&gt;" class="cls-53" d="M80.83,99.91,77,94.28a40.68,40.68,0,0,0-6.73,2.85A62.18,62.18,0,0,0,80.83,99.91Z"/></g></g><path id="_Path_128" data-name="&lt;Path&gt;" class="cls-51" d="M87.36,86.85c-14.43,1.35-23.44,7.39-23.44,7.39a29.14,29.14,0,0,0,3.6,1.8,53,53,0,0,1,20-6.25Z"/></g><g id="_Group_42" data-name="&lt;Group&gt;"><polygon id="_Path_129" data-name="&lt;Path&gt;" class="cls-54" points="98.9 129.71 99.7 151.57 116.41 151.38 117.19 129.2 98.9 129.71"/><polygon id="_Path_130" data-name="&lt;Path&gt;" class="cls-55" points="99.7 151.57 116.41 151.38 117.19 129.2 117.17 129.21 99.7 151.54 99.7 151.57"/><path id="_Path_131" data-name="&lt;Path&gt;" class="cls-56" d="M103.61,136.09a13.29,13.29,0,0,0,.1,1.78l3.36.08.06,9.06,1.87-.15.3-8.74,3.19-.05.27-2Z"/><polygon id="_Path_132" data-name="&lt;Path&gt;" class="cls-57" points="105.42 131.45 105.02 126.71 112.26 126.53 112.12 131.22 105.42 131.45"/></g></g><g id="_Group_43" data-name="&lt;Group&gt;"><path id="_Path_133" data-name="&lt;Path&gt;" class="cls-58" d="M50.54,188s-5.51,7.45-3.74,7.45S50.4,193,50.4,193s.22,4.69,1.25,4.37c1.25-.38,1.54-4,1.54-4s1.8,3.88,2.68,2.09S52.44,185.46,50.54,188Z"/><path id="_Path_134" data-name="&lt;Path&gt;" class="cls-59" d="M51.65,143.19s.67-1.73-.43-2.65c-3.81-3.17-12-5.61-21.85-1.09-12.72,5.85-18.92,25.43-7.85,43.34s28,6.6,30.37,6.6,3.06,5.42,14.36,5,35.63-21,22.13-46C76.37,126.22,51.65,143.19,51.65,143.19Z"/><path id="_Path_135" data-name="&lt;Path&gt;" class="cls-60" d="M84.8,169.9a49.19,49.19,0,0,1-33.74,14c-12.92,0-24.4-5.41-33.73-14-.5-.46-1-.93-1.44-1.41a42.68,42.68,0,0,0,5.63,14.3c11.06,17.91,28,6.6,30.37,6.6s3.06,5.42,14.36,5c9.46-.4,28-14.87,25.93-34.2A47.73,47.73,0,0,1,84.8,169.9Z"/><path id="_Path_136" data-name="&lt;Path&gt;" class="cls-61" d="M88.38,148.38c-5.51-10.16-13.68-12.09-20.92-11.21,12.92,27.74,2.15,49-11.21,55.22,1.91,1.16,4.85,2.16,10,2C77.55,193.87,101.88,173.3,88.38,148.38Z"/><path id="_Path_137" data-name="&lt;Path&gt;" class="cls-62" d="M51.66,143.69s2.51-19,25.54-27.07c0,0,8.22,11.5-1.25,21.56C67.69,147,51.66,143.69,51.66,143.69Z"/><path id="_Path_138" data-name="&lt;Path&gt;" class="cls-63" d="M49.15,137.66c1.65,2.43,1.9,7.61,1.87,10.92a15,15,0,0,0,3.34-.11c.83-9.78-1.4-23.78-3.46-24.9s-9.77,3.52-9,6.07C42.37,131.15,46.6,133.94,49.15,137.66Z"/><path id="_Path_139" data-name="&lt;Path&gt;" class="cls-64" d="M30.93,143c-6.84,1.51-11,10.71-11.23,18-.36,12.57,7,26.34,20.34,24.09,7.16-1.21,12.07-11,12-19.14C52,153.39,40.15,140.94,30.93,143Z"/><path id="_Path_140" data-name="&lt;Path&gt;" class="cls-65" d="M43.34,129.14c-.5-1.93,5.26-5.52,6.6-4.35s2.05,8.84.3,9.59S43.64,130.3,43.34,129.14Z"/><path id="_Path_141" data-name="&lt;Path&gt;" class="cls-66" d="M49.94,124.79c-1.34-1.17-7.1,2.42-6.6,4.35h0a6,6,0,0,0,4.51-.73,4.78,4.78,0,0,0,2.23-3.47A1,1,0,0,0,49.94,124.79Z"/><path id="_Path_142" data-name="&lt;Path&gt;" class="cls-67" d="M25.35,147.13c-2.22-1.78-7.07,10.61-5.18,11.79S27.7,149,25.35,147.13Z"/><path id="_Path_143" data-name="&lt;Path&gt;" class="cls-67" d="M21.11,161.74c-2.12.22-2.35,4.25,0,4.72S23.46,161.51,21.11,161.74Z"/><path id="_Path_144" data-name="&lt;Path&gt;" class="cls-68" d="M75.66,184a1.46,1.46,0,1,0,.48,1.71A1.29,1.29,0,0,0,75.66,184Z"/><path id="_Path_145" data-name="&lt;Path&gt;" class="cls-68" d="M81.28,179c-.66-.26-1.67.45-2.09,1.59s-.29,2.32.42,2.6,1.67-.45,2.09-1.59S82,179.32,81.28,179Z"/><path id="_Path_146" data-name="&lt;Path&gt;" class="cls-69" d="M84.07,155.54c-.56.16-.2,1.72.06,2.54s.21.69.82.52a1.44,1.44,0,0,0,.64-1.84C85.33,155.94,84.68,155.36,84.07,155.54Z"/><path id="_Path_147" data-name="&lt;Path&gt;" class="cls-69" d="M80.74,147.63c-.86.37-1.22,1.8-.64,3.05s1.74,2,2.67,1.62,1.92-1.11,1.33-2.35S81.67,147.22,80.74,147.63Z"/><path id="_Path_148" data-name="&lt;Path&gt;" class="cls-69" d="M80.19,155.16a.76.76,0,0,0-.92.05c-.25.25.33,1.6.59,2.07,0,0-.65-.69-.66-.6.17.68.81,1.07,1.2.72,0-.07,0-.08.07,0,.34-.08.49-.6.44-1A1.67,1.67,0,0,0,80.19,155.16Z"/></g><g id="_Group_44" data-name="&lt;Group&gt;"><g id="_Group_45" data-name="&lt;Group&gt;"><path id="_Path_149" data-name="&lt;Path&gt;" class="cls-70" d="M8.26,178.15c-6.76,2.28-13.92,29.44,15.07,34.76,11.53,2.11,26.3.37,31.81-5.14,4.71-4.72,4.2-20.73,1.45-22.66C50.68,181,17.16,175.15,8.26,178.15Z"/><path id="_Path_150" data-name="&lt;Path&gt;" class="cls-71" d="M5.38,175.54c-6.77,2.28-12.19,31.25,16.67,37.18s39.23-23.33,33.86-28.16S14.27,172.54,5.38,175.54Z"/><path id="_Path_151" data-name="&lt;Path&gt;" class="cls-72" d="M5.38,175.54a6,6,0,0,1,.71-.2,35.58,35.58,0,0,0-.54,4.81c-.31,6.82,3.26,14.61,8,19.36a28.23,28.23,0,0,0,19.34,8c7.41,0,14-3.11,19.33-8a21.87,21.87,0,0,0,4-4.94c-3.31,9.79-14.39,22.21-34.15,18.15C-6.81,206.79-1.39,177.82,5.38,175.54Z"/><path id="_Path_152" data-name="&lt;Path&gt;" class="cls-73" d="M55.91,184.56a8.4,8.4,0,0,0-1.45-1l0,0c1.74,6.88-3.83,31.9-31.79,26.16-26.82-5.51-20.86-29.65-16.5-34.47-.2.23-.58.15-.83.24-6.77,2.28-12.19,31.25,16.67,37.18S61.28,189.39,55.91,184.56Z"/><path id="_Path_153" data-name="&lt;Path&gt;" class="cls-73" d="M18.26,177.43c-.73,1.25,2,14.27,14.36,15.24,9.65.75,10.16-10.46,6.09-12.33C34.29,178.31,18.85,176.42,18.26,177.43Z"/><path id="_Path_154" data-name="&lt;Path&gt;" class="cls-73" d="M17.45,178.64c-.73,1.25,2,14.27,14.36,15.24,9.65.76,10.16-10.46,6.09-12.33C33.49,179.53,18,177.64,17.45,178.64Z"/><path id="_Path_155" data-name="&lt;Path&gt;" class="cls-74" d="M23,182.35c-.21.87,2.75,4.48,5.3,4.23,1.62-.15,2.47-2.45,1.11-3.87C28.45,181.73,23.29,181,23,182.35Z"/></g><path id="_Path_156" data-name="&lt;Path&gt;" class="cls-75" d="M24.67,182.56c.13-.68,4.15.19,4.19,1.1S24.56,183.19,24.67,182.56Z"/></g></g></g></g></g></svg>