<svg xmlns="http://www.w3.org/2000/svg" xmlns:xlink="http://www.w3.org/1999/xlink" viewBox="0 0 218.8 245.34"><defs><style>.cls-1{isolation:isolate;}.cls-2{fill:url(#linear-gradient);}.cls-3{fill:#3c702c;}.cls-4{fill:url(#linear-gradient-2);}.cls-5{fill:#3a6c26;}.cls-6{fill:url(#linear-gradient-3);}.cls-7{fill:url(#linear-gradient-4);}.cls-8{fill:#c4740f;}.cls-9{fill:url(#linear-gradient-5);}.cls-10{fill:#c5750f;}.cls-11{fill:url(#linear-gradient-6);}.cls-12{fill:#c3730f;}.cls-13{fill:url(#linear-gradient-7);}.cls-14{fill:#ffd668;}.cls-15{fill:#7c4f30;}.cls-16{fill:#ac8768;}.cls-17{fill:#946b4c;}.cls-18{fill:#eae6e1;}.cls-19{fill:#fff;}.cls-20{fill:url(#linear-gradient-8);}.cls-21,.cls-22{fill:#ad977f;}.cls-21,.cls-27,.cls-33{opacity:0.2;}.cls-22,.cls-37{opacity:0.4;}.cls-23{fill:url(#linear-gradient-9);}.cls-24{fill:#e59a59;}.cls-25{fill:#d47c41;}.cls-26,.cls-27{fill:#c05a19;mix-blend-mode:multiply;}.cls-26,.cls-29,.cls-31{opacity:0.3;}.cls-28{fill:#f4c29b;}.cls-29{fill:#bd6e31;}.cls-30{fill:#63231b;}.cls-31{fill:#fcfdf5;mix-blend-mode:overlay;}.cls-32{fill:url(#linear-gradient-10);}.cls-33{fill:#ffd466;}.cls-34{fill:url(#linear-gradient-11);}.cls-35{fill:url(#linear-gradient-12);}.cls-36{fill:url(#linear-gradient-13);}.cls-37{fill:#a34509;}.cls-38{fill:#7a2f09;}.cls-38,.cls-52{opacity:0.5;}.cls-39{fill:url(#linear-gradient-14);}.cls-40{fill:#d4a873;}.cls-41{fill:url(#linear-gradient-15);}.cls-42{fill:#a76a49;}.cls-43{fill:url(#linear-gradient-16);}.cls-44{fill:url(#linear-gradient-17);}.cls-45{fill:#925937;}.cls-46{fill:#e9a04f;}.cls-47{fill:#fbdca4;}.cls-48{fill:#cc8233;}.cls-49{fill:#f6ca8a;}.cls-50{fill:#af5927;}.cls-51{fill:#d67b2f;}.cls-52{fill:#883b25;}.cls-53{fill:#80a23e;}.cls-54{fill:#698738;}.cls-55{fill:#a0bd39;}.cls-56{fill:url(#linear-gradient-18);}.cls-57{fill:url(#linear-gradient-19);}.cls-58{fill:url(#linear-gradient-20);}.cls-59{fill:url(#linear-gradient-21);}.cls-60{fill:url(#linear-gradient-22);}</style><linearGradient id="linear-gradient" x1="174.83" y1="4.46" x2="177.22" y2="40.32" gradientTransform="translate(-23.84)" gradientUnits="userSpaceOnUse"><stop offset="0" stop-color="#6fa346"/><stop offset="1" stop-color="#4c833a"/></linearGradient><linearGradient id="linear-gradient-2" x1="175.95" y1="20.59" x2="176.52" y2="63.66" xlink:href="#linear-gradient"/><linearGradient id="linear-gradient-3" x1="156.94" y1="43.84" x2="198.91" y2="79.99" xlink:href="#linear-gradient"/><linearGradient id="linear-gradient-4" x1="176.47" y1="60.24" x2="177.78" y2="97.48" gradientTransform="translate(-23.84)" gradientUnits="userSpaceOnUse"><stop offset="0" stop-color="#ffc400"/><stop offset="1" stop-color="#c0550d"/></linearGradient><linearGradient id="linear-gradient-5" x1="176.27" y1="76.75" x2="177.48" y2="125.75" xlink:href="#linear-gradient-4"/><linearGradient id="linear-gradient-6" x1="176.27" y1="98.2" x2="177.84" y2="146.73" xlink:href="#linear-gradient-4"/><linearGradient id="linear-gradient-7" x1="176.37" y1="115.75" x2="176.37" y2="165.04" xlink:href="#linear-gradient-4"/><linearGradient id="linear-gradient-8" x1="675.36" y1="50.95" x2="619.89" y2="73.89" gradientTransform="translate(-553.18 -95.73) rotate(12.87)" gradientUnits="userSpaceOnUse"><stop offset="0" stop-color="#eae6e1"/><stop offset="1" stop-color="#ccbfb0"/></linearGradient><linearGradient id="linear-gradient-9" x1="92.78" y1="125.7" x2="65.25" y2="81.91" gradientTransform="translate(-23.84)" gradientUnits="userSpaceOnUse"><stop offset="0" stop-color="#b2a292"/><stop offset="1" stop-color="#a6917e"/></linearGradient><linearGradient id="linear-gradient-10" x1="-113.1" y1="89.19" x2="-109.85" y2="148.14" gradientTransform="translate(151.54 46.17) rotate(-8.19)" gradientUnits="userSpaceOnUse"><stop offset="0" stop-color="#faaf66"/><stop offset="1" stop-color="#c05a19"/></linearGradient><linearGradient id="linear-gradient-11" x1="44.23" y1="147.98" x2="131.83" y2="197.61" gradientTransform="translate(-23.84)" gradientUnits="userSpaceOnUse"><stop offset="0" stop-color="#e78d4a"/><stop offset="1" stop-color="#b24812"/></linearGradient><linearGradient id="linear-gradient-12" x1="38.77" y1="157.62" x2="126.4" y2="207.26" xlink:href="#linear-gradient-11"/><linearGradient id="linear-gradient-13" x1="60.68" y1="198.75" x2="113.94" y2="198.75" gradientTransform="translate(-23.84)" gradientUnits="userSpaceOnUse"><stop offset="0" stop-color="#c66227"/><stop offset="1" stop-color="#b24812"/></linearGradient><linearGradient id="linear-gradient-14" x1="-93.01" y1="91.5" x2="-93.01" y2="151.62" gradientTransform="translate(151.54 46.17) rotate(-8.19)" gradientUnits="userSpaceOnUse"><stop offset="0" stop-color="#d09a66"/><stop offset="1" stop-color="#ba8254"/></linearGradient><linearGradient id="linear-gradient-15" x1="99.92" y1="147.9" x2="120.45" y2="204.46" gradientTransform="translate(-23.84)" gradientUnits="userSpaceOnUse"><stop offset="0" stop-color="#c0865a"/><stop offset="1" stop-color="#ac714a"/></linearGradient><linearGradient id="linear-gradient-16" x1="70.11" y1="189.81" x2="95.67" y2="160.99" gradientTransform="translate(-23.84)" gradientUnits="userSpaceOnUse"><stop offset="0" stop-color="#fece61"/><stop offset="0.25" stop-color="#fbc053"/><stop offset="0.73" stop-color="#f49c2f"/><stop offset="1" stop-color="#ef8518"/></linearGradient><linearGradient id="linear-gradient-17" x1="61.02" y1="181.74" x2="86.58" y2="152.92" xlink:href="#linear-gradient-16"/><linearGradient id="linear-gradient-18" x1="66.52" y1="202.66" x2="109.54" y2="256.7" gradientTransform="matrix(-1, -0.03, -0.03, 1, 235.51, -15.36)" gradientUnits="userSpaceOnUse"><stop offset="0" stop-color="#fbdca5"/><stop offset="1" stop-color="#fbc983"/></linearGradient><linearGradient id="linear-gradient-19" x1="199.75" y1="235.66" x2="256.03" y2="235.66" gradientTransform="translate(-87.41 -24.57) rotate(1.7)" gradientUnits="userSpaceOnUse"><stop offset="0" stop-color="#edbd78"/><stop offset="1" stop-color="#edad5f"/></linearGradient><linearGradient id="linear-gradient-20" x1="222.97" y1="219.84" x2="228.37" y2="278.84" gradientTransform="translate(-87.41 -24.57) rotate(1.7)" gradientUnits="userSpaceOnUse"><stop offset="0" stop-color="#e9a354"/><stop offset="1" stop-color="#e99e4d"/></linearGradient><linearGradient id="linear-gradient-21" x1="214.1" y1="203.89" x2="256.51" y2="243.42" gradientTransform="translate(-87.41 -24.57) rotate(1.7)" gradientUnits="userSpaceOnUse"><stop offset="0" stop-color="#fce7c0"/><stop offset="1" stop-color="#fcd9a8"/></linearGradient><linearGradient id="linear-gradient-22" x1="206.15" y1="212.43" x2="248.56" y2="251.97" xlink:href="#linear-gradient-21"/></defs><title>composition_11</title><g class="cls-1"><g id="Layer_2" data-name="Layer 2"><g id="Layer_3" data-name="Layer 3"><g id="_Group_" data-name="&lt;Group&gt;"><g id="_Group_2" data-name="&lt;Group&gt;"><g id="_Group_3" data-name="&lt;Group&gt;"><path id="_Path_" data-name="&lt;Path&gt;" class="cls-2" d="M132.54,43.8c-.62-2.41-10.16-26-6.18-31.62s20.56,21.29,20.56,21.29-.61-30.82,5.35-33.3S160,23.25,160,23.25s9.31-11.73,15.7-10.1c8.08,2.06-4.53,37.49-4.53,37.49S141.16,77.28,132.54,43.8Z"/><path id="_Path_2" data-name="&lt;Path&gt;" class="cls-3" d="M139.56,57.08s8.66-4.2,3.3-11.31c-2.72-3.62-11.48-11.31-14.09-13.11,1.73,5.49,3.52,10.14,3.77,11.14a31.29,31.29,0,0,0,4.59,10.55c1.43,1.7,2.43,2.73,2.43,2.73Z"/><path id="_Path_3" data-name="&lt;Path&gt;" class="cls-4" d="M141.83,69.22S113.31,37.6,116,30.15s26.46,19.68,26.46,19.68-.47-32,4.9-33.86c6.81-2.29,9.26,28.77,9.26,28.77S162.38,23.33,168.35,24s1.33,18.61,1.33,18.61,15.25-13,18.56-9.31-9.94,26.67-21.88,39.69S141.83,69.22,141.83,69.22Z"/><path id="_Path_4" data-name="&lt;Path&gt;" class="cls-5" d="M173.69,44.61C166.89,42.14,156,55.39,156,55.39c-3.5-10.31-9.78-15.57-13.17-15.57-.09,2-.34,1.16-.38,2.86l5.36,32.18c4.78,3.28,11.75,5.46,18.52-1.92a125.06,125.06,0,0,0,11.2-14.48C177.69,53.72,177.92,46.15,173.69,44.61Z"/><path id="_Path_5" data-name="&lt;Path&gt;" class="cls-6" d="M112.65,54.34c3.32-5,24.45,7.28,24.45,7.28s-2-19,3.32-21.76c6.47-3.27,14.35,21.1,14.35,21.1s9.74-14.29,15.56-14.06c6.6.25-2,19.22-2,19.22s21.88-7.44,24.53-3.1-19.76,18.8-39,18.22C137.45,80.75,109.33,59.3,112.65,54.34Z"/><path id="_Path_6" data-name="&lt;Path&gt;" class="cls-7" d="M119.14,81.26s8.42-17.63,17-18.18c4.95-.32,7.7,5.42,7.7,5.42S148,61.06,153.62,60c7.58-1.4,10.87,8.81,10.87,8.81s2.2-4.15,6.33-5.42,17.37,10.34,18.47,25.34C190.08,99.56,107,114.75,119.14,81.26Z"/><path id="_Path_7" data-name="&lt;Path&gt;" class="cls-8" d="M189.29,88.74a31.35,31.35,0,0,0-4-12.82c-4.3,3.3-6.31,9-6.31,9s-5.84-13.38-12.65-12S155,83.28,155,83.28s-4.68-10.36-13-9.86-13.2,12.87-13.2,12.87A12.93,12.93,0,0,0,122.06,76c-1.82,3-2.92,5.27-2.92,5.27C107,114.75,190.08,99.56,189.29,88.74Z"/><path id="_Path_8" data-name="&lt;Path&gt;" class="cls-9" d="M109.77,99.68s4.42-21,11-21.61c5.86-.57,7.14,16.27,7.14,16.27s5.51-18,12.88-19.15c9.51-1.44,13.79,17.55,13.79,17.55S158.73,76,166.14,75.52C175.49,74.88,178,93.38,178,93.38s4.68-15,8.8-15.95c4.53-1.05,10.94,16.23,10.53,26.09-.91,21.76-25.31,35.74-43,34.2S103.15,125.85,109.77,99.68Z"/><path id="_Path_9" data-name="&lt;Path&gt;" class="cls-10" d="M154.32,137.72c17.66,1.54,42.06-12.44,43-34.2a39.32,39.32,0,0,0-1.38-10.74c-2.53,3.65-3.37,10.86-3.37,10.86s-6.51-8.35-12.77-7.78c-5.2.48-9.27,10.49-9.27,10.49S165,94.45,155.64,95.29,142,107.19,142,107.19s-6.35-10.7-13.36-10-10.65,10-10.65,10c-2.37-6.61-5.45-9.64-7.33-11-.55,2.06-.84,3.45-.84,3.45C103.15,125.85,136.67,136.18,154.32,137.72Z"/><path id="_Path_10" data-name="&lt;Path&gt;" class="cls-11" d="M108.92,129.45c-2.28-9.08-3-26.15-1.35-30.3,1.17-2.94,8.37,2.8,8.64,20,0,0,3-19.5,12.55-20.38,7.86-.72,11.82,19.14,11.82,19.14s4.88-20.09,15.67-20.09c9.51,0,12.92,18.5,12.92,18.5S173,99.2,181,98.49c7.14-.64,12.37,15,12.37,15s1.36-17.86,3.57-18.19c2.93-.42,2.59,30.77-2.21,40.82-3.5,7.34-7.41,17.24-13.64,18.09S117.41,163.43,108.92,129.45Z"/><path id="_Path_11" data-name="&lt;Path&gt;" class="cls-12" d="M183.57,133.3s-7.73-15.58-16.25-14.12-12.87,14.18-12.87,14.18-6.49-12.8-14-12.46c-9,.4-15.69,15.77-15.69,15.77-2.33-8.77-12.81-14.46-17.39-16.57a72.37,72.37,0,0,0,1.56,9.35c8.49,34,65.93,25.6,72.16,24.75s10.14-10.75,13.64-18.09c1.87-3.9,3.05-11,3.64-18.21C188.76,121.07,183.57,133.3,183.57,133.3Z"/><path id="_Path_12" data-name="&lt;Path&gt;" class="cls-13" d="M182.52,145.06s-5.92-23.56-15.26-23.16-13.84,23.9-13.84,23.9-5.73-23.34-14-22.54S125,144.89,125,144.89c-2.06-10.19-12.89-22-19.81-22.82.74,9.68,6.84,25.27,11.35,30.35,11.76,13.25,56.13,14.54,70.56,1.61,4.42-4,12.74-18.34,12.74-34.85C188.59,122.29,182.52,145.06,182.52,145.06Z"/></g><path id="_Path_13" data-name="&lt;Path&gt;" class="cls-14" d="M141.53,81.26c-1.37,0-2.35,16.11-.19,16.11C142.7,97.37,143.86,81.26,141.53,81.26Z"/><path id="_Path_14" data-name="&lt;Path&gt;" class="cls-14" d="M127.74,106.35c-2.32-.18-2.52,14.76-.36,14.76S130.07,106.53,127.74,106.35Z"/><path id="_Path_15" data-name="&lt;Path&gt;" class="cls-14" d="M138.94,131.86c-1.28.14-2.52,14.76-.36,14.76S140.46,131.7,138.94,131.86Z"/><path id="_Path_16" data-name="&lt;Path&gt;" class="cls-14" d="M154.94,104.48c-1.58.31-1.95,16.63.22,16.63S157.23,104,154.94,104.48Z"/><path id="_Path_17" data-name="&lt;Path&gt;" class="cls-14" d="M181.65,105.12c-1.88.28-.37,14.76,1.79,14.76S184,104.77,181.65,105.12Z"/><path id="_Path_18" data-name="&lt;Path&gt;" class="cls-14" d="M166.61,81.26c-2.33-.18-.36,14.76,1.8,14.76S168.94,81.44,166.61,81.26Z"/><path id="_Path_19" data-name="&lt;Path&gt;" class="cls-14" d="M154.73,64.94c-2.33.15-2.34,12.21-.17,12.21S156.25,64.84,154.73,64.94Z"/><path id="_Path_20" data-name="&lt;Path&gt;" class="cls-14" d="M167.49,130.47c-1.93.46-.92,15.41,1.24,15.41S169.42,130,167.49,130.47Z"/></g><g id="_Group_4" data-name="&lt;Group&gt;"><path id="_Path_21" data-name="&lt;Path&gt;" class="cls-15" d="M21.78,146.94c-10.87-18.72-.39-43.24,12.48-56.79C50.06,73.51,80,62.28,101.15,74.74c25.25,14.89,32.74,56.87,5.91,80.92C78.56,181.21,36.06,171.53,21.78,146.94Z"/><path id="_Path_22" data-name="&lt;Path&gt;" class="cls-16" d="M84.33,158.89c10.56-4.8,21-13.88,26.84-25l.24-.47s9.21-4.6,9.06-6.57-6.6.24-6.6.24,9.34-12,6.88-13.21c-1.31-.61-3.33,1.26-5,3.14a44.7,44.7,0,0,0-2.71-25.29c-.43-1-.91-2-1.4-2.93.48-3.94,1.41-12.93-.12-13.11-2-.23-3.84,4.17-3.84,4.17s-3.22-9.83-4.56-9.48S102,74.51,102,74.51s-7.25-12.28-9.33-12.16c-1,0,.71,3.54,1.21,5.63-13.52-8.41-28.78-10.17-43.64-7.11-3.37-1.45-10-4.47-10.94-2.84s3.92,4.88,5.33,5.77l-.18.05c-2.46-.77-12-3.7-12.43-2.34-.59,1.76,3.9,3.7,6.41,4.63l-.08,0C21.1,74.26,11.13,91,8.38,108.15c-2.46,1.44-9.2,4.22-8.3,6.31.61,1.41,5.55-.15,7.63-1.1,0,.59-7.25,11.72-5.48,12.55,1.43.67,5.11-4.58,6.19-6.26a103.42,103.42,0,0,0,2.82,11.08c7.32,19.39,25.72,30.88,46.64,32.42,3.48,1.67,11.95,5.63,13.88,5.62,2.44,0-3.26-4.85-3.26-4.85s12.53,3.92,12.63,2.41c.06-.92-2.86-3.07-5.12-4.59A46.64,46.64,0,0,0,84.33,158.89Z"/><path id="_Path_23" data-name="&lt;Path&gt;" class="cls-17" d="M22.17,142.9c-13.25-16.54-13.37-41.19-2-58,17-25,58.22-30.85,79.66-8,17.16,18.33,16.77,49.89-1.21,68.75C77.78,167.55,40.07,165.23,22.17,142.9Z"/><path id="_Path_24" data-name="&lt;Path&gt;" class="cls-18" d="M24.22,141.28c-12.71-15.67-12.65-39.15-1.88-55C38.47,62.5,77.84,57,97.91,78.72c16,17.28,15.32,47-1.62,64.75C76.72,163.94,41.22,162.24,24.22,141.28Z"/><path id="_Path_25" data-name="&lt;Path&gt;" class="cls-19" d="M84.14,92.05C72.52,79.59,51.78,81.59,41,93.52c-8.91,9.88-10.7,26.26-1.83,37.38,9.92,12.42,29.42,13.58,41.63,3.22S95.21,103.91,84.14,92.05Z"/><path id="_Path_26" data-name="&lt;Path&gt;" class="cls-20" d="M81.69,89.79C70.07,77.33,49.33,79.33,38.57,91.26c-8.9,9.88-10.69,26.26-1.82,37.38,9.92,12.43,29.41,13.58,41.63,3.23S92.75,101.65,81.69,89.79Z"/><path id="_Path_27" data-name="&lt;Path&gt;" class="cls-21" d="M61.42,107.74a31.25,31.25,0,0,1,25.43-9.82,26.48,26.48,0,0,0-5.16-8.13C70.07,77.33,49.33,79.33,38.57,91.26c-8.9,9.88-10.69,26.26-1.82,37.38a27.75,27.75,0,0,0,19.11,10.08A30.23,30.23,0,0,1,61.42,107.74Z"/><path id="_Path_28" data-name="&lt;Path&gt;" class="cls-22" d="M53.84,120.21c8.51-9.44,23.26-12.65,34.8-7.42a28,28,0,0,0-7-23C70.07,77.33,49.33,79.33,38.57,91.26c-8.9,9.88-10.69,26.26-1.82,37.38a26.61,26.61,0,0,0,9.76,7.57A30.26,30.26,0,0,1,53.84,120.21Z"/><path id="_Path_29" data-name="&lt;Path&gt;" class="cls-23" d="M41.37,95.72c9.07-10.17,25.18-13.56,37.14-8.8-11.92-9.17-30.1-6.57-39.94,4.34-7.59,8.42-10,21.55-5,32.13A33.86,33.86,0,0,1,41.37,95.72Z"/></g><g id="_Group_5" data-name="&lt;Group&gt;"><path id="_Path_30" data-name="&lt;Path&gt;" class="cls-24" d="M206,148.46c11.74,5.86,15.45,23.44,11,34.85-10.12,26.17-45.57,23.13-67.38,19.45-11.29-1.91-23.49-4.43-34.17-8.78-11.09-4.53-22.17-11.92-27.17-23.23-9.64-21.81,3-44.06,27.26-44.68,12.66-.32,16.77,6.65,22.38,16.44,7.24,12.61,18.53,14.86,31.76,9.67C180.6,147.9,194.47,142.73,206,148.46Z"/><path id="_Path_31" data-name="&lt;Path&gt;" class="cls-25" d="M137.38,159.25c-1.3-2.08-4-4.6-5.64-4.57s-3,2.82-2.8,4.27c.42,2.57,4.88,7.45,7.63,5.19a3.55,3.55,0,0,0,1.55-3.21A5.19,5.19,0,0,0,137.38,159.25Z"/><path id="_Path_32" data-name="&lt;Path&gt;" class="cls-25" d="M118,138.47c-2.1-1.54-5.76-2.07-5.68.69.12,3.77,6,6.82,7.08,1.87A2.69,2.69,0,0,0,118,138.47Z"/><path id="_Path_33" data-name="&lt;Path&gt;" class="cls-25" d="M108.93,150.64c2.59-6.56-8.64-9.73-10.11-2.85-.71,3.31,2.28,6.76,5.48,7.27C106.28,155.37,108.32,152.18,108.93,150.64Z"/><path id="_Path_34" data-name="&lt;Path&gt;" class="cls-25" d="M119.88,159.44a18.25,18.25,0,0,0-4-5.47c-.94-.9-2.32-2.23-3.68-1.6a9.25,9.25,0,0,0-3.5,5c-.25,3.18,3.74,8.58,7.64,7.87a4.81,4.81,0,0,0,3.86-3.77A4.22,4.22,0,0,0,119.88,159.44Z"/><path id="_Path_35" data-name="&lt;Path&gt;" class="cls-25" d="M127.72,168.73c-.73-2.34-2.53-4.49-4.87-3.94-1.57.36-3,3.12-2.8,4.63.31,2.07,3.48,4.14,5.4,4.39C128,174.16,128.53,171.32,127.72,168.73Z"/><path id="_Path_36" data-name="&lt;Path&gt;" class="cls-25" d="M105.86,165.19a3.46,3.46,0,0,0-.22-.31c-1.11-1.43-3.42-3.24-5.3-2.14-3,1.77.1,6.19,1.84,7.58C106.21,173.52,108.08,168.5,105.86,165.19Z"/><path id="_Path_37" data-name="&lt;Path&gt;" class="cls-25" d="M120.54,178.15c-1.46-2.22-5.09-4-6.92-3.72-3.1.52-.59,5.29.51,6.38,2.08,2.07,5.05,3.77,6.78.32A2.86,2.86,0,0,0,120.54,178.15Z"/><path id="_Path_38" data-name="&lt;Path&gt;" class="cls-26" d="M96.74,172.89c-.43-2.67-4.08-6.34-5.31-7.33-2.84-2.27-2.74.82-2.18,3s2.16,5.09,4.07,6.25A2.3,2.3,0,0,0,96,175,2.07,2.07,0,0,0,96.74,172.89Z"/><path id="_Path_39" data-name="&lt;Path&gt;" class="cls-27" d="M105.71,181.27c-1.11-2.24-4.27-4.65-5.94-4.74-1.87-.11-2.17,2.18-1.62,3.57.79,2,3.38,4.59,5.61,4.76a2.43,2.43,0,0,0,2.1-1.2A2.54,2.54,0,0,0,105.71,181.27Z"/><path id="_Path_40" data-name="&lt;Path&gt;" class="cls-25" d="M125.42,131.39c.25-.91-.12-1.81-1.47-2.37l-.33-.16a2.46,2.46,0,0,0-2.41,0c-2.59,1.52-.36,6.44,2.31,4.77A4.14,4.14,0,0,0,125.42,131.39Z"/><path id="_Path_41" data-name="&lt;Path&gt;" class="cls-25" d="M135.42,142.29a11.78,11.78,0,0,0-2.43-3.51c-1.22-1.33-3.46-3.14-3.62-.08-.09,1.79,1.38,5.67,3,6.58a2.19,2.19,0,0,0,2.62-.34A2.39,2.39,0,0,0,135.42,142.29Z"/><path id="_Path_42" data-name="&lt;Path&gt;" class="cls-26" d="M150.77,156.58c-2.47-2.29-8.4-4.47-8.82-2.15-.61,3.39,6.35,6.17,8.86,5.1C152.35,158.87,152,157.71,150.77,156.58Z"/><path id="_Path_43" data-name="&lt;Path&gt;" class="cls-28" d="M212.24,153.5c-11.71-6.89-25.93-2.62-37.72,1.77-7,2.59-13.79,6.12-21.38,6.22-6.58.09-12.22-3.22-16.7-7.81-3.7-3.8-6.53-8.43-10-12.43A36.13,36.13,0,0,0,114.68,132a24.94,24.94,0,0,0-15-1.74c-.76.43-1.49.89-2.19,1.37,6-1,12-.63,17.62,2.18,4.71,2.39,8.46,6.31,11.77,10.34,3.53,4.3,6.48,9.05,10.64,12.8a23.9,23.9,0,0,0,14.25,6.16c6.85.54,13.29-2.35,19.52-4.77,7.76-3,15.71-5.86,24.06-6.65a26.49,26.49,0,0,1,19.89,6.24A24.61,24.61,0,0,0,212.24,153.5Z"/><path id="_Path_44" data-name="&lt;Path&gt;" class="cls-28" d="M217.64,164.22a18.88,18.88,0,0,0-3.95-2.13c-4.73-1.83-9.72-1.69-14.62-.73-13.07,2.55-24.37,10.58-37.42,13.14-16.17,3.18-30.76-7.27-39.86-19.83-7-9.66-16.08-17.82-28-20-.31.3-.62.61-.92.93a40,40,0,0,1,12.94,5.29c6.1,3.87,10.81,9.46,14.94,15.29,7.75,10.94,20,20.25,33.8,20.75s26.1-7.81,38.67-12c5.24-1.74,10.87-3,16.4-2a16.8,16.8,0,0,1,8.69,4.5Q218.06,165.78,217.64,164.22Z"/><path id="_Path_45" data-name="&lt;Path&gt;" class="cls-28" d="M85.64,149.76a75.65,75.65,0,0,0,16.87,25.75,77.6,77.6,0,0,0,28.94,17.56c24.87,8.75,53.94,7.85,77.27-4.84a78.68,78.68,0,0,0,8.43-5.33,24.22,24.22,0,0,0,.75-2.46,86.91,86.91,0,0,1-34,15.18c-14,2.78-28.77,1.95-42.62-1.25a82.12,82.12,0,0,1-32.36-15.13c-10.25-8.07-17.62-18.89-23-30.68Q85.76,149.16,85.64,149.76Z"/><path id="_Path_46" data-name="&lt;Path&gt;" class="cls-28" d="M218.76,174.44c0-.55,0-1.1,0-1.65-11.61-1.11-23.4,4.94-33.84,9-6.45,2.51-13.11,4.54-20.09,4.62a77.54,77.54,0,0,1-20.5-2.68c-22.08-5.81-40.76-21.43-53.52-40-.64-.92-1.27-1.86-1.9-2.81-.21.37-.42.75-.61,1.12a101.16,101.16,0,0,0,31.41,32.33A83.64,83.64,0,0,0,154,187.21a58.12,58.12,0,0,0,19.07-.13c6.64-1.28,12.93-4,19.17-6.55a105.48,105.48,0,0,1,14.65-5A42.9,42.9,0,0,1,218.76,174.44Z"/><path id="_Path_47" data-name="&lt;Path&gt;" class="cls-29" d="M206,148.46c-11.49-5.73-25.36-.56-36.28,3.72-13.23,5.19-24.52,2.94-31.76-9.67-2.69-4.69-5-8.73-8.14-11.63,5.07,7.31,18.62,30.09,1.89,43.94-20.14,16.67-41.9-1.12-41.9-1.12h0c5.5,9.66,15.59,16.16,25.68,20.28,10.68,4.35,22.88,6.87,34.17,8.78,21.81,3.68,57.26,6.72,67.38-19.45C221.41,171.9,217.7,154.32,206,148.46Z"/><path id="_Path_48" data-name="&lt;Path&gt;" class="cls-29" d="M206,148.46c-6.74-3.36-14.3-3-21.6-1.21C213,173.84,180.31,204.72,180,205c15.84-.86,31-6.06,37-21.72C221.41,171.9,217.7,154.32,206,148.46Z"/><g id="_Group_6" data-name="&lt;Group&gt;"><path id="_Path_49" data-name="&lt;Path&gt;" class="cls-30" d="M134.75,141.59l0,0h0Z"/><path id="_Path_50" data-name="&lt;Path&gt;" class="cls-30" d="M134.75,141.59a4.64,4.64,0,0,0-.4-.31Z"/></g><g id="_Group_7" data-name="&lt;Group&gt;"><path id="_Path_51" data-name="&lt;Path&gt;" class="cls-31" d="M105.64,202.66l.11,0Z"/></g></g><g id="_Group_8" data-name="&lt;Group&gt;"><g id="_Group_9" data-name="&lt;Group&gt;"><g id="_Group_10" data-name="&lt;Group&gt;"><g id="_Group_11" data-name="&lt;Group&gt;"><path id="_Path_52" data-name="&lt;Path&gt;" class="cls-32" d="M18.85,205.38C16.22,198.25,31.72,158.3,68.42,153c26.47-3.79,42,22,28.47,39.39C76.41,218.72,21.57,212.74,18.85,205.38Z"/><path id="_Path_53" data-name="&lt;Path&gt;" class="cls-33" d="M25.54,195.26c-4-3.81,7.72-25.35,20.74-30.73,10.61-4.39,21.82,6.5,21.4,13.08C67,187.85,28.86,198.43,25.54,195.26Z"/><path id="_Path_54" data-name="&lt;Path&gt;" class="cls-34" d="M38.83,174.53c8-8.14,22-14.38,26-16.74a.62.62,0,0,0-.48-1.12c-4.48,1.29-20,9.51-26.11,17.41C38,174.43,38.54,174.82,38.83,174.53Z"/><path id="_Path_55" data-name="&lt;Path&gt;" class="cls-35" d="M50.22,187a43.38,43.38,0,0,0,11.24-2.57c4.09-1.44,8.11-3.07,12.08-4.8,2.23-1,4.43-2,6.62-3a16.64,16.64,0,0,0,4.78-2.86.53.53,0,0,0-.53-.88c-3.29.84-6.52,3.09-9.62,4.49q-5.92,2.66-12,4.93A52,52,0,0,1,53.87,185a34.56,34.56,0,0,1-8.55.58A19.72,19.72,0,0,1,38.45,184a71.56,71.56,0,0,1,9.14-7.51A98.31,98.31,0,0,1,62.84,168c5.34-2.42,11.17-3.67,16.46-6.09a.67.67,0,0,0-.35-1.24c-5.48.72-11.08,3.36-16.11,5.55a99,99,0,0,0-16.06,8.9A69.61,69.61,0,0,0,36,184.39c-3.46,3.58-7.83,8.12-9.31,13a.28.28,0,0,0,.47.26c3.12-3.9,5.82-8,9.29-11.64.42-.44.85-.87,1.28-1.3C41,187.26,46.35,187.31,50.22,187Z"/><path id="_Path_56" data-name="&lt;Path&gt;" class="cls-36" d="M88.8,191.31c-5.27,2.45-10.54,4.81-16,6.85-2.67-5.48-9.22-6.61-14.86-6.89-7.05-.35-15.28,2.21-21,5.56-.46.28.12.94.56.71,9.86-5.26,26.65-7.68,33.54,1.26-1.3.47-2.61.92-3.94,1.35a131.52,131.52,0,0,1-26.05,5.33.34.34,0,0,0,0,.67c8.84.77,18.09-1.9,26.46-4.51,7.48-2.32,15.25-4.95,22.07-8.86C90.65,192.22,89.77,190.86,88.8,191.31Z"/><path id="_Path_57" data-name="&lt;Path&gt;" class="cls-37" d="M96.89,192.43a23.91,23.91,0,0,0,3-4.89c-5.1-36.35-24.48-38.53-49.29-28.91,29.21-2.29,29,23.2,24.21,29.93-5.77,8.08-41.06,15.92-51.47,12.53C19,199.66,23,188.58,23,188.45c-3.75,7.76-5.1,14.4-4.17,16.93C21.57,212.74,76.41,218.72,96.89,192.43Z"/><path id="_Path_58" data-name="&lt;Path&gt;" class="cls-38" d="M96.89,192.43c10-12.81,4.17-30.16-10.16-36.9C75.82,154,62.05,154.11,49.11,160c0,0,37.26-3.43,29.18,45.89C85.61,202.84,92.17,198.5,96.89,192.43Z"/></g><path id="_Path_59" data-name="&lt;Path&gt;" class="cls-39" d="M45.83,157.72s40.22-20.8,54.94,8.41S80.2,209.84,80.2,209.84,92.64,192,78.29,172C66,154.76,45.83,157.72,45.83,157.72Z"/><path id="_Path_60" data-name="&lt;Path&gt;" class="cls-40" d="M52.08,157.13s9.78-4,18.56-4.7,17.44,1.68,18.8,5.8-11.59,10.24-11.59,10.24A41.05,41.05,0,0,0,52.08,157.13Z"/><path id="_Path_61" data-name="&lt;Path&gt;" class="cls-41" d="M100.77,166.13C96.16,157,89,152.73,81.43,151.22c10.43,3.17,13.56,8.72,13.95,13.08.66,7.28-12.75,13-12.75,13,.51,1.74,1.61,4.68,1.51,6,2.64,17.48-3.94,26.57-3.94,26.57S115.48,195.33,100.77,166.13Z"/><path id="_Path_62" data-name="&lt;Path&gt;" class="cls-42" d="M41.28,165.14s1.36-5.4,4-7.13c2.83-1.87,15-3.54,27,3.92,7.69,4.78,14,13.76,14.44,29.38.33,12.95-4,17.4-6.52,18.53-1.33.6-7.38-.08-9.63-1.36,0,0,7.35-2.39,10.34-4.29,1.61-1,4.5-19.29-2.8-30.93C71.67,163,56.82,157,46.46,161.29Z"/><path id="_Compound_Path_" data-name="&lt;Compound Path&gt;" class="cls-43" d="M66.86,171c-5.19,0-17.82,7.43-19.59,10.15a1,1,0,0,0,.36,1.3c3.23,1.65,19.13-5.33,20.34-10.06A1.12,1.12,0,0,0,66.86,171Z"/><path id="_Path_63" data-name="&lt;Path&gt;" class="cls-44" d="M45.29,170.75c-3.58,2.4-8.67,6.92-14.73,14.36-3.27,4-1.43,4.94-.41,3.68a97.58,97.58,0,0,1,21.46-19.13C52.89,168.81,52.2,166.1,45.29,170.75Z"/></g></g><path id="_Path_64" data-name="&lt;Path&gt;" class="cls-45" d="M93.35,188.51a1.58,1.58,0,0,0-1.37,1.7,1.65,1.65,0,0,0,2.17,1.27,1.55,1.55,0,0,0-.8-3Z"/><path id="_Path_65" data-name="&lt;Path&gt;" class="cls-45" d="M98.28,175.89a1.28,1.28,0,0,0-1,1.23,1.32,1.32,0,0,0,1.56,1.25,1.27,1.27,0,0,0-.53-2.48Z"/><path id="_Path_66" data-name="&lt;Path&gt;" class="cls-45" d="M82.31,159.45a2,2,0,1,0,2.17,1.92A2,2,0,0,0,82.31,159.45Z"/></g><g id="_Group_12" data-name="&lt;Group&gt;"><path id="_Path_67" data-name="&lt;Path&gt;" class="cls-46" d="M36.92,216S38.69,242,64,241.69s23.77-22.16,23.77-22.16Z"/><path id="_Path_68" data-name="&lt;Path&gt;" class="cls-47" d="M37.5,218.32c-4.09-8.86,8.69-27,28.19-26.74s26.19,28.49,19.6,35.59C76.56,236.56,47.41,239.77,37.5,218.32Z"/><path id="_Path_69" data-name="&lt;Path&gt;" class="cls-48" d="M55.51,204.24S59.58,218.83,74,219.4C74,219.4,69.27,206.23,55.51,204.24Z"/><path id="_Path_70" data-name="&lt;Path&gt;" class="cls-49" d="M65.69,191.58A30.5,30.5,0,0,0,45.35,199c6-2.89,13.42-6.56,22.55-4.53,9.76,2.16,18.36,17.34,19.7,26.75C88.91,210.44,81.53,191.77,65.69,191.58Z"/></g><g id="_Group_13" data-name="&lt;Group&gt;"><g id="_Group_14" data-name="&lt;Group&gt;"><path id="_Path_71" data-name="&lt;Path&gt;" class="cls-50" d="M169.57,171.06c-6.55-1.05-28.32,35.77-24.25,41,0,0,21.78,25.18,37.79,18.75,8.33-2.29,12.61-9.28,22.42-10.75h0c-3.43-9.31.64-16.44-1.37-24.85C202.1,178.07,169.57,171.06,169.57,171.06Z"/><path id="_Path_72" data-name="&lt;Path&gt;" class="cls-51" d="M144.49,185.26s12.87,49.1,53.48,32.81Z"/><path id="_Path_73" data-name="&lt;Path&gt;" class="cls-52" d="M169.57,171.06c-6.55-1.05-28.32,35.77-24.25,41,0,0,21.78,25.18,37.79,18.75.38-.11.75-.23,1.12-.36a48.45,48.45,0,0,0-.2-26.52,27.87,27.87,0,0,0,20.56-6.13v0a19.74,19.74,0,0,0-.44-2.57C202.1,178.07,169.57,171.06,169.57,171.06Z"/><path id="_Path_74" data-name="&lt;Path&gt;" class="cls-53" d="M191.83,187.76c6.93,1.54,16-4.73,16-4.73-3.23-1.28-11.76-3.64-18.54-7.6-6.58-3.85-24.51-18.14-42,5.86l-6.93-5.89-3.67,5.8,8.66,2.94c-16.26,25.29,4.93,38,15,44.87,9.5,6.48,13.44,12.73,13.44,12.73.11-9.16-3.49-13.55-3.49-13.55,6.43,1.21,9.68-2.06,9.68-2.06.44-11.84-13.72-17.46-13.72-17.46a21.74,21.74,0,0,1,15,2.23,19,19,0,0,0-5.35-14.62c11.66,6.13,21.43,1.16,21.43,1.16C196.61,192.44,191.83,187.76,191.83,187.76Z"/><path id="_Path_75" data-name="&lt;Path&gt;" class="cls-54" d="M175.31,168.5s0,0,0,.05c6.5,20.34,32.56,14.48,32.56,14.48-3.23-1.28-11.76-3.64-18.54-7.6C186.49,173.76,181.48,170.12,175.31,168.5Z"/><path id="_Path_76" data-name="&lt;Path&gt;" class="cls-54" d="M144.58,208.44l-.08,7.08c4.61,6.09,11.42,10.38,16,13.49,9.5,6.48,13.44,12.73,13.44,12.73.11-9.16-3.49-13.55-3.49-13.55,6.43,1.21,9.68-2.06,9.68-2.06C166.5,205.14,144.58,208.44,144.58,208.44Z"/></g><path id="_Path_77" data-name="&lt;Path&gt;" class="cls-54" d="M176.06,196.28c11.66,6.13,21.43,1.16,21.43,1.16-7.83-6.71-26.4-4.27-26.4-4.27,8,6.8,10.32,17.73,10.32,17.73A19,19,0,0,0,176.06,196.28Z"/><path id="_Path_78" data-name="&lt;Path&gt;" class="cls-55" d="M145.88,183.45a40,40,0,0,0-5.5,11.61c6.28,2.16,15.3,1.47,20.16-4.9,4.74-6.22,3.14-14.71-.44-20.31C155.46,172.08,150.64,176.28,145.88,183.45Z"/></g><g id="_Group_15" data-name="&lt;Group&gt;"><path id="_Path_79" data-name="&lt;Path&gt;" class="cls-56" d="M145.64,192.18c15,6.92,20.79,33.92,10.79,45.79-13.37,15.85-54,3.48-57.2-12.28C96.12,210.46,126.17,183.18,145.64,192.18Z"/><path id="_Path_80" data-name="&lt;Path&gt;" class="cls-57" d="M156,228c4.46-22.15-33.09-14.28-31-16.18,3.31-3,20.09-2.76,22.84-8.87,2.89-6.44-5.31-15.92-27.27-7.58,8.23-4.69,17.46-6.72,25.08-3.2,15,6.92,20.79,33.92,10.79,45.79-10.8,12.81-39.4,7.18-51.67-3.76v-.11C128.91,249.12,153.71,239.09,156,228Z"/><path id="_Path_81" data-name="&lt;Path&gt;" class="cls-58" d="M109.29,204a29.89,29.89,0,0,0-1.2,6.37c-1,14.09,11.67,26.5,25.32,26.9,14.43.43,25.51-10.9,26.82-24.78,2.29,9.3,1.33,19.36-3.8,25.45-13.37,15.85-54,3.48-57.2-12.28C97.94,219.39,102.33,211,109.29,204Z"/><path id="_Path_82" data-name="&lt;Path&gt;" class="cls-59" d="M144.22,198.92c-.05-2.72-5.46-5.26-10.06-5.14-4.87.14-10.09,3.32-9.77,6s6.45,4.84,11.35,4.29C139.47,203.66,144.26,201.5,144.22,198.92Z"/><path id="_Path_83" data-name="&lt;Path&gt;" class="cls-60" d="M150.9,220.92c0-3.23-6.35-6.51-11.9-6.21-4.87.26-10.53,3.35-10.44,6.47s6.36,6,11.54,5.84C145,226.86,150.88,224,150.9,220.92Z"/></g></g></g></g></g></svg>