<svg xmlns="http://www.w3.org/2000/svg" xmlns:xlink="http://www.w3.org/1999/xlink" viewBox="0 0 237.69 224.09"><defs><style>.cls-1{isolation:isolate;}.cls-2{fill:#f4ede6;}.cls-3{fill:#eee2da;}.cls-4{fill:url(#linear-gradient);}.cls-5{fill:url(#linear-gradient-2);}.cls-6{fill:#f07a1b;}.cls-7{fill:#c15a20;}.cls-8{fill:#92278f;}.cls-44,.cls-46,.cls-48,.cls-8{opacity:0.1;}.cls-9{fill:#f7f7f6;}.cls-10{fill:#c55400;}.cls-11{fill:url(#linear-gradient-3);}.cls-12{fill:#f6a743;}.cls-13{fill:url(#linear-gradient-4);}.cls-14{fill:url(#linear-gradient-5);}.cls-15{fill:#dc5f0e;}.cls-16{fill:url(#linear-gradient-6);}.cls-17{fill:url(#linear-gradient-7);}.cls-18{fill:#e66d13;}.cls-19{fill:url(#linear-gradient-8);}.cls-20{fill:url(#linear-gradient-9);}.cls-21{fill:#ee7f1b;}.cls-22{fill:url(#linear-gradient-10);}.cls-23{fill:#fab63c;}.cls-24{fill:url(#linear-gradient-11);}.cls-25{fill:#ec7519;}.cls-26{fill:url(#linear-gradient-12);}.cls-27{fill:#ee7e1b;}.cls-28{fill:#fbb73d;}.cls-29{fill:url(#linear-gradient-13);}.cls-30{fill:#feda56;}.cls-31,.cls-36{fill:#df8c20;}.cls-31{opacity:0.3;}.cls-106,.cls-116,.cls-31,.cls-36,.cls-44,.cls-60,.cls-70,.cls-88{mix-blend-mode:multiply;}.cls-32{fill:#e87b17;}.cls-33{fill:url(#linear-gradient-14);}.cls-34{fill:#ffd94f;}.cls-35{fill:#fee793;}.cls-116,.cls-36{opacity:0.5;}.cls-37{fill:#fcc140;}.cls-38{fill:#cc3a1e;}.cls-39{fill:#f5eace;}.cls-40{fill:#ad2e15;}.cls-41{fill:#fc692b;}.cls-42{fill:#e9dacc;}.cls-43{fill:url(#linear-gradient-15);}.cls-44{fill:#498491;}.cls-45{fill:#eff7f9;}.cls-46{fill:#2b3990;}.cls-47,.cls-50{fill:#fff;}.cls-48{fill:#1c75bc;}.cls-49{fill:url(#linear-gradient-16);}.cls-50,.cls-70,.cls-72{opacity:0.2;}.cls-51{fill:#efefef;}.cls-52{fill:#f7fbfd;}.cls-53{fill:#cc6b28;}.cls-54{fill:#ffe9bd;}.cls-55{fill:#ff925f;}.cls-56{fill:#feb991;}.cls-57{fill:#446c22;}.cls-58{fill:url(#linear-gradient-17);}.cls-59{fill:url(#linear-gradient-18);}.cls-60{fill:#a1bb3a;}.cls-103,.cls-60{opacity:0.4;}.cls-61{fill:url(#linear-gradient-19);}.cls-62{fill:url(#linear-gradient-20);}.cls-63{fill:#ae5681;}.cls-64{fill:#e5cde0;}.cls-65{fill:url(#linear-gradient-21);}.cls-66{fill:#afce7c;}.cls-67{fill:#deedb9;}.cls-68{fill:url(#linear-gradient-22);}.cls-69{fill:url(#linear-gradient-23);}.cls-71{fill:url(#linear-gradient-24);}.cls-72{fill:#ffdca6;mix-blend-mode:overlay;}.cls-73{fill:#f0c46b;}.cls-74{fill:#fbe79b;}.cls-75{fill:#eebc51;}.cls-76{fill:#ffe8a7;}.cls-77{fill:#f6cc80;}.cls-78,.cls-97{fill:#ffcf6d;}.cls-79{fill:#f5b3a5;}.cls-80{fill:#d46348;}.cls-81{fill:#4f8d33;}.cls-82{fill:url(#linear-gradient-25);}.cls-83{fill:url(#linear-gradient-26);}.cls-84{fill:url(#linear-gradient-27);}.cls-85{fill:#ced757;}.cls-86{fill:#cc503f;}.cls-87{fill:#d86f62;}.cls-88{fill:#c34231;}.cls-106,.cls-88,.cls-97{opacity:0.7;}.cls-89{fill:#4f6e33;}.cls-90{fill:#c0d788;}.cls-91{fill:url(#linear-gradient-28);}.cls-92{fill:url(#linear-gradient-29);}.cls-93{fill:url(#linear-gradient-30);}.cls-94{fill:#ffd682;}.cls-95{fill:#f9bc5b;}.cls-96{fill:url(#linear-gradient-31);}.cls-98{fill:#f0a846;}.cls-99{fill:#eea644;}.cls-100{fill:#f9c265;}.cls-101{fill:#ffe7b8;}.cls-102{fill:url(#linear-gradient-32);}.cls-103{fill:#fffda1;}.cls-104{fill:#ea7034;}.cls-105{fill:#f8b14c;}.cls-106{fill:#dab156;}.cls-107{fill:#ffe8c7;}.cls-108{fill:url(#linear-gradient-33);}.cls-109{fill:#fbce86;}.cls-110{fill:url(#linear-gradient-34);}.cls-111{fill:url(#linear-gradient-35);}.cls-112{fill:url(#linear-gradient-36);}.cls-113{fill:url(#linear-gradient-37);}.cls-114{fill:url(#linear-gradient-38);}.cls-115{fill:#404641;}.cls-116{fill:#dc3732;}.cls-117{fill:#fbb454;}.cls-118{fill:#f69734;}.cls-119{fill:#fcdb61;}.cls-120{fill:#f69128;}.cls-121{fill:#eee0c5;}.cls-122{fill:#e2ccac;}</style><linearGradient id="linear-gradient" x1="154.46" y1="147.61" x2="178.23" y2="68.99" gradientTransform="translate(-23.84)" gradientUnits="userSpaceOnUse"><stop offset="0" stop-color="#fbd64a"/><stop offset="0.49" stop-color="#f38220"/><stop offset="0.99" stop-color="#c46720"/></linearGradient><linearGradient id="linear-gradient-2" x1="217.61" y1="74.48" x2="138.26" y2="74.48" gradientTransform="translate(-23.84)" gradientUnits="userSpaceOnUse"><stop offset="0" stop-color="#fbd64a"/><stop offset="1" stop-color="#f38220"/></linearGradient><linearGradient id="linear-gradient-3" x1="51.17" y1="51.41" x2="14.38" y2="76.18" gradientUnits="userSpaceOnUse"><stop offset="0" stop-color="#ef951c"/><stop offset="1" stop-color="#e46412"/></linearGradient><linearGradient id="linear-gradient-4" x1="54.49" y1="36.51" x2="47.85" y2="87.37" xlink:href="#linear-gradient-3"/><linearGradient id="linear-gradient-5" x1="57.48" y1="36.2" x2="49.53" y2="63.36" gradientUnits="userSpaceOnUse"><stop offset="0" stop-color="#ffc132"/><stop offset="1" stop-color="#f48120"/></linearGradient><linearGradient id="linear-gradient-6" x1="21.91" y1="40.94" x2="31.94" y2="82.37" xlink:href="#linear-gradient-5"/><linearGradient id="linear-gradient-7" x1="101.01" y1="37.16" x2="83.55" y2="76.89" xlink:href="#linear-gradient-5"/><linearGradient id="linear-gradient-8" x1="78.15" y1="35.33" x2="82.58" y2="81.33" xlink:href="#linear-gradient-5"/><linearGradient id="linear-gradient-9" x1="64.34" y1="22.98" x2="68.25" y2="90.13" xlink:href="#linear-gradient-5"/><linearGradient id="linear-gradient-10" x1="122.95" y1="37.63" x2="115.1" y2="109.2" gradientTransform="translate(-39.79 -24.82) rotate(2.64)" xlink:href="#linear-gradient-5"/><linearGradient id="linear-gradient-11" x1="-84.62" y1="-0.44" x2="-90.71" y2="45.12" gradientTransform="translate(140.67 27.13) rotate(-11.1)" gradientUnits="userSpaceOnUse"><stop offset="0" stop-color="#ffc132"/><stop offset="0.75" stop-color="#f48120"/></linearGradient><linearGradient id="linear-gradient-12" x1="38.41" y1="41.03" x2="43.62" y2="90.16" xlink:href="#linear-gradient-5"/><linearGradient id="linear-gradient-13" x1="54.29" y1="55.24" x2="54.5" y2="87.44" gradientUnits="userSpaceOnUse"><stop offset="0" stop-color="#ffcb3e"/><stop offset="1" stop-color="#f6982f"/></linearGradient><linearGradient id="linear-gradient-14" x1="128.44" y1="93.69" x2="153.77" y2="125.46" gradientTransform="translate(-103.4 -51.24) rotate(7.15)" xlink:href="#linear-gradient-5"/><linearGradient id="linear-gradient-15" x1="95.66" y1="96.81" x2="154.67" y2="96.81" gradientTransform="translate(-23.84)" gradientUnits="userSpaceOnUse"><stop offset="0" stop-color="#e6faff"/><stop offset="1" stop-color="#c8e2eb"/></linearGradient><linearGradient id="linear-gradient-16" x1="111.61" y1="7.53" x2="139.27" y2="7.53" gradientTransform="translate(-23.84)" gradientUnits="userSpaceOnUse"><stop offset="0" stop-color="#cbcfcd"/><stop offset="1" stop-color="#aaadac"/></linearGradient><linearGradient id="linear-gradient-17" x1="22.1" y1="170.69" x2="51.11" y2="166.46" gradientTransform="translate(-23.84)" gradientUnits="userSpaceOnUse"><stop offset="0" stop-color="#a3cd39"/><stop offset="0.17" stop-color="#9dc839"/><stop offset="0.41" stop-color="#8bba3a"/><stop offset="0.69" stop-color="#6da23b"/><stop offset="1" stop-color="#44823d"/><stop offset="1" stop-color="#44823d"/></linearGradient><linearGradient id="linear-gradient-18" x1="37.08" y1="162.28" x2="80.11" y2="162.28" gradientTransform="translate(-23.84)" gradientUnits="userSpaceOnUse"><stop offset="0" stop-color="#fff068"/><stop offset="0.49" stop-color="#d3d753"/><stop offset="1" stop-color="#a1bb3a"/></linearGradient><linearGradient id="linear-gradient-19" x1="113.28" y1="184.74" x2="105.77" y2="156.15" xlink:href="#linear-gradient-18"/><linearGradient id="linear-gradient-20" x1="115.4" y1="190.5" x2="103.86" y2="172.77" xlink:href="#linear-gradient-17"/><linearGradient id="linear-gradient-21" x1="27.91" y1="154.29" x2="69.83" y2="154.29" gradientTransform="translate(-23.84)" gradientUnits="userSpaceOnUse"><stop offset="0.02" stop-color="#80aa48"/><stop offset="1" stop-color="#697c34"/></linearGradient><linearGradient id="linear-gradient-22" x1="62.91" y1="165.93" x2="104.84" y2="165.93" xlink:href="#linear-gradient-21"/><linearGradient id="linear-gradient-23" x1="89.22" y1="147.7" x2="131.16" y2="147.7" xlink:href="#linear-gradient-21"/><linearGradient id="linear-gradient-24" x1="73.21" y1="105.17" x2="83.77" y2="168.53" gradientTransform="translate(-23.84)" gradientUnits="userSpaceOnUse"><stop offset="0" stop-color="#f0b461"/><stop offset="1" stop-color="#cc6b28"/></linearGradient><linearGradient id="linear-gradient-25" x1="1524.49" y1="903.71" x2="1509.43" y2="863.03" gradientTransform="matrix(-0.17, 0.99, 0.99, 0.17, -399.82, -1506.2)" gradientUnits="userSpaceOnUse"><stop offset="0" stop-color="#8dbb3f"/><stop offset="1" stop-color="#699334"/></linearGradient><linearGradient id="linear-gradient-26" x1="-3843.7" y1="4165.85" x2="-3790.98" y2="4141.77" gradientTransform="matrix(0.79, 0.61, 0.61, -0.79, 678.4, 5710.96)" xlink:href="#linear-gradient-25"/><linearGradient id="linear-gradient-27" x1="-542.77" y1="-798.79" x2="-557.99" y2="-830.77" gradientTransform="matrix(-1, 0.04, 0.03, 0.73, -331.48, 722.23)" gradientUnits="userSpaceOnUse"><stop offset="0" stop-color="#fff48b"/><stop offset="0.95" stop-color="#dbe660"/><stop offset="1" stop-color="#d9e55d"/></linearGradient><linearGradient id="linear-gradient-28" x1="-612.91" y1="100.67" x2="-587.14" y2="100.67" gradientTransform="matrix(-1, 0, 0, 1, -419.39, 0)" gradientUnits="userSpaceOnUse"><stop offset="0" stop-color="#ffffd9"/><stop offset="1" stop-color="#ecf1b3"/></linearGradient><linearGradient id="linear-gradient-29" x1="-548.91" y1="-748.53" x2="-563.85" y2="-779.92" xlink:href="#linear-gradient-27"/><linearGradient id="linear-gradient-30" x1="-632.2" y1="129.3" x2="-606.44" y2="129.3" xlink:href="#linear-gradient-28"/><linearGradient id="linear-gradient-31" x1="-621.09" y1="109.71" x2="-573.84" y2="148.82" gradientTransform="matrix(-1, 0, 0, 1, -419.39, 0)" gradientUnits="userSpaceOnUse"><stop offset="0.02" stop-color="#f9bc5b"/><stop offset="1" stop-color="#ce7421"/></linearGradient><linearGradient id="linear-gradient-32" x1="157.07" y1="246" x2="201.57" y2="175.78" gradientTransform="translate(-44.58 -10.76) rotate(-3.21)" gradientUnits="userSpaceOnUse"><stop offset="0" stop-color="#ffce6e"/><stop offset="1" stop-color="#fbb454"/></linearGradient><linearGradient id="linear-gradient-33" x1="177.65" y1="198.24" x2="229.07" y2="198.24" gradientTransform="translate(-44.58 -10.76) rotate(-3.21)" gradientUnits="userSpaceOnUse"><stop offset="0" stop-color="#e08d33"/><stop offset="1" stop-color="#d76b27"/></linearGradient><linearGradient id="linear-gradient-34" x1="156.42" y1="206.13" x2="176.45" y2="206.74" gradientTransform="translate(-44.58 -10.76) rotate(-3.21)" gradientUnits="userSpaceOnUse"><stop offset="0" stop-color="#7aa043"/><stop offset="1" stop-color="#6c8e3e"/></linearGradient><linearGradient id="linear-gradient-35" x1="3206.42" y1="-1978.81" x2="3190.62" y2="-1967.28" gradientTransform="matrix(-0.3, 0.95, 0.95, 0.3, 3012.33, -2256.11)" xlink:href="#linear-gradient-34"/><linearGradient id="linear-gradient-36" x1="253.09" y1="225.31" x2="259.24" y2="225.31" gradientTransform="translate(-132.57 -43.45) rotate(4.03)" xlink:href="#linear-gradient-34"/><linearGradient id="linear-gradient-37" x1="191.13" y1="188.67" x2="202.65" y2="189.45" xlink:href="#linear-gradient-34"/><linearGradient id="linear-gradient-38" x1="301.8" y1="214.49" x2="307.21" y2="214.49" gradientTransform="translate(-132.57 -43.45) rotate(4.03)" xlink:href="#linear-gradient-34"/></defs><title>composition_2</title><g class="cls-1"><g id="Layer_2" data-name="Layer 2"><g id="Layer_3" data-name="Layer 3"><g id="_Group_" data-name="&lt;Group&gt;"><g id="_Group_2" data-name="&lt;Group&gt;"><g id="_Group_3" data-name="&lt;Group&gt;"><g id="_Group_4" data-name="&lt;Group&gt;"><path id="_Path_" data-name="&lt;Path&gt;" class="cls-2" d="M118.33,47.29s1.29,57.26,12.11,85c.93,2.41,36,3.25,38.61.08s9.22-48.19,10.67-83.1Z"/><polygon id="_Path_2" data-name="&lt;Path&gt;" class="cls-3" points="122.91 73 121.5 48.75 175.82 49.93 175.12 73.24 122.91 73"/><path id="_Path_3" data-name="&lt;Path&gt;" class="cls-4" d="M122.91,73s4.47,50.39,9.41,54.86,30.8,4,33.86.24,6.35-23.55,8.94-54.86Z"/><path id="_Path_4" data-name="&lt;Path&gt;" class="cls-5" d="M122.91,73s24.93,24,52.21.24C175.12,73.24,151.84,55.34,122.91,73Z"/><path id="_Path_5" data-name="&lt;Path&gt;" class="cls-6" d="M131.9,127.36a3.15,3.15,0,0,0,.42.5c4.94,4.47,30.8,4,33.86.24a5.91,5.91,0,0,0,.43-.64C150.54,115.87,135.38,124.36,131.9,127.36Z"/><path id="_Path_6" data-name="&lt;Path&gt;" class="cls-7" d="M126.19,75.78s7.58,8.64,23.61,8.64,22.93-9.16,22.93-9.16-7.57,7.07-23,7.07S126.19,75.78,126.19,75.78Z"/><path id="_Path_7" data-name="&lt;Path&gt;" class="cls-8" d="M158.34,134.32c5.5-.26,9.86-.87,10.71-1.91,2.7-3.3,9.22-48.19,10.67-83.1l-5.43-.18L163,58.27S162.26,96.5,158.34,134.32Z"/><path id="_Path_8" data-name="&lt;Path&gt;" class="cls-9" d="M118.33,47.29s24.5,33.18,61.39,2C179.72,49.31,153.2,23.63,118.33,47.29Z"/><path id="_Path_9" data-name="&lt;Path&gt;" class="cls-3" d="M122.44,47.34S143.61,74.65,175.35,49C175.35,49,153.48,29.92,122.44,47.34Z"/><path id="_Path_10" data-name="&lt;Path&gt;" class="cls-7" d="M145.16,87.37a1.19,1.19,0,0,0,0,2.37A1.19,1.19,0,0,0,145.16,87.37Z"/><path id="_Path_11" data-name="&lt;Path&gt;" class="cls-7" d="M148.59,91.82a1.2,1.2,0,0,0,0,2.39A1.2,1.2,0,0,0,148.59,91.82Z"/><path id="_Path_12" data-name="&lt;Path&gt;" class="cls-7" d="M146.65,96a1.2,1.2,0,0,0,0,2.4A1.2,1.2,0,0,0,146.65,96Z"/><path id="_Path_13" data-name="&lt;Path&gt;" class="cls-7" d="M164.12,100.55a1.21,1.21,0,0,0,0,2.42A1.21,1.21,0,0,0,164.12,100.55Z"/><path id="_Path_14" data-name="&lt;Path&gt;" class="cls-7" d="M166.09,104.87a1.75,1.75,0,1,0,1.74,1.74A1.78,1.78,0,0,0,166.09,104.87Z"/><path id="_Path_15" data-name="&lt;Path&gt;" class="cls-7" d="M156.63,111.65a1.19,1.19,0,0,0,0,2.38A1.19,1.19,0,0,0,156.63,111.65Z"/></g></g><g id="_Group_5" data-name="&lt;Group&gt;"><path id="_Path_16" data-name="&lt;Path&gt;" class="cls-10" d="M24.06,76.89s-7.21-24.15-7.42-25.82,6-2.71,6-2.71,8.24,21.24,8.24,20.41S44,51.49,44,51.49s1.22-17.41,3.5-17.7c1.65-.21,4.33,13.53,5.56,28.94l12.16.21,4.12-13.53s8.12-.27,7.42,1.87c-.21.62-4.74,39.35-4.74,39.35l-42.65.42Z"/><path id="_Path_17" data-name="&lt;Path&gt;" class="cls-11" d="M31.11,79.23S30,31.6,30.8,30.82a4.87,4.87,0,0,1,3.76-.72c.62.31,7.37,17.74,8.14,49S31.11,79.23,31.11,79.23Z"/><path id="_Path_18" data-name="&lt;Path&gt;" class="cls-12" d="M30.8,30.82c-.51.52-.21,21.59.06,35.76.08,0,.21,0,.25-.15,4.72-12,3.45-36.33,3.45-36.33A4.87,4.87,0,0,0,30.8,30.82Z"/><path id="_Path_19" data-name="&lt;Path&gt;" class="cls-13" d="M40.11,87.5s12.79-46.22,14.33-47c2.14-1.08,6.48.49,7,1.84.56,1.56-14.6,63.48-14.6,63.48S40.35,90.2,40.11,87.5Z"/><path id="_Path_20" data-name="&lt;Path&gt;" class="cls-14" d="M54.3,40.66c-1.21,1.74-6,18-9.68,30.86l3.33,6C48,77.05,57.33,44,57.33,44S54.61,42.4,54.3,40.66Z"/><path id="_Path_21" data-name="&lt;Path&gt;" class="cls-15" d="M50.93,88.76c1.3-5.4,2.76-11.52,4.18-17.51l-.34-9.73L48.54,58c-3.29,11.08-6.92,24.06-8.06,28.16Z"/><path id="_Path_22" data-name="&lt;Path&gt;" class="cls-16" d="M27.56,84.39S19,46.43,18.7,42.53c-.2-2.86,6.62-3.8,7.65-1.45.58,1.31,10,38.93,10.33,41S27.56,84.39,27.56,84.39Z"/><path id="_Path_23" data-name="&lt;Path&gt;" class="cls-17" d="M77.91,80.23S90.08,45.08,91,44s5.77,1.09,5.77,1.88-9,37.31-9,37.31Z"/><path id="_Path_24" data-name="&lt;Path&gt;" class="cls-18" d="M80,80.86l7.81,2.32s8.29-33.8,8.92-37.07c-2,1.71-3.55,1.94-4.16,1.78L87.71,62.55l-.88-7.64c-2.11,5.86-4.59,12.91-6.4,18.08Z"/><path id="_Path_25" data-name="&lt;Path&gt;" class="cls-19" d="M75.87,82.1S77,39.35,77.47,37.78s7.09-2.21,7.55-1.27,1.71,39.6,1.71,46.78S75.87,82.1,75.87,82.1Z"/><path id="_Path_26" data-name="&lt;Path&gt;" class="cls-18" d="M83.64,78.66C82.15,70.44,79.27,54,79.27,54l-2.06-1.34c0,11.18-1,29-1,29s4-.47,6.49,2c1.49-1.56,2.51,1.84,3.62.3C86.22,81.76,83.72,81.5,83.64,78.66Z"/><path id="_Path_27" data-name="&lt;Path&gt;" class="cls-20" d="M59.23,78.14s5.36-42.69,6.13-44.72S72,28.07,73,29.26c.78.94-4.17,62-4.17,62Z"/><path id="_Path_28" data-name="&lt;Path&gt;" class="cls-21" d="M63.4,82a7.18,7.18,0,0,0,.23,2.11l2,2.8a7.85,7.85,0,0,0,3.4,1c1-12.67,4.58-57.93,3.91-58.74,0,0-4.32,5-4.79,7.18S63.71,72.52,63.4,82Z"/><g id="_Group_6" data-name="&lt;Group&gt;"><path id="_Path_29" data-name="&lt;Path&gt;" class="cls-22" d="M75.35,87.61C77,79.9,82.6,46.22,79.73,45.42c-4.42-1.22-11.27,32.83-14,39.68C68.79,86.15,72.14,86.73,75.35,87.61Z"/></g><path id="_Path_30" data-name="&lt;Path&gt;" class="cls-23" d="M69.37,72.29c8.07-3,9.42-22.88,9.61-26.76C76.06,47.08,72.32,61.11,69.37,72.29Z"/><path id="_Path_31" data-name="&lt;Path&gt;" class="cls-24" d="M58.21,90.6s-6.91-31.37-6.3-32.84a6.55,6.55,0,0,1,3.31-3.08,5.67,5.67,0,0,1,4.6.74c1.07.91,5.59,23.32,6.74,28.07S58.21,90.6,58.21,90.6Z"/><path id="_Path_32" data-name="&lt;Path&gt;" class="cls-25" d="M56.53,58.7c0,.85,6.47,29.31,6.61,29.94,2.1-1.18,4-2.89,3.42-5.15-1.15-4.75-5.67-27.16-6.74-28.07C59.82,55.42,56.53,57.84,56.53,58.7Z"/><path id="_Path_33" data-name="&lt;Path&gt;" class="cls-26" d="M35.29,80.48S37,47.84,37.6,45.81s7-1.4,7.57-.78,5.67,27.28,2.48,44C44.29,106.66,35.29,80.48,35.29,80.48Z"/><path id="_Path_34" data-name="&lt;Path&gt;" class="cls-27" d="M44.09,75.52c-1.26.31-2.65-2.87-3.42-5a55.87,55.87,0,0,1-1.06,11.79,17.94,17.94,0,0,1-.71,2.52c1.5.26,4.71,4.27,7.76,7.8a20.19,20.19,0,0,0,1-3.61c2.06-10.81.69-25.73-.71-35.13h0C47.1,62.34,46.36,75,44.09,75.52Z"/><path id="_Path_35" data-name="&lt;Path&gt;" class="cls-28" d="M37.85,86.85a11,11,0,0,0,1.76-4.49c3.25-15.15-2-36.55-2-36.55-.62,2-2.31,34.67-2.31,34.67S36.33,83.53,37.85,86.85Z"/><path id="_Path_36" data-name="&lt;Path&gt;" class="cls-29" d="M48.72,101.68s2.09-33.85,5.72-36.3,6,31.37,6,31.37S52.6,102.66,48.72,101.68Z"/><path id="_Path_37" data-name="&lt;Path&gt;" class="cls-30" d="M40.65,72.42A116.18,116.18,0,0,0,38.2,48.51h0S39.79,65.88,40.65,72.42Z"/><path id="_Path_38" data-name="&lt;Path&gt;" class="cls-31" d="M27.42,81.28a39.2,39.2,0,0,0,9.23,1,.7.7,0,0,0,0-.29c-.31-2-9.35-38.05-10.28-40.82h0c-.46,1.72-1.32,4.06-2.67,4.43-1.72.48-4.09-2.18-5-3.33v.21c.24,3.24,6.2,30,8.21,39Z"/><path id="_Path_39" data-name="&lt;Path&gt;" class="cls-32" d="M26.4,41.22c-.46,1.72-1.32,4.06-2.67,4.43l-.26.05C24,48.37,27.54,63.64,26.63,64c-.62.23-2.72-1.8-4.37-3.54.8,3.7,1.64,7.52,2.41,11L25,72.75c.41,1.52.71,3.08,1,4.65.93,4.17,1.57,7,1.57,7S37,84.07,36.68,82c-.27-1.78-7.56-30.9-9.74-38.95A9.42,9.42,0,0,1,26.4,41.22Z"/><path id="_Path_40" data-name="&lt;Path&gt;" class="cls-33" d="M24.2,87s-11.38-29.38-10.4-31,13,11.08,26.92,41.5Z"/><path id="_Path_41" data-name="&lt;Path&gt;" class="cls-30" d="M23.47,45.7l.26-.05c1.09-.3,1.87-1.9,2.37-3.41-.55.84-1.7,2.48-2.52,2.78s-4-2-4.74-2.54C19.8,43.65,21.86,45.86,23.47,45.7Z"/><path id="_Path_42" data-name="&lt;Path&gt;" class="cls-30" d="M52.44,58.07c.15-.53,3.24,0,3.16.55S52.28,58.62,52.44,58.07Z"/><path id="_Path_43" data-name="&lt;Path&gt;" class="cls-34" d="M85,36.56s0,0,0-.05c-.45-.91-6.67-.33-7.49,1.13a4.24,4.24,0,0,0,2.31,2.42C81.42,40.62,84.34,37.78,85,36.56Z"/><path id="_Path_44" data-name="&lt;Path&gt;" class="cls-35" d="M79.84,40.06a4,4,0,0,1-2.12-2c.14.4,1,2.44,2.59,2.55,1.79.12,4.5-3.2,4.6-3.83C84.05,38.06,81.34,40.6,79.84,40.06Z"/><path id="_Path_45" data-name="&lt;Path&gt;" class="cls-34" d="M92.45,47.84c.51.24,2.16.11,4.29-1.73,0-.13,0-.21,0-.24,0-.79-4.84-3-5.77-1.88C91,44,91.32,47.32,92.45,47.84Z"/><g id="_Group_7" data-name="&lt;Group&gt;"><path id="_Path_46" data-name="&lt;Path&gt;" class="cls-36" d="M96.77,45.94v0Z"/><path id="_Path_47" data-name="&lt;Path&gt;" class="cls-36" d="M96.74,46.11a.69.69,0,0,0,0-.13A.69.69,0,0,1,96.74,46.11Z"/></g><path id="_Path_48" data-name="&lt;Path&gt;" class="cls-30" d="M68.19,36.44c-.3,1.42-2.1,16.23-3.41,29A184,184,0,0,0,68.19,36.44Z"/><path id="_Path_49" data-name="&lt;Path&gt;" class="cls-37" d="M14.12,58.55c1.15,4.56,4.62,14.14,7,20.55C24.41,67.36,17.79,61.05,14.12,58.55Z"/><path id="_Path_50" data-name="&lt;Path&gt;" class="cls-38" d="M20.45,77.67,30,128.74l50.26.15,9-51-18.32,0S66,88.13,54.5,88.13c-12.85,0-15.91-10.48-15.91-10.48Z"/><path id="_Path_51" data-name="&lt;Path&gt;" class="cls-39" d="M37.74,78.57S41.14,89,54,89a18.11,18.11,0,0,0,16.9-11.12s-5,10.11-16.57,10.11c-12.85,0-15.54-10.38-15.54-10.38l-18.29.11A114.56,114.56,0,0,0,37.74,78.57Z"/><path id="_Path_52" data-name="&lt;Path&gt;" class="cls-40" d="M70,126c-3.6,1.58-15.65,2.44-21.23,2.77l31.45.09,9-51-8.93,0C77.24,98.45,72.86,124.77,70,126Z"/><path id="_Path_53" data-name="&lt;Path&gt;" class="cls-41" d="M23.08,80.17l8.19,46.38S31.09,102.06,23.08,80.17Z"/><polygon id="_Path_54" data-name="&lt;Path&gt;" class="cls-39" points="62.91 109.74 56.15 102.89 62.41 95.85 60.7 94.03 53.72 100.65 46.36 94.33 44.96 95.85 51.71 103.11 45.06 110.55 47.06 111.97 54.04 105.25 61.5 111.97 62.91 109.74"/></g><g id="_Group_8" data-name="&lt;Group&gt;"><g id="_Group_9" data-name="&lt;Group&gt;"><g id="_Group_10" data-name="&lt;Group&gt;"><path id="_Path_55" data-name="&lt;Path&gt;" class="cls-2" d="M111.39,10.89a34.57,34.57,0,0,1-11.12,1.91,33.76,33.76,0,0,1-8.63-1.13c-.91,9.79-1.6,21.42-5.5,33-9.38,27.94-20,34.52-16.87,91,0,.85.08.94.15,2.57s3.72,14.17,31.93,14.17c25.11,0,31.45-12.52,31.67-13.91a28.44,28.44,0,0,0,.32-3c3.13-56.28-6.93-63.16-16.54-91C113,33.51,112.14,21.36,111.39,10.89Z"/><path id="_Path_56" data-name="&lt;Path&gt;" class="cls-42" d="M128.16,83.68C124.32,68.46,114,48.43,111.33,39.05s-2.89-22.82-2.89-22.82l-14.18.51S94,32,89.69,44.63,77.42,75.31,74.3,84.44s-2.41,53-2.41,53,4.35-12.6,27.24-12.86c24.18-.27,31.44,12.36,31.44,12.36S132,98.89,128.16,83.68Z"/><path id="_Path_57" data-name="&lt;Path&gt;" class="cls-43" d="M128.16,83.68C125,71.22,117.51,55.54,113.44,45.11l-23.76-.47C85.35,57.32,77.42,75.31,74.3,84.44s-2.41,53-2.41,53S79.63,149,100.17,149s30.4-12,30.4-12S132,98.89,128.16,83.68Z"/><path id="_Path_58" data-name="&lt;Path&gt;" class="cls-44" d="M71.89,137.43S79.63,149,100.17,149s30.4-12,30.4-12-7.25-15.16-30.44-15C79,122.16,71.89,137.43,71.89,137.43Z"/><path id="_Path_59" data-name="&lt;Path&gt;" class="cls-45" d="M78.73,129.24c10.12-4.1,28-9.81,47.13,1.71-4.47-4.21-12.5-9.1-25.73-9C90.06,122.06,83.18,125.58,78.73,129.24Z"/><path id="_Path_60" data-name="&lt;Path&gt;" class="cls-46" d="M113.44,45.11l-1.87,0c4.45,13.5,11.87,25.56,15.27,41.51,3.25,15.22,1.68,47.29,1.68,47.29s-10.46,12.94-27.77,12.94A33.93,33.93,0,0,1,74.54,134.9c-1.15-18.25.56-37.19,1.39-46.95.41-4.81,5.59-16.79,8-22.91,4.69-12,7.33-20,7.33-20l-.37-.34-1.2,0C85.35,57.32,77.42,75.31,74.3,84.44s-2.41,53-2.41,53S79.63,149,100.17,149s30.4-12,30.4-12,1.44-38-2.41-53.25C125,71.22,117.51,55.54,113.44,45.11Z"/><path id="_Path_61" data-name="&lt;Path&gt;" class="cls-47" d="M89.55,44.72s5.25,12.71,20.61,2.8Z"/><path id="_Path_62" data-name="&lt;Path&gt;" class="cls-2" d="M89.55,44.72s12.66-8.76,24,.36C113.5,45.08,103,56.07,89.55,44.72Z"/><path id="_Path_63" data-name="&lt;Path&gt;" class="cls-48" d="M133,138.5a28.44,28.44,0,0,0,.32-3c3.13-56.28-6.93-63.16-16.54-91-3.44-10-4.47-20.88-5.19-30.63L103.71,16s.83,22.71,3.18,33.33c2.28,10.29,6.76,49.79,5.52,102.12C128.4,148.54,132.84,139.66,133,138.5Z"/><path id="_Path_64" data-name="&lt;Path&gt;" class="cls-2" d="M88.55,5.84s-.72,11.63.66,12.16c7.18,2.79,22.07,1.56,24.71.11,1.26-.69.38-12.28.38-12.28Z"/><path id="_Path_65" data-name="&lt;Path&gt;" class="cls-42" d="M88.55,5.84s-.19,3.1-.19,6.17l.3.73s.34,5.59,3.75-.47c0,0,1.66,6.94,5,.43,0,0,2.22,7.62,5.64-.09,0,0,3,7.64,5.54.09,0,0,2.38,4.84,4.17,1.07a11.33,11.33,0,0,1-.22,4.83,6.19,6.19,0,0,0,1.39-.49c1.26-.69.38-12.28.38-12.28Z"/><path id="_Path_66" data-name="&lt;Path&gt;" class="cls-49" d="M87.85,5.13C88.21,2.88,93.78,0,101.47,0s13.37,2.85,13.71,4.85c.45,2.66.78,8.59-.54,8.84s-2.35-3.14-2.35-3.14-1.05,3.59-2.25,3.71-2.6-3.14-2.6-3.14-.91,3.82-2.47,3.82c-1.18,0-3-3.28-3-3.28s-1.52,3.4-2.81,3.4-2.47-3.82-2.47-3.82-1.3,3.21-2.86,3.09-2-4.35-2-4.35-1.26,3.9-3.43,3.9C87,13.88,87.61,6.66,87.85,5.13Z"/><path id="_Path_67" data-name="&lt;Path&gt;" class="cls-50" d="M88,4.8c.71.48,13.8,7.47,27.14-.22-.77-2-6.26-4.58-13.62-4.58S88.77,2.61,88,4.8Z"/><path id="_Path_68" data-name="&lt;Path&gt;" class="cls-51" d="M111.78,6.19A56.92,56.92,0,0,1,89.09,5.4C92.3,6.9,101.67,10.33,111.78,6.19Z"/><path id="_Path_69" data-name="&lt;Path&gt;" class="cls-52" d="M105.29,101a2.19,2.19,0,0,0-2-1.48,2.83,2.83,0,0,0-2.6,1.39,2.5,2.5,0,0,0-.32.75,3.7,3.7,0,0,0,0,1.87,2.25,2.25,0,0,0,1,1.38C103.65,106.33,107.08,103.62,105.29,101Z"/><path id="_Path_70" data-name="&lt;Path&gt;" class="cls-52" d="M108.22,96.25c-1.77,0-1.77,2.91,0,2.91S110,96.25,108.22,96.25Z"/><path id="_Path_71" data-name="&lt;Path&gt;" class="cls-52" d="M108.22,111.38c-1.77,0-1.77,2.9,0,2.9S110,111.38,108.22,111.38Z"/><path id="_Path_72" data-name="&lt;Path&gt;" class="cls-52" d="M105,86.5c-1.78,0-1.78,2.9,0,2.9S106.75,86.5,105,86.5Z"/><path id="_Path_73" data-name="&lt;Path&gt;" class="cls-52" d="M105.5,60c-1.78,0-1.78,2.9,0,2.9S107.28,60,105.5,60Z"/><path id="_Path_74" data-name="&lt;Path&gt;" class="cls-46" d="M91.71,62.41c.57-2.52,2.42-12.85,3.47-17.37,0-.08,0-.67,0-.69,0-.47-.49-1-2.09-1.39a13.42,13.42,0,0,0-3.4,1.67c-.32.38-1.23,3.22-3.29,8.93l-.1.28-.61,1.71-.06.15c-.1-3-.21-5.94-.32-8.6-8.57,24.27-17.82,32.68-16.48,78.47l11.14,0v-.08c.36-2,.71-4.07,1.07-6.11q1.11-6.36,2.23-12.7,1.27-7.31,2.56-14.6L87.91,80.3C88.17,78.83,90.65,67.14,91.71,62.41Z"/></g></g><path id="_Path_75" data-name="&lt;Path&gt;" class="cls-47" d="M96.28,28.3c-.89.1-2.38,13.16-4.55,20-3.29,10.4-10.64,30-9.2,30.42S94.44,53.82,95.16,49.07,97.14,28.2,96.28,28.3Z"/></g><g id="_Group_11" data-name="&lt;Group&gt;"><g id="_Group_12" data-name="&lt;Group&gt;"><path id="_Path_76" data-name="&lt;Path&gt;" class="cls-53" d="M11.44,173.55c1.42-12.69,26.72-20.94,45.91-20.21,17.72.68,41.57,9.45,42.51,21.93,1,12.92-13.51,27.85-44.55,27.74C25.17,202.9,10,186.44,11.44,173.55Z"/><path id="_Path_77" data-name="&lt;Path&gt;" class="cls-54" d="M15.89,175.69S18.17,188,23.44,190c6.15,2.33,12.1-7.12,15.19-6.85,1.49.14,2.73,15.55,13.13,16.31,7,.51,10-6.44,13.61-6.44,2.72,0,4.42,2.9,8,2.73,2.39-.12,6-3.41,6.13-9C79.63,182.12,30.44,168.58,15.89,175.69Z"/><path id="_Path_78" data-name="&lt;Path&gt;" class="cls-55" d="M61.14,184.54s10,8.36,16.39,8.36c6.63,0,17.83-8.14,19.7-16.32,1.5-6.54-28.4-16.67-28.4-16.67Z"/><path id="_Path_79" data-name="&lt;Path&gt;" class="cls-56" d="M71.19,178.39l-2.07,2.2s2,6.31,3.73,11.24a18.17,18.17,0,0,0,2.08.7C73.65,186.83,71.19,178.39,71.19,178.39Z"/><path id="_Path_80" data-name="&lt;Path&gt;" class="cls-56" d="M82.33,191.84c-1-5.49-2.6-12.07-2.6-12.07l-2.62,1.51s1.68,6.13,3.29,11.2A17.43,17.43,0,0,0,82.33,191.84Z"/><path id="_Path_81" data-name="&lt;Path&gt;" class="cls-55" d="M47,176.78l-2.1-15.65c-10.51,4.66-24.25,12.26-24.37,15.65-.17,4.89,11.33,16.36,20.27,15,2.46-.38,6.19-2,10.34-4.18A60.92,60.92,0,0,1,47,176.78Z"/><path id="_Path_82" data-name="&lt;Path&gt;" class="cls-56" d="M25.15,184.72c.62.63,1.29,1.24,2,1.83,2.87-2.23,6.32-5,8.14-6.41,3-2.28,3.43-2.42,2.84-2.94s-1.09-.22-4.45,2C31.74,180.45,26.92,183.69,25.15,184.72Z"/><path id="_Path_83" data-name="&lt;Path&gt;" class="cls-56" d="M34.14,190.82c1.47-1.55,4.64-4.45,6.19-5.74,2.93-2.42,4-2.79,3.36-3.32-1-.85-4.6,2.28-12.22,7.79A22.39,22.39,0,0,0,34.14,190.82Z"/><g id="_Group_13" data-name="&lt;Group&gt;"><path id="_Path_84" data-name="&lt;Path&gt;" class="cls-57" d="M52.05,163.39c-6.3-.78-14.46,5.44-15.72,12.33-1.19,6.48,2,17.55,9.64,19.16s18.26-6.57,17.18-20.58C62.59,167.17,58.14,164.16,52.05,163.39Z"/></g><g id="_Group_14" data-name="&lt;Group&gt;"><path id="_Path_85" data-name="&lt;Path&gt;" class="cls-58" d="M16.73,155.48c-8.61,1.34-18.61,11-16.43,18.36s15.85,8,24.45,5c5.52-1.95,9.89-11.07,8.71-15.5C32.21,158.66,22.93,154.52,16.73,155.48Z"/></g><path id="_Path_86" data-name="&lt;Path&gt;" class="cls-59" d="M51.4,148.34C43.54,140,28.18,141.67,20,150.1c-6.59,6.8-9.07,18.55-4.19,25.23,7.47,10.22,31.72,7.89,38.49-5.37C57.61,163.45,56.82,154.09,51.4,148.34Z"/><path id="_Path_87" data-name="&lt;Path&gt;" class="cls-60" d="M40.69,174.59c3.34-1.49,6.7-3,10-4.47l.49-18.4-31.92,2.47S21,168.91,21.55,170l16,5.8Z"/><path id="_Path_88" data-name="&lt;Path&gt;" class="cls-61" d="M65,157.72a13.21,13.21,0,0,0-1.61,3.57,16.89,16.89,0,0,0,1.52,11.42c5,9.46,32.39,13.41,39.19,1.4,5.15-9.09-1.58-27.22-14.46-30.13C77,141.14,66.88,154.63,65,157.72Z"/><g id="_Group_15" data-name="&lt;Group&gt;"><path id="_Path_89" data-name="&lt;Path&gt;" class="cls-62" d="M65.64,163.55c-3.09,4.91,0,13.11,4.72,18.21,6.9,7.37,20,8.81,24.78,3.82,4.31-4.5,3.89-16.9-12.19-23C76.29,160,68.63,158.8,65.64,163.55Z"/></g><g id="_Group_16" data-name="&lt;Group&gt;"><path id="_Path_90" data-name="&lt;Path&gt;" class="cls-57" d="M71.9,154.59c.73-5,13.95-8.41,20.57-8.76,11.3-.62,20,8.24,19.75,13.39-.21,5.69-7.69,9.48-20.42,9.35C80.64,168.45,71.14,159.81,71.9,154.59Z"/></g><g id="_Group_17" data-name="&lt;Group&gt;"><path id="_Compound_Path_" data-name="&lt;Compound Path&gt;" class="cls-63" d="M80.94,150.77C73.61,151,65.08,156.12,65.1,162c0,6.17,8.24,11.17,16.08,11.17,8,0,16.38-2.93,17.17-9.67.17-1.51.38-5.27-.56-6.64C94.87,152.67,87,150.59,80.94,150.77Zm-.22,17.59c-5.16-.22-12.08-2.91-12.38-6.82s6.44-8.41,12.57-8.57c6.72-.18,14.85,3.79,14.49,7.87S86.66,168.61,80.72,168.36Z"/><path id="_Compound_Path_2" data-name="&lt;Compound Path&gt;" class="cls-64" d="M80.94,148.21c-7.33.21-15.86,5.36-15.84,11.27,0,6.16,8.24,11.16,16.08,11.16,8,0,16.94-3.64,16.94-10.86C98.12,153.59,89,148,80.94,148.21Zm.16,19.28c-6.22,0-12.74-3.81-12.76-8.5,0-4.5,6.75-8.42,12.57-8.58,6.38-.17,13.63,4.09,13.63,8.8C94.54,164.72,87.48,167.49,81.1,167.49Z"/></g><g id="_Group_18" data-name="&lt;Group&gt;"><path id="_Compound_Path_3" data-name="&lt;Compound Path&gt;" class="cls-63" d="M32.32,156.86c-6.75-.08-15.1-.45-14.57,10.69.27,5.66,7.57,9.94,14.78,9.94,7.4,0,14.92-2.54,15.59-9.16C49.11,158.44,41.25,157,32.32,156.86Zm-.15,16.47c-4.85-.19-11.52-3.66-11.47-6.41s6.78-6.09,11.47-6.12c5.43,0,12.67,4.37,12.52,7.16S37.14,173.53,32.17,173.33Z"/><path id="_Compound_Path_4" data-name="&lt;Compound Path&gt;" class="cls-64" d="M32.32,154.4c-6.75.2-14.59,4.93-14.57,10.36,0,5.67,7.57,10.27,14.78,10.27,7.4,0,15.59-3.35,15.59-10C48.12,159.34,39.71,154.19,32.32,154.4Zm0,17.85c-5.67-.18-11.42-3.28-11.56-7.78s5.53-8.63,11.54-8.79c6.67-.18,13.83,4.41,13.62,9S38.54,172.45,32.33,172.25Z"/></g><g id="_Group_19" data-name="&lt;Group&gt;"><path id="_Compound_Path_5" data-name="&lt;Compound Path&gt;" class="cls-63" d="M62.07,165.34c-6.75-.08-15.11-.45-14.58,10.69.28,5.66,7.58,9.94,14.79,9.94,7.4,0,14.92-2.54,15.58-9.16C78.86,166.92,71,165.46,62.07,165.34ZM62,181c-4.85-.19-11.25-2.86-11.21-5.62s6.3-5.17,11-5.17c8.09,0,12.56,3,12.41,5.84S67,181.17,62,181Z"/><path id="_Compound_Path_6" data-name="&lt;Compound Path&gt;" class="cls-64" d="M61.88,163c-6.74.32-14.5,5.12-14.38,10.48.12,5.59,7.76,9.52,15,9.85,7.76.36,15.52-3.58,15.4-10.14C77.76,167.62,69.26,162.7,61.88,163Zm.45,17.7c-5.26-.08-11.9-3.26-12.11-7.57s6.22-8.39,11.8-8.65c6.18-.28,13.23,4,13.11,8.41S68.1,180.83,62.33,180.74Z"/></g><g id="_Group_20" data-name="&lt;Group&gt;"><path id="_Path_91" data-name="&lt;Path&gt;" class="cls-65" d="M4.38,156.46c-.17-.92-.5-5.07-.16-5.92,2.37-6,12.37-9.3,19.85-9.64,9.91-.45,22.08,5.39,21.92,12.59-.19,8.19-7.35,14.09-21.54,14.21C15.71,167.76,5.68,163.43,4.38,156.46Z"/><path id="_Path_92" data-name="&lt;Path&gt;" class="cls-66" d="M3.84,151.92c.5-7.41,11.61-12.29,20.18-12.39,9.92-.12,21.47,6.12,21.48,13.32,0,6.86-6.93,12.56-22,12.63C14.78,165.53,3.35,159.26,3.84,151.92Z"/><path id="_Path_93" data-name="&lt;Path&gt;" class="cls-67" d="M6.17,152c.13-6,9.93-10.92,17.92-11,8.94-.09,19.21,5.8,19.08,11.84S34.29,163.53,24,163.53C14.77,163.53,6,158,6.17,152Z"/></g><g id="_Group_21" data-name="&lt;Group&gt;"><path id="_Path_94" data-name="&lt;Path&gt;" class="cls-68" d="M39.08,166.42c0-1.68,0-4.6.94-6.06,3.27-5,11.95-7.11,18.56-7.57,7.86-.56,18.13,1.51,21.71,6.89.94,1.4.68,5.08.68,6.57,0,6.3-7.15,12.9-21.39,12.9C50.84,179.15,39.25,173.58,39.08,166.42Z"/><path id="_Path_95" data-name="&lt;Path&gt;" class="cls-66" d="M39.46,164c.07-7.42,10.88-12.94,19.42-13.54,9.9-.7,21.8,4.85,22.22,12,.41,6.85-7.25,14.32-21.22,14.32C50.11,176.78,39.4,171.32,39.46,164Z"/><path id="_Path_96" data-name="&lt;Path&gt;" class="cls-67" d="M41.94,163.6c.05-6.37,9.58-11.1,17.11-11.62,8.72-.6,19.21,4.17,19.58,10.34.36,5.87-6.39,12.28-18.7,12.28C51.32,174.6,41.88,169.92,41.94,163.6Z"/></g><g id="_Group_22" data-name="&lt;Group&gt;"><path id="_Path_97" data-name="&lt;Path&gt;" class="cls-69" d="M65.4,146.87c.5-7.6,11.62-12.61,20.18-12.71,7.89-.09,16.64,3.61,20,9,.85,1.38,1.88,3.93,1.77,5.44-.53,7.23-8.31,12.64-22.28,12.64C76.28,161.23,64.9,154.4,65.4,146.87Z"/><path id="_Path_98" data-name="&lt;Path&gt;" class="cls-66" d="M65.56,145c.5-7.44,11.66-12.33,20.25-12.43,10-.11,21.55,6.15,21.55,13.38,0,6.88-8.08,13.1-22.1,13.1C76.48,159,65.06,152.31,65.56,145Z"/><path id="_Path_99" data-name="&lt;Path&gt;" class="cls-67" d="M67.58,144.64c.46-6.48,10.53-10.75,18.29-10.84,9-.09,19.47,5.37,19.47,11.68,0,6-7.3,11.42-20,11.42C77.45,156.9,67.13,151.07,67.58,144.64Z"/></g><g id="_Group_23" data-name="&lt;Group&gt;" class="cls-70"><path id="_Path_100" data-name="&lt;Path&gt;" class="cls-53" d="M64.91,135Z"/></g><g id="_Group_24" data-name="&lt;Group&gt;"><path id="_Compound_Path_7" data-name="&lt;Compound Path&gt;" class="cls-71" d="M57.33,105.69c-31,0-50.09,20.55-48.68,37.95,1.51,18.72,28.12,28.09,48.18,28,17.58-.09,42.28-7.42,45.31-25.13C105.22,128.56,86.14,105.69,57.33,105.69Z"/><path id="_Compound_Path_8" data-name="&lt;Compound Path&gt;" class="cls-72" d="M95.19,123.32c-7.74-9.95-21.17-17.63-37.86-17.63-24.86,0-42.06,13.22-47.17,27.43,4.25,13.93,21.49,24.35,42.12,24.35,23.82,0,43.13-13.9,43.13-31A22.88,22.88,0,0,0,95.19,123.32Z"/><path id="_Path_101" data-name="&lt;Path&gt;" class="cls-73" d="M14.66,134.08c-1.75-10.69,20.79-22.86,26.92-21.22,1.38.38,1,2.84.29,5.24-2.19,7-11.46,13.28-16.27,13.9,4.78,3.73,9.74,10.82,8.15,12.65C31.27,147.49,15.93,141.88,14.66,134.08Z"/><path id="_Path_102" data-name="&lt;Path&gt;" class="cls-74" d="M25,121a1,1,0,0,0,0,1.94A1,1,0,0,0,25,121Z"/><path id="_Path_103" data-name="&lt;Path&gt;" class="cls-74" d="M26.45,126.13h0a1.67,1.67,0,0,0-.59-.59,1.61,1.61,0,0,0-.83-.22h0a1.58,1.58,0,0,0-.82.22l-.33.26a1.47,1.47,0,0,0-.42.72,1.43,1.43,0,0,0-.07.46,1.64,1.64,0,0,0,.8,1.4,1.71,1.71,0,0,0,.82.22h0a1.67,1.67,0,0,0,1.42-.81A1.64,1.64,0,0,0,26.45,126.13Z"/><path id="_Path_104" data-name="&lt;Path&gt;" class="cls-74" d="M29.72,123.42a1,1,0,0,0,0,2.07A1,1,0,0,0,29.72,123.42Z"/><path id="_Path_105" data-name="&lt;Path&gt;" class="cls-75" d="M38,144.09a1.07,1.07,0,0,0,0,2.13A1.07,1.07,0,0,0,38,144.09Z"/><path id="_Path_106" data-name="&lt;Path&gt;" class="cls-75" d="M35.43,148.2a1.67,1.67,0,0,0-.61-.6,1.58,1.58,0,0,0-1.29-.17,1.64,1.64,0,0,0-1,.77,1.67,1.67,0,0,0-.17,1.29,1.74,1.74,0,0,0,1,1.12,1.69,1.69,0,0,0,1.82-.35,1.13,1.13,0,0,0,.27-.34,1.72,1.72,0,0,0,0-1.72Z"/></g></g><g id="_Group_25" data-name="&lt;Group&gt;"><path id="_Path_107" data-name="&lt;Path&gt;" class="cls-76" d="M39.66,130.48c2.57-.21,1.49,3.87.53,4.14C39.41,134.85,37.61,130.65,39.66,130.48Z"/><path id="_Path_108" data-name="&lt;Path&gt;" class="cls-76" d="M47.8,123.44c-.69-2.63-4.51,1.34-4.06,2S48.49,126.14,47.8,123.44Z"/><path id="_Path_109" data-name="&lt;Path&gt;" class="cls-77" d="M51.81,133.49c1.09-2.41-3.6-2.26-3.77-1.46S50.77,135.78,51.81,133.49Z"/><path id="_Path_110" data-name="&lt;Path&gt;" class="cls-76" d="M64.67,119.31c-1,.1-.26,4.81,2.09,4.25C69.46,122.92,65.84,119.18,64.67,119.31Z"/><path id="_Path_111" data-name="&lt;Path&gt;" class="cls-76" d="M73.64,136c-.29-.93-4.72.72-3.7,2.94C71.1,141.44,74,137.1,73.64,136Z"/><path id="_Path_112" data-name="&lt;Path&gt;" class="cls-77" d="M75.62,126.59c-1.37-.09-1.76-5.3.84-4.34C78.58,123,76.16,126.63,75.62,126.59Z"/><path id="_Path_113" data-name="&lt;Path&gt;" class="cls-76" d="M54.54,144.15c-.63-2.21,3.65-2,4-1.25C59,144,55,145.77,54.54,144.15Z"/><path id="_Path_114" data-name="&lt;Path&gt;" class="cls-76" d="M56.55,111.07c.29,2.27-3.92,1.38-4.11.59C52.16,110.49,56.34,109.4,56.55,111.07Z"/><path id="_Path_115" data-name="&lt;Path&gt;" class="cls-77" d="M60.37,121.1c-.82,1.12-5.39-1.38-3.19-3.06C59,116.67,60.68,120.66,60.37,121.1Z"/><path id="_Path_116" data-name="&lt;Path&gt;" class="cls-77" d="M63.42,115.25c-2.22,1.31-3-2.83-2.27-3.5S65.2,114.21,63.42,115.25Z"/><path id="_Path_117" data-name="&lt;Path&gt;" class="cls-77" d="M60.89,126.55c2.56-.21,1.48,3.86.52,4.14C60.64,130.91,58.83,126.71,60.89,126.55Z"/><path id="_Path_118" data-name="&lt;Path&gt;" class="cls-76" d="M62,134.8c.53-1.18,5.42.73,3.69,2.6C64.25,138.93,61.77,135.26,62,134.8Z"/></g></g></g><g id="_Group_26" data-name="&lt;Group&gt;"><g id="_Group_27" data-name="&lt;Group&gt;"><g id="_Group_28" data-name="&lt;Group&gt;"><path id="_Path_119" data-name="&lt;Path&gt;" class="cls-78" d="M174.77,77.7,190,72.24s33.87,38.5,46.21,75l-16.88,11.31L187.79,116.2Z"/><path id="_Path_120" data-name="&lt;Path&gt;" class="cls-79" d="M222.88,148.73c2.87,1.83,8.07,3.73,11.07,1.57,3.57-2.58,3.44-6.85,1.52-10.42-2.87-5.3-10-6.88-15.28-8.43-9.76-2.83-17.09-8.25-20.9-18-2.08-5.28-1.81-10.56-1.21-16.06,1.35-12.39-2.84-20.92-10.7-24.74-3-1.44-7.56-2.47-10.16.2-3.4,3.49-3.09,10.1-3.05,14.53l8.36,31.6Z"/><g id="_Group_29" data-name="&lt;Group&gt;"><path id="_Path_121" data-name="&lt;Path&gt;" class="cls-80" d="M223.33,148c3.79,2.22,9.67,4.28,11.81-1.16,1.51-3.85-.39-7.5-3.61-9.88-4.19-3.08-9.53-3.74-14.31-5.47-8-2.89-14.63-8.26-18.14-16.13-4.59-10.26,1.17-21.73-2.21-32.15-1.87-5.75-6.77-9-12.2-10.55-9.7-2.73-9.67,8.5-9.59,14.81a.91.91,0,0,1-1.81,0c-.06-5.06-.58-12.81,4.37-16,4-2.6,11.2.14,14.64,2.68a18.25,18.25,0,0,1,7.32,13.65c.45,8.6-2.64,17.18.56,25.5,3.08,8,9.62,13.57,17.54,16.45,5.7,2.07,12.62,2.76,16.94,7.49,2.8,3.07,4.25,8.11,1.8,11.8-3.34,5-9.72,3-14,.52a.9.9,0,0,1,.91-1.56Z"/></g><path id="_Path_122" data-name="&lt;Path&gt;" class="cls-81" d="M223,139.76l.33-3.42s9.19-1.3,8.68,1.13c-.31,1.47-3.26,2.08-6,3.22,3.11,1,6.14,2.35,5.53,3.37-1.19,2-12,1.19-12,1.19l.52-6.29S221.33,139.27,223,139.76Z"/><path id="_Path_123" data-name="&lt;Path&gt;" class="cls-82" d="M229.5,152.06c1.29,6.26-9.55,6.88-12.39,6.33-7.67-1.5-11.38-6.55-18.93-8.44C180.3,145.48,158.73,139,156.39,113a2.64,2.64,0,0,1,2.11-3c12.93-2.06,30.07-2.9,42.86,3.62,9.1,4.63,15.91,14.14,21.16,23.93,2.29,4.27,5.4,8.74,6.81,13.75A6.91,6.91,0,0,1,229.5,152.06Z"/><path id="_Path_124" data-name="&lt;Path&gt;" class="cls-81" d="M213,124.29s12.76-6.17,12.14-9.28c-.42-2.09-9.77.66-9.77.66s3.73-6,3-8.09-5.68,3.45-5.68,3.45,5-11.08,3.75-12.76-19.28,12.6-15.08,22.8C204.5,128.74,213,124.29,213,124.29Z"/><path id="_Path_125" data-name="&lt;Path&gt;" class="cls-81" d="M185.9,81.55s1.44-11.37-.64-12.41-5.67,12.36-5.67,12.36Z"/><path id="_Path_126" data-name="&lt;Path&gt;" class="cls-81" d="M189.54,83.5s3-11.13,1.85-13.34-6.76,9.47-6.76,9.47Z"/><path id="_Path_127" data-name="&lt;Path&gt;" class="cls-83" d="M188.81,144.19c-5.31-22.21-29.2-32.36-27.32-56.83,1-13.07,17.94-26.31,29.5,1.23,3.69-5.27,9.76-7.44,11.72-5.26,5.65,6.28,3.89,26.32,1.06,31.64,0,0-1.21,4.17-1.23,4.22C200.83,136.75,188.81,144.19,188.81,144.19Z"/><path id="_Path_128" data-name="&lt;Path&gt;" class="cls-84" d="M187.24,87.25c8.75,0,32.12,8.12,19.47,32.35S178.49,87.25,187.24,87.25Z"/><path id="_Path_129" data-name="&lt;Path&gt;" class="cls-85" d="M195.09,94.7s18.25-.08,10.72,16.79C200.79,122.74,189.06,102.41,195.09,94.7Z"/><path id="_Path_130" data-name="&lt;Path&gt;" class="cls-86" d="M198.88,88c8.59,9.37,7.28,26.21-2.81,32.47-8.76,5.44-21.37,1.17-27.58-7.16-5.59-7.49-7.08-19.7,0-27.1C176.41,77.9,191.24,79.64,198.88,88Z"/><path id="_Path_131" data-name="&lt;Path&gt;" class="cls-87" d="M191.61,88.24c.51-.18,1.33.5,1.34,1.23a1,1,0,0,1-.63,1c-.49.13-1-.35-1.14-.8A1.14,1.14,0,0,1,191.61,88.24Z"/><path id="_Path_132" data-name="&lt;Path&gt;" class="cls-87" d="M196.74,92.67c.78-.2,1.73.69,1.77,1.62a1.46,1.46,0,0,1-.89,1.44,1.5,1.5,0,0,1-1.71-1A1.62,1.62,0,0,1,196.74,92.67Z"/><path id="_Path_133" data-name="&lt;Path&gt;" class="cls-87" d="M183,92.88c.79-.22,1.77.67,1.82,1.6a1.46,1.46,0,0,1-.86,1.48,1.53,1.53,0,0,1-1.76-1A1.64,1.64,0,0,1,183,92.88Z"/><path id="_Compound_Path_9" data-name="&lt;Compound Path&gt;" class="cls-88" d="M168.49,86.19c7.92-8.29,22.75-6.55,30.39,1.79,8.59,9.37,7.28,26.21-2.81,32.47-8.76,5.44-21.37,1.17-27.58-7.16C162.9,105.8,161.41,93.59,168.49,86.19Zm1.56,26c5.47,7.41,16.27,10.36,24,5.75,9.27-5.55,11-20.24,3.37-28.53-6.73-7.3-19.52-8.27-26.61-.87C164.61,94.93,165,105.35,170.05,112.14Z"/><g id="_Group_30" data-name="&lt;Group&gt;"><path id="_Path_134" data-name="&lt;Path&gt;" class="cls-89" d="M198.2,102.35c4.53,7.16,4.07,15.65-1,19a8.34,8.34,0,0,1-4.88,1.32,82.78,82.78,0,0,1-7.31-11c-2.48-4.11-5-8.2-7.39-12.36.69-1.6.37-2.46,1.88-3.25C184.83,93.22,193.67,95.2,198.2,102.35Z"/><path id="_Path_135" data-name="&lt;Path&gt;" class="cls-66" d="M196.78,103.34c4.2,6.64,3.69,14.6-1.08,18.06-1-1.7-2.21-3.33-3.33-4.86-2-2.67-4.12-5.2-6.29-7.7-2.41-2.78-4.91-5.47-7.33-8.24-.41-.48-.8-1-1.19-1.48A5.68,5.68,0,0,1,179.77,97C185.15,94.83,192.48,96.54,196.78,103.34Z"/><path id="_Path_136" data-name="&lt;Path&gt;" class="cls-67" d="M195.56,104c3.19,5,2.92,12.61-1.06,15.55-.7-1-1.43-2-2.13-3-2-2.67-4.12-5.2-6.29-7.7-2.33-2.69-4.75-5.31-7.1-8a6.75,6.75,0,0,1,2-1.92C183.81,97.18,191.89,98.23,195.56,104Z"/><path id="_Path_137" data-name="&lt;Path&gt;" class="cls-90" d="M187.29,107.79c-.55-.44-1-3.52-.47-3.67s5.14-.09,5.12.6S188.09,108.42,187.29,107.79Z"/><path id="_Path_138" data-name="&lt;Path&gt;" class="cls-90" d="M188.65,109.77c-.44.6,2.42,2.67,3.13,2.54s1.89-3.85,1.95-4.91C193.77,106.75,189.1,109.14,188.65,109.77Z"/></g><path id="_Compound_Path_10" data-name="&lt;Compound Path&gt;" class="cls-91" d="M172.18,90c5.79-4.56,15.57-2.46,19.53,4.28,3.53,6,1.77,14.61-4.09,18.06-6.77,4-16.21-.53-19-7.63C166.78,99.87,167.8,93.43,172.18,90Zm-1.9,14.63a11,11,0,0,0,15.15,5.11c5.26-2.95,7.08-10.11,3.91-15C185.8,89.24,177.51,88.92,173,93A10.56,10.56,0,0,0,170.28,104.6Z"/></g><g id="_Group_31" data-name="&lt;Group&gt;"><path id="_Path_139" data-name="&lt;Path&gt;" class="cls-86" d="M218,116.32c9.26,8.5,9.65,25.38.48,32.58-8,6.26-20.63,3.23-27.48-4.46-6.16-6.91-8.82-18.92-2.68-27C195.22,108.46,209.79,108.75,218,116.32Z"/><path id="_Compound_Path_11" data-name="&lt;Compound Path&gt;" class="cls-88" d="M188.35,117.47c6.87-9,21.44-8.72,29.68-1.15,9.26,8.5,9.65,25.38.48,32.58-8,6.26-20.63,3.23-27.48-4.46C184.87,137.53,182.21,125.52,188.35,117.47Zm4.09,25.68c6,6.84,16.81,8.74,23.83,3.41,8.46-6.42,8.7-21.22.47-28.72-7.26-6.62-19.78-6.35-25.93,1.7C185.45,126.55,186.89,136.87,192.44,143.15Z"/><path id="_Path_140" data-name="&lt;Path&gt;" class="cls-87" d="M218.76,137.59c.51-.18,1.34.5,1.34,1.23a1,1,0,0,1-.63,1c-.48.13-1-.35-1.14-.8S218.35,137.73,218.76,137.59Z"/><path id="_Path_141" data-name="&lt;Path&gt;" class="cls-87" d="M202.67,121.91c.62-.27,1.52.34,1.67,1.1a1.2,1.2,0,0,1-.53,1.3,1.27,1.27,0,0,1-1.55-.58A1.35,1.35,0,0,1,202.67,121.91Z"/><path id="_Path_142" data-name="&lt;Path&gt;" class="cls-92" d="M194.2,124.31c8.75,0,32.12,8.12,19.47,32.35C201.64,179.7,189,124.31,194.2,124.31Z"/><path id="_Path_143" data-name="&lt;Path&gt;" class="cls-85" d="M202.05,131.76s18.24-.08,10.72,16.79C207.75,159.81,196,139.47,202.05,131.76Z"/><path id="_Compound_Path_12" data-name="&lt;Compound Path&gt;" class="cls-93" d="M190.16,119c5.4-5.22,16.56-3.08,20.77,4.09,3.26,5.55,2.41,14.2-3.46,17.87-6.18,3.85-14.5.06-18.07-5.58C186.3,130.49,186,123,190.16,119Zm.54,15.6c2.69,4.92,9.41,7.31,14.61,4.18a10.65,10.65,0,0,0,3.41-14.49,10.88,10.88,0,0,0-16-2.39A10.61,10.61,0,0,0,190.7,134.58Z"/></g><path id="_Path_144" data-name="&lt;Path&gt;" class="cls-94" d="M159,83.3,167.72,79s30.39,35.54,51.59,79.52l-9.38,6.08Z"/><g id="_Group_32" data-name="&lt;Group&gt;"><path id="_Path_145" data-name="&lt;Path&gt;" class="cls-95" d="M209.45,161.9l9-5.13c.3.59.59,1.18.88,1.78l-9.38,6.08-.76-1.18Z"/><path id="_Path_146" data-name="&lt;Path&gt;" class="cls-95" d="M167.72,79s.56.66,1.56,1.87l-7.84,3.58-2.25-.88-.19-.3Z"/></g><path id="_Path_147" data-name="&lt;Path&gt;" class="cls-96" d="M209.93,164.63c2.54-4.22-46.74-81.13-50.18-81.66-5.27-.8-7,62.3-4.91,65S207.88,168.05,209.93,164.63Z"/><path id="_Path_148" data-name="&lt;Path&gt;" class="cls-87" d="M217.15,128.72c.5-.18,1.33.5,1.34,1.23a1,1,0,0,1-.63,1c-.49.12-1-.35-1.15-.8A1.17,1.17,0,0,1,217.15,128.72Z"/><path id="_Path_149" data-name="&lt;Path&gt;" class="cls-87" d="M205.91,115c.51-.18,1.34.5,1.34,1.23a1,1,0,0,1-.63,1c-.49.12-1-.35-1.14-.81A1.15,1.15,0,0,1,205.91,115Z"/><path id="_Path_150" data-name="&lt;Path&gt;" class="cls-87" d="M217.09,122.08c.78-.21,1.73.69,1.76,1.61a1.48,1.48,0,0,1-.88,1.45,1.54,1.54,0,0,1-1.72-1A1.6,1.6,0,0,1,217.09,122.08Z"/><path id="_Path_151" data-name="&lt;Path&gt;" class="cls-97" d="M161.34,84.48l.16.08c8.69,9.91,43,64.39,47.94,77.39-6.66,1-51.82-13.19-52.66-15.78C154.64,139.57,157.54,87.16,161.34,84.48Z"/><g id="_Group_33" data-name="&lt;Group&gt;"><path id="_Path_152" data-name="&lt;Path&gt;" class="cls-98" d="M191.12,145.27A1.55,1.55,0,0,0,190,145a1.58,1.58,0,0,0-1,.63,1.62,1.62,0,0,0-.28,1.17,1.59,1.59,0,0,0,.6,1,1.52,1.52,0,0,0,1.13.27,1.58,1.58,0,0,0,.69-2.81Z"/></g><g id="_Group_34" data-name="&lt;Group&gt;"><path id="_Path_153" data-name="&lt;Path&gt;" class="cls-98" d="M184.79,147.6a1.89,1.89,0,0,0-2.66.44,2,2,0,0,0,.39,2.73,1.89,1.89,0,0,0,1.42.35,2,2,0,0,0,1.25-.79,2,2,0,0,0-.4-2.73Z"/></g><g id="_Group_35" data-name="&lt;Group&gt;"><path id="_Path_154" data-name="&lt;Path&gt;" class="cls-98" d="M185.52,142.59a1,1,0,0,0-1.41.24,1.05,1.05,0,0,0,.21,1.44,1,1,0,0,0,1.4-.23,1.07,1.07,0,0,0-.2-1.45Z"/></g><g id="_Group_36" data-name="&lt;Group&gt;"><path id="_Path_155" data-name="&lt;Path&gt;" class="cls-99" d="M163.6,123.48a1.54,1.54,0,0,0-1.19-.46,1.8,1.8,0,0,0-1.21.61,2.08,2.08,0,0,0-.53,1.33,1.87,1.87,0,0,0,.47,1.28,1.54,1.54,0,0,0,1.19.46,1.78,1.78,0,0,0,1.21-.61,2.06,2.06,0,0,0,.53-1.33,1.87,1.87,0,0,0-.47-1.28Z"/></g><g id="_Group_37" data-name="&lt;Group&gt;"><path id="_Path_156" data-name="&lt;Path&gt;" class="cls-99" d="M167.09,127.41a1.11,1.11,0,0,0-.85-.33,1.29,1.29,0,0,0-.86.44,1.42,1.42,0,0,0,0,1.86,1.09,1.09,0,0,0,.84.33,1.33,1.33,0,0,0,.87-.44,1.42,1.42,0,0,0,0-1.86Z"/></g><path id="_Path_157" data-name="&lt;Path&gt;" class="cls-99" d="M162.37,131a.92.92,0,0,0-1.35.08,1.12,1.12,0,0,0,0,1.46.92.92,0,0,0,1.35-.08,1.11,1.11,0,0,0,0-1.46Z"/><path id="_Path_158" data-name="&lt;Path&gt;" class="cls-100" d="M169.82,91a1.66,1.66,0,0,0,1.06-.62,1.68,1.68,0,0,0,.31-1.19,1.64,1.64,0,0,0-.62-1.06,1.68,1.68,0,0,0-1.19-.31A1.6,1.6,0,0,0,168,89.64a1.64,1.64,0,0,0,.62,1.06,1.68,1.68,0,0,0,1.19.31Z"/><path id="_Path_159" data-name="&lt;Path&gt;" class="cls-100" d="M173.89,92.87a1,1,0,1,0-1.17-.89,1.06,1.06,0,0,0,1.17.89Z"/></g><path id="_Path_160" data-name="&lt;Path&gt;" class="cls-101" d="M207,155.46s-15.23-34.55-41.19-65.35C165.82,90.11,190.16,127.89,207,155.46Z"/></g><g id="_Group_38" data-name="&lt;Group&gt;"><g id="_Group_39" data-name="&lt;Group&gt;"><path id="_Path_161" data-name="&lt;Path&gt;" class="cls-102" d="M142,143s-55.76,59.55-53.23,64c.88,1.54,13.15,3.28,27.5,4.77,2.21.23,1.91,12.29,5.32,12.38,2.88.06,3.29-11.37,5.22-11.2,3.91.35,8.92.63,12.84,1,1.61.13,2.65,8.95,5.4,8.79,3-.17,2.86-8.14,4.54-8,16.59,1.25,30.08,2.06,30.08,2.06s14.82-20.48,6.45-43.76A44.67,44.67,0,0,0,142,143Z"/><path id="_Path_162" data-name="&lt;Path&gt;" class="cls-103" d="M156.86,204.49c19.42.5,15.77-36.07,1.65-43.73s-19.76,21.9-20.77,24.24S124,175,125.08,170.86c1-3.77,18.91-16.34,13.9-24.65-7.57,8.16-27.59,29.94-40,45.13,3.93,2.45,5.41,7.46,3.08,14,3,1,13.77,2.38,15.75,3s2.28,9.61,4.1,9.51,2.88-19.32,5.25-21.73S137.43,204,156.86,204.49Z"/><path id="_Path_163" data-name="&lt;Path&gt;" class="cls-104" d="M98.28,203.55c-3.52-.78,9.85-19.74,13.09-18.78s-2,12.15,2.68,11c6.3-1.5,14.87-12.33,13.74-15.39-1.08-2.91-9.73,1.46-11.49-1.41-.84-1.38,11.53-18.24,16-19.86s-5.47,16,6.41,4.12c6.18-6.2,6.82-10.4,6.12-13-.92-3.47-4.23-5.06.06-3.86l.23.08c11.59,3.23,27.74,20,27.53,24.34s-8.09-5.94-13.43-3.59.88,20.6,5,20.52c8.18-.16,8.64-9.4,10.52-8.6s2.16,27.39-1,30.56C171.74,211.64,111.45,206.46,98.28,203.55Z"/><path id="_Path_164" data-name="&lt;Path&gt;" class="cls-105" d="M156.86,204.49c9.87.25,13.78-9.08,13.38-19.32a8.22,8.22,0,0,1-6,2.58c-4.1.08-10.33-18.16-5-20.52,2-.88,4.33,0,6.49,1.22a19.21,19.21,0,0,0-7.2-7.69c-14.12-7.66-19.76,21.9-20.77,24.24S124,175,125.08,170.86c.48-1.76,4.61-5.42,8.39-9.68.2-1.46.06-2.48-1.17-2-4.47,1.62-16.84,18.48-16,19.86,1.76,2.87,10.41-1.5,11.49,1.41,1.13,3.06-7.44,13.89-13.74,15.39-4.66,1.11.57-10.08-2.68-11-1.7-.5-6.17,4.46-9.54,9.41,1.52,2.51,1.85,6,.61,10.13,5.33.85,13.32,1.8,22.06,2.69.75-4.83,1.57-9.69,2.69-10.82C129.56,193.76,137.43,204,156.86,204.49Z"/><g id="_Group_40" data-name="&lt;Group&gt;"><path id="_Compound_Path_13" data-name="&lt;Compound Path&gt;" class="cls-106" d="M172.77,206.68a5.44,5.44,0,0,1-5.92-4.78c-.16-2.78,2.28-5.25,5.35-5.42a5.13,5.13,0,1,1,.57,10.2Z"/><path id="_Compound_Path_14" data-name="&lt;Compound Path&gt;" class="cls-107" d="M178.72,199.06a6.92,6.92,0,0,0-2.05-2.94,7.67,7.67,0,0,0-10.3.58,7.3,7.3,0,0,0-1.9,5.14,6.52,6.52,0,0,0,1.2,3.44,7.28,7.28,0,0,0,4.55,2.94,7.73,7.73,0,0,0,5.6-1,6.86,6.86,0,0,0,2.9-8.15Zm-6.91,7.44a5.13,5.13,0,1,1,5.35-5.42A5.45,5.45,0,0,1,171.81,206.5Z"/><path id="_Path_165" data-name="&lt;Path&gt;" class="cls-107" d="M162.84,186.75l-.25,0c-3.54.19-6.62-2-6.77-4.84s2.65-5.37,6.19-5.57a7.56,7.56,0,0,1,3.74.74,10.66,10.66,0,0,1,1.9-1.37,9.78,9.78,0,0,0-11.25,1.07,7,7,0,0,0-2.22,5.26,6.13,6.13,0,0,0,1.35,3.51,8.45,8.45,0,0,0,5.21,3,10.5,10.5,0,0,0,2.8.07A10.25,10.25,0,0,1,162.84,186.75Z"/></g><path id="_Path_166" data-name="&lt;Path&gt;" class="cls-108" d="M142,143s-1.31-7,5.91-8.56,61.31,19.17,45.47,82.65c0,0-6.39-.09-13.71-.37C194.36,153,142,143,142,143Z"/><path id="_Path_167" data-name="&lt;Path&gt;" class="cls-109" d="M179.67,216.68s2.49-6.19,8.24-6c5.38.21,5.47,6.33,5.47,6.33S186.74,217.17,179.67,216.68Z"/><path id="_Path_168" data-name="&lt;Path&gt;" class="cls-107" d="M135.47,178.43c-.77,2.3-3.17,4.63-5.66,4.57-2.92-.07-6.5-2.44-6.37-5.41.09-2,2.22-4,4.13-4.79a9.28,9.28,0,0,1-.79-1.8c-2.82,1-5.27,3.3-5.4,6.27-.18,4.15,4.29,7.39,8.32,7.59,3.86.2,6.94-1.79,8.05-6.25C137.1,178.52,136,178.52,135.47,178.43Z"/><g id="_Group_41" data-name="&lt;Group&gt;"><path id="_Path_169" data-name="&lt;Path&gt;" class="cls-110" d="M138.21,185s-.21-4.89-6.41-4.57-8.84,7.6-8.57,8.39,3.42,3.36,8.82,2.89,7.44-3.59,7.76-4.72C140,186.31,139.35,185.23,138.21,185Z"/></g><g id="_Group_42" data-name="&lt;Group&gt;"><path id="_Path_170" data-name="&lt;Path&gt;" class="cls-111" d="M156.68,201.34s3.19-6.34,7-8.44c5.17-2.83,9-.59,10.21,1.44s1.7,6.9-2.3,8.87C166.27,205.86,159.87,203.29,156.68,201.34Z"/></g><g id="_Group_43" data-name="&lt;Group&gt;"><path id="_Path_171" data-name="&lt;Path&gt;" class="cls-112" d="M104.21,199.28c1.23,3,5,3.76,5.47,3.39s.89-3.61-1.11-6C107.1,194.86,103.34,197.17,104.21,199.28Z"/></g><g id="_Group_44" data-name="&lt;Group&gt;"><path id="_Path_172" data-name="&lt;Path&gt;" class="cls-113" d="M159.08,160.33c-1.08.69-1.77,8.69.27,11.59,2.49,3.54,10.22,1.69,8.74-5C167.15,162.66,160.16,159.64,159.08,160.33Z"/><path id="_Path_173" data-name="&lt;Path&gt;" class="cls-114" d="M153.81,188.57c-.52.33-.31,4.36.66,5.74a2.46,2.46,0,0,0,4.18-2.39C158.2,189.88,154.32,188.24,153.81,188.57Z"/></g><path id="_Compound_Path_15" data-name="&lt;Compound Path&gt;" class="cls-115" d="M121,190.85a5.77,5.77,0,1,0-5.75,6.78A5.94,5.94,0,0,0,121,190.85Zm-5.59,4a2.7,2.7,0,1,1-.51-5.37,2.76,2.76,0,0,1,3,2.26A2.79,2.79,0,0,1,115.38,194.87Z"/><path id="_Compound_Path_16" data-name="&lt;Compound Path&gt;" class="cls-115" d="M176.27,181.49a5.78,5.78,0,1,0-5.76,6.78A6,6,0,0,0,176.27,181.49Zm-5.38,3.9a2.92,2.92,0,0,1-3.13-2.8,2.86,2.86,0,1,1,3.13,2.8Z"/><path id="_Compound_Path_17" data-name="&lt;Compound Path&gt;" class="cls-115" d="M138.29,165a5.46,5.46,0,1,0-5.44,6.41A5.62,5.62,0,0,0,138.29,165Zm-5.18,3.69a2.56,2.56,0,1,1,2.34-2.95A2.65,2.65,0,0,1,133.11,168.72Z"/><g id="_Group_45" data-name="&lt;Group&gt;"><path id="_Path_174" data-name="&lt;Path&gt;" class="cls-116" d="M142.52,182.88a1.3,1.3,0,0,0-1.07-.73,1.19,1.19,0,0,0-.67.13,1.23,1.23,0,0,0-.6.57l0,0a1.27,1.27,0,0,0,0,1.14,1.31,1.31,0,0,0,.87.7h0l.35,0,.35-.07a1.48,1.48,0,0,0,.56-.37A1.33,1.33,0,0,0,142.52,182.88Z"/><path id="_Path_175" data-name="&lt;Path&gt;" class="cls-116" d="M142.09,178.36a.84.84,0,0,0-.78.88.83.83,0,1,0,.78-.88Z"/><path id="_Path_176" data-name="&lt;Path&gt;" class="cls-117" d="M163.9,206.48a1.46,1.46,0,0,0-1.24-.63h-.06a1.39,1.39,0,0,0-.84,2.41l.05,0a1.4,1.4,0,0,0,2.23-.58A1.36,1.36,0,0,0,163.9,206.48Z"/><path id="_Path_177" data-name="&lt;Path&gt;" class="cls-118" d="M121.28,184.86a1.08,1.08,0,0,0-1,1.12,1.07,1.07,0,1,0,1-1.12Z"/><path id="_Path_178" data-name="&lt;Path&gt;" class="cls-119" d="M153.19,178.92a1.17,1.17,0,0,0-1.47-.73,2.93,2.93,0,0,0-.58.31,1,1,0,0,0,.1,1.78,1.47,1.47,0,0,0,1.49,0A1.16,1.16,0,0,0,153.19,178.92Z"/><path id="_Path_179" data-name="&lt;Path&gt;" class="cls-120" d="M116.16,202.19a1.35,1.35,0,0,0-1-.34,1.59,1.59,0,0,0-.81.29,1.29,1.29,0,0,0,.43,2.34,1.19,1.19,0,0,0,.86-.14h.07a1.19,1.19,0,0,0,.57-.39A1.24,1.24,0,0,0,116.16,202.19Z"/><path id="_Path_180" data-name="&lt;Path&gt;" class="cls-119" d="M150.55,182.08a.64.64,0,0,0-.2,0,.55.55,0,0,0,.06,1.1h.2A.57.57,0,0,0,150.55,182.08Z"/><path id="_Path_181" data-name="&lt;Path&gt;" class="cls-120" d="M113.05,199.14l-.18,0a.65.65,0,0,0-.34,1.12q-.09-.14.09.09a.75.75,0,0,0,.33.17.94.94,0,0,0,.5,0A.72.72,0,0,0,113.05,199.14Z"/><path id="_Path_182" data-name="&lt;Path&gt;" class="cls-120" d="M117.18,199.45a.49.49,0,1,0,0,1A.48.48,0,0,0,117.18,199.45Z"/></g><path id="_Path_183" data-name="&lt;Path&gt;" class="cls-118" d="M119.53,182.86c-.27-1.35,1.65-1.18,1.61-.19S119.67,183.54,119.53,182.86Z"/><path id="_Path_184" data-name="&lt;Path&gt;" class="cls-116" d="M152.18,200.4c-1.19-.69.34-2.35,1-1.67S152.78,200.74,152.18,200.4Z"/></g><path id="_Path_185" data-name="&lt;Path&gt;" class="cls-121" d="M144.66,199.29a45.32,45.32,0,0,0,5.51-6.7c.54-.83-4.61-4.81-5.33-4a46.52,46.52,0,0,0-4.68,7.39s-1.19-3.86-3.78-3.62c-2.35.21-5.28,6.7.72,11.68,5.63,4.67,12.46-.55,12-2.66C148.64,199.58,144.66,199.29,144.66,199.29Z"/><g id="_Group_46" data-name="&lt;Group&gt;"><path id="_Path_186" data-name="&lt;Path&gt;" class="cls-121" d="M145.06,168.28a31.81,31.81,0,0,0,2.6,8.25c.42.84,6.12-1.2,5.89-2.25a26.14,26.14,0,0,0-3.44-7.57s4.71.8,5.7-1.17-3-7.81-10.89-4.88c-6.5,2.41-6.5,9.85-4,10.62C142.77,171.84,145.06,168.28,145.06,168.28Z"/></g><path id="_Path_187" data-name="&lt;Path&gt;" class="cls-122" d="M146,162.18c-2.78.72-6.3,5.48-4.53,6.43s4.79-2.73,4.79-2.73,1.85,8.51,4,8.35-2.08-9.65-2.08-9.65,4.51,1.24,4.92-.26S150.38,161.06,146,162.18Z"/><path id="_Path_188" data-name="&lt;Path&gt;" class="cls-122" d="M146.18,193.16c-1-1.31-3.71.55-5.76,6.44,0,0-1.46-5.32-3.86-4.57s-.47,6.61,2.77,8.48,8-.66,7.46-1.62-4.85-.65-4.85-.65S147.49,194.89,146.18,193.16Z"/></g></g></g></g></g></svg>