<svg xmlns="http://www.w3.org/2000/svg" xmlns:xlink="http://www.w3.org/1999/xlink" viewBox="0 0 186.83 202.71"><defs><style>.cls-1{fill:#9d9078;}.cls-2{fill:#8b7d65;}.cls-3{fill:#c4beb0;}.cls-4{fill:#5c4c44;}.cls-10,.cls-4{opacity:0.7;}.cls-5{fill:#e9e2d3;}.cls-6{fill:#f7f0df;}.cls-7{fill:#fbf8ef;}.cls-8{fill:#e0d8c8;}.cls-9{fill:url(#linear-gradient);}.cls-10{fill:#c2bcb1;}.cls-11{fill:#d5cfc2;opacity:0.5;}.cls-12{fill:#dad3c5;}.cls-13{fill:#71c7e0;}.cls-14{fill:#62b9e0;}.cls-15{fill:#a0deed;}.cls-16{fill:#d0eff6;}.cls-17{fill:#dbd4c7;}.cls-18{fill:#c8beaf;}.cls-19{fill:#fff;}.cls-20{fill:#5c9fb1;}.cls-21{fill:#edecdf;}.cls-22{fill:#e3d8c6;}.cls-23{fill:#d2c9b1;}.cls-24{fill:#2b4346;opacity:0.2;}.cls-25{fill:#dbcac0;}.cls-26{fill:#c9bcb4;}.cls-27{fill:#e5dad6;}.cls-28{fill:#f2edeb;}.cls-29{fill:url(#linear-gradient-2);}.cls-30{fill:#ae5681;}.cls-31{fill:#92278f;opacity:0.1;}.cls-32{fill:url(#linear-gradient-3);}.cls-33{fill:#c85b31;}.cls-34{fill:url(#linear-gradient-4);}.cls-35{fill:#cb5e30;}.cls-36{fill:#ee7600;}.cls-37{fill:#ffbd35;}.cls-38{fill:#ffcd40;}.cls-39{fill:#eea600;}.cls-40{fill:#ffe5af;}</style><linearGradient id="linear-gradient" x1="221.25" y1="137.76" x2="47.79" y2="40.15" gradientTransform="translate(-23.84)" gradientUnits="userSpaceOnUse"><stop offset="0" stop-color="#cec7bb"/><stop offset="0.29" stop-color="#e0dbd0"/><stop offset="0.73" stop-color="#f7f4e9"/><stop offset="1" stop-color="#fffdf3"/></linearGradient><linearGradient id="linear-gradient-2" x1="170.43" y1="93.22" x2="192.21" y2="165.28" gradientTransform="translate(-23.84)" gradientUnits="userSpaceOnUse"><stop offset="0" stop-color="#f7f0df"/><stop offset="1" stop-color="#e3dbca"/></linearGradient><linearGradient id="linear-gradient-3" x1="-56.11" y1="133.04" x2="-52.01" y2="170.06" gradientTransform="translate(84.72 19.28) rotate(2.63)" gradientUnits="userSpaceOnUse"><stop offset="0" stop-color="#e99332"/><stop offset="0.53" stop-color="#d66a2f"/><stop offset="1" stop-color="#d66a2f"/></linearGradient><linearGradient id="linear-gradient-4" x1="-56.57" y1="145.53" x2="-51.95" y2="187.84" gradientTransform="translate(108.54 20.38) rotate(2.63)" gradientUnits="userSpaceOnUse"><stop offset="0" stop-color="#e89134"/><stop offset="0.53" stop-color="#d66a2f"/><stop offset="1" stop-color="#d66a2f"/></linearGradient></defs><title>composition_3</title><g id="Layer_2" data-name="Layer 2"><g id="Layer_3" data-name="Layer 3"><g id="_Group_" data-name="&lt;Group&gt;"><g id="_Group_2" data-name="&lt;Group&gt;"><g id="_Group_3" data-name="&lt;Group&gt;"><g id="_Group_4" data-name="&lt;Group&gt;"><path id="_Path_" data-name="&lt;Path&gt;" class="cls-1" d="M72.51,53.73,53.8,48.78S43.74,59,43.68,68.51C43.68,68.51,61,70.59,72.51,53.73Z"/><path id="_Path_2" data-name="&lt;Path&gt;" class="cls-2" d="M50.23,51.79c1.2.61,13.8,4.53,22.28,1.94L53.8,48.78A18.24,18.24,0,0,0,50.23,51.79Z"/><path id="_Path_3" data-name="&lt;Path&gt;" class="cls-3" d="M43.62,118.45s20.71-5.37,31.5-11c0,0-.89-38.42-2.61-53.71,0,0-14.79,7.94-28.83,14.78A274.51,274.51,0,0,0,43.62,118.45Z"/><path id="_Path_4" data-name="&lt;Path&gt;" class="cls-4" d="M54.63,107.64c2.22-1,4.86-3.39,3.26-6.11-2.1-3.57-7.74-4.12-8-8.88-.12-2.47,2-5,3.34-6.91a19.45,19.45,0,0,0,2.88-5.27c.87-2.89-1.42-5.38-4.18-5.75-3.75-.5-6.67,1.42-8.66,4.24-.15,6.76-.24,16.21.06,26.62C46.8,108,50.82,109.4,54.63,107.64Z"/><path id="_Path_5" data-name="&lt;Path&gt;" class="cls-5" d="M1,57.94S-.1,86.22,0,110c0,0,13.48,3.46,43.61,8.49l.06-49.94Z"/><path id="_Path_6" data-name="&lt;Path&gt;" class="cls-6" d="M43.68,68.51,53.8,48.78,19.08,41.42,1,57.94S23.06,63.71,43.68,68.51Z"/><path id="_Path_7" data-name="&lt;Path&gt;" class="cls-7" d="M23,40c-.91.3-15.86,14.78-15.86,14.78s32.7,6.08,40.54-8.83Z"/><path id="_Path_8" data-name="&lt;Path&gt;" class="cls-5" d="M19.08,41.42l3.65-13.81,30,5.66,1.1,15.51A278.83,278.83,0,0,1,19.08,41.42Z"/></g><path id="_Path_9" data-name="&lt;Path&gt;" class="cls-4" d="M69.15,72.39c2.27.79,3.88,2,2.66,4.4a25.8,25.8,0,0,1-2.58,3.67c-2.26,3-4.86,9.66.62,11a8.24,8.24,0,0,0,4.94-.67c-.39-9.84-1-23.46-1.87-33a36.27,36.27,0,0,0-3.74,3.33c-1.77,1.95-3.72,4.21-4.07,6.91C64.79,70.45,67.27,71.73,69.15,72.39Z"/><g id="_Group_5" data-name="&lt;Group&gt;"><path id="_Path_10" data-name="&lt;Path&gt;" class="cls-4" d="M70.71,108.8l-.27.77C70.45,109.62,70.52,109.43,70.71,108.8Z"/><path id="_Path_11" data-name="&lt;Path&gt;" class="cls-4" d="M70.44,109.57c0-.13.4-1.79.43-2.11.21-2,0-6.85-3.29-6.56-2.93.26-4,3.47-4.18,6a12.13,12.13,0,0,0,1,5.1c2.08-.76,4.13-1.55,6-2.37Z"/></g><path id="_Compound_Path_" data-name="&lt;Compound Path&gt;" class="cls-4" d="M37.67,81.57c.39-1.67-9.1-.8-9.1-.8s-.54-6.47-2-6.23-2.13,4.82-2.13,4.82l-4.74-1.08s1.19-5.36-.18-5.58C17.81,72.44,16,77.15,16,77.15s-9.83-3.64-9.61-1.69,7.24,6,7.24,6S5.71,97.71,20,101.07c15.06,3.55,9.89-16.15,9.89-16.15S37.29,83.25,37.67,81.57ZM18.91,95.7A1.65,1.65,0,0,1,16,94.17a1.65,1.65,0,0,1,2.89,1.53Zm4.44,1.72a1.46,1.46,0,1,1,1.29-1.76A1.55,1.55,0,0,1,23.35,97.42Z"/></g><path id="_Path_12" data-name="&lt;Path&gt;" class="cls-8" d="M19.08,41.42A281.13,281.13,0,0,0,53.8,48.78L52.7,33.27l-2.13-.4c-.18,3.82-1.07,9-4.5,10.5-5.19,2.21-23.79-3.18-26.46-4Z"/><path id="_Path_13" data-name="&lt;Path&gt;" class="cls-8" d="M38.84,67.31c-.59,10.33-2.48,33.59-7.77,38.54S8,107.72,0,106c0,1.33,0,2.65,0,4,0,0,13.48,3.46,43.61,8.49l.06-49.94Z"/></g><g id="_Group_6" data-name="&lt;Group&gt;"><g id="_Group_7" data-name="&lt;Group&gt;"><path id="_Compound_Path_2" data-name="&lt;Compound Path&gt;" class="cls-9" d="M159.61,46.81c-13-19-29.11-23.09-29.11-23.09l-39.56-.2S71.19,30.6,64.08,50.76c-7.89,22.39-4.73,79.44,3.16,90.5s82.5,9.09,91.58,1.19S171.55,64.2,159.61,46.81ZM148.08,84c-7.48-1.36-20.56-35.44-17.8-41,1.5-3,15.22,5.86,18.23,12.74S152.75,84.89,148.08,84Z"/><path id="_Path_14" data-name="&lt;Path&gt;" class="cls-10" d="M62.72,127.78c1.22,6.2,2.75,11,4.52,13.48,7.9,11.07,82.5,9.09,91.58,1.19,2.63-2.29,4.8-9.84,6.28-19.81C137.7,139.59,92.13,148.38,62.72,127.78Z"/><path id="_Path_15" data-name="&lt;Path&gt;" class="cls-11" d="M130.5,23.72l-8.23,0c21.49,7.22,29.52,17.23,33.79,25.4,4.06,7.77,6.9,33.69,4.06,52.51-4.26,28.31-30,46.07-60.55,42.28-22.43-2.77-36.32-24.54-39.39-36.1,1.14,15.4,3.66,28.72,7.06,33.49,7.9,11.07,82.5,9.09,91.58,1.19s12.73-78.25.79-95.64C146.58,27.84,130.5,23.72,130.5,23.72Z"/><path id="_Path_16" data-name="&lt;Path&gt;" class="cls-12" d="M92,23.27c5.16,5.95,11.3,10,19,9.9,13.37-.22,18.33-10.38,18.33-10.38h0Z"/><path id="_Path_17" data-name="&lt;Path&gt;" class="cls-13" d="M90.94,6.34V23.52s17.21,9.5,39.56.2v-17Z"/><path id="_Path_18" data-name="&lt;Path&gt;" class="cls-14" d="M130.5,6.73l-4.24,0-4.7,3.68.11,16.17a53.76,53.76,0,0,0,8.83-2.82Z"/><path id="_Path_19" data-name="&lt;Path&gt;" class="cls-15" d="M90.94,6.34a35.83,35.83,0,0,1,20-6.34A32.62,32.62,0,0,1,130.5,6.73s-5.93,8.32-20.77,8.32A25.05,25.05,0,0,1,90.94,6.34Z"/><path id="_Path_20" data-name="&lt;Path&gt;" class="cls-16" d="M92,7.54a25,25,0,0,0,17.7,7.51,33.74,33.74,0,0,0,9-1.17C102.05,15.34,92.21,7.7,92,7.54Z"/><path id="_Path_21" data-name="&lt;Path&gt;" class="cls-17" d="M148.08,84c-7.48-1.36-20.56-35.44-17.8-41,0,0-19.57,24.48-11.9,36.28C123,86.43,148.08,84,148.08,84Z"/><path id="_Path_22" data-name="&lt;Path&gt;" class="cls-18" d="M131,52.4c-1.1-4.35-1.5-7.85-.76-9.32,0,0-11,13.7-13.26,25.55l0,.14c0,.23-.07.45-.11.68-.09.63-.17,1.25-.22,1.85C120.66,63.58,125.85,56.74,131,52.4Z"/><path id="_Path_23" data-name="&lt;Path&gt;" class="cls-19" d="M82.51,34.24C81.16,32,70,42.22,67.43,51.34s-4.84,36.76-2.85,37.9,4-33.06,5.69-37.9S83.36,35.66,82.51,34.24Z"/></g></g><g id="_Group_8" data-name="&lt;Group&gt;"><path id="_Path_24" data-name="&lt;Path&gt;" class="cls-13" d="M33.75,109.34c.15.45,5.92,32.77,8.73,48.56h0c.11.64.22,1.24.33,1.82v0c.43,2.38.76,4.26,1,5.4l.15.86.07.38s18.29,1.9,47.51.21l6.92-57.06Z"/><g id="_Group_9" data-name="&lt;Group&gt;"><g id="_Group_10" data-name="&lt;Group&gt;"><g id="_Group_11" data-name="&lt;Group&gt;"><g id="_Group_12" data-name="&lt;Group&gt;"><g id="_Group_13" data-name="&lt;Group&gt;"><path id="_Path_25" data-name="&lt;Path&gt;" class="cls-20" d="M97.06,120.77l1.36-11.23-64.67-.2c0,.14.66,3.46,1.56,8.44A23.34,23.34,0,0,1,36,120.2C52.31,130,83.12,127.32,97.06,120.77Z"/><g id="_Group_14" data-name="&lt;Group&gt;"><polygon id="_Path_26" data-name="&lt;Path&gt;" class="cls-21" points="46.3 151.93 64.23 132.67 85.02 132.67 86.54 151.93 46.3 151.93"/><polygon id="_Path_27" data-name="&lt;Path&gt;" class="cls-22" points="86.54 151.93 85.02 132.67 68.4 151.93 86.54 151.93"/><path id="_Path_28" data-name="&lt;Path&gt;" class="cls-23" d="M67.39,147.34a1,1,0,0,0-1.14.66,1.06,1.06,0,0,0,.85,1.33,1,1,0,0,0,.29-2Z"/><path id="_Path_29" data-name="&lt;Path&gt;" class="cls-23" d="M64.11,136.72a1,1,0,0,0-1.14.66,1.06,1.06,0,0,0,.85,1.33,1,1,0,1,0,.29-2Z"/><path id="_Path_30" data-name="&lt;Path&gt;" class="cls-23" d="M64.86,145.59a.77.77,0,0,0-.86.49.8.8,0,0,0,.64,1,.75.75,0,1,0,.22-1.49Z"/><path id="_Path_31" data-name="&lt;Path&gt;" class="cls-23" d="M67.35,143.76a.79.79,0,0,0-.86.5.8.8,0,0,0,.64,1,.76.76,0,0,0,.22-1.5Z"/><path id="_Path_32" data-name="&lt;Path&gt;" class="cls-23" d="M66.91,134.82a.75.75,0,0,0-.85.49.79.79,0,0,0,.64,1,.77.77,0,0,0,.85-.64A.76.76,0,0,0,66.91,134.82Z"/></g></g></g><g id="_Group_15" data-name="&lt;Group&gt;"><path id="_Path_33" data-name="&lt;Path&gt;" class="cls-24" d="M91.5,166.6l6.92-57.06h-.53l-14.84,9.41-2.7,48.16C83.86,167,87.58,166.83,91.5,166.6Z"/><path id="_Path_34" data-name="&lt;Path&gt;" class="cls-25" d="M30.81,96.89l-1,15.1s11.9,12.91,35.91,12.91S103,112.78,103,112.78l-1.19-15.89Z"/><path id="_Path_35" data-name="&lt;Path&gt;" class="cls-26" d="M101.83,96.89H95.58l-9.89,14.73.44,10.11c11-3.59,16.89-9,16.89-9Z"/><path id="_Path_36" data-name="&lt;Path&gt;" class="cls-27" d="M30.81,96.89c1.42-1.83,14-17.57,35.71-17.48,21.47.1,33.86,15.6,35.31,17.48a39.62,39.62,0,0,1-71,0Z"/><path id="_Path_37" data-name="&lt;Path&gt;" class="cls-13" d="M34.45,97.12C35.72,95.48,47,81.35,66.5,81.43c19.27.09,30.4,14,31.7,15.69a36.48,36.48,0,0,1-63.75,0Z"/><path id="_Path_38" data-name="&lt;Path&gt;" class="cls-15" d="M38.55,97.35C39.66,96,49.5,84,66.48,84,83.26,84.1,93,95.92,94.09,97.35a32.18,32.18,0,0,1-55.54,0Z"/></g></g><path id="_Compound_Path_3" data-name="&lt;Compound Path&gt;" class="cls-21" d="M72.45,94.36c-.4-4.59-2.33-7.67-2.81-7.56-1,.22-.54,7.56-.54,7.56H62.38s0-7.49-.61-7.63-2.29,2-3.08,7.63H52.14s.25,4.07,6,3c-.75,7.9,1.85,12.16,7.46,12.16,5.94,0,8.07-4.31,7.39-12.39,5.76,1.09,6-2.74,6-2.74Zm-4.9,11a2.49,2.49,0,0,1-2.13,2.29c-.81,0-2-1.41-2.13-2.29S67.55,104.62,67.55,105.35Z"/></g><path id="_Path_39" data-name="&lt;Path&gt;" class="cls-28" d="M73.82,118.21l-1,.1a45.26,45.26,0,0,1-39.94-17.69,39.7,39.7,0,0,0,33.4,18.32A38.92,38.92,0,0,0,73.82,118.21Z"/></g></g><g id="_Group_16" data-name="&lt;Group&gt;"><g id="_Group_17" data-name="&lt;Group&gt;"><g id="_Group_18" data-name="&lt;Group&gt;"><path id="_Path_40" data-name="&lt;Path&gt;" class="cls-29" d="M149.08,97.8s.91,6.24-3.19,9.14c-4.45,3.13-8,4.56-9.12,8.21s-.62,45.25.31,52.8c.53,4.34,47.94,5.13,49.13-.54,1.52-7.19-.16-44.5-.87-51.87-.53-5.44-8.79-8.19-10.27-10-2.34-2.83-1.28-8.43-1.28-8.43Z"/></g><path id="_Path_41" data-name="&lt;Path&gt;" class="cls-8" d="M173.79,97.14l-24.71.66a12.92,12.92,0,0,1-.61,5.66c4.4,1.65,13.63,3.9,25.57.14A15.46,15.46,0,0,1,173.79,97.14Z"/></g><path id="_Path_42" data-name="&lt;Path&gt;" class="cls-30" d="M186.76,160.42c.31-11.54-.55-32.22-1.16-41.46a107.7,107.7,0,0,1-49.24.94c-.37,9.06-.21,28.3.22,39.87C153.12,165,175.2,164.11,186.76,160.42Z"/><path id="_Path_43" data-name="&lt;Path&gt;" class="cls-6" d="M136.22,124.85c0,1.11,0,2.29,0,3.52,20,4.06,42.73-.19,49.85-1.74-.07-1.5-.15-2.9-.22-4.19C165.75,130.1,145.81,126.7,136.22,124.85Z"/><path id="_Path_44" data-name="&lt;Path&gt;" class="cls-31" d="M168.34,106.55c2.63,2.28,6.42,6.09,6.92,9.3.71,4.46,1.63,32.46.92,54.89,5.64-.64,9.69-1.72,10-3.33,1.52-7.19-.16-44.5-.87-51.87-.53-5.44-8.79-8.19-10.27-10-2.34-2.83-1.28-8.43-1.28-8.43l-3.89.1-3.08,1.37S165.81,104.35,168.34,106.55Z"/><path id="_Path_45" data-name="&lt;Path&gt;" class="cls-6" d="M143.71,92.74s-1.39,8.73,16.92,8.87c19.91.15,17.94-9,17.94-9Z"/><path id="_Path_46" data-name="&lt;Path&gt;" class="cls-13" d="M141.88,82.89V93.76s16.58,9.16,38.12.19V83.27Z"/><path id="_Path_47" data-name="&lt;Path&gt;" class="cls-15" d="M144,83.05s.1,7.5.2,11.78a45.51,45.51,0,0,0,18.2,3c.13-5.54.05-10.46.05-10.46Z"/><path id="_Path_48" data-name="&lt;Path&gt;" class="cls-15" d="M141.88,82.89a34.53,34.53,0,0,1,19.25-6.11A31.42,31.42,0,0,1,180,83.27s-5.72,8-20,8A24.13,24.13,0,0,1,141.88,82.89Z"/><path id="_Path_49" data-name="&lt;Path&gt;" class="cls-19" d="M146,86.64a23.68,23.68,0,0,0,14,4.64,28.49,28.49,0,0,0,15.56-4.13l0-.07C160,94.13,148.14,87.94,146,86.64Z"/></g><g id="_Group_19" data-name="&lt;Group&gt;"><g id="_Group_20" data-name="&lt;Group&gt;"><path id="_Path_50" data-name="&lt;Path&gt;" class="cls-32" d="M.68,176.19c-2.19-11.3,12.72-26.2,26-26.73,8.93-.35,17.32,4.47,19.93,13.58,3.05,10.64-3.13,19.75-11.9,23.48C22.24,191.83,2.52,185.68.68,176.19Z"/><path id="_Path_51" data-name="&lt;Path&gt;" class="cls-33" d="M45.47,169.59a41.75,41.75,0,0,1-29.11,10.53A38.84,38.84,0,0,1,.65,176l0,.21c1.84,9.49,21.56,15.64,34.07,10.33,7.47-3.18,13.07-10.27,12.67-18.88C46.78,168.32,46.13,169,45.47,169.59Z"/><path id="_Path_52" data-name="&lt;Path&gt;" class="cls-33" d="M34.75,186.52c8.77-3.73,15-12.84,11.9-23.48a18.63,18.63,0,0,0-1.75-4.16,34.2,34.2,0,0,0-14.59,9.34,34.55,34.55,0,0,0-8.8,20.15A28.61,28.61,0,0,0,34.75,186.52Z"/><path id="_Path_53" data-name="&lt;Path&gt;" class="cls-34" d="M27.18,197.89c7.8,8.45,28.62,5.22,36.93-5.22,5.56-7,6.63-16.63.84-24.13-6.77-8.75-17.76-9.14-25.95-4.26C27.33,171.23,20.63,190.8,27.18,197.89Z"/><path id="_Path_54" data-name="&lt;Path&gt;" class="cls-35" d="M65,168.54a19.21,19.21,0,0,0-6.35-5.36c6.64,8.39,2.2,29.85-9.58,38.47,6-1.52,11.62-4.62,15.09-9C69.67,185.67,70.74,176,65,168.54Z"/></g></g><g id="_Group_21" data-name="&lt;Group&gt;"><g id="_Group_22" data-name="&lt;Group&gt;"><g id="_Group_23" data-name="&lt;Group&gt;"><path id="_Path_55" data-name="&lt;Path&gt;" class="cls-36" d="M172.83,168.6s-9.55,4.57-.22,11.06l-6,7.3L159,173.84l9.1-9.34Z"/><g id="_Group_24" data-name="&lt;Group&gt;"><path id="_Path_56" data-name="&lt;Path&gt;" class="cls-37" d="M171.31,168.41a6,6,0,0,1,1.52.19l.14-7-40.66-24a5.19,5.19,0,0,1-3.88,1.56c-4.22,0-6-3.8-5.29-7l-18.68-11L80.81,161.64l1.38,39,58.58-.62c-.52-2.86,1.09-6.18,4.84-6.18s5.33,3.25,4.86,6.08l21.74-.23.4-20a5.89,5.89,0,0,1-1.3.14C164,179.8,164,168.41,171.31,168.41Z"/><path id="_Path_57" data-name="&lt;Path&gt;" class="cls-38" d="M85.66,168c-2,2.12-.1,28.59,1.48,28s1.19-13.24,8.83-14.23c8.69-1.12,10.08,8.8,11.35,9.74s20.68.82,22.33-.21c1-.61.84-3.61,1-4.56a28.6,28.6,0,0,1,1.94-8c2.87-6.35,13.08-9.82,17.3-2.69,1.55,2.61,1.8,5.79,1.63,8.82a8.21,8.21,0,0,0,.17,3c.77,2.37,3.71,3.3,6.19,3.06a6.26,6.26,0,0,0,3.2-1.12c1.92-1.48,2.2-4.24,2.14-6.66A48.66,48.66,0,0,0,162,173.7a7.37,7.37,0,0,0-2.05-4.18c-2.22-1.83-5.4-.54-8-.78s-5.24-.57-7.92-.62c-2.19,0-11.24-1.05-12.47,1.53-1.14,2.39-1.29,9.13-8.29,9.19-8.18.07-7.26-10.19-8.53-10.82S87.09,166.49,85.66,168Z"/><path id="_Path_58" data-name="&lt;Path&gt;" class="cls-39" d="M140.94,177.23a4.87,4.87,0,1,0,0,9.73,5.29,5.29,0,0,0,5-6.13A5.07,5.07,0,0,0,140.94,177.23Z"/><path id="_Path_59" data-name="&lt;Path&gt;" class="cls-39" d="M97.22,184.58a4.64,4.64,0,1,0,4.67,4.53A4.67,4.67,0,0,0,97.22,184.58Z"/><path id="_Path_60" data-name="&lt;Path&gt;" class="cls-39" d="M122.74,167.54a3.75,3.75,0,1,0,.16,7.49c2.25.07,4.48-1.82,4.3-4.05A4.13,4.13,0,0,0,122.74,167.54Z"/></g><path id="_Path_61" data-name="&lt;Path&gt;" class="cls-40" d="M132.48,137.69a5.14,5.14,0,0,1-5.2,3.95c-5.39,0-6.77-6.22-4.15-9.42,0,0,0,0,0-.06l-18.68-11L80.81,161.64H173Z"/><path id="_Path_62" data-name="&lt;Path&gt;" class="cls-37" d="M110.6,145.37c.13,2.15-2,3.95-4.72,4s-5.07-1.61-5.21-3.76,2-3.95,4.72-4S110.46,143.22,110.6,145.37Z"/></g></g><path id="_Path_63" data-name="&lt;Path&gt;" class="cls-37" d="M128.82,151.12a1.44,1.44,0,0,0-.61,2.07c1.36,2.42,5.17,2.17,7.39,1.42a2,2,0,0,0,.86-.5c2.36-2.73-3.44-3.84-5.11-3.77A5.6,5.6,0,0,0,128.82,151.12Z"/></g></g></g></g></svg>