<svg xmlns="http://www.w3.org/2000/svg" xmlns:xlink="http://www.w3.org/1999/xlink" viewBox="0 0 199.29 228.84"><defs><style>.cls-1{fill:url(#linear-gradient);}.cls-2{fill:#f4a81f;}.cls-3{fill:#ffe374;}.cls-4{fill:url(#linear-gradient-2);}.cls-5{fill:#ee8b11;}.cls-6{fill:#8e5012;}.cls-7{fill:#58a037;}.cls-8{fill:#adcc7a;}.cls-9{fill:#f1d7d2;}.cls-10{fill:url(#linear-gradient-3);}.cls-11{fill:#5a2c27;}.cls-12{fill:#914028;}.cls-13{fill:#ffbfb0;}.cls-14{fill:url(#linear-gradient-4);}.cls-15{fill:#3c702c;}.cls-16{fill:url(#linear-gradient-5);}.cls-17{fill:#3a6c26;}.cls-18{fill:url(#linear-gradient-6);}.cls-19{fill:url(#linear-gradient-7);}.cls-20{fill:#c2700f;}.cls-21{fill:url(#linear-gradient-8);}.cls-22{fill:#c3720f;}.cls-23{fill:url(#linear-gradient-9);}.cls-24{fill:#c3700f;}.cls-25{fill:url(#linear-gradient-10);}.cls-26{fill:#ffd668;}.cls-27{fill:#815f4e;}.cls-28{fill:url(#radial-gradient);}.cls-29{fill:#b8b714;}.cls-30{fill:#e1e56e;}.cls-30,.cls-74{opacity:0.5;}.cls-31{opacity:0.1;}.cls-32{fill:#968022;}.cls-33{fill:#905814;}.cls-34{fill:#cda548;}.cls-35{fill:#528431;}.cls-36{fill:#4c682b;}.cls-37{fill:#a39c27;}.cls-38{fill:#b8b027;}.cls-39{fill:#c9ca3f;}.cls-40{fill:#f1ee9d;}.cls-41{fill:#89b352;}.cls-42{fill:url(#linear-gradient-11);}.cls-43{fill:url(#linear-gradient-12);}.cls-44{fill:#fb951b;}.cls-45{opacity:0.8;fill:url(#linear-gradient-13);}.cls-46{fill:url(#linear-gradient-14);}.cls-47{fill:url(#linear-gradient-15);}.cls-48{fill:#84a54d;}.cls-49{fill:#f58500;}.cls-50{fill:#e15700;}.cls-51{fill:url(#linear-gradient-16);}.cls-52{fill:url(#radial-gradient-2);}.cls-53{fill:#ffce66;}.cls-54{fill:#ffb400;}.cls-55{fill:#fda400;}.cls-56{fill:#77b33e;}.cls-57{fill:#629738;}.cls-58{fill:url(#linear-gradient-17);}.cls-59{fill:url(#linear-gradient-18);}.cls-60{fill:url(#linear-gradient-19);}.cls-61{fill:url(#linear-gradient-20);}.cls-62{fill:#fba46b;}.cls-63{fill:#eb561e;}.cls-64{fill:url(#linear-gradient-21);}.cls-65{fill:#ea652a;}.cls-66{fill:url(#linear-gradient-22);}.cls-67{fill:url(#radial-gradient-3);}.cls-68{fill:#594d69;}.cls-69{fill:#937ead;}.cls-70{fill:#78678d;}.cls-71{fill:#554964;}.cls-72{fill:#665d7f;}.cls-73{fill:#8ec726;}.cls-75{fill:#fa4247;}.cls-76{fill:#fd636b;}.cls-77{fill:#d62b27;}.cls-78{fill:#fe95a1;}.cls-79{fill:#ffbccc;}.cls-80{fill:#ac1816;}</style><linearGradient id="linear-gradient" x1="-895.43" y1="332.8" x2="-832.15" y2="276.96" gradientTransform="matrix(-0.87, 0.49, 0.49, 0.87, -854.68, 219.62)" gradientUnits="userSpaceOnUse"><stop offset="0" stop-color="#fdbf24"/><stop offset="0.81" stop-color="#f4a81f"/><stop offset="0.99" stop-color="#d5961f"/></linearGradient><linearGradient id="linear-gradient-2" x1="-901.52" y1="269.22" x2="-853.04" y2="321.47" gradientTransform="matrix(-0.87, 0.49, 0.49, 0.87, -854.68, 219.62)" gradientUnits="userSpaceOnUse"><stop offset="0.02" stop-color="#d18d14"/><stop offset="0.35" stop-color="#fdbf24"/><stop offset="1" stop-color="#ffce4e"/></linearGradient><linearGradient id="linear-gradient-3" x1="-227.13" y1="-229.64" x2="-227.13" y2="-136.01" gradientTransform="matrix(0.98, -0.17, 0.17, 0.98, 320.83, 238.07)" gradientUnits="userSpaceOnUse"><stop offset="0.09" stop-color="#eb7c75"/><stop offset="0.77" stop-color="#ea2c28"/><stop offset="1" stop-color="#ea2c28"/></linearGradient><linearGradient id="linear-gradient-4" x1="51.67" y1="12.21" x2="54.1" y2="48.64" gradientTransform="translate(96.62 -10.32) rotate(2.83)" gradientUnits="userSpaceOnUse"><stop offset="0" stop-color="#6fa346"/><stop offset="1" stop-color="#4c833a"/></linearGradient><linearGradient id="linear-gradient-5" x1="52.81" y1="28.59" x2="53.39" y2="72.36" xlink:href="#linear-gradient-4"/><linearGradient id="linear-gradient-6" x1="37.79" y1="54.82" x2="76.93" y2="88.53" xlink:href="#linear-gradient-4"/><linearGradient id="linear-gradient-7" x1="53.34" y1="68.88" x2="54.67" y2="106.72" gradientTransform="translate(96.62 -10.32) rotate(2.83)" gradientUnits="userSpaceOnUse"><stop offset="0" stop-color="#ffc400"/><stop offset="1" stop-color="#c0550d"/></linearGradient><linearGradient id="linear-gradient-8" x1="53.14" y1="85.65" x2="54.37" y2="135.45" xlink:href="#linear-gradient-7"/><linearGradient id="linear-gradient-9" x1="53.14" y1="107.45" x2="54.73" y2="156.76" xlink:href="#linear-gradient-7"/><linearGradient id="linear-gradient-10" x1="53.24" y1="125.29" x2="53.24" y2="175.37" xlink:href="#linear-gradient-7"/><radialGradient id="radial-gradient" cx="-354.98" cy="49.27" r="85.59" gradientTransform="translate(399.44 104.97) scale(0.68 0.69)" gradientUnits="userSpaceOnUse"><stop offset="0.01" stop-color="#d9df43"/><stop offset="1" stop-color="#b8bd00"/></radialGradient><linearGradient id="linear-gradient-11" x1="80.27" y1="132.37" x2="102.95" y2="175.51" gradientUnits="userSpaceOnUse"><stop offset="0" stop-color="#ffb417"/><stop offset="0.23" stop-color="#ffae15"/><stop offset="0.53" stop-color="#ff9f0f"/><stop offset="0.86" stop-color="#ff8504"/><stop offset="0.98" stop-color="#ff7a00"/></linearGradient><linearGradient id="linear-gradient-12" x1="74.93" y1="110.39" x2="92.58" y2="180.76" gradientUnits="userSpaceOnUse"><stop offset="0" stop-color="#ffba26"/><stop offset="0.32" stop-color="#ffb526"/><stop offset="0.72" stop-color="#ffa526"/><stop offset="0.98" stop-color="#ff9726"/><stop offset="1" stop-color="#ff9726"/></linearGradient><linearGradient id="linear-gradient-13" x1="57.47" y1="105.59" x2="147.4" y2="190.54" gradientTransform="translate(-23.84)" gradientUnits="userSpaceOnUse"><stop offset="0" stop-color="#fb9600"/><stop offset="0.28" stop-color="#fb9100"/><stop offset="0.61" stop-color="#fb8200"/><stop offset="0.98" stop-color="#fb6a00"/><stop offset="1" stop-color="#fb6a00"/></linearGradient><linearGradient id="linear-gradient-14" x1="102.06" y1="121.48" x2="107.54" y2="134.05" gradientTransform="translate(-23.84)" gradientUnits="userSpaceOnUse"><stop offset="0" stop-color="#6d8a3f"/><stop offset="0.23" stop-color="#73873c"/><stop offset="0.52" stop-color="#827f35"/><stop offset="0.85" stop-color="#9c7128"/><stop offset="0.98" stop-color="#a86b22"/></linearGradient><linearGradient id="linear-gradient-15" x1="102.18" y1="117.03" x2="107.02" y2="132.4" gradientTransform="translate(-23.84)" gradientUnits="userSpaceOnUse"><stop offset="0" stop-color="#62722e"/><stop offset="0.25" stop-color="#676f2c"/><stop offset="0.55" stop-color="#766826"/><stop offset="0.88" stop-color="#8e5c1c"/><stop offset="0.98" stop-color="#975819"/><stop offset="1" stop-color="#975819"/></linearGradient><linearGradient id="linear-gradient-16" x1="119.55" y1="163.45" x2="172.43" y2="217.85" gradientTransform="translate(-23.84)" gradientUnits="userSpaceOnUse"><stop offset="0" stop-color="#ffb000"/><stop offset="0.36" stop-color="#fa0"/><stop offset="0.81" stop-color="#ff9b00"/><stop offset="0.98" stop-color="#ff9300"/></linearGradient><radialGradient id="radial-gradient-2" cx="-394.46" cy="-923.56" r="58.83" gradientTransform="translate(399.44 897.66) scale(0.68 0.77)" gradientUnits="userSpaceOnUse"><stop offset="0" stop-color="#ffebc0"/><stop offset="0.28" stop-color="#ffebc0"/><stop offset="0.44" stop-color="#ffeabd"/><stop offset="0.56" stop-color="#ffe8b2"/><stop offset="0.68" stop-color="#ffe4a1"/><stop offset="0.8" stop-color="#ffdf89"/><stop offset="0.91" stop-color="#ffd869"/><stop offset="0.98" stop-color="#ffd251"/><stop offset="1" stop-color="#ffd251"/></radialGradient><linearGradient id="linear-gradient-17" x1="349.24" y1="566.3" x2="368.18" y2="608.08" gradientTransform="matrix(0.82, 0.58, -0.58, 0.82, 91.36, -493.06)" gradientUnits="userSpaceOnUse"><stop offset="0" stop-color="#e1171b"/><stop offset="1" stop-color="#b82423"/></linearGradient><linearGradient id="linear-gradient-18" x1="-486.62" y1="256.41" x2="-475.78" y2="302.68" gradientTransform="translate(577.58 30.88) rotate(13.59)" gradientUnits="userSpaceOnUse"><stop offset="0" stop-color="#c60f11"/><stop offset="1" stop-color="#a21716"/></linearGradient><linearGradient id="linear-gradient-19" x1="-487.58" y1="263.01" x2="-471.2" y2="302.28" gradientTransform="translate(577.58 30.88) rotate(13.59)" gradientUnits="userSpaceOnUse"><stop offset="0" stop-color="#f02329"/><stop offset="1" stop-color="#dc3635"/></linearGradient><linearGradient id="linear-gradient-20" x1="-470.21" y1="299.66" x2="-485.87" y2="263.28" gradientTransform="translate(577.58 30.88) rotate(13.59)" gradientUnits="userSpaceOnUse"><stop offset="0" stop-color="#fc3f42"/><stop offset="1" stop-color="#f86155"/></linearGradient><linearGradient id="linear-gradient-21" x1="-489.8" y1="274.23" x2="-486.93" y2="274.23" gradientTransform="translate(577.58 30.88) rotate(13.59)" gradientUnits="userSpaceOnUse"><stop offset="0" stop-color="#fea056"/><stop offset="1" stop-color="#fdaa5b"/></linearGradient><linearGradient id="linear-gradient-22" x1="-479.3" y1="274.34" x2="-476.69" y2="274.34" xlink:href="#linear-gradient-21"/><radialGradient id="radial-gradient-3" cx="-117.41" cy="-180.26" r="17.8" gradientTransform="matrix(1.02, 0.06, -0.06, 1.05, 172.73, 405.03)" gradientUnits="userSpaceOnUse"><stop offset="0" stop-color="#473d53"/><stop offset="1" stop-color="#383244"/></radialGradient></defs><title>composition_1</title><g id="Layer_2" data-name="Layer 2"><g id="Layer_3" data-name="Layer 3"><g id="_Group_" data-name="&lt;Group&gt;"><g id="_Group_2" data-name="&lt;Group&gt;"><path id="_Path_" data-name="&lt;Path&gt;" class="cls-1" d="M75.44,18.65S94.58,58.09,64.87,74.92c-26.79,15.17-35.28-.39-52-1.93L9,77.22s2.91,18.62,23.66,30.12c12.7,7,31.29,6.37,48.13-3.17,11-6.22,21.55-17.25,25-30.5C114.55,40.27,89.25,30,89.25,30L85.7,15.4Z"/><path id="_Path_2" data-name="&lt;Path&gt;" class="cls-2" d="M77.17,98.72c13.89-8.14,28.06-23.27,29.28-47.91,1.58,6,1.79,13.53-.65,22.86-3.47,13.25-14,24.28-25,30.5-16.84,9.54-35.43,10.21-48.13,3.17A50.84,50.84,0,0,1,19,96.49C43.09,109.77,61.91,107.66,77.17,98.72Z"/><path id="_Path_3" data-name="&lt;Path&gt;" class="cls-3" d="M81.91,26S99.73,57.68,79.43,78.5A41.47,41.47,0,0,1,37.8,89.93S95.18,83.68,81.91,26Z"/><path id="_Path_4" data-name="&lt;Path&gt;" class="cls-4" d="M12.84,73c16.75,1.54,25.24,17.1,52,1.93C94.58,58.09,75.44,18.65,75.44,18.65l5-1.59c2.38,6.25,19.71,48.52-9.88,66.46-26,15.74-47.2,2.79-59.53-8.44Z"/><g id="_Group_3" data-name="&lt;Group&gt;"><path id="_Path_5" data-name="&lt;Path&gt;" class="cls-5" d="M31.51,105.33c12.71,7,31.3,6.37,48.13-3.17,11-6.22,21.55-17.25,25-30.5s1.6-22.77-1.91-29.54c4.21,6.83,6.86,17,3,31.55-3.47,13.25-14,24.28-25,30.5-16.84,9.54-35.43,10.21-48.13,3.17A48.77,48.77,0,0,1,12.82,87.55,49.14,49.14,0,0,0,31.51,105.33Z"/></g><path id="_Path_6" data-name="&lt;Path&gt;" class="cls-6" d="M12.84,73a3.3,3.3,0,0,0-3.12.92A2.93,2.93,0,0,0,9,77.22S12.27,75.23,12.84,73Z"/></g><g id="_Group_4" data-name="&lt;Group&gt;"><g id="_Group_5" data-name="&lt;Group&gt;"><g id="_Group_6" data-name="&lt;Group&gt;"><path id="_Path_7" data-name="&lt;Path&gt;" class="cls-7" d="M0,99.22c2.37,24.12,20.88,72.55,75.62,62.86,54-9.54,49.89-73.92,46.58-82.32C110.76,80.25,14.61,95.67,0,99.22Z"/><path id="_Path_8" data-name="&lt;Path&gt;" class="cls-8" d="M120,79.93C103.8,81.5,32.55,92.85,7.17,97.73c-.6,4.15,14.74,68.12,68.77,58.54C127,147.22,122.75,84.92,120,79.93Z"/><path id="_Path_9" data-name="&lt;Path&gt;" class="cls-9" d="M117.85,80.16C98.87,82.31,35.44,92.42,9.43,97.3c.57,7.28,17.72,65.09,65.25,56.07C121.8,144.43,120.35,86.29,117.85,80.16Z"/><path id="_Path_10" data-name="&lt;Path&gt;" class="cls-10" d="M14,96.06c-1.4.58,13.37,61.28,59.86,52.46,45.23-8.58,41.65-66.59,39.25-68.07C109.55,78.22,21.73,92.84,14,96.06Z"/><path id="_Path_11" data-name="&lt;Path&gt;" class="cls-11" d="M41.89,105.78c-2-.15-5.92,10.93-.09,10.94C47.22,116.73,44.24,106,41.89,105.78Z"/><path id="_Path_12" data-name="&lt;Path&gt;" class="cls-11" d="M69.75,105.34c-1.91.73-3.13,11.09,2.15,10C77.69,114,72,104.48,69.75,105.34Z"/><path id="_Path_13" data-name="&lt;Path&gt;" class="cls-12" d="M93.59,93.38c-2.16.91-1.82,11.77,3.36,9.43C101.73,100.65,95.27,92.66,93.59,93.38Z"/><path id="_Path_14" data-name="&lt;Path&gt;" class="cls-11" d="M58,123.84c-1.93.35-4.63,11.64,1.06,11C65.79,134.13,60.61,123.38,58,123.84Z"/><path id="_Path_15" data-name="&lt;Path&gt;" class="cls-11" d="M85.36,119.06c-1.13.46-1.74,10.81,3.2,9.15C93.34,126.6,87.72,118.09,85.36,119.06Z"/><path id="_Path_16" data-name="&lt;Path&gt;" class="cls-13" d="M23,97.47c-.25-2.18,24.4-6.4,25.3-5.38C50.16,94.18,23.31,99.8,23,97.47Z"/><path id="_Path_17" data-name="&lt;Path&gt;" class="cls-13" d="M52.59,91.79c-.57-1.82,9-3.53,9.32-1.66S53.25,93.9,52.59,91.79Z"/></g></g></g><g id="_Group_7" data-name="&lt;Group&gt;"><g id="_Group_8" data-name="&lt;Group&gt;"><path id="_Path_18" data-name="&lt;Path&gt;" class="cls-14" d="M126.94,43.42c-.51-2.48-9-26.93-4.69-32.39s19.8,22.63,19.8,22.63S143,2.35,149.15.13,155.82,24,155.82,24s10-11.44,16.44-9.47c8.09,2.5-6.48,37.82-6.48,37.82S134,77.83,126.94,43.42Z"/><path id="_Path_19" data-name="&lt;Path&gt;" class="cls-15" d="M133.39,57.25s9-3.82,3.93-11.31c-2.58-3.81-11.09-12.06-13.65-14,1.48,5.66,3.06,10.46,3.27,11.49a31.8,31.8,0,0,0,4.13,10.94c1.37,1.79,2.32,2.89,2.32,2.89Z"/><path id="_Path_20" data-name="&lt;Path&gt;" class="cls-16" d="M135.09,69.68S107.74,36.16,110.8,28.74,136.67,50,136.67,50s1.14-32.55,6.67-34.12c7-2,8,29.66,8,29.66s6.95-21.43,13-20.5.42,18.94.42,18.94S180.82,31.57,184,35.51s-11.43,26.57-24.2,39.18S135.09,69.68,135.09,69.68Z"/><path id="_Path_21" data-name="&lt;Path&gt;" class="cls-17" d="M168.66,46.31c-6.78-2.85-18.47,10.06-18.47,10.06-3-10.65-9.14-16.3-12.57-16.47-.2,2-.42,1.16-.54,2.89l3.83,32.92c4.68,3.57,11.65,6.14,18.89-1a127.34,127.34,0,0,0,12.1-14.13C172.26,55.76,172.87,48.09,168.66,46.31Z"/><path id="_Path_22" data-name="&lt;Path&gt;" class="cls-18" d="M112.14,55.15c3.61-4.87,18.53,6.58,18.53,6.58s-1.13-19.42,4.47-21.91c6.73-3,13.5,22.13,13.5,22.13s10.6-14,16.5-13.49c6.68.59-3,19.41-3,19.41s22.58-6.45,25.06-1.91-21,18.08-40.49,16.53C130.07,81.17,108.52,60,112.14,55.15Z"/><path id="_Path_23" data-name="&lt;Path&gt;" class="cls-19" d="M111.46,80.76s9.44-17.46,18.21-17.59c5-.08,7.54,5.89,7.54,5.89s4.52-7.35,10.31-8.13c7.76-1,10.59,9.48,10.59,9.48s2.44-4.09,6.69-5.18,17.11,11.37,17.48,26.64C182.54,102.9,97.51,114.15,111.46,80.76Z"/><path id="_Path_24" data-name="&lt;Path&gt;" class="cls-20" d="M182.28,91.87a31.86,31.86,0,0,0-3.38-13.2c-4.53,3.13-6.86,8.85-6.86,8.85s-5.26-13.86-12.24-12.83-12.08,9.93-12.08,9.93S143.5,73.86,135,74s-14,12.41-14,12.41a13.15,13.15,0,0,0-6.28-10.8c-2,2.92-3.23,5.2-3.23,5.2C97.51,114.15,182.54,102.9,182.28,91.87Z"/><path id="_Path_25" data-name="&lt;Path&gt;" class="cls-21" d="M101,99s5.54-21.07,12.27-21.38c6-.28,6.44,16.87,6.44,16.87s6.48-18,14-18.79c9.73-1,13.11,18.51,13.11,18.51s5-16.76,12.58-16.9C169,77.12,170.55,96,170.55,96s5.5-15,9.73-15.75c4.65-.84,10.29,17,9.38,27-2,22-27.48,35-45.32,32.55S93,125.21,101,99Z"/><path id="_Path_26" data-name="&lt;Path&gt;" class="cls-22" d="M144.34,139.83c17.84,2.45,43.31-10.52,45.32-32.55a40,40,0,0,0-.86-11c-2.76,3.58-4,10.85-4,10.85s-6.19-8.8-12.56-8.53c-5.31.22-9.94,10.17-9.94,10.17s-5-12.34-14.53-12-14.49,11.39-14.49,11.39-5.9-11.17-13-10.85S108.94,107,108.94,107c-2.06-6.83-5-10.06-6.88-11.49-.66,2.06-1,3.46-1,3.46C93,125.21,126.5,137.37,144.34,139.83Z"/><path id="_Path_27" data-name="&lt;Path&gt;" class="cls-23" d="M98.68,129.16c-1.85-9.33-1.73-26.69.15-30.82,1.33-2.92,8.35,3.26,7.76,20.76,0,0,4.07-19.64,13.76-20,8-.34,11,20,11,20s6-20.15,16.9-19.61c9.66.48,12.19,19.42,12.19,19.42s4.74-17.21,12.89-17.53c7.28-.29,11.8,15.83,11.8,15.83s2.28-18.05,4.54-18.27c3-.28,1.08,31.36-4.29,41.32-3.92,7.27-8.39,17.11-14.75,17.67S105.6,164.06,98.68,129.16Z"/><path id="_Path_28" data-name="&lt;Path&gt;" class="cls-24" d="M174.25,136.81s-7.07-16.2-15.78-15.15-13.78,13.74-13.78,13.74-5.95-13.3-13.59-13.34c-9.2,0-16.72,15.22-16.72,15.22-1.93-9-12.28-15.32-16.82-17.69a72.75,72.75,0,0,0,1.12,9.57c6.92,34.9,65.62,29.29,72,28.74s10.83-10.4,14.75-17.67c2.09-3.88,3.65-11,4.61-18.31C180.12,124.65,174.25,136.81,174.25,136.81Z"/><path id="_Path_29" data-name="&lt;Path&gt;" class="cls-25" d="M172.59,148.69s-4.83-24.21-14.33-24.27S143,148,143,148s-4.65-24-13.11-23.57-15.68,21.22-15.68,21.22c-1.57-10.44-12-23-19-24.15.26,9.87,5.67,26,10,31.37,11.27,14,56.24,17.58,71.53,5.17,4.69-3.8,13.85-18,14.67-34.72C179.89,125.89,172.59,148.69,172.59,148.69Z"/></g><path id="_Path_30" data-name="&lt;Path&gt;" class="cls-26" d="M134.18,81.89c-1.38-.07-3.19,16.23-1,16.34C134.57,98.3,136.55,82,134.18,81.89Z"/><path id="_Path_31" data-name="&lt;Path&gt;" class="cls-26" d="M118.94,106.66c-2.35-.3-3.3,14.85-1.11,15S121.3,107,118.94,106.66Z"/><path id="_Path_32" data-name="&lt;Path&gt;" class="cls-26" d="M129,133.11c-1.32.08-3.31,14.85-1.11,15S130.58,133,129,133.11Z"/><path id="_Path_33" data-name="&lt;Path&gt;" class="cls-26" d="M146.63,106.13c-1.62.23-2.8,16.77-.61,16.88S149,105.79,146.63,106.13Z"/><path id="_Path_34" data-name="&lt;Path&gt;" class="cls-26" d="M173.7,108.12c-1.91.19-1.11,14.95,1.09,15.06S176.07,107.88,173.7,108.12Z"/><path id="_Path_35" data-name="&lt;Path&gt;" class="cls-26" d="M159.64,83.15c-2.35-.3-1.11,15,1.09,15.07S162,83.45,159.64,83.15Z"/><path id="_Path_36" data-name="&lt;Path&gt;" class="cls-26" d="M148.4,66c-2.37,0-3,12.28-.79,12.39S150,66,148.4,66Z"/><path id="_Path_37" data-name="&lt;Path&gt;" class="cls-26" d="M158.07,133.13c-2,.37-1.71,15.59.49,15.7S160.05,132.76,158.07,133.13Z"/></g><g id="_Group_9" data-name="&lt;Group&gt;"><g id="_Group_10" data-name="&lt;Group&gt;"><path id="_Path_38" data-name="&lt;Path&gt;" class="cls-27" d="M154.56,185.89s-7.19,9.72-4.89,9.72,4.7-3.22,4.7-3.22.29,6.11,1.63,5.7c1.64-.49,2-5.22,2-5.22s2.35,5.07,3.5,2.74S158.46,181.47,154.56,185.89Z"/><path id="_Path_39" data-name="&lt;Path&gt;" class="cls-28" d="M182.42,134.33c.13,2.4.28,4.79.61,7.08,1.4,9.62,8.41,16.94,10.51,26.33,3.14,14-3.68,25.35-19.87,26.14a19.58,19.58,0,0,1-10.2-2.11c-2.82-1.48-5.83-3.68-9.17-2.52-8.67,3-19,4.22-25.35-4.05-7-9.12-3.32-20.68,2.31-29.22,5.43-8.24,10.29-16.54,13.34-26.08,1.36-4.25,2.29-11,6.12-13.84a8.91,8.91,0,0,1,10.13-.15s14.38-7.2,18.78,2.39C181.86,123.17,182.1,128.8,182.42,134.33Z"/><g id="_Group_11" data-name="&lt;Group&gt;"><path id="_Path_40" data-name="&lt;Path&gt;" class="cls-29" d="M192.74,164.94A57.43,57.43,0,0,1,155,179.74a54.93,54.93,0,0,1-29.71-8.91A18.94,18.94,0,0,0,129,185.2c6.34,8.27,16.68,7.05,25.35,4.05,3.34-1.16,6.35,1,9.17,2.52a19.58,19.58,0,0,0,10.2,2.11c16.19-.79,23-12.11,19.87-26.14A25.74,25.74,0,0,0,192.74,164.94Z"/></g><path id="_Path_41" data-name="&lt;Path&gt;" class="cls-30" d="M163.37,183.07a19.55,19.55,0,0,0,18.07-10.2c7.08-13.73-4.43-35.83-15.3-36.72-11.65-1-25.8,22.21-19.45,36.27C149.72,179.14,157,182.78,163.37,183.07Z"/><g id="_Group_12" data-name="&lt;Group&gt;" class="cls-31"><path id="_Path_42" data-name="&lt;Path&gt;" class="cls-32" d="M193.54,167.74c-2.1-9.39-9.11-16.71-10.51-26.33-.33-2.29-.48-4.68-.61-7.08-.32-5.53-.56-11.16-2.79-16-4.4-9.59-18.78-2.39-18.78-2.39a11.55,11.55,0,0,0-1.25-.66c1.33,1,2.62,2.13,3.87,3.28,9.53,8.76,13.65,21.79,14.22,34.35.54,12.1-5.8,25.93-14.22,34.35a40.41,40.41,0,0,1-3.14,2.84c1.08.54,2.12,1.16,3.14,1.7a19.58,19.58,0,0,0,10.2,2.11C189.86,193.09,196.68,181.77,193.54,167.74Z"/></g><g id="_Group_13" data-name="&lt;Group&gt;"><path id="_Path_43" data-name="&lt;Path&gt;" class="cls-33" d="M158.34,118.89s1.37-10.54-2-15.75,6.19-6.29,7.39-3.35c1.48,3.63.34,18.58-.66,19.78S159.14,120.09,158.34,118.89Z"/><path id="_Path_44" data-name="&lt;Path&gt;" class="cls-34" d="M156.82,101.52c-1-2.22,4.87-3,5.78-1.63S157.63,103.25,156.82,101.52Z"/></g><path id="_Path_45" data-name="&lt;Path&gt;" class="cls-35" d="M165.71,119.47c2.39,6.8,8.74,11.82,14.84,15,5.41,2.79,18.66,6.62,18.66,6.62A48.45,48.45,0,0,0,198,127.26a17.13,17.13,0,0,0-7.85-10.52c-4.72-3-9.8-2.56-15.16-1.55-3.62.68-6.81,1.58-9.41,4.28Z"/><path id="_Path_46" data-name="&lt;Path&gt;" class="cls-36" d="M198,127.26a17.13,17.13,0,0,0-7.85-10.52c-4.72-3-9.8-2.56-15.16-1.55-3.22.61-6.1,1.39-8.53,3.45,4.67,1.11,22.48,6.26,32.71,22.41A48.45,48.45,0,0,0,198,127.26Z"/><path id="_Path_47" data-name="&lt;Path&gt;" class="cls-37" d="M132.79,177.93a1.46,1.46,0,0,0-.42,2.88A1.46,1.46,0,0,0,132.79,177.93Z"/><path id="_Path_48" data-name="&lt;Path&gt;" class="cls-37" d="M138.28,181.37a1.82,1.82,0,0,0-.52,3.6A1.82,1.82,0,0,0,138.28,181.37Z"/><path id="_Path_49" data-name="&lt;Path&gt;" class="cls-38" d="M178.19,172.4a1.25,1.25,0,0,0,.67-2.4A1.25,1.25,0,0,0,178.19,172.4Z"/><path id="_Path_50" data-name="&lt;Path&gt;" class="cls-39" d="M181.39,187.08a1.25,1.25,0,0,0-1-2.27A1.25,1.25,0,0,0,181.39,187.08Z"/><path id="_Path_51" data-name="&lt;Path&gt;" class="cls-39" d="M185.77,183.16a1.71,1.71,0,0,0-1.42-3.11A1.71,1.71,0,0,0,185.77,183.16Z"/><path id="_Path_52" data-name="&lt;Path&gt;" class="cls-39" d="M180.46,181.83a1.16,1.16,0,0,0-1-2.1A1.16,1.16,0,0,0,180.46,181.83Z"/><path id="_Path_53" data-name="&lt;Path&gt;" class="cls-38" d="M182.09,167.75a1.56,1.56,0,0,0,.84-3A1.56,1.56,0,0,0,182.09,167.75Z"/><path id="_Path_54" data-name="&lt;Path&gt;" class="cls-38" d="M149.85,130.61a1.25,1.25,0,0,0,.06-2.5A1.25,1.25,0,0,0,149.85,130.61Z"/><path id="_Path_55" data-name="&lt;Path&gt;" class="cls-38" d="M153.26,126.54a1.56,1.56,0,0,0,.08-3.12A1.56,1.56,0,0,0,153.26,126.54Z"/><path id="_Path_56" data-name="&lt;Path&gt;" class="cls-40" d="M149.07,136c-3.11-1.54-9.08,11.82-6.27,12.73S150.84,136.88,149.07,136Z"/></g><path id="_Path_57" data-name="&lt;Path&gt;" class="cls-41" d="M167,118.33a14.34,14.34,0,0,0-1.52,1.14,60.46,60.46,0,0,1,32.28,19C188.94,124.55,172.22,119.57,167,118.33Z"/></g><g id="_Group_14" data-name="&lt;Group&gt;"><g id="_Group_15" data-name="&lt;Group&gt;"><path id="_Path_58" data-name="&lt;Path&gt;" class="cls-42" d="M95.2,126.45c-21,1-39.19,19.34-38.88,41.17.33,22.89,20.89,40.65,43,40,23.28-.63,43.13-21.46,40.75-44.92C137.83,140.76,119.13,125.32,95.2,126.45Z"/><path id="_Path_59" data-name="&lt;Path&gt;" class="cls-43" d="M61,167.75c.71,11.76,8.41,22.3,17.7,22.91,34.2,2.24,42.22-44.26,27.64-57.18C93.06,121.72,59.13,136.86,61,167.75Z"/><path id="_Path_60" data-name="&lt;Path&gt;" class="cls-44" d="M80.17,135.72s.45,16.06,2.22,14.29.59-10.55,2.27-11.3,6.35,10.11,7.85,9.36-3.93-10.1-3.37-11.6,7.85,2.24,8.79.56-6.73-3-6.73-4.3,8.41-.75,9.16-1.69-6.91-4.43-17.38-.19c-8.79,3.56-14.21,11.05-13.84,13.1S76.81,136.47,80.17,135.72Z"/><path id="_Path_61" data-name="&lt;Path&gt;" class="cls-45" d="M140.06,162.75c-1.66-16.41-12.51-29.17-27.85-34.12,11.22,6.15,17.85,29,8.13,46.85-5,9.26-27.76,30.32-53.78,17.85a42.89,42.89,0,0,0,32.75,14.34C122.59,207,142.44,186.21,140.06,162.75Z"/><g id="_Group_16" data-name="&lt;Group&gt;"><path id="_Path_62" data-name="&lt;Path&gt;" class="cls-46" d="M80.8,132.19s-3.62,3.64-2.56,4.56c1.37,1.19,11.66-3.63,11-5.28-.52-1.35-5.38-.83-5.38-.83s-2.93-11.13-6-13.41c-2.27-1.67-7.18,3.17-3.5,5.33C79.64,125.67,80.8,132.19,80.8,132.19Z"/><path id="_Path_63" data-name="&lt;Path&gt;" class="cls-47" d="M78.24,136.75c1.37,1.19,11.66-3.63,11-5.28-.52-1.35-5.38-.83-5.38-.83s-.44-1.69-1.17-3.89c-2.44,1.57-4.66-.75-4.66-.75a17,17,0,0,1,2.74,6.19S77.18,135.83,78.24,136.75Z"/><path id="_Path_64" data-name="&lt;Path&gt;" class="cls-48" d="M74,121.08c-1.09-1.19,1.83-4.33,3.28-3.46S74.77,122,74,121.08Z"/></g><path id="_Path_65" data-name="&lt;Path&gt;" class="cls-49" d="M86.72,165.58a1.74,1.74,0,1,0,.86,2.31A1.77,1.77,0,0,0,86.72,165.58Z"/><path id="_Path_66" data-name="&lt;Path&gt;" class="cls-49" d="M86.24,156.83a1.28,1.28,0,0,0-1.07,2.32,1.28,1.28,0,0,0,1.69-.62A1.3,1.3,0,0,0,86.24,156.83Z"/><path id="_Path_67" data-name="&lt;Path&gt;" class="cls-49" d="M89.8,162.07a1.18,1.18,0,1,0,.58,1.57A1.2,1.2,0,0,0,89.8,162.07Z"/><path id="_Path_68" data-name="&lt;Path&gt;" class="cls-50" d="M130.88,160.77a1.87,1.87,0,1,0,1.87,1.87A1.89,1.89,0,0,0,130.88,160.77Z"/><path id="_Path_69" data-name="&lt;Path&gt;" class="cls-50" d="M128.74,167.51a1.29,1.29,0,1,0,1.29,1.28A1.31,1.31,0,0,0,128.74,167.51Z"/><path id="_Path_70" data-name="&lt;Path&gt;" class="cls-50" d="M133.87,167.41a1,1,0,0,0,0,2.06,1,1,0,0,0,1-1A1,1,0,0,0,133.87,167.41Z"/><path id="_Path_71" data-name="&lt;Path&gt;" class="cls-50" d="M87.46,199.83a1.55,1.55,0,1,0,1.59,1.51A1.56,1.56,0,0,0,87.46,199.83Z"/><path id="_Path_72" data-name="&lt;Path&gt;" class="cls-50" d="M83.14,199.46a.93.93,0,0,0,0,1.85.93.93,0,0,0,0-1.85Z"/></g><g id="_Group_17" data-name="&lt;Group&gt;"><path id="_Path_73" data-name="&lt;Path&gt;" class="cls-51" d="M92.85,188.07c-1.92,22.28,13,40.77,36.93,40.77,21.92,0,37.72-19.14,35.66-41Z"/><path id="_Path_74" data-name="&lt;Path&gt;" class="cls-52" d="M162.65,187.83l-67.19.23C94,208.24,108.26,225.79,130,225.79,149.71,225.79,163.86,207.46,162.65,187.83Z"/><path id="_Path_75" data-name="&lt;Path&gt;" class="cls-53" d="M162.65,187.83h-1.58c.45,19.07-13.13,35.69-31.29,35.69-20.06,0-32.9-15.9-32.21-35.46H95.46C94,208.24,108.26,225.79,130,225.79,149.71,225.79,163.86,207.46,162.65,187.83Z"/><path id="_Path_76" data-name="&lt;Path&gt;" class="cls-54" d="M100.61,196c1.18,1.51,24.63-5.7,24.62-7.94a.43.43,0,0,0,0-.11l-25.85.09C99.33,191,99.87,195.05,100.61,196Z"/><path id="_Path_77" data-name="&lt;Path&gt;" class="cls-54" d="M126.41,192.27c-1.12-.85-23.78,5.91-24.51,7.44-1.3,2.74,5.35,14.36,10.95,16.06S128,193.45,126.41,192.27Z"/><path id="_Path_78" data-name="&lt;Path&gt;" class="cls-54" d="M132,193.71c-2,.38-2.08,23.63-.26,26.24s14.87-2.74,15.65-6.4S134.11,193.32,132,193.71Z"/><path id="_Path_79" data-name="&lt;Path&gt;" class="cls-54" d="M127.59,201c-1.65-.55-9.39,14-9.52,16.19s8.74,5,9.78,3S129.15,201.54,127.59,201Z"/><path id="_Path_80" data-name="&lt;Path&gt;" class="cls-54" d="M157.19,195.14c.94-1.3,1.35-4.47,1.32-7.3l-24.89.09a.45.45,0,0,0,0,.16C133.46,189.92,155.49,197.49,157.19,195.14Z"/><path id="_Path_81" data-name="&lt;Path&gt;" class="cls-54" d="M135.8,192.66c-.54,1.23,12.64,17,14.48,17.37,2.73.52,7.56-8.49,6-10.71C155.2,197.79,136.32,191.49,135.8,192.66Z"/><path id="_Path_82" data-name="&lt;Path&gt;" class="cls-55" d="M112.71,212.63c-4.68.64-8.73-8.35-8.85-10.76-.09-1.58,2-3.48,3.46-4.61-3,1.06-5.2,2-5.42,2.45-1.3,2.74,5.35,14.36,10.95,16.06,3.51,1.06,8.55-7.94,11.45-15.12C121.31,205,116,212.2,112.71,212.63Z"/><path id="_Path_83" data-name="&lt;Path&gt;" class="cls-55" d="M124.85,218.84a5.45,5.45,0,0,1-4.43-1.52c-.61-.81-.24-4.3-.07-5.66a23.52,23.52,0,0,0-2.28,5.55c-.13,2.22,8.74,5,9.78,3,.49-.92.81-5.09.84-9.32C128,213.18,126.13,218.44,124.85,218.84Z"/><path id="_Path_84" data-name="&lt;Path&gt;" class="cls-55" d="M131.76,220c1.83,2.61,14.87-2.74,15.65-6.4.35-1.64-2.29-5.87-5.49-10,1,2.78,2.93,8.2,2.65,9.6-.38,1.9-8.22,5.44-10.37,4.68-1.64-.58-3.13-6.7-3.75-9.56C130.52,213.68,131,218.8,131.76,220Z"/><path id="_Path_85" data-name="&lt;Path&gt;" class="cls-55" d="M99.36,188.05c0,3,.51,7,1.25,8,.56.71,6.11-.52,11.79-2.26-2.9.37-8.62,1-9.56,0s-1-3.93-.81-5.73Z"/><path id="_Path_86" data-name="&lt;Path&gt;" class="cls-55" d="M156.27,199.32c-.46-.65-4.2-2.19-8.36-3.64,1.23.59,5.85,2.9,6.4,4.55.63,1.89-1.39,6-3.54,6.71-1.34.47-4.15-1.07-6.08-2.3,2.58,2.92,4.89,5.25,5.59,5.39C153,210.55,157.84,201.54,156.27,199.32Z"/><path id="_Path_87" data-name="&lt;Path&gt;" class="cls-55" d="M110.35,199.07c-.5-1.12,6.21-3.53,6.72-2.86S110.77,200,110.35,199.07Z"/><path id="_Path_88" data-name="&lt;Path&gt;" class="cls-55" d="M109.35,206.21c-.53-.83,6.54-5,7.21-4.54S110.1,207.38,109.35,206.21Z"/><path id="_Path_89" data-name="&lt;Path&gt;" class="cls-55" d="M133,200.66c-.85,0,.5,10.25,1.67,10.08S133.93,200.66,133,200.66Z"/><path id="_Path_90" data-name="&lt;Path&gt;" class="cls-55" d="M138.12,206.37c-.92.17.42,6.14,1.51,5.72S139.05,206.21,138.12,206.37Z"/><path id="_Path_91" data-name="&lt;Path&gt;" class="cls-55" d="M142.57,196.46c-.27.67,4.45,5.38,5.45,4.12S142.91,195.62,142.57,196.46Z"/><path id="_Path_92" data-name="&lt;Path&gt;" class="cls-55" d="M144.16,189.57c-.08-.92,8.29-.83,8.14.17C152.22,190.33,144.24,190.41,144.16,189.57Z"/><path id="_Path_93" data-name="&lt;Path&gt;" class="cls-55" d="M109.43,189.74c0-1,7.55-1.26,7.55-.5S109.43,190.5,109.43,189.74Z"/></g></g><g id="_Group_18" data-name="&lt;Group&gt;"><g id="_Group_19" data-name="&lt;Group&gt;"><path id="_Path_94" data-name="&lt;Path&gt;" class="cls-56" d="M59.53,181.65s-6.72-8.51,3.15-17c0,0,1.22,4.63-.35,11.94,0,0,3.1-5.16,12-2.5,0,0-.54,8.4-6.86,9.5,0,0,5.31.34,8.07,4.8C75.5,188.44,65.31,190.21,59.53,181.65Z"/><path id="_Path_95" data-name="&lt;Path&gt;" class="cls-57" d="M58.38,170.08a11.53,11.53,0,0,0,1.15,11.57c5.78,8.56,16,6.79,16,6.79-7.23-.27-8.07-4.8-8.07-4.8a7.22,7.22,0,0,0,5-3.57,6.12,6.12,0,0,1-7.32.5,9.53,9.53,0,0,1,6.13-7.08c-6.53-.81-8.91,3.15-8.91,3.15,1.57-7.31.35-11.94.35-11.94A29.67,29.67,0,0,1,61,175.2C58,173.68,58.07,171.2,58.38,170.08Z"/><path id="_Path_96" data-name="&lt;Path&gt;" class="cls-58" d="M63.8,180.86c-6-8.6-15-13.83-24.31-9-9.1,4.77-20.71,24-15.53,33.27,4.48,8,25.87,11.45,37.49,3C72.07,200.53,69.73,189.32,63.8,180.86Z"/><path id="_Path_97" data-name="&lt;Path&gt;" class="cls-59" d="M22.69,199.53A11.32,11.32,0,0,0,24,205.18c4.48,8,25.87,11.45,37.49,3a20.56,20.56,0,0,0,4-3.77C56.93,210.28,30.56,212.89,22.69,199.53Z"/><path id="_Path_98" data-name="&lt;Path&gt;" class="cls-60" d="M29,196.75c-3.78-4.72,7-23.22,16.67-23.35s18.17,10.22,15.15,17.13C56.5,200.39,34.71,203.89,29,196.75Z"/><path id="_Path_99" data-name="&lt;Path&gt;" class="cls-61" d="M44.9,174.85c-5.77.62-10.51,7.26-8.65,12.15,1.36,3.57,6,5.43,9.72,4.89,6.2-.9,10-6.29,8.57-11.24C53.41,176.73,48.8,174.44,44.9,174.85Z"/><path id="_Path_100" data-name="&lt;Path&gt;" class="cls-62" d="M39.12,176c-.92-2.59,7.19-5.85,8.53-3.28C49.12,175.61,40.07,178.74,39.12,176Z"/></g><path id="_Path_101" data-name="&lt;Path&gt;" class="cls-63" d="M41.53,204.35c-.31-.62-3.86-.26-3,1.51S41.79,204.88,41.53,204.35Z"/><path id="_Path_102" data-name="&lt;Path&gt;" class="cls-64" d="M40.07,181.81c-.31-.62-3.85-.27-3,1.5S40.33,182.34,40.07,181.81Z"/><path id="_Path_103" data-name="&lt;Path&gt;" class="cls-65" d="M53.41,193.59c-.42-.54-3.83.51-2.61,2.07S53.78,194.06,53.41,193.59Z"/><path id="_Path_104" data-name="&lt;Path&gt;" class="cls-63" d="M63,195.75c-.42-.54-3.83.52-2.61,2.07S63.34,196.22,63,195.75Z"/><path id="_Path_105" data-name="&lt;Path&gt;" class="cls-63" d="M30.68,200.69c-.43-.54-3.83.52-2.62,2.07S31,201.16,30.68,200.69Z"/><path id="_Path_106" data-name="&lt;Path&gt;" class="cls-66" d="M50,184.12c-.43-.54-3.83.52-2.61,2.07S50.35,184.59,50,184.12Z"/><path id="_Path_107" data-name="&lt;Path&gt;" class="cls-65" d="M42.84,193.77c-.43-.55-3.84.51-2.62,2.07S43.2,194.23,42.84,193.77Z"/><path id="_Path_108" data-name="&lt;Path&gt;" class="cls-65" d="M34.88,190.59c-.39-.51-3.57.48-2.43,1.93S35.22,191,34.88,190.59Z"/><path id="_Path_109" data-name="&lt;Path&gt;" class="cls-63" d="M52,204.11c-.42-.55-3.83.51-2.61,2.06S52.37,204.57,52,204.11Z"/></g><g id="_Group_20" data-name="&lt;Group&gt;"><g id="_Group_21" data-name="&lt;Group&gt;"><path id="_Compound_Path_" data-name="&lt;Compound Path&gt;" class="cls-67" d="M74.31,222.23a3.23,3.23,0,0,1-2.34-.62,2.47,2.47,0,0,1-2.29,1.27,2.63,2.63,0,0,1-2-1.18l0-.06h-.08a2.33,2.33,0,0,1-1.82,1,2.62,2.62,0,0,1-2.21-2.25,2.88,2.88,0,0,1-4.73-1.65c-2.67.37-4.51-2.84-3.78-4.81a3.57,3.57,0,0,1-1.52-2.37,2.91,2.91,0,0,1,2.21-3.43s-1.63-2.22-.63-4.38a5.8,5.8,0,0,1,4.18-3.23c-.26-3.07,3.38-3.92,4.65-2.51a3.27,3.27,0,0,1,2.42-3.29A3.89,3.89,0,0,1,70,195.85a3.6,3.6,0,0,1,3.18-1A3.4,3.4,0,0,1,75.91,198a2.94,2.94,0,0,1,3.4,1.1,3.64,3.64,0,0,1,.31,4c.41-.12,2.41.58,3,3a3.33,3.33,0,0,1-1.12,3.57A2.8,2.8,0,0,1,82.9,213a3.42,3.42,0,0,1-2.81,2.37c.5,1.56.63,2.6-.74,3.6a4.84,4.84,0,0,1-2.45.85A2.94,2.94,0,0,1,74.31,222.23Z"/><path id="_Path_110" data-name="&lt;Path&gt;" class="cls-68" d="M67.61,210c.22.12,1-2.65,1-2.92A3.72,3.72,0,0,0,67,203.83a2.36,2.36,0,0,0-1.22-.28c-.11,0-1.11.16-1.09.29-.1-1-.2-2.56-1.09-3.18-.72-.49-1.8.05-2.35.59-.14.14-1.37,1.67-1.15,1.82a2.5,2.5,0,0,0-3.71,3c0,.16,1,2.29,1.18,2.17-.31.22-2.4.91-2.54,2.83s2.08,3,2.08,3a2.42,2.42,0,0,0,.58,3.15c1.25,1,3.07-.83,3.07-.83s1.08,2.12,3.11,1.29,1.24-3.5,1.24-3.5a2.68,2.68,0,0,0,3.69-.72A2.62,2.62,0,0,0,67.61,210Z"/><path id="_Path_111" data-name="&lt;Path&gt;" class="cls-69" d="M57.61,212.56a1,1,0,0,1-.68-.23c-.91-.71-.75-2.89,1-2.68C59.41,209.82,59.16,212.44,57.61,212.56Z"/><path id="_Path_112" data-name="&lt;Path&gt;" class="cls-70" d="M59.31,207.37a1,1,0,0,1-.68-.23,1.4,1.4,0,0,1,1.17-2.44C61.29,204.87,60.86,207.25,59.31,207.37Z"/><path id="_Path_113" data-name="&lt;Path&gt;" class="cls-70" d="M61.44,212.17a1,1,0,0,1-.68-.24c-.91-.71-.93-2.83.82-2.62C63.07,209.48,63,212,61.44,212.17Z"/><path id="_Path_114" data-name="&lt;Path&gt;" class="cls-71" d="M68.39,218.59a1,1,0,0,1-.49.53,1.43,1.43,0,0,1-1.85-2.06C66.82,215.75,68.93,217.1,68.39,218.59Z"/><path id="_Path_115" data-name="&lt;Path&gt;" class="cls-72" d="M63.85,215.88a1.07,1.07,0,0,1-.5.54c-1,.55-2.7-.82-1.86-2.08S64.39,214.38,63.85,215.88Z"/><path id="_Path_116" data-name="&lt;Path&gt;" class="cls-72" d="M67.38,212.86a1,1,0,0,1-.49.54A1.45,1.45,0,0,1,65,211.32C65.81,210,67.93,211.36,67.38,212.86Z"/><path id="_Path_117" data-name="&lt;Path&gt;" class="cls-71" d="M65.35,198.41a1,1,0,0,1-.39-.56c-.29-1,1.27-2.88,2.45-1.75C68.42,197.06,66.56,199.18,65.35,198.41Z"/><path id="_Path_118" data-name="&lt;Path&gt;" class="cls-72" d="M58.16,216.32a.83.83,0,0,1-.37-.44c-.34-.87.64-2.26,1.76-1.39C60.5,215.23,59.28,216.89,58.16,216.32Z"/><path id="_Path_119" data-name="&lt;Path&gt;" class="cls-71" d="M77.63,218.24a1.17,1.17,0,0,1-.81.17,2.08,2.08,0,0,1-1.51-2.85C76.73,213,80,216.58,77.63,218.24Z"/><path id="_Path_120" data-name="&lt;Path&gt;" class="cls-71" d="M72.59,210.8a1.61,1.61,0,0,0,.77-2.11,1.52,1.52,0,0,0-2-.93,1.61,1.61,0,0,0-.78,2.1A1.54,1.54,0,0,0,72.59,210.8Z"/></g><path id="_Path_121" data-name="&lt;Path&gt;" class="cls-73" d="M80.68,202s.7-2.71-4.28-8c0,0-1.9,4.18.87,7.68,0,0-2.9-2.92-7.13,0,0,0,1.68,4.13,7.81,3.16,0,0-4.32,3.85-.87,7.84,0,0,3.46-2.48,3.61-5.64,0,0,2.1,4.89,8.12,1.95a13.06,13.06,0,0,0-7.46-5.38s5.22-1.18,6-8.67l-3-1.19S85.32,200.71,80.68,202Z"/><g id="_Group_22" data-name="&lt;Group&gt;" class="cls-74"><path id="_Path_122" data-name="&lt;Path&gt;" class="cls-57" d="M78,204.88l-.07.06Z"/><path id="_Path_123" data-name="&lt;Path&gt;" class="cls-57" d="M81.35,203.65s5.22-1.18,6-8.67L86,194.45c0,2.83-.91,7.27-5.64,8.84-7.17,2.38-10.2-1.57-10.2-1.57s1.68,4.13,7.81,3.16c0,0,2.12,3-.87,7.84,0,0,3.46-2.48,3.61-5.64,0,0,2.1,4.89,8.12,1.95A13.06,13.06,0,0,0,81.35,203.65Z"/></g></g><g id="_Group_23" data-name="&lt;Group&gt;"><path id="_Compound_Path_2" data-name="&lt;Compound Path&gt;" class="cls-75" d="M182.66,219a3.77,3.77,0,0,1-2.09-1.83,2.76,2.76,0,0,1-3,.15,3.1,3.1,0,0,1-1.46-2.23.17.17,0,0,0,0-.07l-.07-.05a2.61,2.61,0,0,1-2.34.06,3.07,3.07,0,0,1-1.17-3.43,3.35,3.35,0,0,1-4-4.1,4,4,0,0,1-1.59-6.45c-.94-1.61-1.05-2.65-.72-3.68.81-2.46,2.79-2.62,4.27-2.33,0,0-.61-3.11,1.46-4.82,1.27-1.05,4-1.06,5,.09a4.64,4.64,0,0,1,3-2.78,3.41,3.41,0,0,1,3.86,1.29,3.6,3.6,0,0,1,4.06-2.14,4.56,4.56,0,0,1,3.17,3,4.07,4.07,0,0,1,3.77.55A4,4,0,0,1,196,195a3.45,3.45,0,0,1,2.95,2.87,4.09,4.09,0,0,1-1.62,4.26c.49.09,2.19,1.82,1.59,4.63a3.71,3.71,0,0,1-2.87,3.09,3.22,3.22,0,0,1-.1,4,3.76,3.76,0,0,1-4,1c-.24,1.85-.62,3-2.49,3.31a5.39,5.39,0,0,1-2.92-.37A3.25,3.25,0,0,1,182.66,219Z"/><path id="_Path_124" data-name="&lt;Path&gt;" class="cls-76" d="M181,198.78a6.36,6.36,0,0,0,1.84-.73,3.92,3.92,0,0,1,3.39-4.6,3.51,3.51,0,0,0-2.84-2.41,2.67,2.67,0,0,0-3.67-2.63c-2.07.66-2.17,3.7-2.17,3.7s-3.45-2.45-5.2-.78-.53,4.72-.53,4.72c-.44.06-3.29-.64-4.37,1.25-.62,1.08,0,2.75,1.07,4.36-.52.74-1.49,2.36-.72,3.23.62.7,2.15.68,3.37-.26.49,2.66,3.55,2.64,4.7.6-.12.1,2.57,3.42,5.13,2.27,1.85-.82-.16-4.62-.16-4.62C185.59,200.63,181,198.78,181,198.78Z"/><path id="_Path_125" data-name="&lt;Path&gt;" class="cls-77" d="M173.13,208.57c.45,4.19,4,4.34,5.81,1.75,1.28,3.69,5.54,2.77,5.86,1.06.41-2.18-2-3.35-1.83-6.25a4.46,4.46,0,0,1,2.41-3.41s-2.38-2.93-.8-5.44a4.2,4.2,0,0,1,4.18-1.92,4.67,4.67,0,0,1,2.21-4.6,4.07,4.07,0,0,1,3.77.55A4,4,0,0,1,196,195a3.45,3.45,0,0,1,2.95,2.87,4.09,4.09,0,0,1-1.62,4.26c.49.09,2.19,1.82,1.59,4.63a3.71,3.71,0,0,1-2.87,3.09,3.22,3.22,0,0,1-.1,4,3.76,3.76,0,0,1-4,1c-.24,1.85-.62,3-2.49,3.31a5.39,5.39,0,0,1-2.92-.37,3.25,3.25,0,0,1-3.84,1.21,3.77,3.77,0,0,1-2.09-1.83,2.76,2.76,0,0,1-3,.15,3.1,3.1,0,0,1-1.46-2.23.17.17,0,0,0,0-.07l-.07-.05a2.61,2.61,0,0,1-2.34.06,3.07,3.07,0,0,1-1.17-3.43,3.35,3.35,0,0,1-4-4.1C170.23,210.34,173.13,208.57,173.13,208.57Z"/><path id="_Path_126" data-name="&lt;Path&gt;" class="cls-78" d="M170.71,200.18c-.53.43-1.31.45-2-.47a1.45,1.45,0,0,1,2.12-2A1.68,1.68,0,0,1,170.71,200.18Z"/><path id="_Path_127" data-name="&lt;Path&gt;" class="cls-79" d="M173,195a1.3,1.3,0,0,1-.65-.66c-.73-1.47,1.19-3.52,2.57-2.53C176.69,193.05,174.69,195.66,173,195Z"/><path id="_Path_128" data-name="&lt;Path&gt;" class="cls-78" d="M174.91,200.72a1.26,1.26,0,0,1-.92-.2c-.89-.59-1.34-2.27-.43-3.06,1.11-1,2.44-.1,2.67,1.23A1.85,1.85,0,0,1,174.91,200.72Z"/><path id="_Path_129" data-name="&lt;Path&gt;" class="cls-79" d="M180.1,197.56c-1.39,1.18-3.31-1.2-2-2.45s3.27.62,2.34,2.09A1.23,1.23,0,0,1,180.1,197.56Z"/><path id="_Path_130" data-name="&lt;Path&gt;" class="cls-79" d="M179.43,192.65a1.33,1.33,0,0,1-.56-.76,1.76,1.76,0,0,1,2.54-2.2C183.25,190.88,180.76,193.41,179.43,192.65Z"/><path id="_Path_131" data-name="&lt;Path&gt;" class="cls-80" d="M192.13,197.29s-1,3.51,1.71,4.86a4.84,4.84,0,0,0-1.08,6.25,4.45,4.45,0,0,0-2.48,3.46,5.1,5.1,0,0,0-3.28-3.49s4-3,.36-6.37a3.7,3.7,0,0,0,1.6-3.92A2.18,2.18,0,0,0,192.13,197.29Z"/></g></g></g></g></svg>