<svg xmlns="http://www.w3.org/2000/svg" xmlns:xlink="http://www.w3.org/1999/xlink" viewBox="0 0 210.84 225.35"><defs><style>.cls-1{isolation:isolate;}.cls-2{fill:url(#linear-gradient);}.cls-3{fill:#f4a81f;}.cls-4{fill:#ffe374;}.cls-5{fill:url(#linear-gradient-2);}.cls-6{fill:#ee8b11;}.cls-7{fill:#8e5012;}.cls-8{fill:#f4ede6;}.cls-9{fill:#e9dacc;}.cls-10{fill:url(#linear-gradient-3);}.cls-11{fill:#498491;opacity:0.1;mix-blend-mode:multiply;}.cls-12{fill:#eef6f9;}.cls-13{fill:#809194;}.cls-13,.cls-17,.cls-33,.cls-59,.cls-60{opacity:0.2;}.cls-14,.cls-17,.cls-19{fill:#fff;}.cls-15{fill:#c2c9cc;}.cls-15,.cls-55,.cls-57,.cls-58{opacity:0.3;}.cls-16{fill:url(#linear-gradient-4);}.cls-18{fill:#e2e3e3;}.cls-19{opacity:0.8;}.cls-20{fill:#e8e3e2;}.cls-21{fill:#fdffef;}.cls-22{fill:url(#linear-gradient-5);}.cls-23{fill:#ee9300;}.cls-24{fill:#ffc349;}.cls-25{fill:#da8f00;}.cls-26{fill:#964000;}.cls-27{fill:#940;}.cls-28{fill:#873500;}.cls-29{fill:#8a3700;}.cls-30{fill:#815f4e;}.cls-31{fill:url(#linear-gradient-6);}.cls-32{fill:#cb2f10;}.cls-33{fill:#990b07;}.cls-34{fill:#8ec726;}.cls-35{fill:#73a42e;}.cls-36{fill:#583620;}.cls-37{fill:#69472a;}.cls-38{fill:#ffd97e;opacity:0.4;}.cls-39{fill:#ffaf8a;}.cls-40{fill:#9f1a08;}.cls-41{fill:#b0220d;}.cls-42{fill:#af5927;}.cls-43{fill:#d67b2f;}.cls-44{fill:#9b4a26;}.cls-44,.cls-63,.cls-66{opacity:0.5;}.cls-45{fill:#80a23e;}.cls-46{fill:#698738;}.cls-47{fill:#a0bd39;}.cls-48{fill:url(#linear-gradient-7);}.cls-49{fill:url(#linear-gradient-8);}.cls-50{fill:url(#linear-gradient-9);}.cls-51{fill:url(#linear-gradient-10);}.cls-52{fill:url(#linear-gradient-11);}.cls-53{fill:#ff9851;}.cls-54{fill:url(#linear-gradient-12);}.cls-56,.cls-57,.cls-60{fill:#fdf1d8;}.cls-58{fill:#c22d00;}.cls-59{fill:#f26300;}.cls-61{fill:#fedcb8;}.cls-62{fill:url(#linear-gradient-13);}.cls-63{fill:#f1ad5d;}.cls-64{fill:url(#linear-gradient-14);}.cls-65{fill:url(#linear-gradient-15);}.cls-66{fill:#bf5a1e;}.cls-67{fill:#fab94c;}</style><linearGradient id="linear-gradient" x1="-2199.12" y1="869.26" x2="-2134.31" y2="812.06" gradientTransform="matrix(-0.79, 0.62, 0.62, 0.79, -2185.8, 754.36)" gradientUnits="userSpaceOnUse"><stop offset="0" stop-color="#fdbf24"/><stop offset="0.81" stop-color="#f4a81f"/><stop offset="0.99" stop-color="#d5961f"/></linearGradient><linearGradient id="linear-gradient-2" x1="-2205.37" y1="804.13" x2="-2155.71" y2="857.66" gradientTransform="matrix(-0.79, 0.62, 0.62, 0.79, -2185.8, 754.36)" gradientUnits="userSpaceOnUse"><stop offset="0.02" stop-color="#d18d14"/><stop offset="0.35" stop-color="#fdbf24"/><stop offset="1" stop-color="#ffce4e"/></linearGradient><linearGradient id="linear-gradient-3" x1="151.82" y1="99.59" x2="212.53" y2="99.59" gradientTransform="translate(-23.84)" gradientUnits="userSpaceOnUse"><stop offset="0" stop-color="#e6faff"/><stop offset="1" stop-color="#c8e2eb"/></linearGradient><linearGradient id="linear-gradient-4" x1="168.23" y1="7.74" x2="196.69" y2="7.74" gradientTransform="translate(-23.84)" gradientUnits="userSpaceOnUse"><stop offset="0" stop-color="#cbcfcd"/><stop offset="1" stop-color="#aaadac"/></linearGradient><linearGradient id="linear-gradient-5" x1="89.69" y1="62.94" x2="145.31" y2="131.68" gradientTransform="translate(-23.84)" gradientUnits="userSpaceOnUse"><stop offset="0" stop-color="#ee9300"/><stop offset="1" stop-color="#940"/></linearGradient><linearGradient id="linear-gradient-6" x1="53.46" y1="112" x2="98.37" y2="213.34" gradientTransform="translate(-23.84)" gradientUnits="userSpaceOnUse"><stop offset="0" stop-color="#ff5941"/><stop offset="0.52" stop-color="#e23b14"/><stop offset="1" stop-color="#a22707"/></linearGradient><linearGradient id="linear-gradient-7" x1="149.04" y1="196.29" x2="178.02" y2="232.69" gradientTransform="matrix(-1, -0.03, -0.03, 1, 219.02, -15.62)" gradientUnits="userSpaceOnUse"><stop offset="0" stop-color="#fbdca5"/><stop offset="1" stop-color="#fbc983"/></linearGradient><linearGradient id="linear-gradient-8" x1="112.56" y1="218.39" x2="150.46" y2="218.39" gradientTransform="translate(-80.7 -24.14) rotate(1.7)" gradientUnits="userSpaceOnUse"><stop offset="0" stop-color="#edbd78"/><stop offset="1" stop-color="#edad5f"/></linearGradient><linearGradient id="linear-gradient-9" x1="128.19" y1="207.73" x2="131.83" y2="247.47" gradientTransform="translate(-80.7 -24.14) rotate(1.7)" gradientUnits="userSpaceOnUse"><stop offset="0" stop-color="#e9a354"/><stop offset="1" stop-color="#e99e4d"/></linearGradient><linearGradient id="linear-gradient-10" x1="122.22" y1="196.99" x2="150.78" y2="223.62" gradientTransform="translate(-80.7 -24.14) rotate(1.7)" gradientUnits="userSpaceOnUse"><stop offset="0" stop-color="#fce7c0"/><stop offset="1" stop-color="#fcd9a8"/></linearGradient><linearGradient id="linear-gradient-11" x1="116.87" y1="202.74" x2="145.43" y2="229.37" xlink:href="#linear-gradient-10"/><linearGradient id="linear-gradient-12" x1="140.81" y1="183.97" x2="225.98" y2="203.56" gradientTransform="translate(-23.84)" gradientUnits="userSpaceOnUse"><stop offset="0" stop-color="#ff7d33"/><stop offset="1" stop-color="#f26300"/></linearGradient><linearGradient id="linear-gradient-13" x1="-639.95" y1="-523.34" x2="-638.22" y2="-491.85" gradientTransform="matrix(0.98, -0.18, 0.18, 0.98, 887.48, 585.6)" gradientUnits="userSpaceOnUse"><stop offset="0" stop-color="#faaf66"/><stop offset="1" stop-color="#c05a19"/></linearGradient><linearGradient id="linear-gradient-14" x1="-300.83" y1="-27.12" x2="-276.4" y2="-11.79" gradientTransform="matrix(0.97, 0.23, -0.23, 0.97, 447.41, 284.76)" gradientUnits="userSpaceOnUse"><stop offset="0" stop-color="#e78d4a"/><stop offset="1" stop-color="#b24812"/></linearGradient><linearGradient id="linear-gradient-15" x1="-296.82" y1="-25.56" x2="-284.45" y2="-1.74" xlink:href="#linear-gradient-14"/></defs><title>composition_7</title><g class="cls-1"><g id="Layer_2" data-name="Layer 2"><g id="Layer_3" data-name="Layer 3"><g id="_Group_" data-name="&lt;Group&gt;"><g id="_Group_2" data-name="&lt;Group&gt;"><path id="_Path_" data-name="&lt;Path&gt;" class="cls-2" d="M58.64,28.35s25.49,36.95-2,58.6c-24.77,19.54-35.78,5.1-53,6.14L.45,98s5.83,18.39,28.62,26.81c14,5.16,32.68,1.58,48.24-10.69,10.15-8,19.14-20.82,20.6-34.77,3.67-35.18-23.53-41.65-23.53-41.65L68.52,23.46Z"/><path id="_Path_2" data-name="&lt;Path&gt;" class="cls-3" d="M72.81,109.14C85.61,98.74,97.61,81.22,95,56.08c2.53,5.83,3.92,13.42,2.89,23.25-1.46,14-10.45,26.76-20.6,34.77C61.75,126.37,43,130,29.07,124.79a52.21,52.21,0,0,1-15.48-8.86C40,125.63,58.75,120.56,72.81,109.14Z"/><path id="_Path_3" data-name="&lt;Path&gt;" class="cls-4" d="M66.33,34.81s23,29.27,5.63,53.51a42.5,42.5,0,0,1-40.37,18.05S88.72,91.11,66.33,34.81Z"/><path id="_Path_4" data-name="&lt;Path&gt;" class="cls-5" d="M3.69,93.09c17.2-1,28.21,13.4,53-6.14,27.46-21.65,2-58.6,2-58.6L63.46,26c3.38,6,27.49,46.05.31,68.82-23.84,20-47.35,10.17-61.57.71Z"/><g id="_Group_3" data-name="&lt;Group&gt;"><path id="_Path_5" data-name="&lt;Path&gt;" class="cls-6" d="M27.61,122.93c14,5.16,32.68,1.59,48.24-10.69C86,104.24,95,91.42,96.45,77.47s-1.92-23.31-6.52-29.61c5.32,6.26,9.58,16.14,8,31.47-1.46,14-10.45,26.76-20.6,34.77C61.75,126.37,43,130,29.07,124.79a49.93,49.93,0,0,1-23.14-17A50.3,50.3,0,0,0,27.61,122.93Z"/></g><path id="_Path_6" data-name="&lt;Path&gt;" class="cls-7" d="M3.69,93.09a3.38,3.38,0,0,0-3,1.42A3,3,0,0,0,.45,98S3.46,95.46,3.69,93.09Z"/></g><g id="_Group_4" data-name="&lt;Group&gt;"><g id="_Group_5" data-name="&lt;Group&gt;"><path id="_Path_7" data-name="&lt;Path&gt;" class="cls-8" d="M168.69,11.21a35.77,35.77,0,0,1-11.44,2A34.33,34.33,0,0,1,148.37,12c-.93,10.07-1.65,22-5.66,34-9.65,28.74-20.61,35.52-17.35,93.6,0,.86.08,1,.15,2.63s3.84,14.59,32.85,14.59c25.84,0,32.36-12.89,32.58-14.32a27.23,27.23,0,0,0,.32-3.11c3.23-57.89-7.12-65-17-93.58C170.35,34.47,169.46,22,168.69,11.21Z"/><path id="_Path_8" data-name="&lt;Path&gt;" class="cls-9" d="M185.94,86.08c-4-15.65-14.59-36.26-17.31-45.91s-3-23.48-3-23.48l-14.6.53s-.24,15.65-4.7,28.69-12.61,31.56-15.83,41-2.47,54.52-2.47,54.52,4.47-13,28-13.23c24.87-.29,32.34,12.71,32.34,12.71S189.9,101.73,185.94,86.08Z"/><path id="_Path_9" data-name="&lt;Path&gt;" class="cls-10" d="M185.94,86.08C182.7,73.26,175,57.13,170.8,46.41l-24.44-.48c-4.46,13-12.61,31.54-15.83,40.93s-2.47,54.52-2.47,54.52,8,11.87,29.09,11.87,31.27-12.39,31.27-12.39S189.9,101.73,185.94,86.08Z"/><path id="_Path_10" data-name="&lt;Path&gt;" class="cls-11" d="M128.06,141.38s8,11.87,29.09,11.87,31.27-12.39,31.27-12.39-7.46-15.6-31.32-15.39C135.39,125.66,128.06,141.38,128.06,141.38Z"/><path id="_Path_11" data-name="&lt;Path&gt;" class="cls-12" d="M135.09,133c10.41-4.22,28.77-10.09,48.48,1.76-4.59-4.34-12.86-9.36-26.47-9.24C146.75,125.56,139.67,129.18,135.09,133Z"/><path id="_Path_12" data-name="&lt;Path&gt;" class="cls-13" d="M170.8,46.41l-1.92,0c4.57,13.89,12.2,26.3,15.7,42.71,3.34,15.65,1.73,48.65,1.73,48.65S175.55,151,157.74,151a34.89,34.89,0,0,1-27-12.26c-1.67-49.39,1.23-50.09,9.65-71.86C145.2,54.56,148,46.3,148,46.3l-.38-.35-1.23,0c-4.46,13-12.61,31.54-15.83,40.93s-2.47,54.52-2.47,54.52,8,11.87,29.09,11.87,31.27-12.39,31.27-12.39,1.48-39.13-2.48-54.78C182.7,73.26,175,57.13,170.8,46.41Z"/><path id="_Path_13" data-name="&lt;Path&gt;" class="cls-14" d="M146.22,46s5.4,13.08,21.21,2.88Z"/><path id="_Path_14" data-name="&lt;Path&gt;" class="cls-8" d="M146.22,46s13-9,24.64.37C170.86,46.37,160,57.68,146.22,46Z"/><path id="_Path_15" data-name="&lt;Path&gt;" class="cls-15" d="M190.94,142.47a27.23,27.23,0,0,0,.32-3.11c3.23-57.89-7.12-65-17-93.58-3.54-10.25-4.59-21.48-5.34-31.51l-8.12,2.21s.85,23.36,3.27,34.29c2.34,10.58,6.95,51.22,5.67,105C186.19,152.8,190.75,143.66,190.94,142.47Z"/><path id="_Path_16" data-name="&lt;Path&gt;" class="cls-8" d="M145.19,6s-.74,12,.68,12.51c7.39,2.86,22.71,1.6,25.42.11,1.3-.71.39-12.63.39-12.63Z"/><path id="_Path_17" data-name="&lt;Path&gt;" class="cls-9" d="M145.19,6S145,9.2,145,12.35l.31.75s.35,5.76,3.85-.48c0,0,1.71,7.15,5.14.45,0,0,2.28,7.83,5.8-.1,0,0,3.05,7.87,5.7.1,0,0,2.45,5,4.29,1.09a11.75,11.75,0,0,1-.23,5,6.15,6.15,0,0,0,1.43-.51c1.3-.71.39-12.63.39-12.63Z"/><path id="_Path_18" data-name="&lt;Path&gt;" class="cls-16" d="M144.48,5.28C144.84,3,150.57,0,158.48,0s13.76,2.93,14.1,5c.47,2.74.81,8.83-.55,9.1s-2.41-3.23-2.41-3.23-1.09,3.68-2.32,3.81-2.68-3.23-2.68-3.23-.93,3.92-2.54,3.92C160.87,15.36,159,12,159,12s-1.57,3.49-2.9,3.49-2.54-3.93-2.54-3.93-1.33,3.31-2.94,3.18-2-4.47-2-4.47-1.3,4-3.53,4C143.55,14.28,144.23,6.85,144.48,5.28Z"/><path id="_Path_19" data-name="&lt;Path&gt;" class="cls-17" d="M144.58,4.94c.72.49,14.19,7.68,27.91-.23-.78-2-6.44-4.71-14-4.71S145.42,2.68,144.58,4.94Z"/><path id="_Path_20" data-name="&lt;Path&gt;" class="cls-18" d="M169.09,6.37a58.53,58.53,0,0,1-23.34-.82C149.05,7.1,158.69,10.62,169.09,6.37Z"/><path id="_Path_21" data-name="&lt;Path&gt;" class="cls-14" d="M153.15,29.11c-.92.11-2.46,13.54-4.68,20.58C145.08,60.4,137.52,80.6,139,81s12.25-25.63,13-30.52S154,29,153.15,29.11Z"/><path id="_Path_22" data-name="&lt;Path&gt;" class="cls-19" d="M162.41,103.91a2.28,2.28,0,0,0-2.08-1.53,3,3,0,0,0-1.78.49,3.12,3.12,0,0,0-1.22,1.71,3.94,3.94,0,0,0,0,1.93,2.35,2.35,0,0,0,1,1.42C160.73,109.38,164.26,106.59,162.41,103.91Z"/><path id="_Path_23" data-name="&lt;Path&gt;" class="cls-19" d="M165.43,99c-1.83,0-1.83,3,0,3S167.26,99,165.43,99Z"/><path id="_Path_24" data-name="&lt;Path&gt;" class="cls-19" d="M165.43,114.57c-1.83,0-1.83,3,0,3S167.26,114.57,165.43,114.57Z"/><path id="_Path_25" data-name="&lt;Path&gt;" class="cls-19" d="M162.09,89c-1.83,0-1.83,3,0,3S163.91,89,162.09,89Z"/><path id="_Path_26" data-name="&lt;Path&gt;" class="cls-19" d="M162.63,61.72c-1.83,0-1.83,3,0,3S164.46,61.72,162.63,61.72Z"/></g></g><g id="_Group_6" data-name="&lt;Group&gt;"><g id="_Group_7" data-name="&lt;Group&gt;"><path id="_Path_27" data-name="&lt;Path&gt;" class="cls-20" d="M43.49,113.11s.43,41.14,33.09,57.64c0,0,22.07,5.6,45.31.59,0,0,34.75-12.86,38.86-56.95Z"/><path id="_Path_28" data-name="&lt;Path&gt;" class="cls-21" d="M43.49,113.11S68.11,92.73,102.7,92.73s58.05,21.66,58.05,21.66S141.17,142,99.91,142.57C64.15,143,43.49,113.11,43.49,113.11Z"/></g><g id="_Group_8" data-name="&lt;Group&gt;"><path id="_Path_29" data-name="&lt;Path&gt;" class="cls-22" d="M48.26,113.61s21.26,24.58,52.06,24.58,55.39-23.47,55.39-23.47c-1.22-1.56-3.27-2.44-5.31-4.22,2.25-4.89,1.66-12-.48-14.37-4.09-4.44-10.9-2.37-10.9-2.37s2.18-11.84-2.72-16c-4.18-3.53-11.18,1.48-11.18,1.48s-2.72-11.55-11.45-11S102,77.47,100.86,82.51c0,0-3-11.26-10.9-12.74S78.79,81.32,78.79,81.32s-6.54-5-12.81.89c-3.93,3.72-1.09,13.63-1.09,13.63A10.68,10.68,0,0,0,57,99.1c-3.27,3.55-2,9.84-2,9.84S49.83,112.5,48.26,113.61Z"/><path id="_Path_30" data-name="&lt;Path&gt;" class="cls-23" d="M62.47,101.49l5,12.44S72,103.86,62.47,101.49Z"/><path id="_Path_31" data-name="&lt;Path&gt;" class="cls-23" d="M88,72.68s-9.22,6.09-2.35,13.95Z"/><path id="_Path_32" data-name="&lt;Path&gt;" class="cls-24" d="M106.84,85.25s-4-11,6.5-11.59Z"/><path id="_Path_33" data-name="&lt;Path&gt;" class="cls-25" d="M97.4,93.21c-.46-.36-.15,14.24-.15,14.24S106.37,100.31,97.4,93.21Z"/><path id="_Path_34" data-name="&lt;Path&gt;" class="cls-26" d="M80.26,89S73,96.45,83.33,100.18Z"/><path id="_Path_35" data-name="&lt;Path&gt;" class="cls-24" d="M70.13,85.65S62.36,93.11,71.94,97Z"/><path id="_Path_36" data-name="&lt;Path&gt;" class="cls-25" d="M97.59,133.36l9.4-9.23S96.14,119.22,97.59,133.36Z"/><path id="_Path_37" data-name="&lt;Path&gt;" class="cls-27" d="M88.5,106.83l5.11,12.84S100,108,88.5,106.83Z"/><path id="_Path_38" data-name="&lt;Path&gt;" class="cls-27" d="M79.51,119.67l12.42,6.67S81.71,133.86,79.51,119.67Z"/><path id="_Path_39" data-name="&lt;Path&gt;" class="cls-23" d="M73.68,116.86s-3.14-11,9-10.4Z"/><path id="_Path_40" data-name="&lt;Path&gt;" class="cls-28" d="M115.94,112l-1.21,12.56S105.15,118.49,115.94,112Z"/><path id="_Path_41" data-name="&lt;Path&gt;" class="cls-29" d="M121.72,124.76l9.88-8.92S135.1,128.4,121.72,124.76Z"/><path id="_Path_42" data-name="&lt;Path&gt;" class="cls-27" d="M130.39,92.06l-.31,15.36S120.05,100,130.39,92.06Z"/><path id="_Path_43" data-name="&lt;Path&gt;" class="cls-23" d="M140.11,100l-4,13.22S147.41,110.39,140.11,100Z"/><path id="_Path_44" data-name="&lt;Path&gt;" class="cls-23" d="M114.88,97l9.42,10.57S112.45,112,114.88,97Z"/><path id="_Path_45" data-name="&lt;Path&gt;" class="cls-25" d="M119,86.11l13.23-6.28S129.62,92.55,119,86.11Z"/></g></g><g id="_Group_9" data-name="&lt;Group&gt;"><path id="_Path_46" data-name="&lt;Path&gt;" class="cls-30" d="M45.82,181.86s-5.73,7.75-3.9,7.75S45.67,187,45.67,187s.23,4.87,1.3,4.55c1.3-.4,1.6-4.16,1.6-4.16s1.88,4,2.8,2.18S47.8,179.21,45.82,181.86Z"/><path id="_Path_47" data-name="&lt;Path&gt;" class="cls-31" d="M47,135.24s-11-9.56-24.73-4.66S4.12,157.8,15.63,176.43s29.14,6.86,31.59,6.86,3.18,5.64,14.94,5.15,37.06-21.88,23-47.81C72.69,117.59,47,135.24,47,135.24Z"/><path id="_Path_48" data-name="&lt;Path&gt;" class="cls-32" d="M81.45,163a51.15,51.15,0,0,1-35.09,14.55c-13.44,0-25.38-5.63-35.09-14.55-.52-.48-1-1-1.49-1.47a44.24,44.24,0,0,0,5.85,14.88c11.51,18.63,29.14,6.86,31.59,6.86s3.18,5.64,14.94,5.15C72,188,91.33,173,89.13,152.87A49.65,49.65,0,0,1,81.45,163Z"/><path id="_Path_49" data-name="&lt;Path&gt;" class="cls-33" d="M85.18,140.63C79.45,130.07,71,128.06,63.41,129c13.45,28.85,2.24,50.91-11.65,57.43,2,1.21,5,2.26,10.4,2C73.91,188,99.22,166.56,85.18,140.63Z"/><path id="_Path_50" data-name="&lt;Path&gt;" class="cls-34" d="M52.89,136.58s-4.8-19.4-29.54-25c0,0-7.17,12.84,3.8,22.14C36.71,141.81,52.89,136.58,52.89,136.58Z"/><path id="_Path_51" data-name="&lt;Path&gt;" class="cls-35" d="M52.89,136.58s-16.18,5.23-25.74-2.87c-11-9.3-3.8-22.14-3.8-22.14-4.69,25.94,24,20.86,24,20.86a34.91,34.91,0,0,0-3.48-10.22A33.44,33.44,0,0,1,52.89,136.58Z"/><path id="_Path_52" data-name="&lt;Path&gt;" class="cls-36" d="M56.34,128.54c-1.73,2.52-2,7.91-2,11.35a15.62,15.62,0,0,1-3.48-.11c-.86-10.18,1.46-24.73,3.6-25.9s10.17,3.66,9.35,6.31C63.38,121.76,59,124.67,56.34,128.54Z"/><path id="_Path_53" data-name="&lt;Path&gt;" class="cls-37" d="M62.38,119.67c.52-2-5.48-5.74-6.87-4.52s-2.13,9.19-.31,10S62.06,120.87,62.38,119.67Z"/><path id="_Path_54" data-name="&lt;Path&gt;" class="cls-38" d="M55.51,115.15c1.39-1.22,7.39,2.52,6.87,4.52h0a6.25,6.25,0,0,1-4.69-.76,5,5,0,0,1-2.32-3.61Z"/><path id="_Path_55" data-name="&lt;Path&gt;" class="cls-39" d="M18.08,138.92c-2.31-1.85-7.35,11-5.39,12.26S20.53,140.88,18.08,138.92Z"/><path id="_Path_56" data-name="&lt;Path&gt;" class="cls-39" d="M13.67,154.12c-2.21.22-2.45,4.41,0,4.9S16.12,153.87,13.67,154.12Z"/><path id="_Path_57" data-name="&lt;Path&gt;" class="cls-40" d="M72,177.64a1.34,1.34,0,0,0-1.58,1,1.16,1.16,0,1,0,1.58-1Z"/><path id="_Path_58" data-name="&lt;Path&gt;" class="cls-40" d="M77.79,172.53c-.68-.28-1.74.47-2.17,1.66s-.3,2.41.44,2.7,1.73-.47,2.17-1.66S78.52,172.82,77.79,172.53Z"/><path id="_Path_59" data-name="&lt;Path&gt;" class="cls-41" d="M80.7,148.08A1.5,1.5,0,0,0,80,150c.27.85,1,1.45,1.58,1.27a1.5,1.5,0,0,0,.67-1.92C82,148.5,81.33,147.9,80.7,148.08Z"/><path id="_Path_60" data-name="&lt;Path&gt;" class="cls-41" d="M77.23,139.85c-.89.39-1.27,1.88-.66,3.18s1.81,2.1,2.77,1.68,1.27-1.88.66-3.17S78.19,139.43,77.23,139.85Z"/><path id="_Path_61" data-name="&lt;Path&gt;" class="cls-41" d="M76.66,147.69a.77.77,0,0,0-1,.05,1.32,1.32,0,0,0-.12,1.43s0,0,0,.1c.17.71.84,1.12,1.24.75,0-.08.05-.08.07,0,.35-.09.51-.63.46-1.08A1.74,1.74,0,0,0,76.66,147.69Z"/></g><g id="_Group_10" data-name="&lt;Group&gt;"><g id="_Group_11" data-name="&lt;Group&gt;"><path id="_Path_62" data-name="&lt;Path&gt;" class="cls-42" d="M73.28,165.32c-4.16-.67-18,22.71-15.4,26,0,0,13.83,16,24,11.91,5.28-1.45,8-5.9,14.24-6.83h0c-2.18-5.92.4-10.44-.87-15.79C93.94,169.77,73.28,165.32,73.28,165.32Z"/><path id="_Path_63" data-name="&lt;Path&gt;" class="cls-43" d="M57.35,174.33s8.17,31.19,34,20.85Z"/><path id="_Path_64" data-name="&lt;Path&gt;" class="cls-44" d="M73.28,165.32c-4.16-.67-18,22.71-15.4,26,0,0,13.83,16,24,11.91l.71-.23a30.84,30.84,0,0,0-.13-16.84,17.68,17.68,0,0,0,13.06-3.9h0a14.07,14.07,0,0,0-.28-1.64C93.94,169.77,73.28,165.32,73.28,165.32Z"/><path id="_Path_65" data-name="&lt;Path&gt;" class="cls-45" d="M87.41,175.92c4.41,1,10.2-3,10.2-3-2-.82-7.47-2.31-11.77-4.83s-15.57-11.52-26.66,3.72l-4.4-3.74-2.33,3.68,5.5,1.87c-10.33,16.06,3.13,24.12,9.56,28.5A31.71,31.71,0,0,1,76,210.2c.07-5.81-2.22-8.6-2.22-8.6,4.09.77,6.15-1.31,6.15-1.31.28-7.52-8.72-11.09-8.72-11.09a13.81,13.81,0,0,1,9.54,1.42,12.11,12.11,0,0,0-3.39-9.29,15.59,15.59,0,0,0,13.61.74C90.45,178.9,87.41,175.92,87.41,175.92Z"/><path id="_Path_66" data-name="&lt;Path&gt;" class="cls-46" d="M76.92,163.69a0,0,0,0,1,0,0c4.13,12.92,20.68,9.2,20.68,9.2-2-.82-7.47-2.31-11.77-4.83C84,167,80.84,164.72,76.92,163.69Z"/></g><path id="_Path_67" data-name="&lt;Path&gt;" class="cls-46" d="M77.4,181.33a15.59,15.59,0,0,0,13.61.74c-5-4.26-16.77-2.71-16.77-2.71,5.08,4.32,6.55,11.26,6.55,11.26A12.11,12.11,0,0,0,77.4,181.33Z"/><path id="_Path_68" data-name="&lt;Path&gt;" class="cls-47" d="M58.23,173.19a25.26,25.26,0,0,0-3.49,7.37c4,1.37,9.72.93,12.8-3.12s2-9.34-.28-12.9C64.31,166,61.25,168.63,58.23,173.19Z"/></g><g id="_Group_12" data-name="&lt;Group&gt;"><path id="_Path_69" data-name="&lt;Path&gt;" class="cls-48" d="M52.52,180.84c10.08,4.66,14,22.85,7.26,30.84-9,10.68-36.35,2.34-38.52-8.26C19.16,193.15,39.4,174.78,52.52,180.84Z"/><path id="_Path_70" data-name="&lt;Path&gt;" class="cls-49" d="M59.46,205c3-14.93-22.29-9.63-20.86-10.91,2.24-2,13.54-1.85,15.39-6,1.95-4.34-3.58-10.72-18.37-5.1,5.55-3.16,11.77-4.53,16.9-2.16,10.08,4.66,14,22.85,7.26,30.84-7.27,8.63-26.53,4.84-34.8-2.53v-.08C41.25,219.19,58,212.44,59.46,205Z"/><path id="_Path_71" data-name="&lt;Path&gt;" class="cls-50" d="M28,188.82a19.8,19.8,0,0,0-.8,4.3c-.71,9.49,7.86,17.84,17.05,18.12,9.72.28,17.18-7.35,18.06-16.7,1.54,6.27.9,13-2.56,17.14-9,10.68-36.35,2.34-38.52-8.26C20.39,199.17,23.35,193.54,28,188.82Z"/><path id="_Path_72" data-name="&lt;Path&gt;" class="cls-51" d="M51.56,185.38c0-1.83-3.68-3.54-6.78-3.46-3.28.09-6.8,2.23-6.58,4s4.35,3.27,7.65,2.9C48.36,188.57,51.59,187.12,51.56,185.38Z"/><path id="_Path_73" data-name="&lt;Path&gt;" class="cls-52" d="M56.06,200.2c0-2.18-4.28-4.39-8-4.19-3.28.18-7.09,2.26-7,4.36s4.28,4,7.77,3.94C52.09,204.2,56,202.29,56.06,200.2Z"/></g><g id="_Group_13" data-name="&lt;Group&gt;"><path id="_Path_74" data-name="&lt;Path&gt;" class="cls-53" d="M90.21,202.13l29.93,23.12,88.15-60.46s-20.3-13.51-26.5-17.11-18.19-10.21-36-1.6C123,157.13,98.19,182,90.61,192.92,87.6,197.26,90.21,202.13,90.21,202.13Z"/><path id="_Path_75" data-name="&lt;Path&gt;" class="cls-54" d="M120.21,225.35,210.84,174s-.12-7.64-2.52-9.11c-5.11-3.12-16.9-2.77-32.53,4.41-21.79,10-45.08,34.39-54.52,45.51C117.07,219.76,120.21,225.35,120.21,225.35Z"/><g id="_Group_14" data-name="&lt;Group&gt;" class="cls-55"><path id="_Path_76" data-name="&lt;Path&gt;" class="cls-56" d="M123.66,212.09s-3.83-4.53-5.58-6.87-3.43-4.73-5-7.17a84.8,84.8,0,0,1-4.34-7.56,37.62,37.62,0,0,1-3.07-8,16.93,16.93,0,0,1-.44-4.1l.11-1a5.52,5.52,0,0,1,.37-1.49c-.82.81-1.63,1.61-2.41,2.41a18.58,18.58,0,0,0,.52,4.61,38.7,38.7,0,0,0,3.29,8.4,85.15,85.15,0,0,0,4.55,7.65c1.65,2.46,3.39,4.85,5.19,7.19s3.72,4.86,5.64,7c.54,1.68,1,8.22,1,10.28l.93-.52C124.46,220,123.66,212.09,123.66,212.09Z"/><path id="_Path_77" data-name="&lt;Path&gt;" class="cls-56" d="M161.24,172.75c-1.44-.35-2.88-.67-4.33-1-2.89-.6-5.79-1.12-8.7-1.59-5.83-.92-11.69-1.63-17.6-2-3-.17-5.91-.25-8.89-.17a50.17,50.17,0,0,0-8.59.94c-1.19,1.06-2.35,2.11-3.48,3.17a18.85,18.85,0,0,1,3.58-1.12,47.71,47.71,0,0,1,8.56-.91c2.89-.09,5.8,0,8.71.16,5.81.34,11.62,1,17.38,1.94q4.34.69,8.62,1.57c1.42.3,2.85.61,4.25,1,1,.24,2.83.57,3.77.87.71.62,2.47,10.72,2.6,23.15l1.51-.86c-.07-9.25-1.61-23.12-2.11-23.64C165.31,173.81,162.43,173.06,161.24,172.75Z"/></g><path id="_Path_78" data-name="&lt;Path&gt;" class="cls-57" d="M157.3,180.51c-1.82-1-33.21-8.3-42-4.88a4.05,4.05,0,0,0-2.69,2.54c-2.07,7,14,23.65,16.84,26.56.78,3.85,1.05,10.82,1.15,14.7l2-1.11a126.17,126.17,0,0,0-1-14.92c-7.07-7.08-17.95-20.09-16.64-24.55.12-.42.67-.73,1.11-.92,7.49-3.22,37.35,3.22,39.23,4.18,1.1.86,2,9.55,2.44,22l1.82-1C159.37,192.33,158.18,181,157.3,180.51Z"/><path id="_Path_79" data-name="&lt;Path&gt;" class="cls-57" d="M147.48,188.64c-.75-1.13-16.51-6.68-21.51-6a2.8,2.8,0,0,0-2,1,1.84,1.84,0,0,0-.27,1.47c.71,3.55,11.49,10.52,13.94,12.06l.65,17.94,1.57-.89-.65-18-.37-.22c-5-3.11-13.11-8.91-13.58-11.24a.32.32,0,0,1,0-.23c.08-.12.37-.27.93-.34,4.64-.66,19.78,5.08,20.17,5.78s1.07,10.67,1.31,19.77l1.65-.94C149.13,200.14,148.1,189.57,147.48,188.64Z"/><path id="_Path_80" data-name="&lt;Path&gt;" class="cls-57" d="M175.85,169.37c-17.62-7-41.73-8-53.75-7.93-.59.47-1.18.93-1.76,1.41,11.07.05,36.28,1,53.07,7.66a189.85,189.85,0,0,1,2.8,23.11l1.75-1C177.29,178.38,176.05,169.68,175.85,169.37Z"/><path id="_Path_81" data-name="&lt;Path&gt;" class="cls-57" d="M190.05,164.26c-.23-.43-17.63-10.34-57-10.83l-1.2.81c37.57.52,56.16,10.63,56.16,10.63.68,2.44,1.53,15.19,1.84,21l1.15-.65C190.79,178.67,190.2,165.19,190.05,164.26Z"/><path id="_Path_82" data-name="&lt;Path&gt;" class="cls-57" d="M199.42,163s-14-14.61-56.56-15.46l-1.57.85c37.17,1.1,55.06,13.26,56.47,14.79.78,4.24.88,13.46.88,17.7l1.1-.63C199.67,174.74,199.42,163,199.42,163Z"/><path id="_Path_83" data-name="&lt;Path&gt;" class="cls-58" d="M208.32,164.89c-2.89-1.76-7.92-2.42-14.57-1.35-7.95,20.59-35.21,40.49-68.15,46.35-1.65,1.82-3.11,3.48-4.33,4.92-4.2,4.95-1.06,10.54-1.06,10.54L210.84,174S210.72,166.36,208.32,164.89Z"/><path id="_Path_84" data-name="&lt;Path&gt;" class="cls-59" d="M121.27,214.81c1.22-1.44,2.68-3.1,4.33-4.92h0s-25.51-.84-29.68-23.65c-2.2,2.54-4,4.82-5.31,6.68-3,4.34-.4,9.21-.4,9.21l29.36,22.68C119.08,221.47,119.09,217.38,121.27,214.81Z"/><path id="_Path_85" data-name="&lt;Path&gt;" class="cls-59" d="M193.75,163.54c6.58-1,11.57-.42,14.47,1.3l.07-.05s-20.3-13.51-26.5-17.11c-5.15-3-14.33-8.07-27.51-4.73C186.42,144.17,193.75,163.54,193.75,163.54Z"/><path id="_Path_86" data-name="&lt;Path&gt;" class="cls-60" d="M125.6,209.89c11.11-12.27,31.22-31.87,50.19-40.59a82.59,82.59,0,0,1,9.34-3.65c-5.64-12.38-25.49-21-39.33-19.57-18.94,9.16-39.19,27.83-49.88,40.16,4.17,22.81,29.68,23.65,29.68,23.65Z"/><path id="_Path_87" data-name="&lt;Path&gt;" class="cls-61" d="M99.24,186.68a144.71,144.71,0,0,1,33.82-29.89S115.25,174.47,99.24,186.68Z"/></g><g id="_Group_15" data-name="&lt;Group&gt;"><path id="_Path_88" data-name="&lt;Path&gt;" class="cls-62" d="M149.21,215.17c-1.51-3.65,2.94-24.32,21.91-27.78,13.67-2.5,21.43,11.82,14.73,21.13C175.73,222.58,150.77,218.94,149.21,215.17Z"/><path id="_Path_89" data-name="&lt;Path&gt;" class="cls-63" d="M153.16,208c-1.69-1.73,5.91-15.15,11.94-16.9,5.87-1.7,12.41,3.27,10.27,10C173.31,207.6,157,212,153.16,208Z"/><g id="_Group_16" data-name="&lt;Group&gt;"><path id="_Path_90" data-name="&lt;Path&gt;" class="cls-64" d="M178.25,190.79l-.31,0c-.2,0-.5-.1-.88-.13a17.22,17.22,0,0,0-7.35,1,27.49,27.49,0,0,0-4.44,2,16.14,16.14,0,0,0-2.09,1.39,20.05,20.05,0,0,0-4.45,5c-.34.53-.62,1-.85,1.47s-.43.85-.59,1.17-.25.59-.33.77l-.11.27a.29.29,0,0,0,.13.37.31.31,0,0,0,.39-.14l.12-.26c.09-.17.2-.43.37-.74s.35-.69.61-1.11.55-.88.89-1.38a21.22,21.22,0,0,1,2.68-3.08,16.81,16.81,0,0,1,1.77-1.44,20.8,20.8,0,0,1,6.72-3.15l0,.11.07.23c0,.09,0,.15.05.23a2.85,2.85,0,0,1,.09.56,3.89,3.89,0,0,1,0,.69,5.56,5.56,0,0,1-.1.78,6.48,6.48,0,0,1-.26.82,6.94,6.94,0,0,1-.39.83c-.16.27-.32.54-.5.79s-.38.5-.56.74-.38.46-.57.67l-.55.58c-.68.71-1.17,1.17-1.17,1.17a.38.38,0,0,0,.51.57h0s.52-.42,1.28-1.09c.2-.16.4-.35.61-.55s.44-.42.67-.65.45-.47.67-.75.43-.55.63-.84a7.77,7.77,0,0,0,.54-.93,5.68,5.68,0,0,0,.62-2,5.66,5.66,0,0,0,0-1.72,3.38,3.38,0,0,0-.11-.57v0a14.22,14.22,0,0,1,5.48,0l.27.06H178a.9.9,0,0,0,.3-1.77Z"/><path id="_Path_91" data-name="&lt;Path&gt;" class="cls-65" d="M181,200a.8.8,0,0,0-1.1.35l0,0-.15.29c-.1.2-.26.48-.46.83a21.06,21.06,0,0,1-1.77,2.5,6,6,0,0,0-1.92-.69,16.5,16.5,0,0,0-8-.19,28.82,28.82,0,0,0-8.74,3.85.37.37,0,0,0-.13.49.36.36,0,0,0,.5.14,33,33,0,0,1,5.14-2.5,16.24,16.24,0,0,1,11.53.09l.38.15a22.13,22.13,0,0,1-2.53,2.32c-2.91,2.27-6.81,3.29-10.37,3.85a19.25,19.25,0,0,1-8.31-.23l-1.3-.37a.24.24,0,0,0-.3.16.25.25,0,0,0,.16.31l1.28.42c4.15,1.35,8.84.77,13-.19a18.82,18.82,0,0,0,6.59-2.93,25.91,25.91,0,0,0,3.83-3.44,24.06,24.06,0,0,0,2.25-2.9c.24-.38.42-.68.54-.89l.18-.32v0A.81.81,0,0,0,181,200Z"/></g><path id="_Path_92" data-name="&lt;Path&gt;" class="cls-66" d="M177.85,187.54c3.65,2.79,5.74,7.77,4.79,11.84-4.4,18.94-27.92,15.85-30.59,14.66-1.38-.62-2.23-2.51-2.73-4.21a11.09,11.09,0,0,0-.11,5.34c1.56,3.77,26.52,7.41,36.64-6.65C191.35,200.87,187.11,189.86,177.85,187.54Z"/><path id="_Path_93" data-name="&lt;Path&gt;" class="cls-67" d="M159.56,203.46c-1.13-.81,6.34-8.84,8.28-7.72C169.18,196.52,160.54,204.17,159.56,203.46Z"/></g></g></g></g></g></svg>