<svg xmlns="http://www.w3.org/2000/svg" xmlns:xlink="http://www.w3.org/1999/xlink" viewBox="0 0 215.69 226.51"><defs><style>.cls-1{fill:#634035;}.cls-2{isolation:isolate;}.cls-3{fill:#bf361c;}.cls-4{fill:#f7f7f6;}.cls-5{fill:url(#linear-gradient);}.cls-6{fill:#edb138;}.cls-7{fill:url(#linear-gradient-2);}.cls-8{fill:#6c8e3e;}.cls-9{fill:#fff8d4;}.cls-10{fill:url(#linear-gradient-3);}.cls-11{fill:url(#linear-gradient-4);}.cls-12{fill:url(#linear-gradient-5);}.cls-13{fill:url(#linear-gradient-6);}.cls-14{fill:#fff3b0;}.cls-15{fill:url(#linear-gradient-7);}.cls-16{fill:#617d35;}.cls-17{fill:#a5bb43;}.cls-18{fill:#ac6a46;}.cls-18,.cls-23,.cls-31,.cls-33,.cls-35{opacity:0.3;}.cls-18,.cls-21,.cls-23,.cls-29,.cls-30,.cls-31,.cls-58,.cls-59,.cls-61{mix-blend-mode:multiply;}.cls-19{fill:#fff7f9;}.cls-20{fill:#471b0b;}.cls-21,.cls-23{fill:#582e22;}.cls-21{opacity:0.2;}.cls-22{fill:#8f6e64;}.cls-24{fill:#8a5c53;}.cls-25{fill:#e74006;}.cls-26{fill:#2bb673;}.cls-27{fill:#c7c0c2;}.cls-28{fill:#f7e1e7;}.cls-29{fill:#292623;opacity:0.15;}.cls-30{fill:#d6bdb4;opacity:0.5;}.cls-31{fill:#ab6ab0;}.cls-32{fill:#f4b2c9;}.cls-33{fill:#e3c1b2;}.cls-34{fill:#ee7650;}.cls-35{fill:#64260f;}.cls-36{fill:#f7ebcd;}.cls-37{fill:#efddbe;}.cls-38{fill:#c2ab97;}.cls-39{fill:#fdf9f0;}.cls-40{fill:#e2c9a8;}.cls-41{clip-path:url(#clip-path);}.cls-42{fill:#918984;}.cls-43{fill:#ffd1d1;}.cls-44{fill:#fff5f5;}.cls-45{fill:#eee9f1;}.cls-46{fill:#ded5e4;}.cls-47{fill:#ffaac1;}.cls-48{fill:url(#linear-gradient-8);}.cls-49{fill:url(#linear-gradient-9);}.cls-50{fill:#ffbece;}.cls-51{fill:#9e1f63;opacity:0.1;}.cls-52{fill:#804221;}.cls-53{fill:url(#linear-gradient-11);}.cls-54{fill:url(#linear-gradient-12);}.cls-55{fill:#d72e20;}.cls-56{fill:#fdfbf9;}.cls-57{fill:#9fcb3b;}.cls-58{fill:#f5f1eb;}.cls-59{fill:#f2eee6;}.cls-60{fill:#63c4e0;}.cls-61{fill:#f6f2ec;}.cls-62{fill:url(#linear-gradient-13);}.cls-63{fill:#f3b900;}</style><linearGradient id="linear-gradient" x1="92.98" y1="99.36" x2="206.69" y2="99.36" gradientUnits="userSpaceOnUse"><stop offset="0" stop-color="#efc355"/><stop offset="1" stop-color="#e3a731"/></linearGradient><linearGradient id="linear-gradient-2" x1="101.93" y1="65.16" x2="111.5" y2="101.55" gradientUnits="userSpaceOnUse"><stop offset="0" stop-color="#ffec8d"/><stop offset="1" stop-color="#f2ca52"/></linearGradient><linearGradient id="linear-gradient-3" x1="104.46" y1="85" x2="160" y2="85" gradientUnits="userSpaceOnUse"><stop offset="0" stop-color="#fff3b0"/><stop offset="0.52" stop-color="#ffd556"/><stop offset="1" stop-color="#edb138"/></linearGradient><linearGradient id="linear-gradient-4" x1="145.59" y1="36.18" x2="155.05" y2="88.68" xlink:href="#linear-gradient-3"/><linearGradient id="linear-gradient-5" x1="179.3" y1="46.34" x2="186.88" y2="97.08" xlink:href="#linear-gradient-2"/><linearGradient id="linear-gradient-6" x1="167.87" y1="57.12" x2="177.68" y2="127.77" xlink:href="#linear-gradient-3"/><linearGradient id="linear-gradient-7" x1="149.31" y1="57.69" x2="156.37" y2="128.92" xlink:href="#linear-gradient-3"/><clipPath id="clip-path"><polygon id="_Clipping_Path_" data-name="&lt;Clipping Path&gt;" class="cls-1" points="96.6 198.19 204.98 159.96 208.54 167.83 100.55 206.52 96.6 198.19"/></clipPath><linearGradient id="linear-gradient-8" x1="143.41" y1="118.8" x2="170.75" y2="200.05" gradientUnits="userSpaceOnUse"><stop offset="0" stop-color="#eee9f1"/><stop offset="0.55" stop-color="#eae2ea"/><stop offset="1" stop-color="#e4d8e0"/></linearGradient><linearGradient id="linear-gradient-9" x1="176.7" y1="200.82" x2="151.6" y2="145.97" gradientUnits="userSpaceOnUse"><stop offset="0" stop-color="#ff6c7a"/><stop offset="0.21" stop-color="#ff7281"/><stop offset="0.51" stop-color="#ff8394"/><stop offset="0.87" stop-color="#ff9fb4"/><stop offset="1" stop-color="#ffaac1"/></linearGradient><linearGradient id="linear-gradient-11" x1="150.43" y1="101.17" x2="157.34" y2="131.77" gradientUnits="userSpaceOnUse"><stop offset="0" stop-color="#d81f08"/><stop offset="1" stop-color="#b31310"/></linearGradient><linearGradient id="linear-gradient-12" x1="119.12" y1="127.52" x2="184.68" y2="127.52" gradientUnits="userSpaceOnUse"><stop offset="0" stop-color="#ffd1da"/><stop offset="0.41" stop-color="#ffcbd5"/><stop offset="0.98" stop-color="#ffb9c7"/><stop offset="1" stop-color="#ffb8c6"/></linearGradient><linearGradient id="linear-gradient-13" x1="170.89" y1="195.6" x2="182.6" y2="211.93" gradientUnits="userSpaceOnUse"><stop offset="0" stop-color="#fd0"/><stop offset="1" stop-color="#fac200"/></linearGradient></defs><title>composition_10</title><g class="cls-2"><g id="Layer_2" data-name="Layer 2"><g id="Layer_3" data-name="Layer 3"><g id="_Group_" data-name="&lt;Group&gt;"><g id="_Group_2" data-name="&lt;Group&gt;"><g id="_Group_3" data-name="&lt;Group&gt;"><g id="_Group_4" data-name="&lt;Group&gt;"><path id="_Path_" data-name="&lt;Path&gt;" class="cls-3" d="M91.89,95.7s1,5.73,7.69,29.64c6.23,22.19,87.86,27.52,98.25.34,2.12-5.54,5-17.06,7.94-30.68Z"/></g></g><g id="_Group_5" data-name="&lt;Group&gt;"><g id="_Group_6" data-name="&lt;Group&gt;"><path id="_Path_2" data-name="&lt;Path&gt;" class="cls-4" d="M85.4,93.21S137,163.07,214.78,97.47C214.78,97.47,158.9,43.4,85.4,93.21Z"/><path id="_Path_3" data-name="&lt;Path&gt;" class="cls-5" d="M93,93.25s47.26,59.94,113.71,3.42C206.69,96.67,158.41,56.57,93,93.25Z"/></g><g id="_Group_7" data-name="&lt;Group&gt;"><path id="_Path_4" data-name="&lt;Path&gt;" class="cls-6" d="M117,43.58c5.42-2,38.56,22.69,42.68,41,1,4.46-42.1,20.64-44.25,18C108.85,94.74,111.84,45.47,117,43.58Z"/><path id="_Path_5" data-name="&lt;Path&gt;" class="cls-7" d="M121.33,114.63c15.49-23.21.24-51.28-1.86-51.52C106.75,61.67,86.8,76.69,85.61,82.82c-.59,3,8,11.63,17.89,20.67A82.91,82.91,0,0,0,121.33,114.63Z"/><path id="_Compound_Path_" data-name="&lt;Compound Path&gt;" class="cls-8" d="M118.27,90.09a8.71,8.71,0,1,0-8.19,10A8.82,8.82,0,0,0,118.27,90.09Zm-7.79,7.6a6.9,6.9,0,0,1-7.34-6.07,7,7,0,0,1,6.18-6.93c4-.45,7.36,2.14,7.52,6A6.55,6.55,0,0,1,110.48,97.69Z"/><path id="_Path_6" data-name="&lt;Path&gt;" class="cls-9" d="M112.69,90.39s-6-4.19-3.43-9.39c2-4.07,6.6-3.55,9.2-8.34,1.94-3.6,2.9-10,9.49-6.77C133.84,68.81,112.69,90.39,112.69,90.39Z"/><path id="_Path_7" data-name="&lt;Path&gt;" class="cls-10" d="M111.77,109.44c15.27-.48,46.77-8.33,48.14-10.62,1.76-3-23.57-38.47-29.11-38.27-3.89.15-19,26-26.34,43.71A86.29,86.29,0,0,0,111.77,109.44Z"/><path id="_Path_8" data-name="&lt;Path&gt;" class="cls-11" d="M157.12,34.88c8.33.68,21.28,46.16,20.3,50.64s-44,3.44-46.07.67S151.28,34.41,157.12,34.88Z"/><path id="_Compound_Path_2" data-name="&lt;Compound Path&gt;" class="cls-8" d="M177,65.4c2.25-4.12.49-9.62-3.9-12.08A8.5,8.5,0,0,0,161.61,56a9,9,0,0,0,2.49,12.25C168.49,71.16,174.6,69.74,177,65.4Zm-11.1.19a5.86,5.86,0,0,1-1.74-7.83A5.79,5.79,0,0,1,171.64,56a6,6,0,0,1,2,8A5.84,5.84,0,0,1,165.86,65.59Z"/><path id="_Path_9" data-name="&lt;Path&gt;" class="cls-12" d="M164.89,98.24c-4.36-3.15,3-48.15,6.92-50.2,5.54-2.87,29.12,5.75,33,16.41C206.62,69.35,171.39,102.93,164.89,98.24Z"/><path id="_Path_10" data-name="&lt;Path&gt;" class="cls-9" d="M115.32,104.57c0-.22-3.12-6.25,3.8-11.42a8.81,8.81,0,0,1,11.82,1.06C140.45,104.1,118.24,122.26,115.32,104.57Z"/><path id="_Compound_Path_3" data-name="&lt;Compound Path&gt;" class="cls-8" d="M156.92,79.22a9.18,9.18,0,1,0-8.68,10.1A9.14,9.14,0,0,0,156.92,79.22ZM148.15,87c-3.72.26-6.63-3.08-6.82-6.2a6.76,6.76,0,0,1,5.65-7c3.71-.43,7,2.86,7.18,6.14A6.82,6.82,0,0,1,148.15,87Z"/><path id="_Path_11" data-name="&lt;Path&gt;" class="cls-6" d="M215.41,73.82c-2.06-3.89-41.63,5.27-42.29,8.45l14,28.17a118.77,118.77,0,0,0,19.56-13.75C210.11,91.42,217.17,77.14,215.41,73.82Z"/><path id="_Path_12" data-name="&lt;Path&gt;" class="cls-13" d="M185.2,59.08c-3-1.09-32.55,37-32.11,42.46.28,3.5,17.12,11.53,29,11.53a105,105,0,0,0,13.18-7.65C194.17,91.05,188.62,60.32,185.2,59.08Z"/><path id="_Path_13" data-name="&lt;Path&gt;" class="cls-6" d="M180.1,112.53l1.08-40.4c-5.37,3.48-16.56,25-19.2,35.09a23.23,23.23,0,0,0,18.12,5.31Z"/><path id="_Path_14" data-name="&lt;Path&gt;" class="cls-14" d="M168,81.86s10.57-15.61,15.81-22.17c-3.28,2.39-10.85,11.35-17.66,20.44Z"/><path id="_Path_15" data-name="&lt;Path&gt;" class="cls-9" d="M150.43,80.67a12.43,12.43,0,0,1,10.26-5.28c7.1.19,9.71,6.79,9.71,6.79Z"/><path id="_Path_16" data-name="&lt;Path&gt;" class="cls-8" d="M186.94,99a8.91,8.91,0,0,0-5.69,10.55,8.71,8.71,0,0,0,1.53,3.2c1-.48,1.94-1,2.92-1.52-2.84-3.2-1.48-9.72,4.09-9.72a5.22,5.22,0,0,1,5.31,4.05c.83-.56,1.67-1.13,2.51-1.72A8.84,8.84,0,0,0,186.94,99Z"/><path id="_Path_17" data-name="&lt;Path&gt;" class="cls-6" d="M143.89,120.68c-.88-10.44-3.34-31.6-5.95-31.76-4.47-.28-22.57,14.42-28.55,19A73,73,0,0,0,143.89,120.68Z"/><path id="_Path_18" data-name="&lt;Path&gt;" class="cls-15" d="M166.78,118.72c3.75-10.35,8.65-33,7.49-35.52-1.68-3.62-43.06-3.57-44.62.37-1.13,2.85,5.59,26.38,9,36.42A67,67,0,0,0,166.78,118.72Z"/><path id="_Path_19" data-name="&lt;Path&gt;" class="cls-9" d="M162.4,116.76c-4.66,1.09-7.67-3.47-12-2.2-3.34,1-5.42,4.3-6.41,6.11,11,1.32,24.21-.92,33.25-5.56C166.3,104.22,166.86,115.73,162.4,116.76Z"/><path id="_Path_20" data-name="&lt;Path&gt;" class="cls-16" d="M123,107.48c-1.1,1.23,3,4.72,3.84,4C128.07,110.3,123.93,106.43,123,107.48Z"/><path id="_Path_21" data-name="&lt;Path&gt;" class="cls-16" d="M193.48,60.57c-1,1.1,2.24,4.17,2.85,3.4C197.08,63,194.33,59.61,193.48,60.57Z"/><path id="_Path_22" data-name="&lt;Path&gt;" class="cls-16" d="M201.77,98.17c-.21-1.47-4.61-.9-4.41.06C197.6,99.41,202,99.44,201.77,98.17Z"/><path id="_Path_23" data-name="&lt;Path&gt;" class="cls-17" d="M95.47,85.29c.31-1.45-4-2.49-4.15-1.52C91,85.26,95.2,86.55,95.47,85.29Z"/></g><path id="_Path_24" data-name="&lt;Path&gt;" class="cls-14" d="M131.56,84.14s10.73-2.44,37.19-2.72c-11.7-1.65-37.87-1-39.1,2.15-.91,2.29,3.25,17.94,6.68,29.2Z"/><path id="_Path_25" data-name="&lt;Path&gt;" class="cls-14" d="M105.73,105.23l19.93-39.7c-6.24,8.39-15.78,25.74-21.2,38.73Z"/><circle id="_Path_26" data-name="&lt;Path&gt;" class="cls-18" cx="138.13" cy="88.75" r="1.61"/><circle id="_Path_27" data-name="&lt;Path&gt;" class="cls-18" cx="140.61" cy="102.25" r="1.61"/><circle id="_Path_28" data-name="&lt;Path&gt;" class="cls-18" cx="151.72" cy="88.35" r="1.61"/><circle id="_Path_29" data-name="&lt;Path&gt;" class="cls-18" cx="153.81" cy="102.18" r="1.61"/><circle id="_Path_30" data-name="&lt;Path&gt;" class="cls-18" cx="152.93" cy="50.55" r="1.61"/><circle id="_Path_31" data-name="&lt;Path&gt;" class="cls-18" cx="113.78" cy="69.49" r="1.38"/><circle id="_Path_32" data-name="&lt;Path&gt;" class="cls-18" cx="102.39" cy="76.22" r="1.38"/><circle id="_Path_33" data-name="&lt;Path&gt;" class="cls-18" cx="165.57" cy="88.08" r="1.61"/><circle id="_Path_34" data-name="&lt;Path&gt;" class="cls-18" cx="147.46" cy="64.73" r="1.61"/></g></g><g id="_Group_8" data-name="&lt;Group&gt;"><g id="_Group_9" data-name="&lt;Group&gt;"><g id="_Group_10" data-name="&lt;Group&gt;"><g id="_Group_11" data-name="&lt;Group&gt;"><path id="_Path_35" data-name="&lt;Path&gt;" class="cls-19" d="M121.39,98.9c-2.82-11.78,4.31-30.13,3.91-40.37-.56-14.5-17.64-32.15-17.64-32.15L107.49,22l-20.44.22-.17,4.21S69.09,44.12,69.46,57.77C69.74,68,75.82,87.12,73,98.9s-14,33.83-.31,55.16c2.21,3.44,16.75,5.51,26,5.51,9.86,0,21-1.28,23.36-4.18C137.11,137.18,124.2,110.67,121.39,98.9Z"/><path id="_Path_36" data-name="&lt;Path&gt;" class="cls-20" d="M125.89,57.78c-.27-6.89-4.4-14.32-8.66-20.22a54.71,54.71,0,0,1-20.72,3.12A72.32,72.32,0,0,1,77,38c-4.28,6-8.29,13.34-8.11,19.79C69.16,68,75.82,87.12,73,98.9c-1.56,6.54-6,10.64-7.32,24.26-1,10.88-.07,22.38,6,31.85,2.21,3.44,17.44,5.35,26.71,5.35,9.86,0,22-1.42,24.45-4.33,15-18.2,1.35-45.36-1.46-57.13S126.29,68,125.89,57.78Z"/><g id="_Group_12" data-name="&lt;Group&gt;"><path id="_Path_37" data-name="&lt;Path&gt;" class="cls-21" d="M118.26,43.05s5.83,6.46,6.34,12.93c.32,4.12-.39,12.1-.94,17.35,1.24-5.91,2.39-11.45,2.23-15.55-.27-6.89-4.4-14.32-8.66-20.22a54.71,54.71,0,0,1-20.72,3.12A72.32,72.32,0,0,1,77,38a5,5,0,0,0-.81,4.09S81,47.72,97.83,47.72C110.87,47.72,118.26,43.05,118.26,43.05Z"/><ellipse id="_Path_38" data-name="&lt;Path&gt;" class="cls-22" cx="97.32" cy="38.91" rx="20.65" ry="5.29"/></g></g><path id="_Path_39" data-name="&lt;Path&gt;" class="cls-23" d="M74.07,153.76s8.18-11.22,23-11.22c16.74,0,23.4,12.27,23.4,12.27S100.08,162,74.07,153.76Z"/><g id="_Group_13" data-name="&lt;Group&gt;"><path id="_Path_40" data-name="&lt;Path&gt;" class="cls-24" d="M68.92,58.7c0,10.31,6.16,28.54,3.43,40-1.55,6.49-6.12,11.92-6.64,24.14,26.72,10.43,52.32,4.33,63.46.61-.72-13.48-5.18-18.13-6.68-24.43-2.81-11.77,4.5-29.22,3.71-40.94a9.54,9.54,0,0,0-.8-4C105.2,66.45,76.51,62.1,68.92,58.7Z"/></g><path id="_Path_41" data-name="&lt;Path&gt;" class="cls-19" d="M102.29,67.39c-9.16-2.24-19.53,3.68-21.17,13.41-1.53,9.1,5.17,17.84,14.11,19.41,9.41,1.66,19-5,20.12-14.47C116.38,77.25,110.26,69.35,102.29,67.39Z"/><g id="_Group_14" data-name="&lt;Group&gt;"><path id="_Path_42" data-name="&lt;Path&gt;" class="cls-25" d="M110.45,75.55a15.28,15.28,0,0,0-8.7-6c-8-1.94-16.94,3.19-18.37,11.63a14,14,0,0,0,1.4,8.74C89.65,89.53,104.42,87.36,110.45,75.55Z"/><path id="_Path_43" data-name="&lt;Path&gt;" class="cls-26" d="M86.69,92.79A15.19,15.19,0,0,0,95.63,98c8.12,1.43,16.37-4.31,17.43-12.44C109.29,88,97.87,94.69,86.69,92.79Z"/></g><path id="_Path_44" data-name="&lt;Path&gt;" class="cls-27" d="M65.47,125.79c24.64,8.78,52.08,3.62,64,.57-.09-1-.19-2-.31-2.94,0-.69-.09-1.37-.14-2-5.82,3.63-19.14,6.42-31.27,6.67-13.87.28-25.83-3-32-6.5,0,.42,0,.84-.07,1.27h0l0,.35C65.59,124,65.52,124.91,65.47,125.79Z"/><path id="_Path_45" data-name="&lt;Path&gt;" class="cls-27" d="M125.41,54.1c0-.14-.07-.28-.1-.43A90.71,90.71,0,0,1,68.88,57c0,.26,0,.52,0,.79s0,.61,0,.92,0,.89,0,1.35c5.82,2.09,33,6.46,57.09-3.85A9.14,9.14,0,0,0,125.41,54.1Z"/><path id="_Path_46" data-name="&lt;Path&gt;" class="cls-28" d="M107.58,24.28h0c-13,1.36-19.52.34-20.59.15l-.08,2a74.81,74.81,0,0,0,20.78,0Z"/><path id="_Path_47" data-name="&lt;Path&gt;" class="cls-29" d="M122.33,99.16c-2.82-11.78,4.46-30.11,4.06-40.36-.56-14.5-18.73-32.42-18.73-32.42l-.08-2.13a58.12,58.12,0,0,1-7.48.68l.14,2s13.31,14.07,11,40.42c-2,22.48-2.61,22.12,3,44.54,3.41,13.58-.58,37.49-2.77,47.67,5.48-.71,10-1.88,11.41-3.54C137.88,137.83,125.14,110.93,122.33,99.16Z"/><path id="_Path_48" data-name="&lt;Path&gt;" class="cls-19" d="M87.37,18.86s-2.26,2.2-4.76,4.68c8.22,2,23.06,2.1,29.1-.32-2.53-2.25-5.14-4.8-5.14-4.8Z"/><path id="_Path_49" data-name="&lt;Path&gt;" class="cls-30" d="M106.57,18.42l-6.78.16,0,2.13L103,24.84a31.62,31.62,0,0,0,8.73-1.62C109.18,21,106.57,18.42,106.57,18.42Z"/></g><path id="_Path_50" data-name="&lt;Path&gt;" class="cls-25" d="M83.54,3.3l-.12,16.54a64.66,64.66,0,0,0,27.39-.22L110.58,3.3Z"/><path id="_Path_51" data-name="&lt;Path&gt;" class="cls-31" d="M110.58,3.3h-8.14L100,5l.26,16.1a58.93,58.93,0,0,0,10.55-1.49Z"/><ellipse id="_Path_52" data-name="&lt;Path&gt;" class="cls-32" cx="97.06" cy="3.47" rx="13.52" ry="3.47"/></g><path id="_Path_53" data-name="&lt;Path&gt;" class="cls-33" d="M72,55.55c.51-8.21,7.58-20,10.22-24.19C76.83,37.6,68.63,48.61,68.88,57.78c0,.3,0,.61,0,.92,0,10.31,6.16,28.54,3.43,40-1.55,6.49-6.12,11.92-6.64,24.14a66.54,66.54,0,0,0,.21,16.2c.7-16.65,7.29-25.79,10-37.19C79.07,88.91,71.4,65.66,72,55.55Z"/></g><g id="_Group_15" data-name="&lt;Group&gt;"><polygon id="_Path_54" data-name="&lt;Path&gt;" class="cls-25" points="3.92 95.01 18.92 187.5 81.82 187.67 96.68 117.02 3.92 95.01"/><polygon id="_Path_55" data-name="&lt;Path&gt;" class="cls-34" points="75.57 187.65 85.26 112.02 14.93 107.28 26.26 187.52 34.99 187.54 29.71 121.12 44.62 124.54 46.21 187.57 55.74 187.6 57.37 120.5 72.04 117.87 66.09 187.63 75.57 187.65"/><path id="_Path_56" data-name="&lt;Path&gt;" class="cls-35" d="M7.32,105.56s12.55,30.33,44.55,31c30.53.63,43.08-17,43.08-17Z"/><path id="_Path_57" data-name="&lt;Path&gt;" class="cls-19" d="M0,93.11s11,33.81,44.84,39c32.64,4.95,55.38-14.53,55.38-14.53S67.58,74.62,0,93.11Z"/><path id="_Compound_Path_4" data-name="&lt;Compound Path&gt;" class="cls-36" d="M100.76,103.59c.08-2.86-1.2-4.15-4.1-4.16a16.58,16.58,0,0,0-4.23.71c.94-2.33,2.34-6.9.89-10.12-1.26-2.78-4-2.2-6-.65-.89.69-3.81,3.42-3.46,4.75a5.78,5.78,0,0,0-9-3.19,9.47,9.47,0,0,0-.35-7,11.7,11.7,0,0,0-8.14-6.24,5.9,5.9,0,0,0,.16-4.9C64.12,68,58.37,69,54.63,71.4,54.47,69,53.55,65.74,51,65.52c-1.76-.14-3.41,1.15-4.71,2.69-.18-.79-.38-1.59-.63-2.37-1-3.27-2.89-7.58-6.19-9.14-5.19-2.46-7.57,4.91-8.49,11a12,12,0,0,0-4.5-1.22c-5.59-.36-6.78,4.55-6.42,9.08-3.21-.8-6.38-.63-8,2.82-1.16,2.46-.92,5.44-.27,8.24a9.32,9.32,0,0,0-3.65,1.57c-3.11,2.23-4.48,4.9-1.59,11,7,16.61,26.31,27.07,36.77,28.88a71.45,71.45,0,0,0,51.37-10.47A20.81,20.81,0,0,0,100.76,103.59Z"/><path id="_Path_58" data-name="&lt;Path&gt;" class="cls-37" d="M96.66,99.43a16.58,16.58,0,0,0-4.23.71c.94-2.33,2.34-6.9.89-10.12-1.26-2.78-4-2.2-6-.65-.63.49-3.75,3.36-3.43,4.79,1,8.85-9.85,11.5-16.48,4.07-.55,8.68-11.8,12.56-17.71,7.2.82,8.39-10.79,16.42-12.45,2.95-3.55,3.08-11.09,4-15.19.42s-4-9.56-2.62-14.46C13.8,97.31,7,96,9.22,87.54a8.36,8.36,0,0,0-1.14.68c-3.11,2.23-4.48,4.9-1.59,11,7,16.61,26.31,27.07,36.77,28.88a71.5,71.5,0,0,0,51.37-10.47,20.81,20.81,0,0,0,6.13-14.07C100.84,100.73,99.56,99.44,96.66,99.43Z"/><g id="_Group_16" data-name="&lt;Group&gt;"><path id="_Path_59" data-name="&lt;Path&gt;" class="cls-38" d="M20.91,85.72c.11-3,3.44-3,5.17-1.52.56.47,1.08,1,1.63,1.45a.55.55,0,0,0,.92-.38c0-2.77,1.64-6.48,4.35-7.62,2.9-1.22,5.35,1.15,6.75,3.47a.54.54,0,0,0,.93-.55C39.09,78,36.24,75.35,33,76.46s-5.38,5.49-5.4,8.81l.93-.39c-1.5-1.27-3.19-3.34-5.38-3.14a3.87,3.87,0,0,0-3.27,4c0,.7,1.05.7,1.08,0Z"/></g><g id="_Group_17" data-name="&lt;Group&gt;"><path id="_Path_60" data-name="&lt;Path&gt;" class="cls-38" d="M18.56,108.64c-.31-2.8-.14-6.49,2.62-8.08a5.13,5.13,0,0,1,6.65,1.68c.4.56,1.34,0,.93-.55a6.29,6.29,0,0,0-7.43-2.41c-3.65,1.47-4.24,5.92-3.85,9.36.08.68,1.16.69,1.08,0Z"/></g><g id="_Group_18" data-name="&lt;Group&gt;"><path id="_Path_61" data-name="&lt;Path&gt;" class="cls-38" d="M41.61,98.55a7.55,7.55,0,0,1,4.59-5.32c2.78-.94,4.84,1.26,6.31,3.28.41.56,1.35,0,.94-.54-1.64-2.25-3.91-4.59-7-4-2.86.6-5.31,3.47-5.93,6.24-.15.68.89,1,1,.29Z"/></g><g id="_Group_19" data-name="&lt;Group&gt;"><path id="_Path_62" data-name="&lt;Path&gt;" class="cls-38" d="M52.75,80.43c1.67-2.38,5.84-5.08,8.18-2.05,1.42,1.84,1.27,4.75,1.3,7a.55.55,0,0,0,.82.47A12.26,12.26,0,0,1,68,83.6C73.56,82.75,71.7,91,71,94c-.16.68.88,1,1,.29.75-3.22,2.58-11.1-2.63-11.76-2.37-.31-5,1.06-6.92,2.38l.82.47c0-2.91,0-7.37-3-8.93s-6.77,1-8.5,3.49c-.4.57.53,1.11.93.54Z"/></g><g id="_Group_20" data-name="&lt;Group&gt;"><path id="_Path_63" data-name="&lt;Path&gt;" class="cls-38" d="M55.19,115.82c1-2,2.16-4.71,4.77-4.45,2.19.22,3,2.44,4.26,4a.55.55,0,0,0,1-.27c.18-3.18,3-7.09,5.93-8.39,3.65-1.62,6.28,1.79,7.61,4.79.28.63,1.21.08.93-.55-1.46-3.28-4.53-7-8.54-5.46a12.18,12.18,0,0,0-7,9.61l1-.27c-1.4-1.83-2.67-4.74-5.33-4.78-2.93,0-4.42,3-5.57,5.18-.32.62.61,1.17.93.55Z"/></g><path id="_Path_64" data-name="&lt;Path&gt;" class="cls-39" d="M37.39,59.12c-1.5-.12-3.38,3.37-3.27,6.54.05,1.43.55,3.9,1.72,4.13,1.41.27,3.67-2.68,3.79-5.68C39.72,61.89,38.66,59.21,37.39,59.12Z"/><path id="_Path_65" data-name="&lt;Path&gt;" class="cls-39" d="M25.18,68.93c-1.73.14-2.74,2.08-2.75,3.62S23.52,76,25,76.16c1.8.21,3.7-2,3.44-4.13C28.26,70.48,26.88,68.8,25.18,68.93Z"/><path id="_Path_66" data-name="&lt;Path&gt;" class="cls-39" d="M47.88,96.42c-1.68-.44-3.27,1.06-3.79,2.51s-.09,3.61,1.26,4.26c1.63.79,4.16-.7,4.6-2.77C50.28,98.89,49.52,96.85,47.88,96.42Z"/><path id="_Path_67" data-name="&lt;Path&gt;" class="cls-39" d="M57.89,80c-1.5-.48-3.2.89-3.47,2.47A2.8,2.8,0,0,0,56,85.59,3,3,0,0,0,57.89,80Z"/><path id="_Path_68" data-name="&lt;Path&gt;" class="cls-39" d="M11.1,90.12c-1.33-.42-2.89.95-3.18,2.47a2.62,2.62,0,0,0,1.31,3c1.25.47,2.8-.65,3.22-2.09S12.27,90.49,11.1,90.12Z"/><path id="_Path_69" data-name="&lt;Path&gt;" class="cls-39" d="M34.81,80.12a3.07,3.07,0,0,0-2.22,5.5,3.05,3.05,0,0,0,4.29-1.37A3.1,3.1,0,0,0,34.81,80.12Z"/><path id="_Path_70" data-name="&lt;Path&gt;" class="cls-39" d="M52.82,100.26a1.09,1.09,0,0,0,0,2.17A1.09,1.09,0,0,0,52.82,100.26Z"/><path id="_Path_71" data-name="&lt;Path&gt;" class="cls-39" d="M30.75,70a1.09,1.09,0,0,0,0,2.17A1.09,1.09,0,0,0,30.75,70Z"/><path id="_Path_72" data-name="&lt;Path&gt;" class="cls-39" d="M15.37,91.67a1.09,1.09,0,0,0,0,2.17A1.09,1.09,0,0,0,15.37,91.67Z"/><path id="_Path_73" data-name="&lt;Path&gt;" class="cls-39" d="M42.14,65.92a1.09,1.09,0,0,0,0,2.17A1.09,1.09,0,0,0,42.14,65.92Z"/><path id="_Path_74" data-name="&lt;Path&gt;" class="cls-40" d="M27.17,121.58a49.79,49.79,0,0,0,16.09,6.55,71.5,71.5,0,0,0,51.37-10.47,20.81,20.81,0,0,0,6.13-14.07,4.06,4.06,0,0,0-1-3.18,9.09,9.09,0,0,1,0,4.15A8.64,8.64,0,0,1,93.1,111c-2,.34-4-.07-6-.06A7.72,7.72,0,0,0,81,114c-.6.7-4,6.45-2.94,7.2-2.91-2.12-6.21-3.38-9.57-2.61-3.09.71-6,3.83-7.23,6-3-3.16-6.7-5.66-10.91-3.23-2.58,1.48-5.16,2.68-7.48,2.37-2.61-.34-5.26-2.68-6-7A7.12,7.12,0,0,1,33,121.34a7.72,7.72,0,0,1-4.63.7A6,6,0,0,1,27.17,121.58Z"/></g><g id="_Clip_Group_" data-name="&lt;Clip Group&gt;"><polygon id="_Clipping_Path_2" data-name="&lt;Clipping Path&gt;" class="cls-1" points="96.6 198.19 204.98 159.96 208.54 167.83 100.55 206.52 96.6 198.19"/><g class="cls-41"><g id="_Group_21" data-name="&lt;Group&gt;"><path id="_Path_75" data-name="&lt;Path&gt;" class="cls-22" d="M117.59,188q-1.25,3.56-2.47,7.13c-1.13,3.3-2.4,6.59-3.48,9.93,2-1,4.12-2,6.19-3,.92-2.53,1.89-5,2.75-7.5q1.56-4.5,3.1-9C121.65,186.32,119.62,187.14,117.59,188Z"/></g><g id="_Group_22" data-name="&lt;Group&gt;"><path id="_Path_76" data-name="&lt;Path&gt;" class="cls-22" d="M104.77,192.9c-2.13,6.09-4.28,12.27-5.9,18.49q3-1.45,6-3c1.79-6,4-12,6-17.91A55.36,55.36,0,0,0,104.77,192.9Z"/></g><g id="_Group_23" data-name="&lt;Group&gt;"><path id="_Path_77" data-name="&lt;Path&gt;" class="cls-22" d="M131.78,182.28l-.74.3q-2.82,8-5.53,16.1c2-.8,4-1.53,6-2.19q2.78-8.22,5.7-16.39C135.3,180.88,133.44,181.6,131.78,182.28Z"/></g><g id="_Group_24" data-name="&lt;Group&gt;"><path id="_Path_78" data-name="&lt;Path&gt;" class="cls-42" d="M163.7,200.5c5.21-14.88,10.83-29.61,16.75-44.21.87-2.15-2.6-3.08-3.46-1-5.92,14.61-11.54,29.34-16.75,44.21-.77,2.19,2.7,3.13,3.46,1Z"/></g><g id="_Group_25" data-name="&lt;Group&gt;"><path id="_Path_79" data-name="&lt;Path&gt;" class="cls-22" d="M190.2,162.83q-2.82,7.81-5.49,15.68l6-2c1.84-5.35,3.75-10.67,5.68-16C194.32,161.3,192.26,162.15,190.2,162.83Z"/></g><g id="_Group_26" data-name="&lt;Group&gt;"><path id="_Path_80" data-name="&lt;Path&gt;" class="cls-22" d="M203.1,155.49C202,159.58,198.64,170,197.42,174c-.29,1-1.34,6.32-1.64,7.29,1.5-.68,4.92-5.35,6.43-6,1.47-4.85,5.36-16.83,6.69-21.72C207.49,154.08,204.51,155,203.1,155.49Z"/></g></g></g><g id="_Group_27" data-name="&lt;Group&gt;"><polygon id="_Path_81" data-name="&lt;Path&gt;" class="cls-43" points="164.72 119.22 174.67 70.8 181.18 72.13 170.94 122.96 164.72 119.22"/><path id="_Path_82" data-name="&lt;Path&gt;" class="cls-44" d="M179.45,80.72l1.73-8.59-6.51-1.33-.4,1.94A94.63,94.63,0,0,0,179.45,80.72Z"/><path id="_Path_83" data-name="&lt;Path&gt;" class="cls-44" d="M173.73,75.36l-1.33,6.48c1.67,2.22,3.1,4.65,4.64,7l.61.87L179,83.12C177.14,80.58,175.35,78,173.73,75.36Z"/><path id="_Path_84" data-name="&lt;Path&gt;" class="cls-44" d="M176.49,91.21c-1.53-2.27-3-4.75-4.57-7l-1.26,6.16c1.59,3.07,3.29,6.08,5,9.06l1.46-7.23Z"/><path id="_Path_85" data-name="&lt;Path&gt;" class="cls-44" d="M170.08,93.11l-1.36,6.64c1.69,2.79,3.44,5.55,5.22,8.29l1.22-6C173.42,99.08,171.71,96.12,170.08,93.11Z"/><path id="_Path_86" data-name="&lt;Path&gt;" class="cls-44" d="M168.19,102.35l-3.47,16.87,6.22,3.74,2.5-12.4C171.65,107.85,169.89,105.12,168.19,102.35Z"/><g id="_Group_28" data-name="&lt;Group&gt;"><g id="_Group_29" data-name="&lt;Group&gt;"><g id="_Group_30" data-name="&lt;Group&gt;"><path id="_Path_87" data-name="&lt;Path&gt;" class="cls-45" d="M125.38,217.69s21.7,18.62,50.37,1.74C175.75,219.43,155,187.74,125.38,217.69Z"/><path id="_Path_88" data-name="&lt;Path&gt;" class="cls-46" d="M151.25,224.64a31.65,31.65,0,0,1-23-9.72c-1,.86-1.93,1.78-2.91,2.77,0,0,21.7,18.62,50.37,1.74a32.66,32.66,0,0,0-2.67-3.36A33.52,33.52,0,0,1,151.25,224.64Z"/><ellipse id="_Path_89" data-name="&lt;Path&gt;" class="cls-47" cx="150.89" cy="205.01" rx="10.57" ry="8.32"/><path id="_Path_90" data-name="&lt;Path&gt;" class="cls-48" d="M110.77,125.91s2.22,77.19,38.81,80.58,39.66-78.78,39.66-78.78Z"/><path id="_Path_91" data-name="&lt;Path&gt;" class="cls-49" d="M149.78,200.76c34.13-.88,36.75-72.13,36.75-72.13l-72.92-1.76S115.65,201.64,149.78,200.76Z"/><path id="_Path_92" data-name="&lt;Path&gt;" class="cls-49" d="M149.78,200.76c34.13-.88,36.75-72.13,36.75-72.13l-72.92-1.76S115.65,201.64,149.78,200.76Z"/><path id="_Path_93" data-name="&lt;Path&gt;" class="cls-50" d="M119.46,133.11s.61,51,25.45,64.48c0,0-8.84-23-8.84-55.54A59.94,59.94,0,0,1,119.46,133.11Z"/><path id="_Path_94" data-name="&lt;Path&gt;" class="cls-51" d="M154.6,206.4c31.85-4.19,34.64-78.69,34.64-78.69l-5.39-.12-17.79,14S167.09,184,154.6,206.4Z"/><path id="_Path_95" data-name="&lt;Path&gt;" class="cls-19" d="M110.77,125.91s35.29,44.5,78.47,1.8C189.24,127.71,157.11,94.74,110.77,125.91Z"/><path id="_Path_96" data-name="&lt;Path&gt;" class="cls-45" d="M116.14,126.58s28.41,34.91,68.56,1.17C184.7,127.75,153.51,101.37,116.14,126.58Z"/><path id="_Path_97" data-name="&lt;Path&gt;" class="cls-47" d="M161.27,126c-4.51-9.79-24.06-20.19-35.75-15.13-9.62,4.17-9.38,15.7-9.38,15.7l2.43,2.57A50.68,50.68,0,0,0,131,137.93c4.32-.92,12.09-2.68,19.74-4.88A111.44,111.44,0,0,0,161.27,126Z"/><path id="_Path_98" data-name="&lt;Path&gt;" class="cls-52" d="M152.57,108.55s-3.77-15,7-25l5.36,5.82-2.14,1.84-3.31-6s-9,7.83-3,22.31Z"/><path id="_Path_99" data-name="&lt;Path&gt;" class="cls-53" d="M154.58,106.29c-2.57.19-5.26-1.46-7.5-1.31-8.53.59-10.45,8.49-9.57,13.73,2,12,16.86,13.85,25.83,8.72a12.74,12.74,0,0,0,6.28-8.3c1.64-7.22-1.36-15.81-8.31-15.42C157.55,103.92,157.55,106.08,154.58,106.29Z"/></g><path id="_Path_100" data-name="&lt;Path&gt;" class="cls-54" d="M163.08,118.24c-16.8,19.48-20.62,2.55-33.5,4-6,.68-8.66,3.56-10.46,7.43,8.26,7.71,33,25.34,65.44-1.8l.12-.18C184.62,118.52,174.73,104.74,163.08,118.24Z"/><path id="_Path_101" data-name="&lt;Path&gt;" class="cls-51" d="M148.14,140.69h-.26a47.69,47.69,0,0,1-19.38-4.1c12,6.87,31.89,11.51,56.06-8.72l.12-.18a15.88,15.88,0,0,0-.4-3.28C172.36,137.35,158.52,140.28,148.14,140.69Z"/><path id="_Path_102" data-name="&lt;Path&gt;" class="cls-55" d="M144.74,107.77c-3,1.15-5.06,4.64-4.62,8.64a8.45,8.45,0,0,0,7,7.24c5.5.81,11.45-4.19,11-8.84S150,105.73,144.74,107.77Z"/><path id="_Path_103" data-name="&lt;Path&gt;" class="cls-56" d="M126.27,126.16c-1.29,1.6-.17,4.54,1.69,6,2.67,2.07,7.43,1.48,8.4-.52.81-1.65-1.06-4.19-3.06-5.38S127.66,124.43,126.27,126.16Z"/><path id="_Path_104" data-name="&lt;Path&gt;" class="cls-56" d="M142.32,132.24a2.85,2.85,0,1,0-1.56,5.47,3,3,0,0,0,3.7-2.44A2.94,2.94,0,0,0,142.32,132.24Z"/><path id="_Path_105" data-name="&lt;Path&gt;" class="cls-19" d="M141.37,110.52c-1-1.16,3-4.7,4.22-3.3C146.63,108.38,142.35,111.68,141.37,110.52Z"/><path id="_Path_106" data-name="&lt;Path&gt;" class="cls-19" d="M140.88,112c-1-.38-1.94,1.47-.55,1.85A1,1,0,0,0,140.88,112Z"/></g><path id="_Path_107" data-name="&lt;Path&gt;" class="cls-19" d="M119.89,139.58c-2.43.48.19,18.92,2.68,18.36C124.42,157.53,122,139.16,119.89,139.58Z"/><path id="_Path_108" data-name="&lt;Path&gt;" class="cls-19" d="M123.19,161.45c-1.71.69,0,7.85,1.85,7.43S125.25,160.63,123.19,161.45Z"/></g></g><ellipse id="_Path_109" data-name="&lt;Path&gt;" class="cls-57" cx="96.67" cy="173.24" rx="5.57" ry="4.65"/><path id="_Path_110" data-name="&lt;Path&gt;" class="cls-58" d="M101.59,171.09a6.73,6.73,0,0,1-6.76,5,7.46,7.46,0,0,1-3-.6,5.77,5.77,0,0,0,4.86,2.43c3.08,0,5.58-2.08,5.58-4.65A4.09,4.09,0,0,0,101.59,171.09Z"/><path id="_Path_111" data-name="&lt;Path&gt;" class="cls-57" d="M195.29,197.11c0,2.65-2.57,4.81-5.75,4.81s-5.76-2.16-5.76-4.81,2.57-4.8,5.76-4.8S195.29,194.46,195.29,197.11Z"/><path id="_Path_112" data-name="&lt;Path&gt;" class="cls-59" d="M194.54,194.78a6.77,6.77,0,0,1-6.87,5.35,7.45,7.45,0,0,1-3.1-.63,6,6,0,0,0,5,2.42c3.18,0,5.75-2.16,5.75-4.81A4.12,4.12,0,0,0,194.54,194.78Z"/><ellipse id="_Path_113" data-name="&lt;Path&gt;" class="cls-60" cx="109.31" cy="179.22" rx="5.57" ry="4.65"/><path id="_Path_114" data-name="&lt;Path&gt;" class="cls-61" d="M114,176.74a6.73,6.73,0,0,1-6.75,4.92,7.42,7.42,0,0,1-3.08-.62,5.71,5.71,0,0,0,5.13,2.83c3.08,0,5.57-2.09,5.57-4.65A4.11,4.11,0,0,0,114,176.74Z"/><ellipse id="_Path_115" data-name="&lt;Path&gt;" class="cls-62" cx="177.23" cy="204.44" rx="5.76" ry="4.81"/><path id="_Path_116" data-name="&lt;Path&gt;" class="cls-63" d="M182.13,201.94a6.78,6.78,0,0,1-6.89,5.45,7.66,7.66,0,0,1-3-.58,6,6,0,0,0,5,2.43c3.18,0,5.76-2.15,5.76-4.8A4.24,4.24,0,0,0,182.13,201.94Z"/></g></g></g></g></svg>