<svg xmlns="http://www.w3.org/2000/svg" xmlns:xlink="http://www.w3.org/1999/xlink" viewBox="0 0 231.02 217.68"><defs><style>.cls-1{fill:#f4ede6;}.cls-2{fill:#eee2da;}.cls-3{fill:url(#linear-gradient);}.cls-4{fill:#ffe7a0;}.cls-5{fill:#fff8e6;}.cls-6{fill:#662d91;opacity:0.1;}.cls-7{fill:#f7f7f6;}.cls-8{fill:#e48a04;}.cls-9{fill:url(#linear-gradient-2);}.cls-10{fill:#e4d8e0;}.cls-11{fill:#573128;opacity:0.2;}.cls-12{fill:url(#linear-gradient-3);}.cls-13{fill:#b9d7e2;}.cls-14{fill:#9db9c3;}.cls-15{fill:#f7f3e8;}.cls-16{fill:#f8bb54;}.cls-17{fill:#f4a238;}.cls-18{fill:#d62b27;}.cls-19{fill:url(#linear-gradient-4);}.cls-20{fill:#594d69;}.cls-21{fill:#42394e;}.cls-22{fill:#685a7a;}.cls-23{fill:#fa585d;}.cls-24{fill:url(#linear-gradient-5);}.cls-25{fill:url(#linear-gradient-6);}.cls-26{fill:#e39b35;}.cls-27{fill:#c6c6c3;}.cls-28{fill:#bbbab9;}.cls-29{fill:#d1d1cf;}.cls-30{fill:url(#linear-gradient-7);}.cls-31{fill:#d7d6d7;}.cls-32{fill:#e9e6db;}.cls-33{fill:#fff;}.cls-34{fill:#b8c3cc;}.cls-35{fill:url(#linear-gradient-8);}.cls-36{fill:url(#linear-gradient-9);}.cls-37{fill:#e3bd8a;}.cls-38{fill:#f7f9eb;}.cls-39{fill:#f5e6c5;}.cls-40{fill:url(#linear-gradient-10);}.cls-41{fill:#f99761;}.cls-42{fill:url(#linear-gradient-11);}.cls-43{fill:#a53426;}.cls-44{fill:url(#linear-gradient-12);}.cls-45{fill:#e87a14;}.cls-46{fill:url(#linear-gradient-13);}.cls-47{fill:#f9ba4c;}.cls-48{fill:#f6cb99;}.cls-49{fill:#f5c083;}.cls-50{fill:#ab6c3c;}.cls-51{fill:#d99d65;}.cls-52{fill:#c97f46;}.cls-53{fill:#e7b177;}.cls-54{fill:#e63127;}.cls-55{fill:#ff7751;}.cls-56{fill:#ff9000;}.cls-57{fill:#688d4c;}.cls-58{fill:#839c72;}.cls-59{fill:url(#linear-gradient-14);}.cls-60{fill:url(#radial-gradient);}.cls-61{fill:#ffce65;}.cls-62{fill:#ffb400;}.cls-63{fill:#fda400;}.cls-64{fill:url(#radial-gradient-2);}.cls-65{fill:#fff7c8;}.cls-66{fill:#fcedb8;}.cls-67{fill:#efc998;}.cls-68{fill:#583620;}.cls-69{fill:#a4805c;}</style><linearGradient id="linear-gradient" x1="106.35" y1="41.05" x2="145.94" y2="99.32" gradientUnits="userSpaceOnUse"><stop offset="0" stop-color="#ffca00"/><stop offset="1" stop-color="#faad0d"/></linearGradient><linearGradient id="linear-gradient-2" x1="39.28" y1="116.95" x2="126.91" y2="116.95" gradientUnits="userSpaceOnUse"><stop offset="0" stop-color="#b38a81"/><stop offset="1" stop-color="#70483f"/></linearGradient><linearGradient id="linear-gradient-3" x1="35.45" y1="33.69" x2="82.3" y2="112.09" gradientUnits="userSpaceOnUse"><stop offset="0" stop-color="#fcfcfb"/><stop offset="0.64" stop-color="#f3f2f3"/><stop offset="1" stop-color="#eceaed"/></linearGradient><linearGradient id="linear-gradient-4" x1="68.71" y1="104.32" x2="76.32" y2="116.57" gradientUnits="userSpaceOnUse"><stop offset="0" stop-color="#fa585d"/><stop offset="1" stop-color="#d62b27"/></linearGradient><linearGradient id="linear-gradient-5" x1="57.43" y1="69.27" x2="61.44" y2="82.3" gradientTransform="translate(80.06 -18.31) rotate(50.36)" xlink:href="#linear-gradient-4"/><linearGradient id="linear-gradient-6" x1="-0.19" y1="30.77" x2="31.33" y2="85.21" gradientUnits="userSpaceOnUse"><stop offset="0" stop-color="#fcfcfb"/><stop offset="0.44" stop-color="#f2f2f2"/><stop offset="1" stop-color="#dfdee0"/></linearGradient><linearGradient id="linear-gradient-7" x1="246.4" y1="-369.56" x2="290.88" y2="-412.18" gradientTransform="translate(-75.41 453.11) rotate(0.49)" xlink:href="#linear-gradient-3"/><linearGradient id="linear-gradient-8" x1="118.33" y1="142.47" x2="299.13" y2="203.76" gradientUnits="userSpaceOnUse"><stop offset="0" stop-color="#eff2f2"/><stop offset="1" stop-color="#d5dfdf"/></linearGradient><linearGradient id="linear-gradient-9" x1="133.56" y1="86.95" x2="141.65" y2="133.86" gradientUnits="userSpaceOnUse"><stop offset="0" stop-color="#9ad021"/><stop offset="0.11" stop-color="#8fc324"/><stop offset="0.5" stop-color="#69992e"/><stop offset="0.81" stop-color="#538035"/><stop offset="1" stop-color="#4a7637"/></linearGradient><linearGradient id="linear-gradient-10" x1="-926.79" y1="-411.36" x2="-1061.25" y2="-278.39" gradientTransform="matrix(0.9, 0.44, -0.44, 0.9, 865.63, 889.31)" gradientUnits="userSpaceOnUse"><stop offset="0" stop-color="#bb2c00"/><stop offset="1" stop-color="#ee6400"/></linearGradient><linearGradient id="linear-gradient-11" x1="-1060.19" y1="-286.59" x2="-950.76" y2="-422.24" xlink:href="#linear-gradient-10"/><linearGradient id="linear-gradient-12" x1="109.42" y1="139.49" x2="113.49" y2="178.39" gradientUnits="userSpaceOnUse"><stop offset="0" stop-color="#ffc410"/><stop offset="0.33" stop-color="#fbab16"/><stop offset="0.75" stop-color="#f7921d"/><stop offset="1" stop-color="#f6881f"/></linearGradient><linearGradient id="linear-gradient-13" x1="144.27" y1="150.25" x2="146.74" y2="191.35" xlink:href="#linear-gradient-12"/><linearGradient id="linear-gradient-14" x1="15.45" y1="114.87" x2="65.24" y2="166.09" gradientTransform="matrix(1, 0.01, -0.01, 1, -11.85, 3.03)" gradientUnits="userSpaceOnUse"><stop offset="0" stop-color="#ffb000"/><stop offset="0.36" stop-color="#fa0"/><stop offset="0.81" stop-color="#ff9b00"/><stop offset="0.98" stop-color="#ff9300"/></linearGradient><radialGradient id="radial-gradient" cx="-546.35" cy="-839.96" r="55.39" gradientTransform="matrix(0.68, 0, 0, 0.77, 405.2, 788.63)" gradientUnits="userSpaceOnUse"><stop offset="0" stop-color="#ffebc0"/><stop offset="0.28" stop-color="#ffebc0"/><stop offset="0.44" stop-color="#ffeabd"/><stop offset="0.56" stop-color="#ffe8b2"/><stop offset="0.68" stop-color="#ffe4a1"/><stop offset="0.8" stop-color="#ffdf89"/><stop offset="0.91" stop-color="#ffd869"/><stop offset="0.98" stop-color="#ffd251"/><stop offset="1" stop-color="#ffd251"/></radialGradient><radialGradient id="radial-gradient-2" cx="-519.04" cy="330.17" r="28.42" gradientTransform="translate(401.73 -46.78) scale(0.68 0.69)" gradientUnits="userSpaceOnUse"><stop offset="0.01" stop-color="#d9df43"/><stop offset="1" stop-color="#b8bd00"/></radialGradient></defs><title>composition_9</title><g id="Layer_2" data-name="Layer 2"><g id="Layer_3" data-name="Layer 3"><g id="_Group_" data-name="&lt;Group&gt;"><g id="_Group_2" data-name="&lt;Group&gt;"><g id="_Group_3" data-name="&lt;Group&gt;"><g id="_Group_4" data-name="&lt;Group&gt;"><g id="_Group_5" data-name="&lt;Group&gt;"><g id="_Group_6" data-name="&lt;Group&gt;"><path id="_Path_" data-name="&lt;Path&gt;" class="cls-1" d="M87.18,11.43s1.47,65.33,13.81,97c1.07,2.75,41.1,3.71,44.06.09s10.53-55,12.17-94.82Z"/><polygon id="_Path_2" data-name="&lt;Path&gt;" class="cls-2" points="92.41 40.77 90.8 13.1 152.78 14.44 151.97 41.03 92.41 40.77"/><path id="_Path_3" data-name="&lt;Path&gt;" class="cls-3" d="M92.41,40.77s5.1,57.48,10.73,62.59,35.15,4.56,38.64.27S149,76.76,152,41Z"/><path id="_Path_4" data-name="&lt;Path&gt;" class="cls-4" d="M92.41,40.77S120.85,68.17,152,41C152,41,125.41,20.62,92.41,40.77Z"/><path id="_Path_5" data-name="&lt;Path&gt;" class="cls-5" d="M96.14,43.93s8.66,9.86,27,9.86,26.16-10.45,26.16-10.45-8.64,8.07-26.27,8.07S96.14,43.93,96.14,43.93Z"/><path id="_Path_6" data-name="&lt;Path&gt;" class="cls-6" d="M132.83,110.73c6.28-.3,11.25-1,12.22-2.18,3.08-3.76,10.53-55,12.17-94.82l-6.2-.2L138.15,24S137.3,67.57,132.83,110.73Z"/><path id="_Path_7" data-name="&lt;Path&gt;" class="cls-7" d="M87.18,11.43s27.95,37.86,70,2.3C157.22,13.73,127-15.57,87.18,11.43Z"/><path id="_Path_8" data-name="&lt;Path&gt;" class="cls-2" d="M91.87,11.48S116,42.65,152.24,13.36C152.24,13.36,127.29-8.4,91.87,11.48Z"/><path id="_Path_9" data-name="&lt;Path&gt;" class="cls-8" d="M119.59,58.36a1.36,1.36,0,0,0,0,2.71A1.36,1.36,0,0,0,119.59,58.36Z"/><path id="_Path_10" data-name="&lt;Path&gt;" class="cls-8" d="M123.5,63.44a1.36,1.36,0,0,0,0,2.72A1.36,1.36,0,0,0,123.5,63.44Z"/><path id="_Path_11" data-name="&lt;Path&gt;" class="cls-8" d="M121.29,68.19a1.38,1.38,0,0,0,0,2.75A1.38,1.38,0,0,0,121.29,68.19Z"/><path id="_Path_12" data-name="&lt;Path&gt;" class="cls-8" d="M133.51,70.46a1.81,1.81,0,0,0,0,3.61A1.81,1.81,0,0,0,133.51,70.46Z"/><path id="_Path_13" data-name="&lt;Path&gt;" class="cls-8" d="M135.53,77.79a1.26,1.26,0,1,0,1.26,1.26A1.29,1.29,0,0,0,135.53,77.79Z"/><path id="_Path_14" data-name="&lt;Path&gt;" class="cls-8" d="M146,60.51a1.35,1.35,0,0,0,0,2.7A1.35,1.35,0,0,0,146,60.51Z"/></g></g><g id="_Group_7" data-name="&lt;Group&gt;"><g id="_Group_8" data-name="&lt;Group&gt;"><g id="_Group_9" data-name="&lt;Group&gt;"><path id="_Path_15" data-name="&lt;Path&gt;" class="cls-9" d="M7.24,83.68s.4,44,20.26,57c24.37,15.88,62.54,10,76.63-3.23S120.86,106,123.65,83.68Z"/><g id="_Group_10" data-name="&lt;Group&gt;"><path id="_Path_16" data-name="&lt;Path&gt;" class="cls-10" d="M64.64,123.71c-35.3,0-53.84-25.35-54-25.61a.53.53,0,1,1,.86-.62c.18.25,18.42,25.16,53.16,25.16,33.93,0,51.56-21.5,51.74-21.72a.53.53,0,1,1,.83.67C117,101.81,99.08,123.71,64.64,123.71Z"/></g><path id="_Path_17" data-name="&lt;Path&gt;" class="cls-11" d="M85.72,79.34c-.9,21.43-1.28,48.82-2.89,68.47,8.9-2.23,16.5-5.88,21.3-10.39,14.09-13.23,16.73-31.45,19.52-53.74Z"/><path id="_Path_18" data-name="&lt;Path&gt;" class="cls-12" d="M7.24,83.68c2.31-3,23-28.8,58.53-28.65,35.18.16,55.5,25.57,57.88,28.65-11,22.1-34.09,34.95-58.73,34.95S18.19,105.78,7.24,83.68Z"/><path id="_Path_19" data-name="&lt;Path&gt;" class="cls-13" d="M13.19,84.07c2.08-2.7,20.61-25.86,52.54-25.72,31.58.14,49.83,22.95,52,25.72-10.53,18.86-30.58,30.08-52.13,30.17A59.23,59.23,0,0,1,13.19,84.07Z"/><path id="_Path_20" data-name="&lt;Path&gt;" class="cls-14" d="M42.6,81.64c0-.57-4.28-16.68-4.29-17.25A71.19,71.19,0,0,0,13.19,84.07a58.73,58.73,0,0,0,38.57,28.64C43.15,98.86,43.32,97.82,42.6,81.64Z"/></g><path id="_Path_21" data-name="&lt;Path&gt;" class="cls-15" d="M113.12,91.05C106.24,84,86.75,66.76,61.24,67.79c-20.67.83-36.66,14-44.49,21.88a59.76,59.76,0,0,0,96.37,1.38Z"/><path id="_Compound_Path_" data-name="&lt;Compound Path&gt;" class="cls-16" d="M84.48,68.86c-6.61-.38-12.2,3.44-12.49,8.52s4.84,9.5,11.45,9.88,12.2-3.44,12.49-8.52S91.09,69.23,84.48,68.86Zm-.71,12.6c-2.72-.15-4.83-1.95-4.71-4s2.41-3.61,5.13-3.45,4.83,2,4.72,4S86.49,81.62,83.77,81.46Z"/><path id="_Path_22" data-name="&lt;Path&gt;" class="cls-17" d="M92.43,71.75c1.82,6.43-1.25,14.46-9.23,15.49l.24,0c6.61.38,12.2-3.44,12.49-8.52A8.4,8.4,0,0,0,92.43,71.75Z"/><path id="_Compound_Path_2" data-name="&lt;Compound Path&gt;" class="cls-16" d="M83.94,95.66c-6.26,0-11.33,3.91-11.33,8.72,0,4,3.46,7.32,8.19,8.36a59.81,59.81,0,0,0,13.91-5.65,7,7,0,0,0,.57-2.71C95.28,99.57,90.2,95.66,83.94,95.66Zm0,11.94c-2.56,0-4.64-1.58-4.64-3.53s2.08-3.54,4.64-3.54,4.65,1.58,4.65,3.54S86.51,107.6,83.94,107.6Z"/><path id="_Path_23" data-name="&lt;Path&gt;" class="cls-17" d="M90.72,97.41a13.42,13.42,0,0,1-.66,12c1.58-.71,3.14-1.47,4.65-2.32a7,7,0,0,0,.57-2.71C95.28,101.52,93.48,99,90.72,97.41Z"/><path id="_Path_24" data-name="&lt;Path&gt;" class="cls-16" d="M60.79,114.58a12.12,12.12,0,0,0,.85-5.16c-.36-6.26-5.38-11.07-11.22-10.74-5.42.31-9.64,4.93-9.94,10.6a58.81,58.81,0,0,0,6.72,2.62,5.83,5.83,0,0,1-.33-1.64c-.17-2.87,1.58-5.3,3.9-5.43s4.32,2.09,4.48,5a5.74,5.74,0,0,1-1.15,3.89A59.45,59.45,0,0,0,60.79,114.58Z"/><path id="_Path_25" data-name="&lt;Path&gt;" class="cls-17" d="M61.64,109.42A11.52,11.52,0,0,0,56,100a13.24,13.24,0,0,1,1.09,14.13c1.22.17,2.44.31,3.68.41A12.12,12.12,0,0,0,61.64,109.42Z"/><path id="_Path_26" data-name="&lt;Path&gt;" class="cls-18" d="M68.31,108.81s-2.72-2.57-2.35-3.24,2.5.67,2.5.67-.15-1.84.51-2.21S70.58,107,70.58,107Z"/><path id="_Path_27" data-name="&lt;Path&gt;" class="cls-19" d="M73.77,105.32a7.38,7.38,0,0,0-7.16,9.43,59.64,59.64,0,0,0,14.59-2.11A7.42,7.42,0,0,0,73.77,105.32Z"/><path id="_Path_28" data-name="&lt;Path&gt;" class="cls-20" d="M36.31,96.09S38.8,95,38.8,96s-1.17,1.25-1.17,1.25,1.76.29,1.47,1-1.84.44-1.84.44,1.32,1,1,1.62-2.72-1-2.72-1Z"/><path id="_Path_29" data-name="&lt;Path&gt;" class="cls-20" d="M36.92,97.16a6.4,6.4,0,0,0-12.79,0,5.52,5.52,0,0,0,.1,1.09,59.58,59.58,0,0,0,6.38,5.28A6.39,6.39,0,0,0,36.92,97.16Z"/><path id="_Path_30" data-name="&lt;Path&gt;" class="cls-16" d="M36,78.84A17.6,17.6,0,0,0,42.12,77s-.08-.58-.09-.6c-.15-2.09,1.88-3.94,4.53-4.13A4.37,4.37,0,0,1,51.22,75a49.22,49.22,0,0,0,6.53-1.11c-1.1-5.58-5.86-8.66-11.67-8.24-6.19.46-10.87,5.47-10.45,11.19A9.78,9.78,0,0,0,36,78.84Z"/><path id="_Path_31" data-name="&lt;Path&gt;" class="cls-17" d="M54.11,74.65c1.24-.22,2.5-.48,3.64-.73-1.07-5.44-5.62-8.49-11.23-8.25A11,11,0,0,1,54.11,74.65Z"/><path id="_Path_32" data-name="&lt;Path&gt;" class="cls-21" d="M101.32,83.06s-1.61-3.28-.58-3.87,1.93,1.64,1.93,1.64.33-2.75,1.46-2.4.59,4.07.59,4.07Z"/><ellipse id="_Path_33" data-name="&lt;Path&gt;" class="cls-21" cx="103.83" cy="87.66" rx="6.53" ry="6.5"/><path id="_Path_34" data-name="&lt;Path&gt;" class="cls-22" d="M34.1,95c.12,1.74-1.49,3.27-3.59,3.41s-3.91-1.14-4-2.88,1.49-3.27,3.59-3.42S34,93.21,34.1,95Z"/><path id="_Path_35" data-name="&lt;Path&gt;" class="cls-20" d="M107.8,85.66c0,1.74-1.71,3.16-3.82,3.16s-3.82-1.42-3.82-3.16,1.71-3.16,3.82-3.16S107.8,83.91,107.8,85.66Z"/><ellipse id="_Path_36" data-name="&lt;Path&gt;" class="cls-23" cx="73.3" cy="109.47" rx="3.82" ry="3.16"/><g id="_Group_11" data-name="&lt;Group&gt;"><path id="_Path_37" data-name="&lt;Path&gt;" class="cls-18" d="M60.31,71.57s.17-4.42,1.35-4.34.69,2.44.69,2.44,1.8-2.09,2.55-1.17-3,4.15-3,4.15Z"/><ellipse id="_Path_38" data-name="&lt;Path&gt;" class="cls-24" cx="59.5" cy="75.98" rx="6.49" ry="6.53" transform="translate(-36.97 73.33) rotate(-50.36)"/></g><path id="_Path_39" data-name="&lt;Path&gt;" class="cls-23" d="M63.46,74c0,1.75-1.71,3.16-3.82,3.16S55.82,75.77,55.82,74s1.71-3.16,3.82-3.16S63.46,72.28,63.46,74Z"/><path id="_Compound_Path_3" data-name="&lt;Compound Path&gt;" class="cls-16" d="M59.22,80.85c-6.26,0-11.33,3.91-11.33,8.72S53,98.28,59.22,98.28s11.34-3.9,11.34-8.71S65.48,80.85,59.22,80.85Zm0,11.94c-2.54,0-4.6-1.58-4.6-3.53s2.06-3.54,4.6-3.54,4.61,1.58,4.61,3.54S61.77,92.79,59.22,92.79Z"/><path id="_Path_40" data-name="&lt;Path&gt;" class="cls-17" d="M67.58,83.7c1.62,6.4-2.19,13.16-11.29,14.19a3.14,3.14,0,0,1-.53,0,14.38,14.38,0,0,0,3.46.42c6.26,0,11.34-3.9,11.34-8.71A7.71,7.71,0,0,0,67.58,83.7Z"/><polygon id="_Path_41" data-name="&lt;Path&gt;" class="cls-25" points="28.83 86.17 5.94 49.52 12.81 45.08 32.55 83.74 28.83 86.17"/></g><path id="_Path_42" data-name="&lt;Path&gt;" class="cls-26" d="M41.23,91.36a1.76,1.76,0,1,1-1.7-1.3A1.55,1.55,0,0,1,41.23,91.36Z"/><path id="_Path_43" data-name="&lt;Path&gt;" class="cls-26" d="M100.39,99.92a1.75,1.75,0,1,1-1.7-1.34A1.55,1.55,0,0,1,100.39,99.92Z"/><path id="_Path_44" data-name="&lt;Path&gt;" class="cls-26" d="M50.27,80a1.75,1.75,0,1,1-1.7-1.34A1.55,1.55,0,0,1,50.27,80Z"/><path id="_Path_45" data-name="&lt;Path&gt;" class="cls-20" d="M71.48,71.8a1.42,1.42,0,1,1-1.41-1.28A1.35,1.35,0,0,1,71.48,71.8Z"/><path id="_Path_46" data-name="&lt;Path&gt;" class="cls-18" d="M39.42,104.47A1.42,1.42,0,1,1,38,103.19,1.35,1.35,0,0,1,39.42,104.47Z"/><ellipse id="_Path_47" data-name="&lt;Path&gt;" class="cls-26" cx="75.38" cy="89.04" rx="1.64" ry="1.32"/></g><g id="_Group_12" data-name="&lt;Group&gt;"><g id="_Group_13" data-name="&lt;Group&gt;"><g id="_Group_14" data-name="&lt;Group&gt;"><polygon id="_Path_48" data-name="&lt;Path&gt;" class="cls-27" points="156.89 67.12 165.71 110.56 215.87 110.98 226.49 71.53 156.89 67.12"/><polygon id="_Path_49" data-name="&lt;Path&gt;" class="cls-28" points="209.15 110.93 215.87 110.98 226.49 71.53 216.56 71.22 209.15 110.93"/><path id="_Path_50" data-name="&lt;Path&gt;" class="cls-29" d="M160.52,70.74s5.27,26.45,8.39,39.85l31.49.26c1.53-10.12,2.7-24.79,2.7-24.79S181.89,97.14,160.52,70.74Z"/><path id="_Path_51" data-name="&lt;Path&gt;" class="cls-30" d="M156.53,67s25.4,48,70,4.61C226.53,71.57,200.63,34.74,156.53,67Z"/><path id="_Path_52" data-name="&lt;Path&gt;" class="cls-31" d="M160,67s22.49,39.77,62.95,4.73C222.94,71.76,201.23,39.58,160,67Z"/><path id="_Path_53" data-name="&lt;Path&gt;" class="cls-15" d="M219.26,74.79c1.11-2.34-.45-7.66-5.34-8.28,4.4-11.14-8.29-13.23-8.3-13.4-.87-12.74-16-17.23-16.7-15.23-1,2.73,1.51,6.09-.68,10.18-2.79,5.24-8.85,5.22-14.34,7.13-3.33,1.16-10,5-2.84,11.15-4.69-.63-8.35.87-8.26,3.54a9,9,0,0,0,.19,1.43C170.05,80.17,189.46,97.91,219.26,74.79Z"/></g></g><path id="_Path_54" data-name="&lt;Path&gt;" class="cls-32" d="M219.26,74.79c1.11-2.34-.45-7.66-5.34-8.28,4.4-11.14-8.29-13.23-8.3-13.4-.57-8.29-7.16-13.08-11.89-14.87,10.55,6.11,4.17,16.26,4.17,16.26s8.95,1.82,11.16,5.58-7.28,6.68-7.28,6.68c16.43,2.38,7.08,16.53-11.36,16.37-11.83-.1-22.73-8.06-23.2-12.69-.37-3.56,3.84-4.1,3.84-4.1-4.69-.63-8.35.87-8.26,3.54a9,9,0,0,0,.19,1.43C170.05,80.17,189.46,97.91,219.26,74.79Z"/><path id="_Path_55" data-name="&lt;Path&gt;" class="cls-33" d="M181.45,73.75c-2.71,3-9.88,1.39-10.53-3.48C170.72,68.74,182.34,72.76,181.45,73.75Z"/><path id="_Path_56" data-name="&lt;Path&gt;" class="cls-33" d="M190.71,39.49c-.51.41,1.07,3.84.53,7.16-.41,2.55-3.64,5.25-3.43,5.57.72,1.1,7.54-1.07,7.86-5.14C196,42.55,191.44,38.9,190.71,39.49Z"/><path id="_Path_57" data-name="&lt;Path&gt;" class="cls-33" d="M183.27,56c-.29-1.56-11.38.89-12.22,4.11S183.18,67.6,184,65.27s-8.19-5.63-8.19-5.63S183.45,56.92,183.27,56Z"/></g><g id="_Group_15" data-name="&lt;Group&gt;"><path id="_Path_58" data-name="&lt;Path&gt;" class="cls-34" d="M71,193.93s-.66-5.27-.39-6.17C77.34,165.15,104,73.31,231,117.86c0,0-.34,70.91-45.29,91.36C129.32,234.9,71,193.93,71,193.93Z"/><path id="_Path_59" data-name="&lt;Path&gt;" class="cls-35" d="M70.65,187.75S86.25,62.66,231,113.43c0,0-.34,70.91-45.29,91.36C129.32,230.47,70.65,187.75,70.65,187.75Z"/><path id="_Path_60" data-name="&lt;Path&gt;" class="cls-36" d="M107.22,123.22s-3-15.83,2.57-19.25c3.34-2.06,8.54,5.35,8.54,5.35s2.56-17.54,7-19.47,9.05,15.35,9.05,15.35,2.27-23.69,8.68-25.83c6.57-2.19,7.61,12.87,7.61,12.87s5.25-13.71,10.52-12.9c8.47,1.31,4,24.82,4,24.82S132.43,131.77,107.22,123.22Z"/><path id="_Path_61" data-name="&lt;Path&gt;" class="cls-37" d="M133,127.75c-2.54.5-32.17,6.8-44,31.59-3.56,7.44-9.76,22.27-3.63,29.77,8.37,10.25,20.19,2.16,28.15,3.18,10.67,1.36,14.64,5.57,25.31,10.45,11.91,5.46,33.71,6.14,49-7.15,13.84-12,18.27-30.57,8.06-49.66C182.9,121.75,149.34,124.51,133,127.75Z"/><path id="_Path_62" data-name="&lt;Path&gt;" class="cls-38" d="M132.28,124c-2.54.5-32.17,6.8-44,31.59-3.56,7.44-8.76,22.34-3.4,28.86,8.4,10.23,20,3.07,27.92,4.09,10.67,1.36,14.64,5.57,25.31,10.45,11.91,5.46,33.7,6.14,49-7.15,13.84-12,14.16-29.53,6.47-46.59C182.3,120.25,148.66,120.76,132.28,124Z"/><path id="_Compound_Path_4" data-name="&lt;Compound Path&gt;" class="cls-39" d="M193.57,144.79c-11.27-25-44.91-24-61.29-20.79-2.54.5-32.17,6.8-44,31.59-3.56,7.44-8.76,22.34-3.4,28.86,8.4,10.23,20,3.07,27.92,4.09,10.67,1.36,14.64,5.57,25.31,10.45,11.91,5.46,33.7,6.14,49-7.15C200.94,179.82,201.26,161.86,193.57,144.79Zm-20.73,47.68c-11.25,6.18-28.5,3.87-38.41-1.72-7-3.92-13.23-9.8-21.79-9.45-6.77.27-13.82,5-19.81,1.8-7.64-4.06-6-18.65-.29-23.68,4-3.51,17.75-7,15.51,2.52-2.15,9.21,12.27-3,14.69-4.53,7.94-5,18.85-9.16,28.06-5.73,2.37.88,4.4,3.09,4.36,5.62s-1.81,5.22-.19,7c1.28,1.42,3.58.88,5.39.28a30.18,30.18,0,0,1,10.2-2c10.92.24,15.26,12.86,10.51,21.7A20.18,20.18,0,0,1,172.84,192.47Z"/><g id="_Group_16" data-name="&lt;Group&gt;"><path id="_Path_63" data-name="&lt;Path&gt;" class="cls-40" d="M129,145.66c13.58-2.19,28,3.62,52.79-4.73,10.42-3.51,18.36-11.31,23.27-17.37l-1.93-3.41c-2.58-4.53-5.16-9-7.71-13.56-5.84,6-13.7,12.56-21.26,13.63-14.64,2.06-38.48-1.26-58,4.09S77,144.16,77,144.16L86.61,169S102.63,149.89,129,145.66Z"/><path id="_Path_64" data-name="&lt;Path&gt;" class="cls-41" d="M197.6,110.48A47.32,47.32,0,0,1,176.86,124c-15.22,4.66-40.33-1.72-55.81,2.7-12.09,3.45-36.58,16.85-35.27,19.25s23.48-10.3,33.5-13.14c17.71-5,35.57-.74,47.43-1.64,17.13-1.29,27.58-9.69,33.66-15.78Q199,112.93,197.6,110.48Z"/><path id="_Path_65" data-name="&lt;Path&gt;" class="cls-41" d="M96.82,154.78s15-15.93,36.42-16.23,46,1.93,60.62-8.59c0,0-7.67,15.55-57.53,13.42C118.06,142.6,96.82,154.78,96.82,154.78Z"/><path id="_Path_66" data-name="&lt;Path&gt;" class="cls-42" d="M187.65,118.28l-3-21.47s-15.58-9.62-27.25-3.46S137.13,110.84,124.33,115c-14,4.6-31.82,1.55-31.82,1.55l-1.17,26s21,1.85,34.44-3.3,25.72-18.73,35.06-23C170.71,111.65,187.65,118.28,187.65,118.28Z"/><path id="_Path_67" data-name="&lt;Path&gt;" class="cls-41" d="M177,110.49c-10.73-8.23-25.9,2-40.83,13.74-12.28,9.63-22.46,11.36-44.4,9.77l-.39,8.55s21,1.85,34.44-3.3,25.72-18.73,35.06-23c4.21-1.94,9.7-1.85,14.62-1.11A39.85,39.85,0,0,0,177,110.49Z"/><path id="_Path_68" data-name="&lt;Path&gt;" class="cls-43" d="M181.76,140.93c10.42-3.51,18.36-11.31,23.27-17.37l-1.93-3.41-.46-.8a41.07,41.07,0,0,1-19.75,17.35c-24.26,9.82-41,.29-64.49,7.47A82.49,82.49,0,0,0,85,164.72l1.66,4.3s16-19.13,42.36-23.36C142.55,143.47,157,149.28,181.76,140.93Z"/><path id="_Path_69" data-name="&lt;Path&gt;" class="cls-43" d="M187.65,118.28l-.67-4.86c-10.84-4.6-23.76-6.37-41.59,9.08-17.22,14.93-31.64,17.7-53.8,14.67l-.25,5.38s21,1.85,34.44-3.3,25.72-18.73,35.06-23C170.71,111.65,187.65,118.28,187.65,118.28Z"/><path id="_Path_70" data-name="&lt;Path&gt;" class="cls-41" d="M185.17,100.27h0s-16-7.72-23.54-4.5c-7.92,3.41-28.91,18.83-28.7,20.43.09.67,2.95.44,9.87-4.28,7.16-4.87,16.58-11.53,20.92-12.29,7.62-1.33,18.31,3.3,22.06,5.09Z"/><path id="_Path_71" data-name="&lt;Path&gt;" class="cls-41" d="M121.7,120.64c-.82-.9-10.16,1.83-17.17,1.76a95.06,95.06,0,0,1-12.23-1l-.23,5C117.87,128.55,121.7,120.64,121.7,120.64Z"/></g><path id="_Path_72" data-name="&lt;Path&gt;" class="cls-44" d="M94.85,167.5c-3.4-4.51,2-21.6,18-21.6,14.25,0,19.52,18.1,16.52,22.72C125.82,174,103.27,178.7,94.85,167.5Z"/><path id="_Path_73" data-name="&lt;Path&gt;" class="cls-45" d="M109.81,170.78a19.91,19.91,0,0,1-15.9-7.86,7,7,0,0,0,.94,4.58c8.42,11.2,31,6.53,34.48,1.12,1.24-1.91,1.07-6.1-.56-10.37A21.41,21.41,0,0,1,109.81,170.78Z"/><path id="_Path_74" data-name="&lt;Path&gt;" class="cls-46" d="M128.35,177.21c-3.42-4.36.54-22.34,17.21-22.34,16.94,0,20.61,19,17.58,23.43C159.6,183.53,136.85,188,128.35,177.21Z"/><path id="_Path_75" data-name="&lt;Path&gt;" class="cls-45" d="M162.71,166.89a21.57,21.57,0,0,1-19.54,13.64,20.11,20.11,0,0,1-15.95-7.8,7.38,7.38,0,0,0,1.13,4.48c8.5,10.83,31.25,6.32,34.79,1.09C164.47,176.34,164.51,171.6,162.71,166.89Z"/><path id="_Path_76" data-name="&lt;Path&gt;" class="cls-47" d="M106.74,148.73c-4.68,1.68-8.81,7.09-7.2,11.23,1.54,4,7.77,5.18,12.13,3.73,4.76-1.58,9.09-6.92,7.58-11.11S111.32,147.09,106.74,148.73Z"/><path id="_Path_77" data-name="&lt;Path&gt;" class="cls-47" d="M139.78,158.06c-4.91,1.77-9.26,7.44-7.57,11.79,1.62,4.18,8.16,5.45,12.74,3.92,5-1.66,9.55-7.27,8-11.66S144.58,156.33,139.78,158.06Z"/><path id="_Path_78" data-name="&lt;Path&gt;" class="cls-48" d="M168.14,179.64a1.14,1.14,0,0,0,0,2.28A1.14,1.14,0,0,0,168.14,179.64Z"/><path id="_Path_79" data-name="&lt;Path&gt;" class="cls-48" d="M164.32,183.11a1.6,1.6,0,0,0,0,3.2A1.6,1.6,0,0,0,164.32,183.11Z"/><path id="_Path_80" data-name="&lt;Path&gt;" class="cls-48" d="M98.64,175.35a1.77,1.77,0,0,0,0,3.54A1.77,1.77,0,0,0,98.64,175.35Z"/><path id="_Path_81" data-name="&lt;Path&gt;" class="cls-48" d="M103.39,176.9a1.2,1.2,0,0,0,0,2.39A1.2,1.2,0,0,0,103.39,176.9Z"/><path id="_Path_82" data-name="&lt;Path&gt;" class="cls-49" d="M160.22,153.55a1.44,1.44,0,0,0-1.69,2.34A1.44,1.44,0,0,0,160.22,153.55Z"/><path id="_Path_83" data-name="&lt;Path&gt;" class="cls-49" d="M163.72,157.71a1,1,0,0,0-1.16,1.61A1,1,0,0,0,163.72,157.71Z"/><g id="_Group_17" data-name="&lt;Group&gt;"><path id="_Path_84" data-name="&lt;Path&gt;" class="cls-50" d="M205.48,159.28s-5.33-3.69-3-6,11.23-3.1,14.34,4c3.76,8.61-5,15.47-7,13.33s-.95-6.23-.95-6.23-8.78,8.39-12,3.07C193.42,161.88,205.48,159.28,205.48,159.28Z"/><g id="_Group_18" data-name="&lt;Group&gt;"><path id="_Path_85" data-name="&lt;Path&gt;" class="cls-51" d="M183.06,174.8s-1.53,5.4-4.74,4.09-6.4-9.51-.79-15.52c6.79-7.27,15.65-2.35,14.41.5a10.4,10.4,0,0,1-4.36,4.43s10.69,4.74,6.89,10.12C190.45,184.11,183.06,174.8,183.06,174.8Z"/><path id="_Path_86" data-name="&lt;Path&gt;" class="cls-52" d="M184.51,168.3s7,2.94,10.74,7.2c-.6-4.07-7.67-7.2-7.67-7.2a10.4,10.4,0,0,0,4.36-4.43c.88-2-3.38-5.12-8.37-4.07,1.87.23,6.71,1.06,6.44,3.19C189.67,165.64,184.51,168.3,184.51,168.3Z"/><path id="_Path_87" data-name="&lt;Path&gt;" class="cls-53" d="M175.68,168.82s-.13,8.55,3.33,8.73c2.27.13,3.7-4.6,3.7-4.6s5.43,4.84,6.11,3.55C189.93,174.37,177.26,162.48,175.68,168.82Z"/></g><g id="_Group_19" data-name="&lt;Group&gt;"><path id="_Path_88" data-name="&lt;Path&gt;" class="cls-52" d="M213.92,122.87s-6.13-2.13-5.09-5,7.95-5.58,15-.29,2.63,13.83.07,12.83a9.22,9.22,0,0,1-4.08-3.72s-2.67,11.61-9.24,7.05S213.92,122.87,213.92,122.87Z"/><path id="_Path_89" data-name="&lt;Path&gt;" class="cls-51" d="M216.21,122.29s-6.63-3.08-5.6-4.91,8.36-1.51,10.36,0c3.24,2.39-7.15,11.25-8.85,10.23C210.9,126.84,216.21,122.29,216.21,122.29Z"/></g><path id="_Path_90" data-name="&lt;Path&gt;" class="cls-54" d="M168.64,129.39s.29,28.72,25.53,28.72c24,0,24-29.05,24-29.05Z"/><path id="_Path_91" data-name="&lt;Path&gt;" class="cls-55" d="M213.48,129.09l-40,.27c-.52,4.55,4.4,25.53,20.73,24.79C211.17,153.37,214.55,134.76,213.48,129.09Z"/><path id="_Path_92" data-name="&lt;Path&gt;" class="cls-54" d="M178.1,133c-1.15,2.63,1.44,16.95,15.59,17.26s18.08-15.32,16-17.57c-1.23-1.33-9.33-1-9.33.11s3.16,1.79,2.22,3.86-16.48,2-17.3.45c-1.37-2.57,3.15-2.79,2.77-4.11S178.82,131.32,178.1,133Z"/><path id="_Path_93" data-name="&lt;Path&gt;" class="cls-56" d="M182.8,136.35c-.13-.43-1.23-.62-2-.21-.29.17-.77.56-.68,1s.62.54,1,.56C182,137.69,182.94,136.8,182.8,136.35Z"/><path id="_Path_94" data-name="&lt;Path&gt;" class="cls-56" d="M185.4,140.42c-.32-.36-1.35-.1-1.85.52,0,.05-.5.63-.27,1s.94.41,1.4.18C185.38,141.81,185.71,140.78,185.4,140.42Z"/><path id="_Path_95" data-name="&lt;Path&gt;" class="cls-56" d="M189.63,142.46c-.43-.13-1.19.56-1.29,1.33-.05.37,0,1,.45,1.17a1,1,0,0,0,1-.38C190.37,143.91,190.12,142.62,189.63,142.46Z"/><path id="_Path_96" data-name="&lt;Path&gt;" class="cls-56" d="M194.89,143.15c-.45,0-.86,1-.68,1.77.1.39.39,1,.77,1s.81-.71.81-1.31S195.3,143.13,194.89,143.15Z"/><path id="_Path_97" data-name="&lt;Path&gt;" class="cls-56" d="M200,141.84c-.45.2-.55,1.34,0,2,.2.26.64.63,1,.5s.55-.77.49-1.18C201.38,142.33,200.45,141.64,200,141.84Z"/><path id="_Path_98" data-name="&lt;Path&gt;" class="cls-56" d="M204.2,138.36c-.36.32-.1,1.42.58,1.85.3.2.87.38,1.18.09s.18-.84,0-1.14C205.63,138.42,204.55,138,204.2,138.36Z"/></g><path id="_Path_99" data-name="&lt;Path&gt;" class="cls-57" d="M215.47,151c.69.74,5.18,1.13,5.74.68s-2.15-1.25-2.15-1.25,4.22-2.29,3.31-3.11-5,1.22-5,1.22,1.83-2,.86-2.54S214.78,150.26,215.47,151Z"/><path id="_Path_100" data-name="&lt;Path&gt;" class="cls-57" d="M170.68,147.43c-1.08-.38-5.77,1.58-6.09,2.32s2.8.12,2.8.12-3,4.51-1.69,4.84S170,150.9,170,150.9s-.76,3,.47,3S171.76,147.81,170.68,147.43Z"/><path id="_Path_101" data-name="&lt;Path&gt;" class="cls-58" d="M205.57,174.81c-1.75-.35-2.57,7.05-.8,7.23S207.35,175.18,205.57,174.81Z"/></g></g></g><g id="_Group_20" data-name="&lt;Group&gt;"><g id="_Group_21" data-name="&lt;Group&gt;"><path id="_Path_102" data-name="&lt;Path&gt;" class="cls-59" d="M.18,141.15c-1.93,21,12,38.45,34.56,38.57,20.64.11,35.61-17.83,33.78-38.45Z"/><path id="_Path_103" data-name="&lt;Path&gt;" class="cls-60" d="M65.89,141.27l-63.26-.12c-1.44,19,11.86,35.59,32.33,35.7C53.52,177,66.94,159.76,65.89,141.27Z"/><path id="_Path_104" data-name="&lt;Path&gt;" class="cls-61" d="M65.89,141.27H64.41c.32,17.95-12.54,33.53-29.64,33.44-18.89-.1-30.9-15.14-30.15-33.55h-2c-1.44,19,11.86,35.59,32.33,35.7C53.52,177,66.94,159.76,65.89,141.27Z"/><path id="_Path_105" data-name="&lt;Path&gt;" class="cls-62" d="M7.44,148.66c1.1,1.43,23.22-5.24,23.22-7.35a.43.43,0,0,0,0-.11l-24.34,0C6.26,144,6.75,147.75,7.44,148.66Z"/><path id="_Path_106" data-name="&lt;Path&gt;" class="cls-62" d="M31.76,145.27c-1.06-.8-22.43,5.44-23.12,6.88-1.24,2.58,5,13.55,10.23,15.18S33.22,146.38,31.76,145.27Z"/><path id="_Path_107" data-name="&lt;Path&gt;" class="cls-62" d="M37,146.65c-1.91.35-2.09,22.24-.38,24.71s14-2.51,14.77-6S39,146.29,37,146.65Z"/><path id="_Path_108" data-name="&lt;Path&gt;" class="cls-62" d="M32.82,153.51c-1.55-.52-8.91,13.11-9,15.2s8.2,4.71,9.2,2.87S34.29,154,32.82,153.51Z"/><path id="_Path_109" data-name="&lt;Path&gt;" class="cls-62" d="M60.72,148.13c.88-1.22,1.29-4.21,1.28-6.87l-23.44,0a.8.8,0,0,0,0,.15C38.4,143.09,59.11,150.33,60.72,148.13Z"/><path id="_Path_110" data-name="&lt;Path&gt;" class="cls-62" d="M40.59,145.69c-.52,1.15,11.82,16.08,13.54,16.42,2.58.5,7.17-8,5.71-10.05C58.83,150.62,41.09,144.58,40.59,145.69Z"/><path id="_Path_111" data-name="&lt;Path&gt;" class="cls-63" d="M18.75,164.37c-4.41.58-8.18-7.91-8.28-10.17-.07-1.49,1.91-3.28,3.28-4.33-2.83,1-4.9,1.85-5.11,2.28-1.24,2.58,5,13.55,10.23,15.18,3.3,1,8.09-7.44,10.85-14.18C26.88,157.25,21.8,164,18.75,164.37Z"/><path id="_Path_112" data-name="&lt;Path&gt;" class="cls-63" d="M30.15,170.28A5.12,5.12,0,0,1,26,168.82c-.57-.76-.21-4,0-5.32a22.54,22.54,0,0,0-2.18,5.21c-.13,2.09,8.2,4.71,9.2,2.87.46-.86.78-4.79.84-8.76C33.1,165,31.36,169.91,30.15,170.28Z"/><path id="_Path_113" data-name="&lt;Path&gt;" class="cls-63" d="M36.65,171.36c1.71,2.46,14-2.51,14.77-6,.33-1.54-2.13-5.54-5.12-9.45,1,2.62,2.72,7.74,2.45,9-.37,1.79-7.77,5.09-9.79,4.36-1.54-.56-2.92-6.33-3.48-9C35.52,165.45,35.9,170.27,36.65,171.36Z"/><path id="_Path_114" data-name="&lt;Path&gt;" class="cls-63" d="M6.3,141.16c0,2.81.45,6.59,1.14,7.5.52.68,5.75-.46,11.12-2.07-2.74.33-8.13.86-9,0s-.88-3.7-.73-5.4Z"/><path id="_Path_115" data-name="&lt;Path&gt;" class="cls-63" d="M59.84,152.06c-.44-.62-4-2.09-7.86-3.47,1.15.56,5.49,2.76,6,4.31.59,1.79-1.34,5.6-3.37,6.3-1.26.44-3.9-1-5.71-2.19,2.42,2.76,4.58,5,5.23,5.1C56.71,162.61,61.3,154.16,59.84,152.06Z"/><path id="_Path_116" data-name="&lt;Path&gt;" class="cls-63" d="M16.6,151.59c-.47-1.05,5.86-3.29,6.33-2.66S17,152.46,16.6,151.59Z"/><path id="_Path_117" data-name="&lt;Path&gt;" class="cls-63" d="M15.62,158.3c-.5-.77,6.18-4.71,6.81-4.23S16.32,159.42,15.62,158.3Z"/><path id="_Path_118" data-name="&lt;Path&gt;" class="cls-63" d="M37.92,153.2c-.79,0,.42,9.65,1.53,9.5S38.79,153.21,37.92,153.2Z"/><path id="_Path_119" data-name="&lt;Path&gt;" class="cls-63" d="M42.71,158.61c-.87.15.36,5.77,1.39,5.38S43.58,158.45,42.71,158.61Z"/><path id="_Path_120" data-name="&lt;Path&gt;" class="cls-63" d="M47,149.3c-.26.63,4.16,5.08,5.11,3.9S47.27,148.51,47,149.3Z"/><path id="_Path_121" data-name="&lt;Path&gt;" class="cls-63" d="M48.48,142.82c-.07-.87,7.8-.74,7.66.2C56.06,143.57,48.55,143.61,48.48,142.82Z"/><path id="_Path_122" data-name="&lt;Path&gt;" class="cls-63" d="M15.78,142.8c0-1,7.11-1.15,7.11-.43S15.77,143.52,15.78,142.8Z"/></g></g></g><g id="_Group_22" data-name="&lt;Group&gt;"><g id="_Group_23" data-name="&lt;Group&gt;"><path id="_Path_123" data-name="&lt;Path&gt;" class="cls-64" d="M64.48,165.33c5.55,1.88,11.41,24.13-12.35,28.49-9.44,1.73-21.55.3-26.06-4.21-3.87-3.87-3.45-17-1.19-18.57C29.72,167.65,57.19,162.87,64.48,165.33Z"/><path id="_Path_124" data-name="&lt;Path&gt;" class="cls-65" d="M66.85,163.19c5.54,1.88,10,25.62-13.67,30.48S21,174.55,25.44,170.59,59.56,160.73,66.85,163.19Z"/><path id="_Path_125" data-name="&lt;Path&gt;" class="cls-66" d="M66.85,163.19c-.18-.06-.38-.11-.58-.16a31,31,0,0,1,.44,3.94c.25,5.59-2.68,12-6.56,15.87a23.16,23.16,0,0,1-15.85,6.57,23.25,23.25,0,0,1-15.84-6.57,18,18,0,0,1-3.26-4.05c2.71,8,11.79,18.2,28,14.88C76.84,188.81,72.39,165.07,66.85,163.19Z"/><path id="_Path_126" data-name="&lt;Path&gt;" class="cls-67" d="M25.44,170.59a6.48,6.48,0,0,1,1.18-.8l0,0c-1.42,5.64,3.14,26.14,26.05,21.44,22-4.52,17.1-24.31,13.52-28.25.17.19.48.12.69.19,5.54,1.88,10,25.62-13.67,30.48S21,174.55,25.44,170.59Z"/><path id="_Path_127" data-name="&lt;Path&gt;" class="cls-67" d="M57.8,164.74c.6,1-1.63,11.7-11.76,12.49-7.91.62-8.33-8.57-5-10.1C44.66,165.47,57.32,163.92,57.8,164.74Z"/><path id="_Path_128" data-name="&lt;Path&gt;" class="cls-68" d="M51.38,168c.17.71-2.25,3.67-4.34,3.46a1.87,1.87,0,0,1-.91-3.17C46.88,167.47,51.11,166.89,51.38,168Z"/></g><path id="_Path_129" data-name="&lt;Path&gt;" class="cls-69" d="M50,168.15c-.11-.55-3.4.16-3.43.91S50.08,168.67,50,168.15Z"/></g></g></g></g></svg>